G75*
%MOIN*%
%OFA0B0*%
%FSLAX25Y25*%
%IPPOS*%
%LPD*%
%AMOC8*
5,1,8,0,0,1.08239X$1,22.5*
%
%ADD10R,0.02362X0.01969*%
%ADD11C,0.00787*%
%ADD12R,0.01969X0.02362*%
%ADD13C,0.02362*%
%ADD14C,0.04724*%
D10*
G36*
X0016948Y0090379D02*
X0018129Y0088335D01*
X0016426Y0087351D01*
X0015245Y0089395D01*
X0016948Y0090379D01*
G37*
G36*
X0020016Y0092151D02*
X0021197Y0090107D01*
X0019494Y0089123D01*
X0018313Y0091167D01*
X0020016Y0092151D01*
G37*
G36*
X0078955Y0126206D02*
X0080136Y0124162D01*
X0078433Y0123178D01*
X0077252Y0125222D01*
X0078955Y0126206D01*
G37*
G36*
X0082024Y0127978D02*
X0083205Y0125934D01*
X0081502Y0124950D01*
X0080321Y0126994D01*
X0082024Y0127978D01*
G37*
G36*
X0116805Y0125092D02*
X0118849Y0123911D01*
X0117865Y0122208D01*
X0115821Y0123389D01*
X0116805Y0125092D01*
G37*
G36*
X0118577Y0128160D02*
X0120621Y0126979D01*
X0119637Y0125276D01*
X0117593Y0126457D01*
X0118577Y0128160D01*
G37*
X0137512Y0094279D03*
X0137512Y0090735D03*
G36*
X0156372Y0123911D02*
X0158416Y0125092D01*
X0159400Y0123389D01*
X0157356Y0122208D01*
X0156372Y0123911D01*
G37*
G36*
X0154601Y0126979D02*
X0156645Y0128160D01*
X0157629Y0126457D01*
X0155585Y0125276D01*
X0154601Y0126979D01*
G37*
G36*
X0191622Y0125934D02*
X0192803Y0127978D01*
X0194506Y0126994D01*
X0193325Y0124950D01*
X0191622Y0125934D01*
G37*
G36*
X0194691Y0124162D02*
X0195872Y0126206D01*
X0197575Y0125222D01*
X0196394Y0123178D01*
X0194691Y0124162D01*
G37*
G36*
X0193000Y0189123D02*
X0191819Y0191167D01*
X0193522Y0192151D01*
X0194703Y0190107D01*
X0193000Y0189123D01*
G37*
G36*
X0196069Y0190894D02*
X0194888Y0192938D01*
X0196591Y0193922D01*
X0197772Y0191878D01*
X0196069Y0190894D01*
G37*
G36*
X0158219Y0192206D02*
X0156175Y0193387D01*
X0157159Y0195090D01*
X0159203Y0193909D01*
X0158219Y0192206D01*
G37*
G36*
X0156448Y0189137D02*
X0154404Y0190318D01*
X0155388Y0192021D01*
X0157432Y0190840D01*
X0156448Y0189137D01*
G37*
X0137512Y0222822D03*
X0137512Y0226365D03*
G36*
X0118652Y0193190D02*
X0116608Y0192009D01*
X0115624Y0193712D01*
X0117668Y0194893D01*
X0118652Y0193190D01*
G37*
G36*
X0120424Y0190121D02*
X0118380Y0188940D01*
X0117396Y0190643D01*
X0119440Y0191824D01*
X0120424Y0190121D01*
G37*
G36*
X0083205Y0191364D02*
X0082024Y0189320D01*
X0080321Y0190304D01*
X0081502Y0192348D01*
X0083205Y0191364D01*
G37*
G36*
X0080136Y0193135D02*
X0078955Y0191091D01*
X0077252Y0192075D01*
X0078433Y0194119D01*
X0080136Y0193135D01*
G37*
G36*
X0021197Y0227190D02*
X0020016Y0225146D01*
X0018313Y0226130D01*
X0019494Y0228174D01*
X0021197Y0227190D01*
G37*
G36*
X0018129Y0228962D02*
X0016948Y0226918D01*
X0015245Y0227902D01*
X0016426Y0229946D01*
X0018129Y0228962D01*
G37*
X0137512Y0294475D03*
X0137512Y0298019D03*
G36*
X0255008Y0224950D02*
X0253827Y0226994D01*
X0255530Y0227978D01*
X0256711Y0225934D01*
X0255008Y0224950D01*
G37*
G36*
X0258077Y0226721D02*
X0256896Y0228765D01*
X0258599Y0229749D01*
X0259780Y0227705D01*
X0258077Y0226721D01*
G37*
G36*
X0253827Y0090107D02*
X0255008Y0092151D01*
X0256711Y0091167D01*
X0255530Y0089123D01*
X0253827Y0090107D01*
G37*
G36*
X0256896Y0088335D02*
X0258077Y0090379D01*
X0259780Y0089395D01*
X0258599Y0087351D01*
X0256896Y0088335D01*
G37*
X0137512Y0022625D03*
X0137512Y0019082D03*
D11*
X0012161Y0077981D02*
X0008920Y0078754D01*
X0004066Y0080586D01*
X0003247Y0081012D01*
X0003374Y0083009D01*
X0004534Y0088665D01*
X0005718Y0091979D01*
X0007460Y0095429D01*
X0009853Y0098813D01*
X0012919Y0101959D01*
X0015997Y0104531D01*
X0019033Y0106551D01*
X0022152Y0108137D01*
X0025462Y0109393D01*
X0047275Y0114572D01*
X0047424Y0114512D01*
X0047934Y0114729D01*
X0048473Y0114857D01*
X0048557Y0114994D01*
X0049781Y0115514D01*
X0049890Y0115485D01*
X0050409Y0115781D01*
X0050959Y0116015D01*
X0051001Y0116120D01*
X0052027Y0116706D01*
X0052227Y0116695D01*
X0052613Y0117040D01*
X0053062Y0117297D01*
X0053092Y0117407D01*
X0053316Y0117671D01*
X0053482Y0117820D01*
X0053559Y0117837D01*
X0053637Y0117959D01*
X0053750Y0118059D01*
X0053754Y0118141D01*
X0053874Y0118328D01*
X0054005Y0118482D01*
X0054081Y0118509D01*
X0054147Y0118649D01*
X0054252Y0118773D01*
X0054245Y0118858D01*
X0054331Y0119040D01*
X0054431Y0119196D01*
X0054505Y0119234D01*
X0054555Y0119389D01*
X0054648Y0119534D01*
X0054629Y0119619D01*
X0054686Y0119794D01*
X0054760Y0119951D01*
X0054829Y0119997D01*
X0054861Y0120166D01*
X0054938Y0120328D01*
X0054908Y0120410D01*
X0054940Y0120579D01*
X0054991Y0120735D01*
X0055054Y0120790D01*
X0055066Y0120968D01*
X0055123Y0121142D01*
X0055083Y0121219D01*
X0055095Y0121383D01*
X0055125Y0121539D01*
X0055181Y0121602D01*
X0055171Y0121784D01*
X0055206Y0121966D01*
X0055158Y0122037D01*
X0055150Y0122196D01*
X0055161Y0122355D01*
X0055209Y0122424D01*
X0055178Y0122606D01*
X0055190Y0122790D01*
X0055135Y0122854D01*
X0055107Y0123011D01*
X0055099Y0123173D01*
X0055139Y0123248D01*
X0055086Y0123424D01*
X0055076Y0123605D01*
X0055014Y0123661D01*
X0054967Y0123817D01*
X0054938Y0123984D01*
X0054968Y0124064D01*
X0054895Y0124229D01*
X0054865Y0124402D01*
X0054797Y0124450D01*
X0054728Y0124606D01*
X0054676Y0124779D01*
X0054696Y0124861D01*
X0054606Y0125011D01*
X0054557Y0125173D01*
X0054485Y0125211D01*
X0054392Y0125367D01*
X0054312Y0125547D01*
X0054321Y0125629D01*
X0054217Y0125760D01*
X0054153Y0125907D01*
X0054078Y0125936D01*
X0053956Y0126090D01*
X0053844Y0126275D01*
X0053843Y0126355D01*
X0053730Y0126465D01*
X0053652Y0126594D01*
X0053577Y0126613D01*
X0053422Y0126763D01*
X0053235Y0126999D01*
X0053215Y0127099D01*
X0053088Y0127184D01*
X0053057Y0127223D01*
X0053025Y0127226D01*
X0052762Y0127402D01*
X0052371Y0127781D01*
X0052200Y0127778D01*
X0048615Y0130176D01*
X0048300Y0130477D01*
X0048002Y0130842D01*
X0047753Y0131240D01*
X0047556Y0131666D01*
X0047412Y0132115D01*
X0047334Y0132534D01*
X0047329Y0137848D01*
X0052002Y0141158D01*
X0052400Y0141340D01*
X0052863Y0141483D01*
X0053338Y0141564D01*
X0053820Y0141585D01*
X0054303Y0141544D01*
X0054735Y0141450D01*
X0060335Y0139092D01*
X0060398Y0138981D01*
X0060962Y0138828D01*
X0061156Y0138746D01*
X0061184Y0138706D01*
X0061296Y0138687D01*
X0061500Y0138601D01*
X0061589Y0138637D01*
X0061791Y0138603D01*
X0061945Y0138561D01*
X0061990Y0138509D01*
X0062190Y0138495D01*
X0062385Y0138442D01*
X0062445Y0138476D01*
X0062604Y0138464D01*
X0062759Y0138438D01*
X0062808Y0138390D01*
X0063011Y0138395D01*
X0063211Y0138361D01*
X0063267Y0138401D01*
X0063424Y0138404D01*
X0063581Y0138393D01*
X0063635Y0138350D01*
X0063836Y0138374D01*
X0064038Y0138359D01*
X0064090Y0138404D01*
X0064246Y0138422D01*
X0064405Y0138426D01*
X0064463Y0138389D01*
X0064661Y0138432D01*
X0064862Y0138436D01*
X0064909Y0138486D01*
X0065065Y0138520D01*
X0065294Y0138547D01*
X0065396Y0138502D01*
X0065608Y0138584D01*
X0065676Y0138592D01*
X0065697Y0138619D01*
X0065923Y0138706D01*
X0066475Y0138826D01*
X0066556Y0138952D01*
X0070351Y0140424D01*
X0070552Y0140384D01*
X0070979Y0140668D01*
X0071457Y0140854D01*
X0071540Y0141042D01*
X0071640Y0141108D01*
X0071785Y0141101D01*
X0072205Y0141484D01*
X0072678Y0141799D01*
X0072707Y0141941D01*
X0072740Y0141972D01*
X0072883Y0141986D01*
X0073242Y0142429D01*
X0073664Y0142813D01*
X0073670Y0142956D01*
X0073694Y0142985D01*
X0073833Y0143021D01*
X0074122Y0143513D01*
X0074482Y0143956D01*
X0074467Y0144098D01*
X0074486Y0144130D01*
X0074618Y0144187D01*
X0074831Y0144715D01*
X0075120Y0145206D01*
X0075084Y0145345D01*
X0075101Y0145387D01*
X0075224Y0145464D01*
X0075354Y0146017D01*
X0075566Y0146545D01*
X0075510Y0146678D01*
X0075538Y0146800D01*
X0075688Y0146947D01*
X0075692Y0147455D01*
X0075808Y0147950D01*
X0075698Y0148129D01*
X0075779Y0158216D01*
X0075792Y0158229D01*
X0075788Y0158692D01*
X0075910Y0159139D01*
X0075788Y0159353D01*
X0075790Y0159596D01*
X0075780Y0159607D01*
X0075698Y0168984D01*
X0075809Y0169163D01*
X0075693Y0169658D01*
X0075688Y0170167D01*
X0075538Y0170314D01*
X0075510Y0170435D01*
X0075567Y0170568D01*
X0075354Y0171096D01*
X0075224Y0171649D01*
X0075101Y0171725D01*
X0075084Y0171767D01*
X0075120Y0171906D01*
X0074830Y0172397D01*
X0074617Y0172926D01*
X0074485Y0172982D01*
X0074466Y0173014D01*
X0074481Y0173157D01*
X0074121Y0173599D01*
X0073831Y0174090D01*
X0073693Y0174126D01*
X0073669Y0174155D01*
X0073662Y0174298D01*
X0073241Y0174682D01*
X0072881Y0175124D01*
X0072738Y0175139D01*
X0072705Y0175169D01*
X0072676Y0175311D01*
X0072203Y0175626D01*
X0071782Y0176008D01*
X0071637Y0176001D01*
X0071538Y0176067D01*
X0071456Y0176254D01*
X0070977Y0176440D01*
X0070549Y0176724D01*
X0070348Y0176683D01*
X0066556Y0178154D01*
X0066475Y0178279D01*
X0065923Y0178399D01*
X0065697Y0178487D01*
X0065676Y0178513D01*
X0065607Y0178521D01*
X0065396Y0178603D01*
X0065294Y0178559D01*
X0065065Y0178586D01*
X0064910Y0178620D01*
X0064862Y0178669D01*
X0064661Y0178674D01*
X0064464Y0178717D01*
X0064406Y0178679D01*
X0064247Y0178683D01*
X0064091Y0178701D01*
X0064039Y0178746D01*
X0063837Y0178732D01*
X0063635Y0178755D01*
X0063581Y0178713D01*
X0063424Y0178701D01*
X0063267Y0178705D01*
X0063211Y0178745D01*
X0063011Y0178711D01*
X0062809Y0178715D01*
X0062759Y0178668D01*
X0062604Y0178641D01*
X0062445Y0178630D01*
X0062386Y0178664D01*
X0062190Y0178611D01*
X0061990Y0178596D01*
X0061945Y0178544D01*
X0061792Y0178503D01*
X0061589Y0178468D01*
X0061501Y0178504D01*
X0061296Y0178418D01*
X0061185Y0178399D01*
X0061157Y0178359D01*
X0060963Y0178278D01*
X0060399Y0178125D01*
X0060335Y0178014D01*
X0054735Y0175656D01*
X0054303Y0175562D01*
X0053820Y0175520D01*
X0053338Y0175541D01*
X0052863Y0175623D01*
X0052400Y0175765D01*
X0052001Y0175947D01*
X0047324Y0179260D01*
X0047304Y0184284D01*
X0047361Y0184759D01*
X0047477Y0185217D01*
X0047648Y0185655D01*
X0047871Y0186068D01*
X0048145Y0186450D01*
X0048465Y0186797D01*
X0048839Y0187111D01*
X0052152Y0189300D01*
X0052328Y0189297D01*
X0052716Y0189673D01*
X0052994Y0189857D01*
X0053019Y0189860D01*
X0053041Y0189887D01*
X0053166Y0189970D01*
X0053187Y0190072D01*
X0053383Y0190319D01*
X0053543Y0190475D01*
X0053617Y0190493D01*
X0053693Y0190620D01*
X0053804Y0190727D01*
X0053805Y0190806D01*
X0053920Y0190997D01*
X0054046Y0191157D01*
X0054119Y0191185D01*
X0054183Y0191329D01*
X0054285Y0191458D01*
X0054276Y0191539D01*
X0054358Y0191725D01*
X0054455Y0191886D01*
X0054525Y0191924D01*
X0054573Y0192083D01*
X0054662Y0192231D01*
X0054642Y0192312D01*
X0054696Y0192492D01*
X0054768Y0192653D01*
X0054834Y0192700D01*
X0054864Y0192871D01*
X0054936Y0193034D01*
X0054906Y0193112D01*
X0054936Y0193286D01*
X0054984Y0193447D01*
X0055046Y0193503D01*
X0055055Y0193681D01*
X0055107Y0193855D01*
X0055068Y0193928D01*
X0055076Y0194097D01*
X0055105Y0194260D01*
X0055159Y0194323D01*
X0055147Y0194505D01*
X0055178Y0194684D01*
X0055130Y0194752D01*
X0055118Y0194917D01*
X0055127Y0195082D01*
X0055174Y0195152D01*
X0055140Y0195332D01*
X0055149Y0195511D01*
X0055093Y0195573D01*
X0055062Y0195735D01*
X0055050Y0195905D01*
X0055089Y0195982D01*
X0055033Y0196154D01*
X0055021Y0196328D01*
X0054959Y0196382D01*
X0054906Y0196544D01*
X0054872Y0196720D01*
X0054901Y0196801D01*
X0054826Y0196960D01*
X0054794Y0197126D01*
X0054726Y0197172D01*
X0054649Y0197334D01*
X0054590Y0197516D01*
X0054608Y0197599D01*
X0054516Y0197741D01*
X0054467Y0197894D01*
X0054394Y0197931D01*
X0054290Y0198092D01*
X0054201Y0198281D01*
X0054208Y0198364D01*
X0054104Y0198485D01*
X0054040Y0198622D01*
X0053965Y0198649D01*
X0053829Y0198808D01*
X0053704Y0199001D01*
X0053700Y0199081D01*
X0053590Y0199179D01*
X0053513Y0199299D01*
X0053437Y0199315D01*
X0053266Y0199468D01*
X0053100Y0199662D01*
X0053086Y0199734D01*
X0052974Y0199809D01*
X0052888Y0199910D01*
X0052815Y0199916D01*
X0052603Y0200058D01*
X0052407Y0200233D01*
X0052389Y0200287D01*
X0052289Y0200338D01*
X0052170Y0200445D01*
X0052090Y0200440D01*
X0051859Y0200558D01*
X0051364Y0200890D01*
X0051251Y0200867D01*
X0050388Y0201307D01*
X0050352Y0201391D01*
X0049778Y0201618D01*
X0049228Y0201898D01*
X0049142Y0201870D01*
X0047869Y0202374D01*
X0047799Y0202488D01*
X0047237Y0202625D01*
X0046698Y0202838D01*
X0046576Y0202785D01*
X0023726Y0208327D01*
X0020573Y0209715D01*
X0017513Y0211503D01*
X0014468Y0213786D01*
X0011342Y0216663D01*
X0008566Y0219969D01*
X0006515Y0223403D01*
X0005059Y0226824D01*
X0004108Y0230016D01*
X0003268Y0235137D01*
X0003227Y0236059D01*
X0005020Y0236948D01*
X0010498Y0238771D01*
X0013960Y0239402D01*
X0017819Y0239619D01*
X0021947Y0239238D01*
X0026203Y0238156D01*
X0029970Y0236776D01*
X0033237Y0235158D01*
X0036171Y0233250D01*
X0038913Y0231011D01*
X0054296Y0214718D01*
X0054318Y0214559D01*
X0054761Y0214225D01*
X0055142Y0213822D01*
X0055302Y0213817D01*
X0056362Y0213019D01*
X0056390Y0212910D01*
X0056907Y0212608D01*
X0057384Y0212249D01*
X0057496Y0212264D01*
X0058515Y0211669D01*
X0058605Y0211490D01*
X0059098Y0211328D01*
X0059545Y0211067D01*
X0059655Y0211096D01*
X0059996Y0211033D01*
X0060208Y0210963D01*
X0060261Y0210905D01*
X0060405Y0210898D01*
X0060549Y0210851D01*
X0060621Y0210888D01*
X0060844Y0210877D01*
X0061044Y0210840D01*
X0061105Y0210788D01*
X0061259Y0210800D01*
X0061418Y0210771D01*
X0061488Y0210819D01*
X0061690Y0210836D01*
X0061876Y0210827D01*
X0061945Y0210782D01*
X0062105Y0210815D01*
X0062276Y0210807D01*
X0062340Y0210865D01*
X0062522Y0210904D01*
X0062695Y0210918D01*
X0062770Y0210881D01*
X0062931Y0210937D01*
X0063109Y0210952D01*
X0063166Y0211018D01*
X0063329Y0211074D01*
X0063491Y0211108D01*
X0063570Y0211081D01*
X0063729Y0211159D01*
X0063909Y0211197D01*
X0063956Y0211269D01*
X0064104Y0211341D01*
X0064255Y0211394D01*
X0064338Y0211376D01*
X0064491Y0211475D01*
X0064665Y0211535D01*
X0064703Y0211612D01*
X0064837Y0211699D01*
X0064981Y0211769D01*
X0065066Y0211762D01*
X0065207Y0211879D01*
X0065372Y0211960D01*
X0065400Y0212040D01*
X0065523Y0212142D01*
X0065660Y0212231D01*
X0065745Y0212234D01*
X0065871Y0212368D01*
X0066023Y0212466D01*
X0066040Y0212547D01*
X0066152Y0212667D01*
X0066284Y0212776D01*
X0066368Y0212789D01*
X0066474Y0212935D01*
X0066609Y0213047D01*
X0066616Y0213129D01*
X0066717Y0213267D01*
X0066843Y0213400D01*
X0066924Y0213424D01*
X0067008Y0213576D01*
X0067123Y0213699D01*
X0067121Y0213780D01*
X0067210Y0213940D01*
X0067327Y0214100D01*
X0067403Y0214133D01*
X0067464Y0214288D01*
X0067558Y0214416D01*
X0067546Y0214495D01*
X0067619Y0214680D01*
X0067724Y0214870D01*
X0067793Y0214911D01*
X0067831Y0215062D01*
X0067904Y0215194D01*
X0067883Y0215268D01*
X0067936Y0215479D01*
X0068047Y0215760D01*
X0068124Y0215828D01*
X0068134Y0215980D01*
X0068152Y0216024D01*
X0068139Y0216054D01*
X0068160Y0216371D01*
X0068292Y0216899D01*
X0068204Y0217046D01*
X0068489Y0221352D01*
X0068591Y0221775D01*
X0068759Y0222215D01*
X0068979Y0222630D01*
X0069249Y0223014D01*
X0069566Y0223362D01*
X0069890Y0223640D01*
X0074489Y0226301D01*
X0079693Y0223909D01*
X0080050Y0223655D01*
X0080404Y0223326D01*
X0080713Y0222955D01*
X0080972Y0222548D01*
X0081177Y0222109D01*
X0081312Y0221688D01*
X0082070Y0215660D01*
X0082005Y0215549D01*
X0082155Y0214984D01*
X0082181Y0214775D01*
X0082160Y0214731D01*
X0082200Y0214625D01*
X0082227Y0214405D01*
X0082303Y0214346D01*
X0082374Y0214154D01*
X0082415Y0214000D01*
X0082392Y0213935D01*
X0082480Y0213754D01*
X0082532Y0213559D01*
X0082591Y0213524D01*
X0082660Y0213381D01*
X0082715Y0213234D01*
X0082699Y0213167D01*
X0082804Y0212994D01*
X0082874Y0212803D01*
X0082937Y0212775D01*
X0083018Y0212640D01*
X0083087Y0212499D01*
X0083077Y0212431D01*
X0083198Y0212268D01*
X0083287Y0212086D01*
X0083352Y0212063D01*
X0083446Y0211937D01*
X0083528Y0211801D01*
X0083525Y0211732D01*
X0083661Y0211583D01*
X0083765Y0211411D01*
X0083832Y0211395D01*
X0083939Y0211277D01*
X0084077Y0211092D01*
X0084089Y0210981D01*
X0084266Y0210839D01*
X0084307Y0210784D01*
X0084341Y0210779D01*
X0084530Y0210627D01*
X0084910Y0210209D01*
X0085059Y0210202D01*
X0088263Y0207626D01*
X0088329Y0207431D01*
X0088788Y0207203D01*
X0089187Y0206882D01*
X0089392Y0206904D01*
X0089490Y0206856D01*
X0089557Y0206727D01*
X0090099Y0206555D01*
X0090608Y0206303D01*
X0090746Y0206349D01*
X0090779Y0206339D01*
X0090863Y0206223D01*
X0091426Y0206133D01*
X0091969Y0205960D01*
X0092097Y0206026D01*
X0092123Y0206022D01*
X0092223Y0205920D01*
X0092794Y0205915D01*
X0093357Y0205825D01*
X0093473Y0205909D01*
X0093500Y0205909D01*
X0093615Y0205823D01*
X0094179Y0205903D01*
X0094749Y0205898D01*
X0094851Y0205999D01*
X0094886Y0206004D01*
X0095013Y0205935D01*
X0095558Y0206100D01*
X0096121Y0206180D01*
X0096208Y0206296D01*
X0096317Y0206329D01*
X0096520Y0206273D01*
X0096962Y0206523D01*
X0097449Y0206670D01*
X0097548Y0206855D01*
X0106354Y0211847D01*
X0106372Y0211842D01*
X0106767Y0212075D01*
X0107211Y0212189D01*
X0107339Y0212405D01*
X0107555Y0212527D01*
X0107559Y0212541D01*
X0115651Y0217306D01*
X0115861Y0217300D01*
X0116232Y0217648D01*
X0116671Y0217906D01*
X0116723Y0218109D01*
X0116807Y0218188D01*
X0116950Y0218205D01*
X0117302Y0218652D01*
X0117716Y0219042D01*
X0117721Y0219187D01*
X0117743Y0219215D01*
X0117881Y0219253D01*
X0118162Y0219749D01*
X0118514Y0220197D01*
X0118497Y0220340D01*
X0118511Y0220364D01*
X0118642Y0220422D01*
X0118846Y0220955D01*
X0119128Y0221452D01*
X0119090Y0221589D01*
X0119100Y0221616D01*
X0119221Y0221693D01*
X0119343Y0222250D01*
X0119548Y0222782D01*
X0119489Y0222913D01*
X0119497Y0222948D01*
X0119606Y0223043D01*
X0119643Y0223611D01*
X0119765Y0224166D01*
X0119687Y0224288D01*
X0119695Y0224400D01*
X0119817Y0224566D01*
X0119739Y0225072D01*
X0119772Y0225583D01*
X0119636Y0225738D01*
X0119008Y0229803D01*
X0119077Y0229935D01*
X0118905Y0230473D01*
X0118868Y0230713D01*
X0118880Y0230744D01*
X0118853Y0230807D01*
X0118819Y0231031D01*
X0118729Y0231097D01*
X0118637Y0231310D01*
X0118589Y0231461D01*
X0118608Y0231527D01*
X0118512Y0231703D01*
X0118450Y0231896D01*
X0118389Y0231928D01*
X0118312Y0232067D01*
X0118250Y0232211D01*
X0118263Y0232279D01*
X0118150Y0232446D01*
X0118070Y0232633D01*
X0118005Y0232659D01*
X0117917Y0232788D01*
X0117842Y0232926D01*
X0117848Y0232995D01*
X0117719Y0233151D01*
X0117621Y0233329D01*
X0117555Y0233348D01*
X0117455Y0233469D01*
X0117366Y0233600D01*
X0117365Y0233669D01*
X0117222Y0233812D01*
X0117109Y0233978D01*
X0117042Y0233991D01*
X0116929Y0234103D01*
X0116798Y0234261D01*
X0116785Y0234356D01*
X0116608Y0234490D01*
X0116536Y0234577D01*
X0116487Y0234581D01*
X0116319Y0234709D01*
X0115905Y0235120D01*
X0115777Y0235120D01*
X0110935Y0238791D01*
X0110637Y0239118D01*
X0110360Y0239515D01*
X0110137Y0239943D01*
X0109970Y0240396D01*
X0109862Y0240868D01*
X0109820Y0241304D01*
X0110351Y0247011D01*
X0114691Y0249541D01*
X0115132Y0249728D01*
X0115586Y0249857D01*
X0116051Y0249928D01*
X0116520Y0249941D01*
X0116988Y0249895D01*
X0117449Y0249791D01*
X0117907Y0249625D01*
X0121460Y0247850D01*
X0121546Y0247695D01*
X0122065Y0247548D01*
X0122365Y0247398D01*
X0122379Y0247379D01*
X0122414Y0247374D01*
X0122548Y0247307D01*
X0122647Y0247339D01*
X0122959Y0247293D01*
X0123175Y0247232D01*
X0123227Y0247178D01*
X0123375Y0247175D01*
X0123523Y0247133D01*
X0123591Y0247171D01*
X0123815Y0247167D01*
X0124018Y0247137D01*
X0124079Y0247088D01*
X0124235Y0247105D01*
X0124397Y0247082D01*
X0124463Y0247130D01*
X0124666Y0247152D01*
X0124854Y0247149D01*
X0124922Y0247107D01*
X0125084Y0247145D01*
X0125256Y0247142D01*
X0125316Y0247200D01*
X0125499Y0247243D01*
X0125675Y0247262D01*
X0125749Y0247228D01*
X0125911Y0247288D01*
X0126088Y0247307D01*
X0126141Y0247372D01*
X0126307Y0247433D01*
X0126472Y0247472D01*
X0126550Y0247447D01*
X0126709Y0247528D01*
X0126885Y0247570D01*
X0126929Y0247641D01*
X0127080Y0247718D01*
X0127236Y0247776D01*
X0127318Y0247760D01*
X0127468Y0247861D01*
X0127638Y0247924D01*
X0127673Y0248000D01*
X0127811Y0248093D01*
X0127959Y0248168D01*
X0128043Y0248162D01*
X0128181Y0248282D01*
X0128341Y0248364D01*
X0128366Y0248443D01*
X0128492Y0248552D01*
X0128633Y0248647D01*
X0128718Y0248652D01*
X0128839Y0248787D01*
X0128984Y0248884D01*
X0129000Y0248965D01*
X0129114Y0249093D01*
X0129249Y0249210D01*
X0129334Y0249226D01*
X0129434Y0249370D01*
X0129561Y0249481D01*
X0129566Y0249563D01*
X0129668Y0249711D01*
X0129797Y0249854D01*
X0129878Y0249880D01*
X0129955Y0250030D01*
X0130062Y0250149D01*
X0130058Y0250230D01*
X0130145Y0250402D01*
X0130264Y0250574D01*
X0130340Y0250610D01*
X0130393Y0250760D01*
X0130479Y0250884D01*
X0130464Y0250962D01*
X0130534Y0251160D01*
X0130639Y0251365D01*
X0130706Y0251409D01*
X0130736Y0251553D01*
X0130800Y0251679D01*
X0130777Y0251752D01*
X0130823Y0251978D01*
X0130908Y0252219D01*
X0130964Y0252268D01*
X0130973Y0252402D01*
X0131017Y0252527D01*
X0130986Y0252593D01*
X0131003Y0252848D01*
X0131056Y0253106D01*
X0131094Y0253148D01*
X0131088Y0253260D01*
X0131120Y0253417D01*
X0131076Y0253484D01*
X0131063Y0253743D01*
X0131102Y0254337D01*
X0131027Y0254424D01*
X0130976Y0255390D01*
X0131030Y0255463D01*
X0130940Y0256073D01*
X0130907Y0256690D01*
X0130840Y0256751D01*
X0130640Y0258103D01*
X0130704Y0258220D01*
X0130541Y0258776D01*
X0130456Y0259349D01*
X0130349Y0259428D01*
X0123725Y0281981D01*
X0123350Y0285406D01*
X0123368Y0288949D01*
X0123824Y0292728D01*
X0124751Y0296874D01*
X0126227Y0300931D01*
X0128175Y0304425D01*
X0130410Y0307396D01*
X0132699Y0309815D01*
X0136714Y0313103D01*
X0137492Y0313599D01*
X0139158Y0312492D01*
X0143476Y0308658D01*
X0145753Y0305976D01*
X0147871Y0302743D01*
X0149605Y0298978D01*
X0150796Y0294750D01*
X0151484Y0290798D01*
X0151716Y0287160D01*
X0151530Y0283665D01*
X0150963Y0280171D01*
X0144544Y0258701D01*
X0144417Y0258602D01*
X0144350Y0258051D01*
X0144191Y0257520D01*
X0144267Y0257379D01*
X0144106Y0256062D01*
X0144026Y0255982D01*
X0144023Y0255385D01*
X0143950Y0254791D01*
X0144019Y0254702D01*
X0144013Y0253521D01*
X0143904Y0253354D01*
X0144010Y0252847D01*
X0144007Y0252329D01*
X0144087Y0252248D01*
X0144203Y0251922D01*
X0144249Y0251703D01*
X0144225Y0251628D01*
X0144292Y0251499D01*
X0144322Y0251352D01*
X0144390Y0251308D01*
X0144492Y0251109D01*
X0144560Y0250918D01*
X0144546Y0250838D01*
X0144634Y0250711D01*
X0144688Y0250559D01*
X0144765Y0250522D01*
X0144880Y0250356D01*
X0144965Y0250191D01*
X0144960Y0250108D01*
X0145070Y0249987D01*
X0145148Y0249834D01*
X0145230Y0249808D01*
X0145355Y0249670D01*
X0145453Y0249527D01*
X0145459Y0249444D01*
X0145588Y0249332D01*
X0145690Y0249185D01*
X0145776Y0249169D01*
X0145906Y0249056D01*
X0146016Y0248934D01*
X0146032Y0248851D01*
X0146180Y0248752D01*
X0146302Y0248616D01*
X0146389Y0248611D01*
X0146525Y0248519D01*
X0146646Y0248414D01*
X0146672Y0248334D01*
X0146834Y0248251D01*
X0146974Y0248130D01*
X0147059Y0248136D01*
X0147202Y0248063D01*
X0147334Y0247974D01*
X0147370Y0247897D01*
X0147542Y0247833D01*
X0147695Y0247730D01*
X0147778Y0247746D01*
X0147928Y0247691D01*
X0148074Y0247617D01*
X0148118Y0247545D01*
X0148297Y0247503D01*
X0148458Y0247420D01*
X0148538Y0247446D01*
X0148697Y0247408D01*
X0148857Y0247349D01*
X0148910Y0247283D01*
X0149090Y0247264D01*
X0149254Y0247203D01*
X0149329Y0247238D01*
X0149500Y0247220D01*
X0149677Y0247178D01*
X0149738Y0247119D01*
X0149913Y0247122D01*
X0150076Y0247084D01*
X0150145Y0247126D01*
X0150328Y0247130D01*
X0150525Y0247108D01*
X0150591Y0247059D01*
X0150756Y0247083D01*
X0150915Y0247066D01*
X0150977Y0247116D01*
X0151173Y0247145D01*
X0151391Y0247149D01*
X0151460Y0247110D01*
X0151611Y0247153D01*
X0151761Y0247156D01*
X0151815Y0247211D01*
X0152024Y0247271D01*
X0152323Y0247315D01*
X0152419Y0247282D01*
X0152556Y0247349D01*
X0152604Y0247356D01*
X0152623Y0247382D01*
X0152908Y0247523D01*
X0153432Y0247672D01*
X0153515Y0247822D01*
X0157385Y0249728D01*
X0157803Y0249850D01*
X0158268Y0249925D01*
X0158738Y0249942D01*
X0159205Y0249900D01*
X0159666Y0249800D01*
X0160068Y0249658D01*
X0164672Y0247006D01*
X0165203Y0241304D01*
X0165161Y0240867D01*
X0165053Y0240396D01*
X0164886Y0239943D01*
X0164663Y0239515D01*
X0164386Y0239118D01*
X0164088Y0238791D01*
X0159246Y0235120D01*
X0159118Y0235120D01*
X0158704Y0234709D01*
X0158536Y0234581D01*
X0158487Y0234577D01*
X0158415Y0234490D01*
X0158238Y0234356D01*
X0158225Y0234261D01*
X0158094Y0234103D01*
X0157981Y0233991D01*
X0157914Y0233978D01*
X0157801Y0233812D01*
X0157658Y0233669D01*
X0157658Y0233600D01*
X0157568Y0233469D01*
X0157468Y0233348D01*
X0157402Y0233329D01*
X0157305Y0233151D01*
X0157175Y0232995D01*
X0157181Y0232926D01*
X0157106Y0232788D01*
X0157018Y0232659D01*
X0156954Y0232633D01*
X0156874Y0232447D01*
X0156760Y0232279D01*
X0156773Y0232211D01*
X0156711Y0232067D01*
X0156634Y0231928D01*
X0156573Y0231896D01*
X0156512Y0231703D01*
X0156415Y0231527D01*
X0156434Y0231461D01*
X0156386Y0231310D01*
X0156295Y0231098D01*
X0156205Y0231032D01*
X0156170Y0230808D01*
X0156143Y0230744D01*
X0156155Y0230713D01*
X0156118Y0230474D01*
X0155946Y0229935D01*
X0156015Y0229803D01*
X0155385Y0225741D01*
X0155249Y0225587D01*
X0155282Y0225075D01*
X0155204Y0224568D01*
X0155325Y0224402D01*
X0155332Y0224294D01*
X0155254Y0224172D01*
X0155375Y0223616D01*
X0155411Y0223049D01*
X0155520Y0222953D01*
X0155528Y0222919D01*
X0155469Y0222788D01*
X0155673Y0222256D01*
X0155794Y0221699D01*
X0155915Y0221622D01*
X0155925Y0221597D01*
X0155887Y0221459D01*
X0156167Y0220962D01*
X0156371Y0220430D01*
X0156502Y0220371D01*
X0156515Y0220348D01*
X0156498Y0220206D01*
X0156849Y0219757D01*
X0157130Y0219261D01*
X0157268Y0219222D01*
X0157290Y0219196D01*
X0157294Y0219051D01*
X0157708Y0218661D01*
X0158059Y0218214D01*
X0158203Y0218196D01*
X0158286Y0218119D01*
X0158339Y0217915D01*
X0158777Y0217657D01*
X0159147Y0217309D01*
X0159358Y0217316D01*
X0168087Y0212183D01*
X0168092Y0212166D01*
X0168499Y0211935D01*
X0168829Y0211604D01*
X0169071Y0211604D01*
X0169277Y0211483D01*
X0169290Y0211487D01*
X0177482Y0206850D01*
X0177582Y0206665D01*
X0178069Y0206518D01*
X0178511Y0206268D01*
X0178714Y0206324D01*
X0178822Y0206291D01*
X0178909Y0206175D01*
X0179472Y0206096D01*
X0180017Y0205931D01*
X0180144Y0206000D01*
X0180178Y0205995D01*
X0180281Y0205895D01*
X0180851Y0205900D01*
X0181415Y0205820D01*
X0181530Y0205906D01*
X0181557Y0205906D01*
X0181672Y0205822D01*
X0182236Y0205913D01*
X0182806Y0205918D01*
X0182906Y0206020D01*
X0182933Y0206024D01*
X0183060Y0205958D01*
X0183603Y0206132D01*
X0184166Y0206222D01*
X0184250Y0206338D01*
X0184283Y0206348D01*
X0184420Y0206302D01*
X0184930Y0206555D01*
X0185471Y0206728D01*
X0185538Y0206857D01*
X0185635Y0206905D01*
X0185839Y0206882D01*
X0186239Y0207204D01*
X0186698Y0207432D01*
X0186764Y0207627D01*
X0189965Y0210202D01*
X0190113Y0210209D01*
X0190494Y0210627D01*
X0190682Y0210779D01*
X0190716Y0210784D01*
X0190757Y0210839D01*
X0190934Y0210982D01*
X0190946Y0211092D01*
X0191084Y0211277D01*
X0191191Y0211395D01*
X0191258Y0211411D01*
X0191362Y0211582D01*
X0191498Y0211732D01*
X0191495Y0211801D01*
X0191577Y0211937D01*
X0191671Y0212063D01*
X0191736Y0212085D01*
X0191825Y0212268D01*
X0191946Y0212430D01*
X0191936Y0212499D01*
X0192004Y0212640D01*
X0192086Y0212774D01*
X0192149Y0212803D01*
X0192219Y0212993D01*
X0192324Y0213166D01*
X0192308Y0213233D01*
X0192363Y0213380D01*
X0192432Y0213524D01*
X0192491Y0213558D01*
X0192543Y0213754D01*
X0192631Y0213935D01*
X0192608Y0213999D01*
X0192649Y0214153D01*
X0192720Y0214346D01*
X0192796Y0214404D01*
X0192823Y0214624D01*
X0192862Y0214730D01*
X0192842Y0214775D01*
X0192868Y0214984D01*
X0193018Y0215548D01*
X0192953Y0215659D01*
X0193712Y0221688D01*
X0193846Y0222109D01*
X0194052Y0222548D01*
X0194310Y0222955D01*
X0194619Y0223326D01*
X0194974Y0223655D01*
X0195330Y0223910D01*
X0200539Y0226303D01*
X0204899Y0223810D01*
X0205282Y0223522D01*
X0205621Y0223193D01*
X0205915Y0222826D01*
X0206160Y0222426D01*
X0206355Y0221998D01*
X0206495Y0221547D01*
X0206580Y0221067D01*
X0206819Y0217104D01*
X0206729Y0216952D01*
X0206860Y0216429D01*
X0206880Y0216097D01*
X0206870Y0216074D01*
X0206884Y0216041D01*
X0206893Y0215890D01*
X0206971Y0215821D01*
X0207086Y0215529D01*
X0207140Y0215314D01*
X0207119Y0215241D01*
X0207191Y0215111D01*
X0207229Y0214961D01*
X0207297Y0214920D01*
X0207404Y0214726D01*
X0207479Y0214537D01*
X0207466Y0214460D01*
X0207560Y0214332D01*
X0207620Y0214179D01*
X0207695Y0214146D01*
X0207815Y0213983D01*
X0207905Y0213819D01*
X0207903Y0213739D01*
X0208017Y0213618D01*
X0208101Y0213466D01*
X0208181Y0213443D01*
X0208308Y0213307D01*
X0208412Y0213165D01*
X0208419Y0213084D01*
X0208552Y0212972D01*
X0208658Y0212828D01*
X0208741Y0212815D01*
X0208875Y0212702D01*
X0208990Y0212580D01*
X0209007Y0212499D01*
X0209158Y0212401D01*
X0209282Y0212269D01*
X0209366Y0212266D01*
X0209507Y0212174D01*
X0209633Y0212069D01*
X0209660Y0211990D01*
X0209824Y0211909D01*
X0209963Y0211792D01*
X0210046Y0211800D01*
X0210194Y0211727D01*
X0210332Y0211638D01*
X0210369Y0211561D01*
X0210542Y0211501D01*
X0210693Y0211403D01*
X0210774Y0211420D01*
X0210930Y0211366D01*
X0211082Y0211291D01*
X0211129Y0211219D01*
X0211306Y0211182D01*
X0211464Y0211104D01*
X0211542Y0211131D01*
X0211708Y0211096D01*
X0211876Y0211037D01*
X0211932Y0210971D01*
X0212108Y0210957D01*
X0212267Y0210901D01*
X0212341Y0210937D01*
X0212519Y0210922D01*
X0212705Y0210882D01*
X0212769Y0210825D01*
X0212938Y0210833D01*
X0213095Y0210799D01*
X0213163Y0210843D01*
X0213354Y0210852D01*
X0213562Y0210835D01*
X0213631Y0210787D01*
X0213788Y0210816D01*
X0213939Y0210804D01*
X0214000Y0210855D01*
X0214205Y0210893D01*
X0214433Y0210904D01*
X0214505Y0210868D01*
X0214645Y0210914D01*
X0214787Y0210921D01*
X0214839Y0210978D01*
X0215057Y0211049D01*
X0215307Y0211095D01*
X0215378Y0211071D01*
X0215498Y0211131D01*
X0215629Y0211155D01*
X0215671Y0211215D01*
X0215899Y0211327D01*
X0216148Y0211409D01*
X0216204Y0211397D01*
X0216299Y0211459D01*
X0216451Y0211509D01*
X0216487Y0211580D01*
X0216704Y0211721D01*
X0217239Y0211983D01*
X0217276Y0212092D01*
X0218090Y0212620D01*
X0218181Y0212610D01*
X0218665Y0212993D01*
X0219182Y0213328D01*
X0219201Y0213418D01*
X0220277Y0214269D01*
X0220411Y0214272D01*
X0220810Y0214691D01*
X0221264Y0215051D01*
X0221279Y0215183D01*
X0237510Y0232206D01*
X0240289Y0234244D01*
X0243367Y0236000D01*
X0246867Y0237495D01*
X0250921Y0238764D01*
X0255172Y0239515D01*
X0259172Y0239574D01*
X0262862Y0239125D01*
X0266103Y0238352D01*
X0270957Y0236519D01*
X0271776Y0236093D01*
X0271650Y0234097D01*
X0270489Y0228440D01*
X0269305Y0225127D01*
X0267563Y0221677D01*
X0265170Y0218292D01*
X0262104Y0215147D01*
X0259026Y0212575D01*
X0255991Y0210555D01*
X0252872Y0208968D01*
X0249562Y0207712D01*
X0227749Y0202533D01*
X0227599Y0202593D01*
X0227089Y0202376D01*
X0226550Y0202248D01*
X0226466Y0202111D01*
X0225242Y0201591D01*
X0225133Y0201621D01*
X0224614Y0201324D01*
X0224064Y0201090D01*
X0224022Y0200986D01*
X0222996Y0200400D01*
X0222796Y0200411D01*
X0222411Y0200065D01*
X0221961Y0199808D01*
X0221931Y0199698D01*
X0221707Y0199434D01*
X0221541Y0199286D01*
X0221464Y0199269D01*
X0221386Y0199147D01*
X0221274Y0199046D01*
X0221269Y0198965D01*
X0221149Y0198777D01*
X0221018Y0198623D01*
X0220942Y0198596D01*
X0220876Y0198456D01*
X0220771Y0198332D01*
X0220778Y0198248D01*
X0220692Y0198065D01*
X0220592Y0197909D01*
X0220519Y0197872D01*
X0220468Y0197716D01*
X0220375Y0197572D01*
X0220394Y0197487D01*
X0220337Y0197311D01*
X0220263Y0197155D01*
X0220194Y0197108D01*
X0220162Y0196940D01*
X0220086Y0196778D01*
X0220115Y0196696D01*
X0220083Y0196527D01*
X0220032Y0196371D01*
X0219969Y0196315D01*
X0219957Y0196138D01*
X0219900Y0195963D01*
X0219940Y0195886D01*
X0219929Y0195723D01*
X0219899Y0195566D01*
X0219842Y0195503D01*
X0219852Y0195321D01*
X0219817Y0195139D01*
X0219865Y0195068D01*
X0219873Y0194909D01*
X0219863Y0194750D01*
X0219814Y0194681D01*
X0219846Y0194499D01*
X0219833Y0194315D01*
X0219889Y0194251D01*
X0219916Y0194095D01*
X0219924Y0193932D01*
X0219884Y0193858D01*
X0219938Y0193681D01*
X0219947Y0193500D01*
X0220009Y0193444D01*
X0220056Y0193289D01*
X0220086Y0193121D01*
X0220055Y0193042D01*
X0220128Y0192876D01*
X0220158Y0192703D01*
X0220226Y0192655D01*
X0220295Y0192500D01*
X0220347Y0192326D01*
X0220327Y0192244D01*
X0220417Y0192094D01*
X0220466Y0191932D01*
X0220538Y0191894D01*
X0220632Y0191738D01*
X0220711Y0191559D01*
X0220702Y0191476D01*
X0220806Y0191345D01*
X0220871Y0191198D01*
X0220945Y0191170D01*
X0221067Y0191015D01*
X0221179Y0190830D01*
X0221180Y0190750D01*
X0221293Y0190641D01*
X0221371Y0190511D01*
X0221446Y0190493D01*
X0221601Y0190342D01*
X0221788Y0190107D01*
X0221808Y0190006D01*
X0221935Y0189921D01*
X0221966Y0189883D01*
X0221998Y0189879D01*
X0222261Y0189703D01*
X0222652Y0189324D01*
X0222823Y0189327D01*
X0226409Y0186929D01*
X0226724Y0186628D01*
X0227021Y0186263D01*
X0227270Y0185865D01*
X0227468Y0185439D01*
X0227611Y0184991D01*
X0227689Y0184571D01*
X0227694Y0179257D01*
X0223022Y0175947D01*
X0222623Y0175765D01*
X0222160Y0175623D01*
X0221685Y0175541D01*
X0221203Y0175520D01*
X0220721Y0175562D01*
X0220288Y0175656D01*
X0214688Y0178014D01*
X0214625Y0178125D01*
X0214061Y0178278D01*
X0213867Y0178359D01*
X0213839Y0178399D01*
X0213727Y0178418D01*
X0213523Y0178504D01*
X0213434Y0178468D01*
X0213232Y0178503D01*
X0213078Y0178544D01*
X0213034Y0178596D01*
X0212833Y0178611D01*
X0212638Y0178664D01*
X0212578Y0178630D01*
X0212419Y0178641D01*
X0212265Y0178668D01*
X0212215Y0178715D01*
X0212013Y0178711D01*
X0211812Y0178745D01*
X0211756Y0178705D01*
X0211599Y0178701D01*
X0211443Y0178713D01*
X0211388Y0178756D01*
X0211187Y0178732D01*
X0210985Y0178746D01*
X0210933Y0178701D01*
X0210777Y0178683D01*
X0210618Y0178679D01*
X0210560Y0178717D01*
X0210362Y0178674D01*
X0210161Y0178669D01*
X0210114Y0178620D01*
X0209958Y0178586D01*
X0209729Y0178559D01*
X0209628Y0178604D01*
X0209416Y0178521D01*
X0209347Y0178513D01*
X0209326Y0178487D01*
X0209101Y0178399D01*
X0208548Y0178279D01*
X0208468Y0178154D01*
X0204635Y0176668D01*
X0204434Y0176709D01*
X0204007Y0176425D01*
X0203529Y0176239D01*
X0203446Y0176051D01*
X0203355Y0175991D01*
X0203210Y0175998D01*
X0202790Y0175615D01*
X0202317Y0175300D01*
X0202288Y0175157D01*
X0202263Y0175134D01*
X0202120Y0175120D01*
X0201761Y0174677D01*
X0201339Y0174293D01*
X0201333Y0174150D01*
X0201316Y0174129D01*
X0201178Y0174093D01*
X0200888Y0173602D01*
X0200528Y0173159D01*
X0200543Y0173017D01*
X0200530Y0172994D01*
X0200398Y0172937D01*
X0200185Y0172409D01*
X0199896Y0171918D01*
X0199932Y0171779D01*
X0199919Y0171747D01*
X0199795Y0171670D01*
X0199665Y0171117D01*
X0199453Y0170589D01*
X0199510Y0170456D01*
X0199484Y0170346D01*
X0199334Y0170198D01*
X0199330Y0169690D01*
X0199214Y0169195D01*
X0199325Y0169016D01*
X0199244Y0158889D01*
X0199232Y0158876D01*
X0199236Y0158435D01*
X0199108Y0158013D01*
X0199236Y0157776D01*
X0199233Y0157509D01*
X0199244Y0157499D01*
X0199324Y0148089D01*
X0199213Y0147911D01*
X0199330Y0147415D01*
X0199334Y0146907D01*
X0199484Y0146759D01*
X0199510Y0146649D01*
X0199453Y0146516D01*
X0199665Y0145988D01*
X0199795Y0145435D01*
X0199918Y0145358D01*
X0199931Y0145326D01*
X0199895Y0145187D01*
X0200185Y0144696D01*
X0200398Y0144168D01*
X0200530Y0144111D01*
X0200543Y0144088D01*
X0200529Y0143946D01*
X0200888Y0143503D01*
X0201178Y0143012D01*
X0201316Y0142976D01*
X0201333Y0142955D01*
X0201340Y0142811D01*
X0201761Y0142428D01*
X0202121Y0141985D01*
X0202263Y0141970D01*
X0202289Y0141947D01*
X0202318Y0141805D01*
X0202791Y0141490D01*
X0203211Y0141107D01*
X0203356Y0141114D01*
X0203447Y0141054D01*
X0203530Y0140866D01*
X0204008Y0140680D01*
X0204435Y0140396D01*
X0204637Y0140437D01*
X0208468Y0138952D01*
X0208548Y0138827D01*
X0209100Y0138706D01*
X0209326Y0138619D01*
X0209347Y0138592D01*
X0209416Y0138584D01*
X0209628Y0138502D01*
X0209729Y0138547D01*
X0209958Y0138520D01*
X0210114Y0138486D01*
X0210161Y0138436D01*
X0210362Y0138432D01*
X0210560Y0138389D01*
X0210618Y0138426D01*
X0210777Y0138423D01*
X0210932Y0138404D01*
X0210985Y0138359D01*
X0211187Y0138374D01*
X0211388Y0138350D01*
X0211442Y0138393D01*
X0211599Y0138404D01*
X0211756Y0138401D01*
X0211812Y0138361D01*
X0212012Y0138395D01*
X0212215Y0138390D01*
X0212264Y0138438D01*
X0212419Y0138464D01*
X0212578Y0138476D01*
X0212638Y0138442D01*
X0212833Y0138495D01*
X0213033Y0138509D01*
X0213078Y0138561D01*
X0213232Y0138603D01*
X0213434Y0138637D01*
X0213522Y0138601D01*
X0213727Y0138687D01*
X0213838Y0138706D01*
X0213867Y0138746D01*
X0214061Y0138828D01*
X0214624Y0138981D01*
X0214688Y0139092D01*
X0220288Y0141450D01*
X0220721Y0141544D01*
X0221203Y0141585D01*
X0221685Y0141565D01*
X0222160Y0141483D01*
X0222623Y0141340D01*
X0223022Y0141159D01*
X0227699Y0137845D01*
X0227720Y0132821D01*
X0227662Y0132346D01*
X0227546Y0131888D01*
X0227376Y0131450D01*
X0227152Y0131038D01*
X0226879Y0130655D01*
X0226558Y0130308D01*
X0226185Y0129995D01*
X0222872Y0127806D01*
X0222696Y0127809D01*
X0222308Y0127433D01*
X0222031Y0127250D01*
X0222006Y0127247D01*
X0221984Y0127219D01*
X0221858Y0127136D01*
X0221837Y0127034D01*
X0221642Y0126788D01*
X0221482Y0126633D01*
X0221409Y0126615D01*
X0221332Y0126487D01*
X0221221Y0126380D01*
X0221220Y0126301D01*
X0221105Y0126111D01*
X0220979Y0125952D01*
X0220906Y0125924D01*
X0220842Y0125779D01*
X0220740Y0125650D01*
X0220749Y0125569D01*
X0220667Y0125384D01*
X0220570Y0125223D01*
X0220500Y0125185D01*
X0220452Y0125026D01*
X0220362Y0124878D01*
X0220382Y0124797D01*
X0220328Y0124618D01*
X0220257Y0124457D01*
X0220191Y0124410D01*
X0220161Y0124239D01*
X0220088Y0124076D01*
X0220118Y0123998D01*
X0220088Y0123825D01*
X0220040Y0123664D01*
X0219978Y0123609D01*
X0219969Y0123430D01*
X0219916Y0123256D01*
X0219956Y0123182D01*
X0219947Y0123014D01*
X0219918Y0122852D01*
X0219863Y0122789D01*
X0219876Y0122607D01*
X0219844Y0122428D01*
X0219892Y0122359D01*
X0219903Y0122195D01*
X0219895Y0122030D01*
X0219847Y0121960D01*
X0219882Y0121780D01*
X0219872Y0121601D01*
X0219928Y0121539D01*
X0219959Y0121377D01*
X0219970Y0121208D01*
X0219931Y0121132D01*
X0219987Y0120959D01*
X0219999Y0120784D01*
X0220061Y0120730D01*
X0220113Y0120568D01*
X0220147Y0120394D01*
X0220118Y0120312D01*
X0220193Y0120152D01*
X0220225Y0119987D01*
X0220293Y0119941D01*
X0220369Y0119779D01*
X0220427Y0119598D01*
X0220409Y0119514D01*
X0220501Y0119371D01*
X0220550Y0119219D01*
X0220623Y0119182D01*
X0220726Y0119021D01*
X0220815Y0118833D01*
X0220808Y0118749D01*
X0220911Y0118627D01*
X0220976Y0118490D01*
X0221051Y0118463D01*
X0221186Y0118305D01*
X0221310Y0118112D01*
X0221314Y0118032D01*
X0221425Y0117933D01*
X0221501Y0117814D01*
X0221577Y0117797D01*
X0221748Y0117645D01*
X0221913Y0117451D01*
X0221927Y0117378D01*
X0222039Y0117303D01*
X0222125Y0117202D01*
X0222198Y0117196D01*
X0222409Y0117054D01*
X0222605Y0116879D01*
X0222623Y0116825D01*
X0222723Y0116774D01*
X0222842Y0116667D01*
X0222923Y0116672D01*
X0223153Y0116554D01*
X0223647Y0116222D01*
X0223761Y0116244D01*
X0224625Y0115803D01*
X0224661Y0115720D01*
X0225235Y0115492D01*
X0225784Y0115212D01*
X0225871Y0115240D01*
X0227146Y0114734D01*
X0227216Y0114620D01*
X0227778Y0114483D01*
X0228316Y0114270D01*
X0228439Y0114323D01*
X0251297Y0108778D01*
X0254451Y0107391D01*
X0257510Y0105603D01*
X0260555Y0103319D01*
X0263681Y0100443D01*
X0266457Y0097137D01*
X0268509Y0093702D01*
X0269965Y0090282D01*
X0270915Y0087089D01*
X0271755Y0081969D01*
X0271796Y0081046D01*
X0270003Y0080158D01*
X0264525Y0078335D01*
X0261063Y0077704D01*
X0257204Y0077487D01*
X0253077Y0077867D01*
X0248820Y0078949D01*
X0245053Y0080329D01*
X0241786Y0081948D01*
X0238853Y0083856D01*
X0236110Y0086094D01*
X0220718Y0102395D01*
X0220696Y0102555D01*
X0220253Y0102888D01*
X0219873Y0103291D01*
X0219712Y0103295D01*
X0218649Y0104095D01*
X0218620Y0104204D01*
X0218104Y0104505D01*
X0217627Y0104865D01*
X0217515Y0104849D01*
X0216494Y0105444D01*
X0216404Y0105623D01*
X0215912Y0105784D01*
X0215464Y0106045D01*
X0215354Y0106016D01*
X0215014Y0106078D01*
X0214802Y0106147D01*
X0214749Y0106205D01*
X0214604Y0106212D01*
X0214461Y0106259D01*
X0214388Y0106222D01*
X0214166Y0106233D01*
X0213967Y0106269D01*
X0213905Y0106321D01*
X0213751Y0106309D01*
X0213592Y0106338D01*
X0213522Y0106289D01*
X0213321Y0106273D01*
X0213136Y0106281D01*
X0213066Y0106326D01*
X0212906Y0106292D01*
X0212735Y0106300D01*
X0212671Y0106242D01*
X0212490Y0106203D01*
X0212318Y0106189D01*
X0212243Y0106225D01*
X0212081Y0106169D01*
X0211902Y0106154D01*
X0211846Y0106087D01*
X0211684Y0106031D01*
X0211523Y0105997D01*
X0211444Y0106024D01*
X0211284Y0105946D01*
X0211104Y0105907D01*
X0211057Y0105834D01*
X0210910Y0105762D01*
X0210760Y0105710D01*
X0210677Y0105728D01*
X0210524Y0105628D01*
X0210349Y0105568D01*
X0210312Y0105490D01*
X0210178Y0105403D01*
X0210035Y0105333D01*
X0209951Y0105341D01*
X0209809Y0105223D01*
X0209644Y0105142D01*
X0209616Y0105061D01*
X0209494Y0104959D01*
X0209358Y0104871D01*
X0209273Y0104868D01*
X0209147Y0104734D01*
X0208995Y0104635D01*
X0208977Y0104553D01*
X0208866Y0104435D01*
X0208736Y0104326D01*
X0208652Y0104313D01*
X0208545Y0104167D01*
X0208410Y0104054D01*
X0208403Y0103971D01*
X0208302Y0103834D01*
X0208178Y0103702D01*
X0208097Y0103678D01*
X0208012Y0103525D01*
X0207897Y0103402D01*
X0207899Y0103320D01*
X0207811Y0103161D01*
X0207695Y0103003D01*
X0207619Y0102970D01*
X0207558Y0102814D01*
X0207463Y0102684D01*
X0207475Y0102606D01*
X0207403Y0102423D01*
X0207298Y0102233D01*
X0207230Y0102192D01*
X0207191Y0102040D01*
X0207118Y0101908D01*
X0207140Y0101834D01*
X0207087Y0101623D01*
X0206976Y0101344D01*
X0206899Y0101277D01*
X0206889Y0101124D01*
X0206871Y0101078D01*
X0206884Y0101048D01*
X0206864Y0100733D01*
X0206731Y0100205D01*
X0206819Y0100058D01*
X0206535Y0095754D01*
X0206432Y0095331D01*
X0206264Y0094891D01*
X0206044Y0094476D01*
X0205774Y0094092D01*
X0205457Y0093743D01*
X0205133Y0093466D01*
X0200534Y0090804D01*
X0195331Y0093196D01*
X0194974Y0093450D01*
X0194619Y0093780D01*
X0194311Y0094151D01*
X0194052Y0094558D01*
X0193846Y0094996D01*
X0193712Y0095417D01*
X0192954Y0101446D01*
X0193018Y0101557D01*
X0192869Y0102121D01*
X0192842Y0102330D01*
X0192863Y0102375D01*
X0192823Y0102481D01*
X0192796Y0102701D01*
X0192720Y0102759D01*
X0192649Y0102952D01*
X0192608Y0103106D01*
X0192631Y0103170D01*
X0192543Y0103351D01*
X0192492Y0103547D01*
X0192432Y0103582D01*
X0192363Y0103725D01*
X0192308Y0103872D01*
X0192324Y0103939D01*
X0192219Y0104112D01*
X0192149Y0104302D01*
X0192086Y0104331D01*
X0192005Y0104465D01*
X0191936Y0104607D01*
X0191946Y0104675D01*
X0191825Y0104837D01*
X0191737Y0105020D01*
X0191672Y0105042D01*
X0191578Y0105168D01*
X0191495Y0105304D01*
X0191498Y0105373D01*
X0191362Y0105523D01*
X0191258Y0105695D01*
X0191191Y0105711D01*
X0191084Y0105829D01*
X0190946Y0106014D01*
X0190934Y0106124D01*
X0190757Y0106266D01*
X0190716Y0106322D01*
X0190682Y0106327D01*
X0190493Y0106478D01*
X0190113Y0106896D01*
X0189965Y0106904D01*
X0186761Y0109480D01*
X0186695Y0109675D01*
X0186235Y0109902D01*
X0185836Y0110223D01*
X0185631Y0110201D01*
X0185533Y0110249D01*
X0185467Y0110378D01*
X0184925Y0110550D01*
X0184415Y0110803D01*
X0184277Y0110756D01*
X0184245Y0110767D01*
X0184160Y0110883D01*
X0183597Y0110972D01*
X0183054Y0111145D01*
X0182927Y0111079D01*
X0182900Y0111083D01*
X0182800Y0111185D01*
X0182229Y0111190D01*
X0181666Y0111280D01*
X0181550Y0111196D01*
X0181523Y0111196D01*
X0181408Y0111282D01*
X0180844Y0111202D01*
X0180274Y0111207D01*
X0180172Y0111106D01*
X0180138Y0111101D01*
X0180010Y0111170D01*
X0179465Y0111006D01*
X0178902Y0110926D01*
X0178815Y0110810D01*
X0178707Y0110777D01*
X0178504Y0110833D01*
X0178061Y0110582D01*
X0177575Y0110435D01*
X0177475Y0110250D01*
X0168670Y0105259D01*
X0168652Y0105263D01*
X0168272Y0105040D01*
X0167843Y0104939D01*
X0167701Y0104710D01*
X0167469Y0104578D01*
X0167465Y0104564D01*
X0159370Y0099798D01*
X0159161Y0099805D01*
X0158789Y0099456D01*
X0158351Y0099198D01*
X0158298Y0098995D01*
X0158215Y0098917D01*
X0158071Y0098900D01*
X0157720Y0098452D01*
X0157305Y0098063D01*
X0157301Y0097918D01*
X0157279Y0097890D01*
X0157141Y0097852D01*
X0156859Y0097356D01*
X0156507Y0096907D01*
X0156525Y0096765D01*
X0156511Y0096740D01*
X0156380Y0096682D01*
X0156176Y0096149D01*
X0155894Y0095653D01*
X0155933Y0095515D01*
X0155922Y0095489D01*
X0155802Y0095412D01*
X0155679Y0094855D01*
X0155475Y0094323D01*
X0155533Y0094192D01*
X0155526Y0094157D01*
X0155417Y0094061D01*
X0155380Y0093494D01*
X0155257Y0092938D01*
X0155335Y0092816D01*
X0155328Y0092705D01*
X0155206Y0092539D01*
X0155284Y0092033D01*
X0155251Y0091522D01*
X0155387Y0091366D01*
X0156015Y0087303D01*
X0155946Y0087170D01*
X0156118Y0086632D01*
X0156155Y0086392D01*
X0156143Y0086361D01*
X0156170Y0086298D01*
X0156205Y0086074D01*
X0156295Y0086008D01*
X0156386Y0085796D01*
X0156434Y0085644D01*
X0156415Y0085578D01*
X0156511Y0085402D01*
X0156573Y0085209D01*
X0156634Y0085178D01*
X0156711Y0085038D01*
X0156773Y0084894D01*
X0156760Y0084826D01*
X0156874Y0084659D01*
X0156954Y0084472D01*
X0157018Y0084447D01*
X0157106Y0084317D01*
X0157181Y0084179D01*
X0157175Y0084111D01*
X0157305Y0083954D01*
X0157402Y0083777D01*
X0157468Y0083757D01*
X0157568Y0083637D01*
X0157658Y0083505D01*
X0157658Y0083436D01*
X0157801Y0083294D01*
X0157914Y0083127D01*
X0157982Y0083114D01*
X0158094Y0083002D01*
X0158225Y0082844D01*
X0158238Y0082750D01*
X0158415Y0082616D01*
X0158487Y0082529D01*
X0158536Y0082524D01*
X0158704Y0082397D01*
X0159118Y0081985D01*
X0159246Y0081986D01*
X0164088Y0078314D01*
X0164386Y0077987D01*
X0164663Y0077590D01*
X0164886Y0077163D01*
X0165053Y0076710D01*
X0165161Y0076238D01*
X0165203Y0075802D01*
X0164672Y0070094D01*
X0160332Y0067565D01*
X0159891Y0067377D01*
X0159437Y0067248D01*
X0158972Y0067177D01*
X0158503Y0067165D01*
X0158035Y0067210D01*
X0157574Y0067314D01*
X0157116Y0067481D01*
X0153565Y0069255D01*
X0153479Y0069409D01*
X0152960Y0069557D01*
X0152662Y0069705D01*
X0152648Y0069725D01*
X0152612Y0069731D01*
X0152477Y0069798D01*
X0152378Y0069765D01*
X0152067Y0069811D01*
X0151854Y0069872D01*
X0151801Y0069927D01*
X0151652Y0069929D01*
X0151504Y0069972D01*
X0151435Y0069933D01*
X0151213Y0069938D01*
X0151012Y0069967D01*
X0150951Y0070016D01*
X0150794Y0069999D01*
X0150631Y0070024D01*
X0150565Y0069975D01*
X0150364Y0069953D01*
X0150177Y0069957D01*
X0150109Y0069999D01*
X0149947Y0069961D01*
X0149773Y0069964D01*
X0149713Y0069907D01*
X0149531Y0069864D01*
X0149357Y0069845D01*
X0149283Y0069880D01*
X0149120Y0069820D01*
X0148942Y0069801D01*
X0148889Y0069736D01*
X0148725Y0069675D01*
X0148561Y0069637D01*
X0148482Y0069663D01*
X0148323Y0069581D01*
X0148146Y0069540D01*
X0148102Y0069469D01*
X0147952Y0069392D01*
X0147797Y0069336D01*
X0147715Y0069352D01*
X0147564Y0069250D01*
X0147393Y0069188D01*
X0147358Y0069112D01*
X0147221Y0069020D01*
X0147074Y0068946D01*
X0146989Y0068952D01*
X0146851Y0068832D01*
X0146691Y0068751D01*
X0146665Y0068671D01*
X0146540Y0068564D01*
X0146399Y0068469D01*
X0146314Y0068465D01*
X0146192Y0068330D01*
X0146047Y0068233D01*
X0146031Y0068151D01*
X0145917Y0068025D01*
X0145782Y0067909D01*
X0145697Y0067894D01*
X0145597Y0067749D01*
X0145469Y0067638D01*
X0145463Y0067556D01*
X0145361Y0067410D01*
X0145234Y0067268D01*
X0145152Y0067242D01*
X0145074Y0067092D01*
X0144967Y0066972D01*
X0144971Y0066891D01*
X0144883Y0066721D01*
X0144764Y0066550D01*
X0144689Y0066514D01*
X0144635Y0066364D01*
X0144549Y0066239D01*
X0144563Y0066161D01*
X0144493Y0065965D01*
X0144388Y0065761D01*
X0144321Y0065717D01*
X0144291Y0065572D01*
X0144226Y0065446D01*
X0144249Y0065373D01*
X0144202Y0065148D01*
X0144117Y0064908D01*
X0144061Y0064859D01*
X0144052Y0064725D01*
X0144007Y0064600D01*
X0144039Y0064534D01*
X0144022Y0064280D01*
X0143968Y0064023D01*
X0143930Y0063981D01*
X0143936Y0063868D01*
X0143903Y0063711D01*
X0143947Y0063644D01*
X0143961Y0063386D01*
X0143920Y0062792D01*
X0143996Y0062705D01*
X0144046Y0061736D01*
X0143992Y0061663D01*
X0144081Y0061052D01*
X0144113Y0060436D01*
X0144181Y0060375D01*
X0144381Y0059018D01*
X0144317Y0058900D01*
X0144480Y0058345D01*
X0144564Y0057772D01*
X0144671Y0057692D01*
X0151298Y0035124D01*
X0151673Y0031700D01*
X0151655Y0028156D01*
X0151200Y0024377D01*
X0150272Y0020232D01*
X0148796Y0016175D01*
X0146848Y0012681D01*
X0144614Y0009710D01*
X0142324Y0007290D01*
X0138310Y0004002D01*
X0137531Y0003506D01*
X0135865Y0004614D01*
X0131547Y0008447D01*
X0129270Y0011129D01*
X0127153Y0014363D01*
X0125418Y0018128D01*
X0124227Y0022355D01*
X0123539Y0026307D01*
X0123307Y0029946D01*
X0123493Y0033440D01*
X0124060Y0036935D01*
X0130479Y0058402D01*
X0130605Y0058501D01*
X0130673Y0059051D01*
X0130832Y0059582D01*
X0130755Y0059724D01*
X0130917Y0061040D01*
X0130997Y0061119D01*
X0131000Y0061717D01*
X0131073Y0062310D01*
X0131004Y0062399D01*
X0131010Y0063580D01*
X0131119Y0063747D01*
X0131014Y0064254D01*
X0131016Y0064773D01*
X0130936Y0064853D01*
X0130820Y0065180D01*
X0130775Y0065399D01*
X0130799Y0065473D01*
X0130732Y0065602D01*
X0130701Y0065750D01*
X0130634Y0065794D01*
X0130532Y0065993D01*
X0130464Y0066184D01*
X0130478Y0066263D01*
X0130390Y0066391D01*
X0130336Y0066543D01*
X0130260Y0066579D01*
X0130144Y0066746D01*
X0130059Y0066912D01*
X0130064Y0066994D01*
X0129955Y0067116D01*
X0129876Y0067268D01*
X0129794Y0067294D01*
X0129670Y0067433D01*
X0129571Y0067575D01*
X0129565Y0067659D01*
X0129436Y0067771D01*
X0129335Y0067918D01*
X0129249Y0067933D01*
X0129118Y0068047D01*
X0129008Y0068170D01*
X0128992Y0068252D01*
X0128845Y0068351D01*
X0128723Y0068487D01*
X0128636Y0068492D01*
X0128500Y0068584D01*
X0128379Y0068690D01*
X0128353Y0068770D01*
X0128191Y0068853D01*
X0128051Y0068974D01*
X0127966Y0068968D01*
X0127823Y0069041D01*
X0127690Y0069131D01*
X0127655Y0069207D01*
X0127482Y0069271D01*
X0127330Y0069374D01*
X0127247Y0069358D01*
X0127097Y0069413D01*
X0126951Y0069488D01*
X0126906Y0069560D01*
X0126728Y0069602D01*
X0126567Y0069684D01*
X0126487Y0069659D01*
X0126328Y0069696D01*
X0126167Y0069755D01*
X0126114Y0069822D01*
X0125935Y0069841D01*
X0125770Y0069902D01*
X0125696Y0069867D01*
X0125525Y0069886D01*
X0125347Y0069927D01*
X0125287Y0069986D01*
X0125112Y0069983D01*
X0124948Y0070022D01*
X0124879Y0069979D01*
X0124696Y0069976D01*
X0124499Y0069997D01*
X0124433Y0070046D01*
X0124268Y0070022D01*
X0124110Y0070039D01*
X0124048Y0069989D01*
X0123851Y0069960D01*
X0123633Y0069957D01*
X0123564Y0069995D01*
X0123414Y0069953D01*
X0123263Y0069950D01*
X0123210Y0069895D01*
X0123000Y0069835D01*
X0122701Y0069791D01*
X0122604Y0069824D01*
X0122468Y0069756D01*
X0122420Y0069749D01*
X0122401Y0069723D01*
X0122116Y0069583D01*
X0121592Y0069434D01*
X0121509Y0069284D01*
X0117638Y0067377D01*
X0117220Y0067255D01*
X0116755Y0067180D01*
X0116285Y0067163D01*
X0115818Y0067205D01*
X0115358Y0067305D01*
X0114955Y0067447D01*
X0110351Y0070100D01*
X0109820Y0075802D01*
X0109862Y0076238D01*
X0109970Y0076710D01*
X0110137Y0077162D01*
X0110360Y0077590D01*
X0110637Y0077987D01*
X0110935Y0078314D01*
X0115777Y0081985D01*
X0115905Y0081985D01*
X0116319Y0082397D01*
X0116487Y0082524D01*
X0116536Y0082528D01*
X0116608Y0082616D01*
X0116785Y0082749D01*
X0116798Y0082844D01*
X0116929Y0083002D01*
X0117041Y0083114D01*
X0117109Y0083127D01*
X0117222Y0083293D01*
X0117365Y0083436D01*
X0117365Y0083505D01*
X0117455Y0083636D01*
X0117555Y0083757D01*
X0117621Y0083777D01*
X0117718Y0083954D01*
X0117848Y0084110D01*
X0117842Y0084179D01*
X0117917Y0084317D01*
X0118005Y0084446D01*
X0118069Y0084472D01*
X0118149Y0084659D01*
X0118263Y0084826D01*
X0118250Y0084894D01*
X0118312Y0085038D01*
X0118389Y0085178D01*
X0118450Y0085209D01*
X0118512Y0085402D01*
X0118608Y0085578D01*
X0118589Y0085644D01*
X0118637Y0085795D01*
X0118728Y0086007D01*
X0118818Y0086073D01*
X0118853Y0086297D01*
X0118880Y0086361D01*
X0118868Y0086392D01*
X0118905Y0086632D01*
X0119077Y0087170D01*
X0119009Y0087302D01*
X0119638Y0091364D01*
X0119774Y0091519D01*
X0119741Y0092030D01*
X0119820Y0092537D01*
X0119698Y0092703D01*
X0119691Y0092812D01*
X0119770Y0092934D01*
X0119648Y0093489D01*
X0119612Y0094057D01*
X0119503Y0094152D01*
X0119496Y0094186D01*
X0119554Y0094317D01*
X0119351Y0094849D01*
X0119229Y0095406D01*
X0119108Y0095484D01*
X0119099Y0095509D01*
X0119137Y0095646D01*
X0118856Y0096143D01*
X0118652Y0096676D01*
X0118521Y0096734D01*
X0118508Y0096757D01*
X0118526Y0096900D01*
X0118174Y0097348D01*
X0117893Y0097845D01*
X0117755Y0097883D01*
X0117734Y0097910D01*
X0117729Y0098055D01*
X0117315Y0098444D01*
X0116964Y0098892D01*
X0116820Y0098909D01*
X0116737Y0098987D01*
X0116685Y0099191D01*
X0116246Y0099448D01*
X0115876Y0099796D01*
X0115666Y0099790D01*
X0106936Y0104922D01*
X0106932Y0104940D01*
X0106524Y0105170D01*
X0106194Y0105501D01*
X0105953Y0105501D01*
X0105747Y0105622D01*
X0105733Y0105618D01*
X0097548Y0110251D01*
X0097449Y0110436D01*
X0096962Y0110583D01*
X0096519Y0110833D01*
X0096317Y0110777D01*
X0096208Y0110810D01*
X0096121Y0110926D01*
X0095558Y0111006D01*
X0095014Y0111170D01*
X0094886Y0111102D01*
X0094851Y0111107D01*
X0094749Y0111207D01*
X0094179Y0111202D01*
X0093615Y0111283D01*
X0093500Y0111196D01*
X0093473Y0111196D01*
X0093357Y0111280D01*
X0092793Y0111190D01*
X0092223Y0111185D01*
X0092123Y0111083D01*
X0092096Y0111079D01*
X0091968Y0111145D01*
X0091425Y0110972D01*
X0090862Y0110883D01*
X0090778Y0110766D01*
X0090745Y0110756D01*
X0090607Y0110802D01*
X0090098Y0110550D01*
X0089556Y0110378D01*
X0089489Y0110249D01*
X0089391Y0110200D01*
X0089186Y0110222D01*
X0088787Y0109901D01*
X0088327Y0109674D01*
X0088262Y0109479D01*
X0085059Y0106904D01*
X0084910Y0106897D01*
X0084530Y0106478D01*
X0084341Y0106327D01*
X0084308Y0106322D01*
X0084267Y0106267D01*
X0084090Y0106124D01*
X0084078Y0106014D01*
X0083939Y0105829D01*
X0083832Y0105711D01*
X0083766Y0105695D01*
X0083661Y0105523D01*
X0083525Y0105373D01*
X0083529Y0105305D01*
X0083446Y0105169D01*
X0083352Y0105043D01*
X0083287Y0105020D01*
X0083199Y0104838D01*
X0083077Y0104675D01*
X0083087Y0104607D01*
X0083019Y0104466D01*
X0082937Y0104332D01*
X0082875Y0104303D01*
X0082804Y0104112D01*
X0082699Y0103939D01*
X0082715Y0103872D01*
X0082661Y0103725D01*
X0082592Y0103582D01*
X0082532Y0103547D01*
X0082480Y0103352D01*
X0082393Y0103171D01*
X0082415Y0103106D01*
X0082375Y0102952D01*
X0082303Y0102760D01*
X0082228Y0102701D01*
X0082200Y0102481D01*
X0082161Y0102375D01*
X0082181Y0102331D01*
X0082155Y0102122D01*
X0082006Y0101557D01*
X0082070Y0101446D01*
X0081312Y0095417D01*
X0081177Y0094996D01*
X0080972Y0094558D01*
X0080713Y0094151D01*
X0080404Y0093780D01*
X0080050Y0093450D01*
X0079693Y0093196D01*
X0074485Y0090802D01*
X0070124Y0093296D01*
X0069741Y0093584D01*
X0069402Y0093913D01*
X0069108Y0094279D01*
X0068863Y0094679D01*
X0068668Y0095107D01*
X0068528Y0095558D01*
X0068443Y0096038D01*
X0068204Y0100004D01*
X0068294Y0100156D01*
X0068163Y0100679D01*
X0068142Y0101015D01*
X0068152Y0101037D01*
X0068139Y0101069D01*
X0068130Y0101218D01*
X0068053Y0101286D01*
X0067936Y0101582D01*
X0067881Y0101800D01*
X0067902Y0101873D01*
X0067830Y0102001D01*
X0067793Y0102150D01*
X0067726Y0102190D01*
X0067616Y0102387D01*
X0067540Y0102578D01*
X0067552Y0102655D01*
X0067460Y0102781D01*
X0067400Y0102933D01*
X0067325Y0102966D01*
X0067203Y0103131D01*
X0067111Y0103297D01*
X0067113Y0103377D01*
X0067000Y0103497D01*
X0066917Y0103647D01*
X0066837Y0103670D01*
X0066707Y0103808D01*
X0066602Y0103952D01*
X0066594Y0104033D01*
X0066462Y0104143D01*
X0066357Y0104286D01*
X0066274Y0104298D01*
X0066137Y0104412D01*
X0066020Y0104536D01*
X0066003Y0104617D01*
X0065853Y0104713D01*
X0065729Y0104844D01*
X0065646Y0104847D01*
X0065503Y0104939D01*
X0065374Y0105045D01*
X0065347Y0105124D01*
X0065184Y0105203D01*
X0065045Y0105319D01*
X0064962Y0105311D01*
X0064812Y0105384D01*
X0064671Y0105475D01*
X0064634Y0105550D01*
X0064462Y0105609D01*
X0064312Y0105706D01*
X0064231Y0105689D01*
X0064072Y0105743D01*
X0063918Y0105818D01*
X0063871Y0105889D01*
X0063695Y0105926D01*
X0063538Y0106002D01*
X0063460Y0105975D01*
X0063292Y0106010D01*
X0063122Y0106069D01*
X0063066Y0106134D01*
X0062891Y0106148D01*
X0062732Y0106202D01*
X0062658Y0106166D01*
X0062478Y0106180D01*
X0062290Y0106220D01*
X0062226Y0106277D01*
X0062058Y0106268D01*
X0061902Y0106301D01*
X0061834Y0106257D01*
X0061641Y0106247D01*
X0061432Y0106263D01*
X0061363Y0106310D01*
X0061207Y0106281D01*
X0061056Y0106293D01*
X0060996Y0106241D01*
X0060789Y0106203D01*
X0060558Y0106191D01*
X0060487Y0106226D01*
X0060348Y0106180D01*
X0060206Y0106173D01*
X0060155Y0106116D01*
X0059935Y0106043D01*
X0059684Y0105996D01*
X0059614Y0106019D01*
X0059494Y0105960D01*
X0059363Y0105936D01*
X0059322Y0105876D01*
X0059092Y0105762D01*
X0058842Y0105679D01*
X0058786Y0105691D01*
X0058692Y0105629D01*
X0058541Y0105579D01*
X0058505Y0105507D01*
X0058287Y0105365D01*
X0057752Y0105102D01*
X0057715Y0104994D01*
X0056906Y0104467D01*
X0056816Y0104477D01*
X0056332Y0104094D01*
X0055815Y0103757D01*
X0055796Y0103668D01*
X0054727Y0102821D01*
X0054595Y0102817D01*
X0054195Y0102398D01*
X0053741Y0102038D01*
X0053725Y0101906D01*
X0037513Y0084899D01*
X0034735Y0082862D01*
X0031656Y0081106D01*
X0028156Y0079611D01*
X0024102Y0078342D01*
X0019851Y0077591D01*
X0015851Y0077531D01*
X0012161Y0077981D01*
X0012117Y0077991D02*
X0022117Y0077991D01*
X0025493Y0078777D02*
X0008859Y0078777D01*
X0006777Y0079563D02*
X0028003Y0079563D01*
X0029884Y0080349D02*
X0004696Y0080349D01*
X0003255Y0081135D02*
X0031707Y0081135D01*
X0033085Y0081921D02*
X0010548Y0081921D01*
X0010333Y0081706D02*
X0011108Y0082481D01*
X0011528Y0083494D01*
X0011528Y0084591D01*
X0011108Y0085603D01*
X0010333Y0086379D01*
X0009320Y0086798D01*
X0008224Y0086798D01*
X0007211Y0086379D01*
X0006436Y0085603D01*
X0006016Y0084591D01*
X0006016Y0083494D01*
X0006436Y0082481D01*
X0007211Y0081706D01*
X0008224Y0081286D01*
X0009320Y0081286D01*
X0010333Y0081706D01*
X0011202Y0082706D02*
X0034463Y0082706D01*
X0035595Y0083492D02*
X0011527Y0083492D01*
X0011528Y0084278D02*
X0036666Y0084278D01*
X0037670Y0085064D02*
X0021072Y0085064D01*
X0020735Y0084727D02*
X0022063Y0086056D01*
X0022063Y0087934D01*
X0021235Y0088762D01*
X0021235Y0088873D01*
X0022131Y0089390D01*
X0022364Y0090260D01*
X0022018Y0090859D01*
X0022017Y0090868D01*
X0022091Y0091058D01*
X0021920Y0091453D01*
X0021850Y0091878D01*
X0021685Y0091996D01*
X0021604Y0092183D01*
X0021204Y0092341D01*
X0021133Y0092392D01*
X0020733Y0093085D01*
X0019863Y0093318D01*
X0018914Y0092770D01*
X0018914Y0093249D01*
X0017585Y0094578D01*
X0015707Y0094578D01*
X0014378Y0093249D01*
X0014378Y0091371D01*
X0015152Y0090597D01*
X0014310Y0090112D01*
X0014078Y0089242D01*
X0015709Y0086417D01*
X0016578Y0086184D01*
X0017528Y0086732D01*
X0017528Y0086056D01*
X0018856Y0084727D01*
X0020735Y0084727D01*
X0021858Y0085850D02*
X0038419Y0085850D01*
X0039169Y0086636D02*
X0022063Y0086636D01*
X0022063Y0087422D02*
X0039918Y0087422D01*
X0040667Y0088208D02*
X0021790Y0088208D01*
X0021445Y0088994D02*
X0041416Y0088994D01*
X0042166Y0089780D02*
X0022236Y0089780D01*
X0022187Y0090566D02*
X0042915Y0090566D01*
X0043664Y0091351D02*
X0021964Y0091351D01*
X0021624Y0092137D02*
X0044413Y0092137D01*
X0045162Y0092923D02*
X0020826Y0092923D01*
X0019864Y0091595D02*
X0018879Y0091020D01*
X0019654Y0089678D01*
X0020626Y0090245D01*
X0020320Y0090795D01*
X0020489Y0091032D01*
X0020249Y0090928D01*
X0019864Y0091595D01*
X0020005Y0091351D02*
X0019447Y0091351D01*
X0019755Y0090637D02*
X0019755Y0087036D01*
X0019796Y0086995D01*
X0017528Y0086636D02*
X0017361Y0086636D01*
X0017734Y0085850D02*
X0010862Y0085850D01*
X0011332Y0085064D02*
X0018520Y0085064D01*
X0015582Y0086636D02*
X0009712Y0086636D01*
X0007832Y0086636D02*
X0004118Y0086636D01*
X0004279Y0087422D02*
X0015129Y0087422D01*
X0014675Y0088208D02*
X0004440Y0088208D01*
X0004652Y0088994D02*
X0014221Y0088994D01*
X0014221Y0089780D02*
X0004933Y0089780D01*
X0005214Y0090566D02*
X0015096Y0090566D01*
X0014398Y0091351D02*
X0005494Y0091351D01*
X0005799Y0092137D02*
X0014378Y0092137D01*
X0014378Y0092923D02*
X0006195Y0092923D01*
X0006592Y0093709D02*
X0014838Y0093709D01*
X0015624Y0094495D02*
X0006989Y0094495D01*
X0007385Y0095281D02*
X0047410Y0095281D01*
X0046661Y0094495D02*
X0017668Y0094495D01*
X0018454Y0093709D02*
X0045912Y0093709D01*
X0048159Y0096067D02*
X0007911Y0096067D01*
X0008467Y0096853D02*
X0048908Y0096853D01*
X0049658Y0097639D02*
X0009023Y0097639D01*
X0009578Y0098425D02*
X0050407Y0098425D01*
X0051156Y0099211D02*
X0010241Y0099211D01*
X0011007Y0099997D02*
X0051905Y0099997D01*
X0052655Y0100782D02*
X0011773Y0100782D01*
X0012539Y0101568D02*
X0053404Y0101568D01*
X0054139Y0102354D02*
X0013393Y0102354D01*
X0014333Y0103140D02*
X0055130Y0103140D01*
X0056075Y0103926D02*
X0015274Y0103926D01*
X0016270Y0104712D02*
X0057282Y0104712D01*
X0058490Y0105498D02*
X0017451Y0105498D01*
X0018631Y0106284D02*
X0061046Y0106284D01*
X0061170Y0106284D02*
X0061223Y0106284D01*
X0061401Y0106284D02*
X0061875Y0106284D01*
X0061983Y0106284D02*
X0084279Y0106284D01*
X0083639Y0105498D02*
X0064660Y0105498D01*
X0065855Y0104712D02*
X0083105Y0104712D01*
X0082702Y0103926D02*
X0066620Y0103926D01*
X0067198Y0103140D02*
X0082404Y0103140D01*
X0082170Y0102354D02*
X0067634Y0102354D01*
X0067941Y0101568D02*
X0082009Y0101568D01*
X0081987Y0100782D02*
X0068156Y0100782D01*
X0068204Y0099997D02*
X0073438Y0099997D01*
X0073353Y0099961D02*
X0072577Y0099186D01*
X0072158Y0098173D01*
X0072158Y0097077D01*
X0072577Y0096064D01*
X0073353Y0095289D01*
X0074366Y0094869D01*
X0075462Y0094869D01*
X0076475Y0095289D01*
X0077250Y0096064D01*
X0077670Y0097077D01*
X0077670Y0098173D01*
X0077250Y0099186D01*
X0076475Y0099961D01*
X0075462Y0100381D01*
X0074366Y0100381D01*
X0073353Y0099961D01*
X0072602Y0099211D02*
X0068252Y0099211D01*
X0068299Y0098425D02*
X0072262Y0098425D01*
X0072158Y0097639D02*
X0068347Y0097639D01*
X0068394Y0096853D02*
X0072251Y0096853D01*
X0072576Y0096067D02*
X0068442Y0096067D01*
X0068614Y0095281D02*
X0073371Y0095281D01*
X0076456Y0095281D02*
X0081268Y0095281D01*
X0081393Y0096067D02*
X0077251Y0096067D01*
X0077577Y0096853D02*
X0081492Y0096853D01*
X0081591Y0097639D02*
X0077670Y0097639D01*
X0077565Y0098425D02*
X0081690Y0098425D01*
X0081789Y0099211D02*
X0077226Y0099211D01*
X0076390Y0099997D02*
X0081888Y0099997D01*
X0080932Y0094495D02*
X0068976Y0094495D01*
X0069612Y0093709D02*
X0080328Y0093709D01*
X0079100Y0092923D02*
X0070775Y0092923D01*
X0072149Y0092137D02*
X0077390Y0092137D01*
X0075680Y0091351D02*
X0073524Y0091351D01*
X0085265Y0107070D02*
X0020053Y0107070D01*
X0021598Y0107856D02*
X0086243Y0107856D01*
X0087220Y0108642D02*
X0023481Y0108642D01*
X0025606Y0109427D02*
X0088198Y0109427D01*
X0089175Y0110213D02*
X0028916Y0110213D01*
X0032226Y0110999D02*
X0091510Y0110999D01*
X0089418Y0110213D02*
X0089270Y0110213D01*
X0095606Y0110999D02*
X0179420Y0110999D01*
X0177411Y0110213D02*
X0097614Y0110213D01*
X0099003Y0109427D02*
X0176024Y0109427D01*
X0174638Y0108642D02*
X0100391Y0108642D01*
X0101780Y0107856D02*
X0173251Y0107856D01*
X0171864Y0107070D02*
X0103169Y0107070D01*
X0104557Y0106284D02*
X0170478Y0106284D01*
X0169091Y0105498D02*
X0106197Y0105498D01*
X0107294Y0104712D02*
X0167702Y0104712D01*
X0166381Y0103926D02*
X0108631Y0103926D01*
X0109968Y0103140D02*
X0165046Y0103140D01*
X0163711Y0102354D02*
X0111304Y0102354D01*
X0112641Y0101568D02*
X0162376Y0101568D01*
X0161042Y0100782D02*
X0113977Y0100782D01*
X0115314Y0099997D02*
X0159707Y0099997D01*
X0158372Y0099211D02*
X0116651Y0099211D01*
X0117336Y0098425D02*
X0157691Y0098425D01*
X0157020Y0097639D02*
X0118010Y0097639D01*
X0118520Y0096853D02*
X0156514Y0096853D01*
X0156129Y0096067D02*
X0139426Y0096067D01*
X0139143Y0096349D02*
X0138451Y0096349D01*
X0138442Y0096353D01*
X0138316Y0096512D01*
X0137888Y0096562D01*
X0137485Y0096713D01*
X0137300Y0096629D01*
X0137098Y0096653D01*
X0136760Y0096385D01*
X0136681Y0096349D01*
X0135881Y0096349D01*
X0135244Y0095713D01*
X0135244Y0094971D01*
X0133423Y0094971D01*
X0132095Y0093643D01*
X0132095Y0091764D01*
X0133423Y0090436D01*
X0135244Y0090436D01*
X0135244Y0089301D01*
X0135881Y0088664D01*
X0139143Y0088664D01*
X0139780Y0089301D01*
X0139780Y0090239D01*
X0141404Y0090239D01*
X0142733Y0091568D01*
X0142733Y0093446D01*
X0141404Y0094775D01*
X0139780Y0094775D01*
X0139780Y0095713D01*
X0139143Y0096349D01*
X0139780Y0095281D02*
X0155773Y0095281D01*
X0155541Y0094495D02*
X0141684Y0094495D01*
X0142470Y0093709D02*
X0155394Y0093709D01*
X0155267Y0092923D02*
X0142733Y0092923D01*
X0142733Y0092137D02*
X0155268Y0092137D01*
X0155389Y0091351D02*
X0142516Y0091351D01*
X0141731Y0090566D02*
X0155511Y0090566D01*
X0155632Y0089780D02*
X0139780Y0089780D01*
X0139473Y0088994D02*
X0155754Y0088994D01*
X0155875Y0088208D02*
X0119149Y0088208D01*
X0119271Y0088994D02*
X0135552Y0088994D01*
X0135244Y0089780D02*
X0119392Y0089780D01*
X0119514Y0090566D02*
X0133294Y0090566D01*
X0132508Y0091351D02*
X0119636Y0091351D01*
X0119758Y0092137D02*
X0132095Y0092137D01*
X0132095Y0092923D02*
X0119763Y0092923D01*
X0119634Y0093709D02*
X0132161Y0093709D01*
X0132947Y0094495D02*
X0119486Y0094495D01*
X0119256Y0095281D02*
X0135244Y0095281D01*
X0135598Y0096067D02*
X0118899Y0096067D01*
X0119027Y0087422D02*
X0155996Y0087422D01*
X0156117Y0086636D02*
X0118906Y0086636D01*
X0118661Y0085850D02*
X0156362Y0085850D01*
X0156697Y0085064D02*
X0118327Y0085064D01*
X0117896Y0084278D02*
X0136510Y0084278D01*
X0136573Y0084342D02*
X0135244Y0083013D01*
X0135244Y0081135D01*
X0114655Y0081135D01*
X0115691Y0081921D02*
X0135244Y0081921D01*
X0135244Y0082706D02*
X0116728Y0082706D01*
X0117365Y0083492D02*
X0135724Y0083492D01*
X0136573Y0084342D02*
X0138451Y0084342D01*
X0139780Y0083013D01*
X0139780Y0081135D01*
X0160369Y0081135D01*
X0161405Y0080349D02*
X0138994Y0080349D01*
X0138992Y0080347D02*
X0139780Y0081135D01*
X0139780Y0081921D02*
X0159332Y0081921D01*
X0158295Y0082706D02*
X0139780Y0082706D01*
X0139301Y0083492D02*
X0157658Y0083492D01*
X0157127Y0084278D02*
X0138515Y0084278D01*
X0137512Y0082074D02*
X0137512Y0022625D01*
X0137507Y0023198D02*
X0137537Y0023458D01*
X0137657Y0023193D01*
X0138287Y0023183D01*
X0138292Y0022058D01*
X0136742Y0022058D01*
X0136737Y0023198D01*
X0137507Y0023198D01*
X0136738Y0022977D02*
X0138288Y0022977D01*
X0138292Y0022191D02*
X0136742Y0022191D01*
X0135244Y0022191D02*
X0124273Y0022191D01*
X0124119Y0022977D02*
X0135244Y0022977D01*
X0135244Y0023763D02*
X0123982Y0023763D01*
X0123845Y0024549D02*
X0135734Y0024549D01*
X0135881Y0024696D02*
X0135244Y0024059D01*
X0135244Y0021191D01*
X0135582Y0020853D01*
X0135244Y0020516D01*
X0135244Y0017647D01*
X0135881Y0017011D01*
X0139143Y0017011D01*
X0139433Y0017300D01*
X0139526Y0017208D01*
X0141404Y0017208D01*
X0142733Y0018536D01*
X0142733Y0020415D01*
X0141404Y0021743D01*
X0139780Y0021743D01*
X0139780Y0024059D01*
X0139143Y0024696D01*
X0138992Y0024696D01*
X0138992Y0080347D01*
X0138992Y0079563D02*
X0162442Y0079563D01*
X0163478Y0078777D02*
X0138992Y0078777D01*
X0138992Y0077991D02*
X0164383Y0077991D01*
X0164864Y0077205D02*
X0138992Y0077205D01*
X0138992Y0076419D02*
X0157600Y0076419D01*
X0157408Y0076339D02*
X0156633Y0075564D01*
X0156213Y0074551D01*
X0156213Y0073455D01*
X0156633Y0072442D01*
X0157408Y0071667D01*
X0158421Y0071247D01*
X0159517Y0071247D01*
X0160530Y0071667D01*
X0161305Y0072442D01*
X0161725Y0073455D01*
X0161725Y0074551D01*
X0161305Y0075564D01*
X0160530Y0076339D01*
X0159517Y0076759D01*
X0158421Y0076759D01*
X0157408Y0076339D01*
X0156702Y0075633D02*
X0138992Y0075633D01*
X0138992Y0074847D02*
X0156336Y0074847D01*
X0156213Y0074061D02*
X0138992Y0074061D01*
X0138992Y0073275D02*
X0156287Y0073275D01*
X0156613Y0072490D02*
X0138992Y0072490D01*
X0138992Y0071704D02*
X0157371Y0071704D01*
X0160567Y0071704D02*
X0164822Y0071704D01*
X0164895Y0072490D02*
X0161325Y0072490D01*
X0161650Y0073275D02*
X0164968Y0073275D01*
X0165041Y0074061D02*
X0161725Y0074061D01*
X0161602Y0074847D02*
X0165114Y0074847D01*
X0165187Y0075633D02*
X0161236Y0075633D01*
X0160337Y0076419D02*
X0165119Y0076419D01*
X0164749Y0070918D02*
X0138992Y0070918D01*
X0138992Y0070132D02*
X0164675Y0070132D01*
X0163388Y0069346D02*
X0153514Y0069346D01*
X0154956Y0068560D02*
X0162039Y0068560D01*
X0160691Y0067774D02*
X0156529Y0067774D01*
X0147825Y0069346D02*
X0147747Y0069346D01*
X0147706Y0069346D02*
X0138992Y0069346D01*
X0138992Y0068560D02*
X0146535Y0068560D01*
X0145614Y0067774D02*
X0138992Y0067774D01*
X0138992Y0066988D02*
X0144981Y0066988D01*
X0144555Y0066202D02*
X0138992Y0066202D01*
X0138992Y0065416D02*
X0144235Y0065416D01*
X0144018Y0064630D02*
X0138992Y0064630D01*
X0138992Y0063845D02*
X0143931Y0063845D01*
X0143938Y0063059D02*
X0138992Y0063059D01*
X0138992Y0062273D02*
X0144018Y0062273D01*
X0144018Y0061487D02*
X0138992Y0061487D01*
X0138992Y0060701D02*
X0144100Y0060701D01*
X0144249Y0059915D02*
X0138992Y0059915D01*
X0138992Y0059129D02*
X0144364Y0059129D01*
X0144480Y0058343D02*
X0138992Y0058343D01*
X0138992Y0057557D02*
X0144711Y0057557D01*
X0144942Y0056771D02*
X0138992Y0056771D01*
X0138992Y0055985D02*
X0145173Y0055985D01*
X0145403Y0055199D02*
X0138992Y0055199D01*
X0138992Y0054414D02*
X0145634Y0054414D01*
X0145865Y0053628D02*
X0138992Y0053628D01*
X0138992Y0052842D02*
X0146096Y0052842D01*
X0146326Y0052056D02*
X0138992Y0052056D01*
X0138992Y0051270D02*
X0146557Y0051270D01*
X0146788Y0050484D02*
X0138992Y0050484D01*
X0138992Y0049698D02*
X0147019Y0049698D01*
X0147250Y0048912D02*
X0138992Y0048912D01*
X0138992Y0048126D02*
X0147480Y0048126D01*
X0147711Y0047340D02*
X0138992Y0047340D01*
X0138992Y0046554D02*
X0147942Y0046554D01*
X0148173Y0045769D02*
X0138992Y0045769D01*
X0138992Y0044983D02*
X0148403Y0044983D01*
X0148634Y0044197D02*
X0138992Y0044197D01*
X0138992Y0043411D02*
X0148865Y0043411D01*
X0149096Y0042625D02*
X0138992Y0042625D01*
X0138992Y0041839D02*
X0149326Y0041839D01*
X0149557Y0041053D02*
X0138992Y0041053D01*
X0138992Y0040267D02*
X0149788Y0040267D01*
X0150019Y0039481D02*
X0138992Y0039481D01*
X0138992Y0038695D02*
X0150250Y0038695D01*
X0150480Y0037909D02*
X0138992Y0037909D01*
X0138992Y0037123D02*
X0150711Y0037123D01*
X0150942Y0036338D02*
X0138992Y0036338D01*
X0138992Y0035552D02*
X0151173Y0035552D01*
X0151337Y0034766D02*
X0138992Y0034766D01*
X0138992Y0033980D02*
X0151424Y0033980D01*
X0151510Y0033194D02*
X0138992Y0033194D01*
X0138992Y0032408D02*
X0151596Y0032408D01*
X0151673Y0031622D02*
X0138992Y0031622D01*
X0138992Y0030836D02*
X0151669Y0030836D01*
X0151665Y0030050D02*
X0138992Y0030050D01*
X0138992Y0029264D02*
X0151661Y0029264D01*
X0151657Y0028478D02*
X0138992Y0028478D01*
X0138992Y0027693D02*
X0151599Y0027693D01*
X0151504Y0026907D02*
X0138992Y0026907D01*
X0138992Y0026121D02*
X0151410Y0026121D01*
X0151315Y0025335D02*
X0138992Y0025335D01*
X0139290Y0024549D02*
X0151220Y0024549D01*
X0151062Y0023763D02*
X0139780Y0023763D01*
X0139780Y0022977D02*
X0150886Y0022977D01*
X0150710Y0022191D02*
X0139780Y0022191D01*
X0141742Y0021405D02*
X0150534Y0021405D01*
X0150358Y0020619D02*
X0142528Y0020619D01*
X0142733Y0019833D02*
X0150127Y0019833D01*
X0149841Y0019047D02*
X0142733Y0019047D01*
X0142458Y0018262D02*
X0149555Y0018262D01*
X0149270Y0017476D02*
X0141672Y0017476D01*
X0140465Y0019475D02*
X0137512Y0019082D01*
X0135244Y0019047D02*
X0125159Y0019047D01*
X0125380Y0018262D02*
X0135244Y0018262D01*
X0135416Y0017476D02*
X0125718Y0017476D01*
X0126081Y0016690D02*
X0148984Y0016690D01*
X0148645Y0015904D02*
X0126443Y0015904D01*
X0126805Y0015118D02*
X0148207Y0015118D01*
X0147769Y0014332D02*
X0127173Y0014332D01*
X0127687Y0013546D02*
X0147330Y0013546D01*
X0146892Y0012760D02*
X0128202Y0012760D01*
X0128717Y0011974D02*
X0146317Y0011974D01*
X0145726Y0011188D02*
X0129231Y0011188D01*
X0129887Y0010402D02*
X0145135Y0010402D01*
X0144526Y0009617D02*
X0130554Y0009617D01*
X0131222Y0008831D02*
X0143782Y0008831D01*
X0143038Y0008045D02*
X0132001Y0008045D01*
X0132886Y0007259D02*
X0142286Y0007259D01*
X0141326Y0006473D02*
X0133771Y0006473D01*
X0134657Y0005687D02*
X0140367Y0005687D01*
X0139407Y0004901D02*
X0135542Y0004901D01*
X0136615Y0004115D02*
X0138448Y0004115D01*
X0135244Y0019833D02*
X0124938Y0019833D01*
X0124716Y0020619D02*
X0135348Y0020619D01*
X0135244Y0021405D02*
X0124495Y0021405D01*
X0123708Y0025335D02*
X0136032Y0025335D01*
X0136032Y0024696D02*
X0135881Y0024696D01*
X0136032Y0024696D02*
X0136032Y0080347D01*
X0135244Y0081135D01*
X0136030Y0080349D02*
X0113618Y0080349D01*
X0112581Y0079563D02*
X0136032Y0079563D01*
X0136032Y0078777D02*
X0111545Y0078777D01*
X0110641Y0077991D02*
X0136032Y0077991D01*
X0136032Y0077205D02*
X0110159Y0077205D01*
X0109904Y0076419D02*
X0114490Y0076419D01*
X0114298Y0076339D02*
X0113522Y0075564D01*
X0113103Y0074551D01*
X0113103Y0073455D01*
X0113522Y0072442D01*
X0114298Y0071667D01*
X0115310Y0071247D01*
X0116407Y0071247D01*
X0117420Y0071667D01*
X0118195Y0072442D01*
X0118615Y0073455D01*
X0118615Y0074551D01*
X0118195Y0075564D01*
X0117420Y0076339D01*
X0116407Y0076759D01*
X0115310Y0076759D01*
X0114298Y0076339D01*
X0113591Y0075633D02*
X0109836Y0075633D01*
X0109909Y0074847D02*
X0113225Y0074847D01*
X0113103Y0074061D02*
X0109982Y0074061D01*
X0110055Y0073275D02*
X0113177Y0073275D01*
X0113503Y0072490D02*
X0110129Y0072490D01*
X0110202Y0071704D02*
X0114261Y0071704D01*
X0117457Y0071704D02*
X0136032Y0071704D01*
X0136032Y0072490D02*
X0118215Y0072490D01*
X0118540Y0073275D02*
X0136032Y0073275D01*
X0136032Y0074061D02*
X0118615Y0074061D01*
X0118492Y0074847D02*
X0136032Y0074847D01*
X0136032Y0075633D02*
X0118126Y0075633D01*
X0117227Y0076419D02*
X0136032Y0076419D01*
X0136032Y0070918D02*
X0110275Y0070918D01*
X0110348Y0070132D02*
X0136032Y0070132D01*
X0136032Y0069346D02*
X0127371Y0069346D01*
X0128536Y0068560D02*
X0136032Y0068560D01*
X0136032Y0067774D02*
X0129434Y0067774D01*
X0130063Y0066988D02*
X0136032Y0066988D01*
X0136032Y0066202D02*
X0130467Y0066202D01*
X0130780Y0065416D02*
X0136032Y0065416D01*
X0136032Y0064630D02*
X0131015Y0064630D01*
X0131099Y0063845D02*
X0136032Y0063845D01*
X0136032Y0063059D02*
X0131007Y0063059D01*
X0131069Y0062273D02*
X0136032Y0062273D01*
X0136032Y0061487D02*
X0130999Y0061487D01*
X0130875Y0060701D02*
X0136032Y0060701D01*
X0136032Y0059915D02*
X0130779Y0059915D01*
X0130696Y0059129D02*
X0136032Y0059129D01*
X0136032Y0058343D02*
X0130461Y0058343D01*
X0130226Y0057557D02*
X0136032Y0057557D01*
X0136032Y0056771D02*
X0129991Y0056771D01*
X0129756Y0055985D02*
X0136032Y0055985D01*
X0136032Y0055199D02*
X0129521Y0055199D01*
X0129286Y0054414D02*
X0136032Y0054414D01*
X0136032Y0053628D02*
X0129051Y0053628D01*
X0128816Y0052842D02*
X0136032Y0052842D01*
X0136032Y0052056D02*
X0128581Y0052056D01*
X0128346Y0051270D02*
X0136032Y0051270D01*
X0136032Y0050484D02*
X0128111Y0050484D01*
X0127876Y0049698D02*
X0136032Y0049698D01*
X0136032Y0048912D02*
X0127641Y0048912D01*
X0127406Y0048126D02*
X0136032Y0048126D01*
X0136032Y0047340D02*
X0127171Y0047340D01*
X0126936Y0046554D02*
X0136032Y0046554D01*
X0136032Y0045769D02*
X0126701Y0045769D01*
X0126466Y0044983D02*
X0136032Y0044983D01*
X0136032Y0044197D02*
X0126231Y0044197D01*
X0125996Y0043411D02*
X0136032Y0043411D01*
X0136032Y0042625D02*
X0125761Y0042625D01*
X0125526Y0041839D02*
X0136032Y0041839D01*
X0136032Y0041053D02*
X0125291Y0041053D01*
X0125056Y0040267D02*
X0136032Y0040267D01*
X0136032Y0039481D02*
X0124822Y0039481D01*
X0124587Y0038695D02*
X0136032Y0038695D01*
X0136032Y0037909D02*
X0124352Y0037909D01*
X0124117Y0037123D02*
X0136032Y0037123D01*
X0136032Y0036338D02*
X0123963Y0036338D01*
X0123836Y0035552D02*
X0136032Y0035552D01*
X0136032Y0034766D02*
X0123708Y0034766D01*
X0123580Y0033980D02*
X0136032Y0033980D01*
X0136032Y0033194D02*
X0123480Y0033194D01*
X0123438Y0032408D02*
X0136032Y0032408D01*
X0136032Y0031622D02*
X0123396Y0031622D01*
X0123354Y0030836D02*
X0136032Y0030836D01*
X0136032Y0030050D02*
X0123313Y0030050D01*
X0123350Y0029264D02*
X0136032Y0029264D01*
X0136032Y0028478D02*
X0123400Y0028478D01*
X0123451Y0027693D02*
X0136032Y0027693D01*
X0136032Y0026907D02*
X0123501Y0026907D01*
X0123571Y0026121D02*
X0136032Y0026121D01*
X0118443Y0067774D02*
X0114388Y0067774D01*
X0113024Y0068560D02*
X0120039Y0068560D01*
X0121543Y0069346D02*
X0111660Y0069346D01*
X0134363Y0092704D02*
X0137512Y0094279D01*
X0137507Y0094852D02*
X0137537Y0095112D01*
X0137657Y0094847D01*
X0138287Y0094837D01*
X0138292Y0093712D01*
X0136742Y0093712D01*
X0136737Y0094852D01*
X0137507Y0094852D01*
X0136739Y0094495D02*
X0138289Y0094495D01*
X0140465Y0092507D02*
X0137512Y0090735D01*
X0121916Y0121145D02*
X0120037Y0121145D01*
X0119067Y0122115D01*
X0118582Y0121274D01*
X0117712Y0121041D01*
X0114887Y0122672D01*
X0114654Y0123541D01*
X0115202Y0124491D01*
X0114919Y0124491D01*
X0113591Y0125820D01*
X0113591Y0127698D01*
X0114919Y0129027D01*
X0116798Y0129027D01*
X0117446Y0128378D01*
X0117860Y0129094D01*
X0118729Y0129327D01*
X0119423Y0128927D01*
X0119509Y0128919D01*
X0119935Y0128982D01*
X0120098Y0128860D01*
X0120301Y0128840D01*
X0120574Y0128508D01*
X0120919Y0128251D01*
X0120949Y0128050D01*
X0120955Y0128042D01*
X0121555Y0127696D01*
X0121788Y0126827D01*
X0121126Y0125680D01*
X0121916Y0125680D01*
X0123244Y0124352D01*
X0123244Y0122473D01*
X0121916Y0121145D01*
X0121987Y0121216D02*
X0156854Y0121216D01*
X0156639Y0121274D02*
X0157509Y0121041D01*
X0160334Y0122672D01*
X0160567Y0123541D01*
X0160068Y0124406D01*
X0160120Y0124491D01*
X0160696Y0124491D01*
X0162024Y0125820D01*
X0162024Y0127698D01*
X0160696Y0129027D01*
X0158817Y0129027D01*
X0157919Y0128129D01*
X0157361Y0129094D01*
X0156492Y0129327D01*
X0155892Y0128981D01*
X0155883Y0128980D01*
X0155694Y0129055D01*
X0155299Y0128883D01*
X0154874Y0128813D01*
X0154755Y0128648D01*
X0154568Y0128567D01*
X0154410Y0128167D01*
X0154360Y0128096D01*
X0153666Y0127696D01*
X0153433Y0126827D01*
X0153932Y0125962D01*
X0153881Y0125877D01*
X0153305Y0125877D01*
X0151977Y0124549D01*
X0151977Y0122670D01*
X0153305Y0121342D01*
X0155184Y0121342D01*
X0156082Y0122240D01*
X0156639Y0121274D01*
X0156219Y0122002D02*
X0155844Y0122002D01*
X0157813Y0121216D02*
X0191816Y0121216D01*
X0192282Y0120751D02*
X0194160Y0120751D01*
X0195489Y0122079D01*
X0195489Y0122446D01*
X0196241Y0122011D01*
X0197111Y0122244D01*
X0198742Y0125069D01*
X0198509Y0125939D01*
X0197668Y0126424D01*
X0198441Y0127198D01*
X0198441Y0129076D01*
X0197113Y0130405D01*
X0195234Y0130405D01*
X0193906Y0129076D01*
X0193906Y0128597D01*
X0193905Y0128597D01*
X0192956Y0129145D01*
X0192087Y0128912D01*
X0191741Y0128312D01*
X0191733Y0128306D01*
X0191532Y0128276D01*
X0191275Y0127931D01*
X0190942Y0127658D01*
X0190922Y0127455D01*
X0190801Y0127292D01*
X0190864Y0126866D01*
X0190856Y0126780D01*
X0190455Y0126086D01*
X0190688Y0125217D01*
X0191654Y0124659D01*
X0190953Y0123958D01*
X0190953Y0122079D01*
X0192282Y0120751D01*
X0191030Y0122002D02*
X0159174Y0122002D01*
X0160365Y0122788D02*
X0190953Y0122788D01*
X0190953Y0123574D02*
X0160549Y0123574D01*
X0160095Y0124360D02*
X0191355Y0124360D01*
X0190812Y0125146D02*
X0161350Y0125146D01*
X0162024Y0125932D02*
X0190497Y0125932D01*
X0190820Y0126718D02*
X0162024Y0126718D01*
X0162024Y0127503D02*
X0190927Y0127503D01*
X0191619Y0128289D02*
X0161433Y0128289D01*
X0159756Y0126759D02*
X0157886Y0123650D01*
X0155885Y0125932D02*
X0155679Y0125932D01*
X0155731Y0125843D02*
X0157073Y0126618D01*
X0156507Y0127589D01*
X0155956Y0127283D01*
X0155720Y0127453D01*
X0155824Y0127212D01*
X0155157Y0126827D01*
X0155731Y0125843D01*
X0156115Y0126718D02*
X0154244Y0123609D01*
X0152645Y0122002D02*
X0122773Y0122002D01*
X0123244Y0122788D02*
X0151977Y0122788D01*
X0151977Y0123574D02*
X0123244Y0123574D01*
X0123236Y0124360D02*
X0151977Y0124360D01*
X0152574Y0125146D02*
X0122450Y0125146D01*
X0121271Y0125932D02*
X0153914Y0125932D01*
X0153496Y0126718D02*
X0121725Y0126718D01*
X0121606Y0127503D02*
X0153615Y0127503D01*
X0154459Y0128289D02*
X0120868Y0128289D01*
X0119545Y0127428D02*
X0119389Y0127217D01*
X0118722Y0127602D01*
X0118156Y0126613D01*
X0119499Y0125838D01*
X0120057Y0126814D01*
X0119516Y0127138D01*
X0119545Y0127428D01*
X0118893Y0127503D02*
X0118666Y0127503D01*
X0119107Y0126718D02*
X0115899Y0126718D01*
X0115859Y0126759D01*
X0114265Y0125146D02*
X0084016Y0125146D01*
X0084139Y0125217D02*
X0084372Y0126086D01*
X0084026Y0126686D01*
X0084024Y0126695D01*
X0084099Y0126884D01*
X0083928Y0127279D01*
X0083858Y0127704D01*
X0083693Y0127823D01*
X0083612Y0128010D01*
X0083211Y0128168D01*
X0083141Y0128218D01*
X0082741Y0128912D01*
X0081871Y0129145D01*
X0080922Y0128596D01*
X0080922Y0129273D01*
X0079593Y0130601D01*
X0077715Y0130601D01*
X0076386Y0129273D01*
X0076386Y0127394D01*
X0077214Y0126566D01*
X0077214Y0126456D01*
X0076318Y0125939D01*
X0076085Y0125069D01*
X0077717Y0122244D01*
X0078586Y0122011D01*
X0079536Y0122559D01*
X0079536Y0121883D01*
X0080864Y0120554D01*
X0082743Y0120554D01*
X0084071Y0121883D01*
X0084071Y0123761D01*
X0083243Y0124589D01*
X0083243Y0124700D01*
X0084139Y0125217D01*
X0084331Y0125932D02*
X0113591Y0125932D01*
X0113591Y0126718D02*
X0084033Y0126718D01*
X0083891Y0127503D02*
X0113591Y0127503D01*
X0114182Y0128289D02*
X0083100Y0128289D01*
X0082130Y0129075D02*
X0117849Y0129075D01*
X0119166Y0129075D02*
X0156055Y0129075D01*
X0157372Y0129075D02*
X0192697Y0129075D01*
X0193076Y0129075D02*
X0193906Y0129075D01*
X0194691Y0129861D02*
X0080333Y0129861D01*
X0080922Y0129075D02*
X0081751Y0129075D01*
X0081872Y0127421D02*
X0082257Y0126755D01*
X0082497Y0126859D01*
X0082328Y0126622D01*
X0082634Y0126072D01*
X0081662Y0125505D01*
X0080887Y0126847D01*
X0081872Y0127421D01*
X0082396Y0126718D02*
X0080962Y0126718D01*
X0081763Y0126464D02*
X0081763Y0122862D01*
X0081804Y0122822D01*
X0083405Y0121216D02*
X0117408Y0121216D01*
X0118367Y0121216D02*
X0119966Y0121216D01*
X0119180Y0122002D02*
X0119002Y0122002D01*
X0117335Y0123650D02*
X0120739Y0123650D01*
X0120977Y0123412D01*
X0119553Y0125932D02*
X0119336Y0125932D01*
X0120002Y0126718D02*
X0118216Y0126718D01*
X0115126Y0124360D02*
X0083473Y0124360D01*
X0084071Y0123574D02*
X0114673Y0123574D01*
X0114856Y0122788D02*
X0084071Y0122788D01*
X0084071Y0122002D02*
X0116047Y0122002D01*
X0122006Y0134334D02*
X0120678Y0135662D01*
X0120678Y0137541D01*
X0122006Y0138869D01*
X0123885Y0138869D01*
X0124672Y0138082D01*
X0130667Y0138082D01*
X0131652Y0139066D01*
X0133530Y0139066D01*
X0134859Y0137738D01*
X0134859Y0135859D01*
X0133530Y0134531D01*
X0131652Y0134531D01*
X0131061Y0135121D01*
X0124672Y0135121D01*
X0123885Y0134334D01*
X0122006Y0134334D01*
X0121763Y0134577D02*
X0056213Y0134577D01*
X0056213Y0134282D02*
X0055793Y0133269D01*
X0055018Y0132493D01*
X0054005Y0132074D01*
X0052909Y0132074D01*
X0051896Y0132493D01*
X0051121Y0133269D01*
X0050701Y0134282D01*
X0050701Y0135378D01*
X0051121Y0136391D01*
X0051896Y0137166D01*
X0052909Y0137586D01*
X0054005Y0137586D01*
X0055018Y0137166D01*
X0055793Y0136391D01*
X0056213Y0135378D01*
X0056213Y0134282D01*
X0056010Y0133791D02*
X0219015Y0133791D01*
X0218811Y0134282D02*
X0219231Y0133269D01*
X0220006Y0132493D01*
X0221019Y0132074D01*
X0222115Y0132074D01*
X0223128Y0132493D01*
X0223904Y0133269D01*
X0224323Y0134282D01*
X0224323Y0135378D01*
X0223904Y0136391D01*
X0223128Y0137166D01*
X0222115Y0137586D01*
X0221019Y0137586D01*
X0220006Y0137166D01*
X0219231Y0136391D01*
X0218811Y0135378D01*
X0218811Y0134282D01*
X0218811Y0134577D02*
X0133576Y0134577D01*
X0134362Y0135363D02*
X0218811Y0135363D01*
X0219131Y0136148D02*
X0134859Y0136148D01*
X0134859Y0136934D02*
X0219775Y0136934D01*
X0218897Y0140864D02*
X0223438Y0140864D01*
X0224547Y0140078D02*
X0217030Y0140078D01*
X0215163Y0139292D02*
X0225656Y0139292D01*
X0226766Y0138506D02*
X0212992Y0138506D01*
X0210020Y0138506D02*
X0209637Y0138506D01*
X0209617Y0138506D02*
X0134090Y0138506D01*
X0134859Y0137720D02*
X0227699Y0137720D01*
X0227703Y0136934D02*
X0223360Y0136934D01*
X0224004Y0136148D02*
X0227706Y0136148D01*
X0227709Y0135363D02*
X0224323Y0135363D01*
X0224323Y0134577D02*
X0227713Y0134577D01*
X0227716Y0133791D02*
X0224120Y0133791D01*
X0223640Y0133005D02*
X0227719Y0133005D01*
X0227630Y0132219D02*
X0222466Y0132219D01*
X0220669Y0132219D02*
X0054355Y0132219D01*
X0055530Y0133005D02*
X0219495Y0133005D01*
X0222381Y0127503D02*
X0198441Y0127503D01*
X0198441Y0128289D02*
X0223604Y0128289D01*
X0224793Y0129075D02*
X0198441Y0129075D01*
X0197656Y0129861D02*
X0225982Y0129861D01*
X0226871Y0130647D02*
X0048161Y0130647D01*
X0047664Y0131433D02*
X0227366Y0131433D01*
X0221570Y0126718D02*
X0197961Y0126718D01*
X0198511Y0125932D02*
X0220927Y0125932D01*
X0220488Y0125146D02*
X0198722Y0125146D01*
X0198333Y0124360D02*
X0220182Y0124360D01*
X0219976Y0123574D02*
X0197879Y0123574D01*
X0197425Y0122788D02*
X0219863Y0122788D01*
X0219875Y0122002D02*
X0195411Y0122002D01*
X0194625Y0121216D02*
X0219970Y0121216D01*
X0220140Y0120430D02*
X0054912Y0120430D01*
X0055085Y0121216D02*
X0080202Y0121216D01*
X0079536Y0122002D02*
X0055182Y0122002D01*
X0055190Y0122788D02*
X0077402Y0122788D01*
X0076949Y0123574D02*
X0055078Y0123574D01*
X0054872Y0124360D02*
X0076495Y0124360D01*
X0076106Y0125146D02*
X0054565Y0125146D01*
X0054089Y0125932D02*
X0076316Y0125932D01*
X0077063Y0126718D02*
X0053469Y0126718D01*
X0052658Y0127503D02*
X0076386Y0127503D01*
X0076386Y0128289D02*
X0051436Y0128289D01*
X0050261Y0129075D02*
X0076386Y0129075D01*
X0076974Y0129861D02*
X0049086Y0129861D01*
X0047393Y0132219D02*
X0052559Y0132219D01*
X0051385Y0133005D02*
X0047334Y0133005D01*
X0047333Y0133791D02*
X0050904Y0133791D01*
X0050701Y0134577D02*
X0047332Y0134577D01*
X0047331Y0135363D02*
X0050701Y0135363D01*
X0051020Y0136148D02*
X0047331Y0136148D01*
X0047330Y0136934D02*
X0051664Y0136934D01*
X0049367Y0139292D02*
X0059859Y0139292D01*
X0057992Y0140078D02*
X0050477Y0140078D01*
X0051586Y0140864D02*
X0056126Y0140864D01*
X0055250Y0136934D02*
X0120678Y0136934D01*
X0120678Y0136148D02*
X0055894Y0136148D01*
X0056213Y0135363D02*
X0120977Y0135363D01*
X0122945Y0136601D02*
X0132394Y0136601D01*
X0132591Y0136798D01*
X0131092Y0138506D02*
X0124247Y0138506D01*
X0121643Y0138506D02*
X0065407Y0138506D01*
X0065386Y0138506D02*
X0065003Y0138506D01*
X0067433Y0139292D02*
X0207589Y0139292D01*
X0205562Y0140078D02*
X0069459Y0140078D01*
X0071462Y0140864D02*
X0120594Y0140864D01*
X0120628Y0140830D02*
X0122507Y0140830D01*
X0123835Y0142158D01*
X0123835Y0143272D01*
X0130645Y0150082D01*
X0131759Y0150082D01*
X0133087Y0151410D01*
X0133087Y0153289D01*
X0131759Y0154617D01*
X0129880Y0154617D01*
X0128552Y0153289D01*
X0128552Y0152175D01*
X0121742Y0145365D01*
X0120628Y0145365D01*
X0119300Y0144037D01*
X0119300Y0142158D01*
X0120628Y0140830D01*
X0119808Y0141650D02*
X0072454Y0141650D01*
X0073250Y0142436D02*
X0119300Y0142436D01*
X0119300Y0143222D02*
X0073951Y0143222D01*
X0074476Y0144008D02*
X0119300Y0144008D01*
X0120056Y0144794D02*
X0074877Y0144794D01*
X0075251Y0145579D02*
X0121956Y0145579D01*
X0122742Y0146365D02*
X0075494Y0146365D01*
X0075690Y0147151D02*
X0123528Y0147151D01*
X0124314Y0147937D02*
X0075805Y0147937D01*
X0075702Y0148723D02*
X0125099Y0148723D01*
X0125885Y0149509D02*
X0075709Y0149509D01*
X0075715Y0150295D02*
X0126671Y0150295D01*
X0127457Y0151081D02*
X0075721Y0151081D01*
X0075728Y0151867D02*
X0128243Y0151867D01*
X0128552Y0152653D02*
X0075734Y0152653D01*
X0075740Y0153439D02*
X0097586Y0153439D01*
X0097865Y0153160D02*
X0099744Y0153160D01*
X0101072Y0154488D01*
X0101072Y0156184D01*
X0101939Y0156184D01*
X0102575Y0156821D01*
X0102575Y0157513D01*
X0102578Y0157522D01*
X0102738Y0157648D01*
X0102787Y0158076D01*
X0102939Y0158479D01*
X0102855Y0158664D01*
X0102878Y0158866D01*
X0102611Y0159204D01*
X0102575Y0159283D01*
X0102575Y0160083D01*
X0101939Y0160720D01*
X0100929Y0160720D01*
X0100929Y0162416D01*
X0099600Y0163744D01*
X0097722Y0163744D01*
X0096393Y0162416D01*
X0096393Y0160720D01*
X0095527Y0160720D01*
X0094890Y0160083D01*
X0094890Y0156821D01*
X0095527Y0156184D01*
X0096537Y0156184D01*
X0096537Y0154488D01*
X0097865Y0153160D01*
X0096800Y0154224D02*
X0075747Y0154224D01*
X0075753Y0155010D02*
X0096537Y0155010D01*
X0096537Y0155796D02*
X0075759Y0155796D01*
X0075766Y0156582D02*
X0095128Y0156582D01*
X0094890Y0157368D02*
X0075772Y0157368D01*
X0075778Y0158154D02*
X0094890Y0158154D01*
X0094890Y0158940D02*
X0075855Y0158940D01*
X0075779Y0159726D02*
X0094890Y0159726D01*
X0095319Y0160512D02*
X0075772Y0160512D01*
X0075765Y0161298D02*
X0096393Y0161298D01*
X0096393Y0162084D02*
X0075758Y0162084D01*
X0075751Y0162870D02*
X0096847Y0162870D01*
X0097633Y0163655D02*
X0075745Y0163655D01*
X0075738Y0164441D02*
X0114733Y0164441D01*
X0114919Y0164255D02*
X0116798Y0164255D01*
X0118126Y0165583D01*
X0118126Y0167462D01*
X0116798Y0168790D01*
X0114919Y0168790D01*
X0114723Y0168594D01*
X0112418Y0169549D01*
X0112418Y0169824D01*
X0111089Y0171153D01*
X0109211Y0171153D01*
X0107882Y0169824D01*
X0107882Y0167946D01*
X0109211Y0166617D01*
X0111089Y0166617D01*
X0111285Y0166813D01*
X0113591Y0165859D01*
X0113591Y0165583D01*
X0114919Y0164255D01*
X0113947Y0165227D02*
X0075731Y0165227D01*
X0075724Y0166013D02*
X0113218Y0166013D01*
X0111319Y0166799D02*
X0111271Y0166799D01*
X0109029Y0166799D02*
X0075717Y0166799D01*
X0075711Y0167585D02*
X0108243Y0167585D01*
X0107882Y0168371D02*
X0075704Y0168371D01*
X0075805Y0169157D02*
X0107882Y0169157D01*
X0108001Y0169943D02*
X0075690Y0169943D01*
X0075502Y0170729D02*
X0108787Y0170729D01*
X0110150Y0168885D02*
X0115859Y0166523D01*
X0118126Y0166799D02*
X0139234Y0166799D01*
X0140973Y0166013D02*
X0118126Y0166013D01*
X0117770Y0165227D02*
X0142712Y0165227D01*
X0144452Y0164441D02*
X0116984Y0164441D01*
X0118003Y0167585D02*
X0137494Y0167585D01*
X0135755Y0168371D02*
X0117217Y0168371D01*
X0113364Y0169157D02*
X0124099Y0169157D01*
X0123234Y0169523D02*
X0125639Y0168506D01*
X0128242Y0168696D01*
X0128834Y0169055D01*
X0129383Y0169389D01*
X0129882Y0169691D01*
X0129882Y0169691D01*
X0130479Y0170054D01*
X0130479Y0170054D01*
X0130534Y0170088D01*
X0130785Y0170240D01*
X0132045Y0168979D01*
X0133924Y0168979D01*
X0134075Y0169130D01*
X0146967Y0163305D01*
X0147526Y0163053D01*
X0148781Y0162485D01*
X0148781Y0162485D01*
X0151530Y0162688D01*
X0153847Y0164180D01*
X0153847Y0164180D01*
X0155170Y0166598D01*
X0155170Y0166598D01*
X0155173Y0167976D01*
X0155173Y0167983D01*
X0155199Y0177276D01*
X0155277Y0178471D01*
X0154541Y0180848D01*
X0154541Y0180848D01*
X0153001Y0182804D01*
X0151957Y0183427D01*
X0151418Y0183777D01*
X0151415Y0183792D01*
X0150906Y0184110D01*
X0150892Y0184119D01*
X0149642Y0185061D01*
X0147717Y0187523D01*
X0146751Y0190495D01*
X0146669Y0192058D01*
X0146669Y0192075D01*
X0146670Y0192093D01*
X0146777Y0193392D01*
X0147495Y0195901D01*
X0148838Y0198139D01*
X0150439Y0199688D01*
X0152034Y0199688D01*
X0153363Y0201016D01*
X0153363Y0202895D01*
X0152034Y0204223D01*
X0150156Y0204223D01*
X0148827Y0202895D01*
X0148827Y0202366D01*
X0146432Y0200050D01*
X0144676Y0197124D01*
X0143738Y0193844D01*
X0143738Y0193844D01*
X0143709Y0192151D01*
X0143637Y0190057D01*
X0144941Y0186046D01*
X0147060Y0183334D01*
X0127454Y0181768D01*
X0127421Y0181793D01*
X0126848Y0181720D01*
X0126794Y0181716D01*
X0126726Y0181716D01*
X0126570Y0181787D01*
X0126513Y0181852D01*
X0126460Y0181956D01*
X0126435Y0182187D01*
X0126506Y0182371D01*
X0126903Y0182758D01*
X0127059Y0182894D01*
X0127059Y0182894D01*
X0127334Y0183135D01*
X0127337Y0183182D01*
X0128179Y0184003D01*
X0129957Y0186999D01*
X0130900Y0190353D01*
X0130914Y0191520D01*
X0130940Y0191547D01*
X0130922Y0192128D01*
X0130929Y0192708D01*
X0130903Y0192735D01*
X0130867Y0193878D01*
X0130867Y0193878D01*
X0129873Y0197171D01*
X0128061Y0200093D01*
X0128061Y0200093D01*
X0125607Y0202398D01*
X0125607Y0202895D01*
X0124278Y0204223D01*
X0122400Y0204223D01*
X0121071Y0202895D01*
X0121071Y0201016D01*
X0122400Y0199688D01*
X0124041Y0199688D01*
X0125682Y0198147D01*
X0127072Y0195906D01*
X0127834Y0193382D01*
X0127959Y0192099D01*
X0127857Y0190792D01*
X0127131Y0188210D01*
X0125762Y0185904D01*
X0124876Y0184919D01*
X0124648Y0184718D01*
X0124624Y0184698D01*
X0124186Y0184315D01*
X0124186Y0184315D01*
X0124013Y0184163D01*
X0124013Y0184163D01*
X0123399Y0182590D01*
X0123581Y0180912D01*
X0123709Y0180720D01*
X0124049Y0180210D01*
X0124567Y0179434D01*
X0126265Y0178660D01*
X0127155Y0178774D01*
X0146800Y0180343D01*
X0146817Y0180329D01*
X0147408Y0180392D01*
X0147434Y0180394D01*
X0147769Y0180399D01*
X0148430Y0180228D01*
X0148725Y0180058D01*
X0148733Y0180053D01*
X0149228Y0179705D01*
X0149238Y0179707D01*
X0149755Y0179353D01*
X0150102Y0178972D01*
X0150551Y0177946D01*
X0150599Y0177390D01*
X0150599Y0177367D01*
X0150585Y0176772D01*
X0150599Y0176757D01*
X0150599Y0174987D01*
X0150555Y0174546D01*
X0150218Y0173732D01*
X0149640Y0173153D01*
X0149278Y0173515D01*
X0147400Y0173515D01*
X0146071Y0172186D01*
X0146071Y0170308D01*
X0147400Y0168979D01*
X0149278Y0168979D01*
X0150552Y0170253D01*
X0151296Y0170562D01*
X0152222Y0171488D01*
X0152214Y0168597D01*
X0152213Y0167984D01*
X0152136Y0167378D01*
X0151554Y0166315D01*
X0150536Y0165660D01*
X0149328Y0165570D01*
X0148745Y0165751D01*
X0135252Y0171847D01*
X0135252Y0172186D01*
X0133924Y0173515D01*
X0132045Y0173515D01*
X0131948Y0173418D01*
X0130261Y0173385D01*
X0129991Y0173221D01*
X0129174Y0172725D01*
X0128943Y0172585D01*
X0127821Y0171904D01*
X0127294Y0171664D01*
X0126146Y0171580D01*
X0125086Y0172028D01*
X0124664Y0172425D01*
X0124270Y0172895D01*
X0124270Y0172895D01*
X0122851Y0174587D01*
X0122851Y0175927D01*
X0121522Y0177255D01*
X0119644Y0177255D01*
X0118315Y0175927D01*
X0118315Y0174048D01*
X0119644Y0172720D01*
X0120553Y0172720D01*
X0122790Y0170053D01*
X0123234Y0169523D01*
X0123234Y0169523D01*
X0122882Y0169943D02*
X0112299Y0169943D01*
X0111513Y0170729D02*
X0122223Y0170729D01*
X0121564Y0171515D02*
X0075256Y0171515D01*
X0074887Y0172300D02*
X0120904Y0172300D01*
X0119277Y0173086D02*
X0074474Y0173086D01*
X0073960Y0173872D02*
X0118491Y0173872D01*
X0118315Y0174658D02*
X0073267Y0174658D01*
X0072476Y0175444D02*
X0118315Y0175444D01*
X0118619Y0176230D02*
X0071466Y0176230D01*
X0069490Y0177016D02*
X0119405Y0177016D01*
X0120583Y0174987D02*
X0123530Y0171474D01*
X0124796Y0172300D02*
X0128475Y0172300D01*
X0128943Y0172585D02*
X0128943Y0172585D01*
X0129769Y0173086D02*
X0124109Y0173086D01*
X0123450Y0173872D02*
X0150276Y0173872D01*
X0150566Y0174658D02*
X0122851Y0174658D01*
X0122851Y0175444D02*
X0150599Y0175444D01*
X0150599Y0176230D02*
X0122547Y0176230D01*
X0121761Y0177016D02*
X0150590Y0177016D01*
X0150564Y0177802D02*
X0067463Y0177802D01*
X0065436Y0178588D02*
X0150271Y0178588D01*
X0149725Y0179374D02*
X0134660Y0179374D01*
X0136834Y0182517D02*
X0126657Y0182517D01*
X0125622Y0183605D02*
X0125559Y0183547D01*
X0125498Y0183486D01*
X0125440Y0183423D01*
X0125385Y0183357D01*
X0125332Y0183289D01*
X0125283Y0183219D01*
X0125237Y0183146D01*
X0125194Y0183072D01*
X0125154Y0182996D01*
X0125118Y0182918D01*
X0125085Y0182839D01*
X0125055Y0182758D01*
X0125029Y0182676D01*
X0125007Y0182593D01*
X0124988Y0182509D01*
X0124973Y0182425D01*
X0124962Y0182339D01*
X0124954Y0182254D01*
X0124951Y0182168D01*
X0124950Y0182082D01*
X0124954Y0181996D01*
X0124961Y0181911D01*
X0124973Y0181826D01*
X0124987Y0181741D01*
X0125006Y0181657D01*
X0125028Y0181574D01*
X0125054Y0181492D01*
X0125083Y0181411D01*
X0125116Y0181332D01*
X0125152Y0181254D01*
X0125192Y0181178D01*
X0125235Y0181103D01*
X0125281Y0181031D01*
X0124083Y0180160D02*
X0055243Y0180160D01*
X0055018Y0179934D02*
X0055793Y0180710D01*
X0056213Y0181723D01*
X0056213Y0182819D01*
X0055793Y0183832D01*
X0055018Y0184607D01*
X0054005Y0185027D01*
X0052909Y0185027D01*
X0051896Y0184607D01*
X0051121Y0183832D01*
X0050701Y0182819D01*
X0050701Y0181723D01*
X0051121Y0180710D01*
X0051896Y0179934D01*
X0052909Y0179515D01*
X0054005Y0179515D01*
X0055018Y0179934D01*
X0055891Y0180946D02*
X0123577Y0180946D01*
X0123581Y0180912D02*
X0123581Y0180912D01*
X0123709Y0180720D02*
X0123709Y0180720D01*
X0123492Y0181731D02*
X0056213Y0181731D01*
X0056213Y0182517D02*
X0123407Y0182517D01*
X0123399Y0182590D02*
X0123399Y0182590D01*
X0123677Y0183303D02*
X0056012Y0183303D01*
X0055536Y0184089D02*
X0123984Y0184089D01*
X0124827Y0184875D02*
X0054371Y0184875D01*
X0052543Y0184875D02*
X0047391Y0184875D01*
X0047304Y0184089D02*
X0051378Y0184089D01*
X0050902Y0183303D02*
X0047308Y0183303D01*
X0047311Y0182517D02*
X0050701Y0182517D01*
X0050701Y0181731D02*
X0047314Y0181731D01*
X0047317Y0180946D02*
X0051023Y0180946D01*
X0051671Y0180160D02*
X0047321Y0180160D01*
X0047324Y0179374D02*
X0124698Y0179374D01*
X0124567Y0179434D02*
X0124567Y0179434D01*
X0124567Y0179434D01*
X0126265Y0178660D02*
X0126265Y0178660D01*
X0127001Y0180247D02*
X0147271Y0181866D01*
X0146674Y0183303D02*
X0127462Y0183303D01*
X0128179Y0184003D02*
X0128179Y0184003D01*
X0128179Y0184003D01*
X0128230Y0184089D02*
X0146470Y0184089D01*
X0145856Y0184875D02*
X0128697Y0184875D01*
X0129163Y0185661D02*
X0145242Y0185661D01*
X0144941Y0186046D02*
X0144941Y0186046D01*
X0144810Y0186447D02*
X0129630Y0186447D01*
X0129957Y0186999D02*
X0129957Y0186999D01*
X0130023Y0187233D02*
X0144555Y0187233D01*
X0144299Y0188019D02*
X0130244Y0188019D01*
X0130465Y0188805D02*
X0144044Y0188805D01*
X0143788Y0189591D02*
X0130686Y0189591D01*
X0130900Y0190353D02*
X0130900Y0190353D01*
X0130901Y0190376D02*
X0143648Y0190376D01*
X0143637Y0190057D02*
X0143637Y0190057D01*
X0143675Y0191162D02*
X0130910Y0191162D01*
X0130928Y0191948D02*
X0143702Y0191948D01*
X0143719Y0192734D02*
X0130904Y0192734D01*
X0130878Y0193520D02*
X0143732Y0193520D01*
X0143870Y0194306D02*
X0130738Y0194306D01*
X0130501Y0195092D02*
X0144095Y0195092D01*
X0144320Y0195878D02*
X0130263Y0195878D01*
X0130026Y0196664D02*
X0144545Y0196664D01*
X0144676Y0197124D02*
X0144676Y0197124D01*
X0144872Y0197450D02*
X0129700Y0197450D01*
X0129873Y0197171D02*
X0129873Y0197171D01*
X0129213Y0198236D02*
X0145343Y0198236D01*
X0145815Y0199022D02*
X0128725Y0199022D01*
X0128238Y0199807D02*
X0146286Y0199807D01*
X0146432Y0200050D02*
X0146432Y0200050D01*
X0146994Y0200593D02*
X0127529Y0200593D01*
X0126692Y0201379D02*
X0147806Y0201379D01*
X0148619Y0202165D02*
X0125855Y0202165D01*
X0125551Y0202951D02*
X0148883Y0202951D01*
X0149669Y0203737D02*
X0124765Y0203737D01*
X0121913Y0203737D02*
X0042651Y0203737D01*
X0039411Y0204523D02*
X0158496Y0204523D01*
X0158695Y0203826D02*
X0158863Y0203236D01*
X0159077Y0202488D01*
X0160106Y0201320D01*
X0160257Y0201255D01*
X0160457Y0201170D01*
X0160821Y0201014D01*
X0161000Y0200937D01*
X0161254Y0200828D01*
X0162343Y0200149D01*
X0164265Y0198344D01*
X0165655Y0196103D01*
X0166417Y0193579D01*
X0166543Y0192281D01*
X0166467Y0190970D01*
X0165801Y0188399D01*
X0164617Y0186310D01*
X0163738Y0186310D01*
X0162410Y0184982D01*
X0162410Y0183103D01*
X0163738Y0181775D01*
X0165617Y0181775D01*
X0166945Y0183103D01*
X0166945Y0184236D01*
X0166945Y0184237D01*
X0168650Y0187245D01*
X0168650Y0187245D01*
X0169518Y0190593D01*
X0169509Y0191729D01*
X0169523Y0191744D01*
X0169504Y0192339D01*
X0169499Y0192935D01*
X0169485Y0192949D01*
X0169450Y0194075D01*
X0168456Y0197367D01*
X0168456Y0197367D01*
X0166643Y0200290D01*
X0166643Y0200290D01*
X0164137Y0202645D01*
X0164137Y0202645D01*
X0163096Y0203203D01*
X0163068Y0203272D01*
X0162564Y0203488D01*
X0162081Y0203747D01*
X0162010Y0203725D01*
X0161987Y0203735D01*
X0161893Y0203788D01*
X0161751Y0203950D01*
X0161710Y0204050D01*
X0161601Y0204433D01*
X0159705Y0211065D01*
X0159537Y0211655D01*
X0159129Y0213081D01*
X0159129Y0213081D01*
X0158472Y0213903D01*
X0153851Y0219679D01*
X0153851Y0219679D01*
X0153468Y0220158D01*
X0152949Y0220977D01*
X0152620Y0221890D01*
X0152477Y0222486D01*
X0150975Y0228747D01*
X0151394Y0229166D01*
X0151394Y0231045D01*
X0150066Y0232373D01*
X0148187Y0232373D01*
X0146859Y0231045D01*
X0146859Y0229166D01*
X0148136Y0227889D01*
X0149598Y0221795D01*
X0149741Y0221199D01*
X0149828Y0220837D01*
X0149885Y0220603D01*
X0150126Y0219596D01*
X0150773Y0218788D01*
X0150773Y0218788D01*
X0151331Y0218090D01*
X0151539Y0217830D01*
X0151539Y0217830D01*
X0155508Y0212869D01*
X0155891Y0212390D01*
X0156368Y0211656D01*
X0156690Y0210842D01*
X0156859Y0210252D01*
X0158695Y0203826D01*
X0158720Y0203737D02*
X0152521Y0203737D01*
X0153306Y0202951D02*
X0158945Y0202951D01*
X0159077Y0202488D02*
X0159077Y0202488D01*
X0159361Y0202165D02*
X0153363Y0202165D01*
X0153363Y0201379D02*
X0160054Y0201379D01*
X0160106Y0201320D02*
X0160106Y0201320D01*
X0161404Y0202374D02*
X0161922Y0202153D01*
X0161984Y0203737D02*
X0162048Y0203737D01*
X0162099Y0203737D02*
X0232819Y0203737D01*
X0229510Y0202951D02*
X0163565Y0202951D01*
X0164647Y0202165D02*
X0226499Y0202165D01*
X0224710Y0201379D02*
X0165484Y0201379D01*
X0166321Y0200593D02*
X0223335Y0200593D01*
X0221961Y0199807D02*
X0166943Y0199807D01*
X0167430Y0199022D02*
X0221272Y0199022D01*
X0220772Y0198236D02*
X0167917Y0198236D01*
X0168405Y0197450D02*
X0220382Y0197450D01*
X0220109Y0196664D02*
X0168668Y0196664D01*
X0168905Y0195878D02*
X0191416Y0195878D01*
X0190756Y0195218D02*
X0190756Y0193339D01*
X0191726Y0192369D01*
X0190885Y0191884D01*
X0190652Y0191014D01*
X0190998Y0190415D01*
X0191000Y0190405D01*
X0190925Y0190216D01*
X0191096Y0189821D01*
X0191166Y0189396D01*
X0191332Y0189277D01*
X0191413Y0189091D01*
X0191813Y0188932D01*
X0191883Y0188882D01*
X0192284Y0188189D01*
X0193153Y0187956D01*
X0194102Y0188504D01*
X0194103Y0188503D01*
X0194103Y0188024D01*
X0195431Y0186696D01*
X0197310Y0186696D01*
X0198638Y0188024D01*
X0198638Y0189903D01*
X0197865Y0190676D01*
X0198706Y0191162D01*
X0198939Y0192031D01*
X0197308Y0194857D01*
X0196438Y0195090D01*
X0195527Y0194563D01*
X0195292Y0194697D01*
X0195292Y0195218D01*
X0193963Y0196546D01*
X0192085Y0196546D01*
X0190756Y0195218D01*
X0190756Y0195092D02*
X0169143Y0195092D01*
X0169380Y0194306D02*
X0190756Y0194306D01*
X0190756Y0193520D02*
X0169467Y0193520D01*
X0169450Y0194075D02*
X0169450Y0194075D01*
X0169501Y0192734D02*
X0191361Y0192734D01*
X0190997Y0191948D02*
X0169516Y0191948D01*
X0169514Y0191162D02*
X0190692Y0191162D01*
X0190989Y0190376D02*
X0169462Y0190376D01*
X0169518Y0190593D02*
X0169518Y0190593D01*
X0169258Y0189591D02*
X0191134Y0189591D01*
X0191928Y0188805D02*
X0169055Y0188805D01*
X0168851Y0188019D02*
X0192918Y0188019D01*
X0193262Y0188019D02*
X0194108Y0188019D01*
X0194894Y0187233D02*
X0168643Y0187233D01*
X0168198Y0186447D02*
X0226871Y0186447D01*
X0227365Y0185661D02*
X0167752Y0185661D01*
X0156016Y0184830D02*
X0156024Y0184558D01*
X0156038Y0184286D01*
X0156059Y0184014D01*
X0156087Y0183744D01*
X0156122Y0183474D01*
X0156162Y0183205D01*
X0156210Y0182937D01*
X0156264Y0182670D01*
X0156324Y0182405D01*
X0156391Y0182141D01*
X0156464Y0181879D01*
X0156544Y0181619D01*
X0156630Y0181360D01*
X0156722Y0181104D01*
X0156821Y0180851D01*
X0156925Y0180599D01*
X0157036Y0180351D01*
X0157152Y0180105D01*
X0157275Y0179862D01*
X0157403Y0179622D01*
X0157538Y0179385D01*
X0157678Y0179152D01*
X0157823Y0178922D01*
X0157974Y0178696D01*
X0158131Y0178473D01*
X0158293Y0178254D01*
X0158460Y0178040D01*
X0158633Y0177829D01*
X0158810Y0177623D01*
X0158993Y0177421D01*
X0159180Y0177224D01*
X0159372Y0177031D01*
X0159569Y0176843D01*
X0159770Y0176660D01*
X0159976Y0176481D01*
X0160186Y0176308D01*
X0160400Y0176140D01*
X0160618Y0175977D01*
X0160840Y0175820D01*
X0161065Y0175668D01*
X0161295Y0175521D01*
X0161528Y0175381D01*
X0162385Y0176594D02*
X0162010Y0176909D01*
X0161933Y0176902D01*
X0160932Y0177612D01*
X0158817Y0180131D01*
X0157665Y0183213D01*
X0157496Y0184855D01*
X0157486Y0185468D01*
X0157486Y0185468D01*
X0157431Y0188665D01*
X0157722Y0189169D01*
X0158423Y0188468D01*
X0160302Y0188468D01*
X0161630Y0189796D01*
X0161630Y0191675D01*
X0160302Y0193003D01*
X0159936Y0193003D01*
X0160370Y0193756D01*
X0160137Y0194625D01*
X0157312Y0196257D01*
X0156443Y0196024D01*
X0155008Y0193539D01*
X0155132Y0193078D01*
X0154671Y0192955D01*
X0153237Y0190471D01*
X0153470Y0189601D01*
X0154069Y0189255D01*
X0154075Y0189248D01*
X0154105Y0189046D01*
X0154451Y0188790D01*
X0154468Y0188768D01*
X0154543Y0184419D01*
X0154573Y0182627D01*
X0154573Y0182627D01*
X0156099Y0178546D01*
X0158900Y0175210D01*
X0158900Y0175209D02*
X0160640Y0174186D01*
X0161608Y0173257D01*
X0163233Y0170913D01*
X0164124Y0168389D01*
X0163591Y0167856D01*
X0163591Y0165977D01*
X0164919Y0164649D01*
X0166798Y0164649D01*
X0168126Y0165977D01*
X0168126Y0167856D01*
X0167206Y0168776D01*
X0167201Y0168856D01*
X0165977Y0172317D01*
X0165977Y0172317D01*
X0163886Y0175335D01*
X0162842Y0176211D01*
X0162807Y0176346D01*
X0162385Y0176594D01*
X0162837Y0176230D02*
X0203525Y0176230D01*
X0202534Y0175444D02*
X0163755Y0175444D01*
X0163886Y0175335D02*
X0163886Y0175335D01*
X0164355Y0174658D02*
X0201740Y0174658D01*
X0201047Y0173872D02*
X0164899Y0173872D01*
X0165444Y0173086D02*
X0200536Y0173086D01*
X0200121Y0172300D02*
X0165983Y0172300D01*
X0166261Y0171515D02*
X0199759Y0171515D01*
X0199509Y0170729D02*
X0166539Y0170729D01*
X0166816Y0169943D02*
X0199332Y0169943D01*
X0199237Y0169157D02*
X0167094Y0169157D01*
X0167201Y0168856D02*
X0167201Y0168856D01*
X0167611Y0168371D02*
X0199320Y0168371D01*
X0199313Y0167585D02*
X0168126Y0167585D01*
X0168126Y0166799D02*
X0199307Y0166799D01*
X0199301Y0166013D02*
X0168126Y0166013D01*
X0167377Y0165227D02*
X0199295Y0165227D01*
X0199288Y0164441D02*
X0153990Y0164441D01*
X0153847Y0164180D02*
X0153847Y0164180D01*
X0153032Y0163655D02*
X0174745Y0163655D01*
X0175156Y0164066D02*
X0173827Y0162738D01*
X0173827Y0160916D01*
X0172889Y0160916D01*
X0172252Y0160280D01*
X0172252Y0159588D01*
X0172249Y0159579D01*
X0172090Y0159452D01*
X0172040Y0159025D01*
X0171888Y0158622D01*
X0171972Y0158436D01*
X0171949Y0158234D01*
X0172217Y0157897D01*
X0172252Y0157818D01*
X0172252Y0157017D01*
X0172889Y0156381D01*
X0173827Y0156381D01*
X0173827Y0154757D01*
X0175156Y0153428D01*
X0177034Y0153428D01*
X0178363Y0154757D01*
X0178363Y0156381D01*
X0179301Y0156381D01*
X0179937Y0157017D01*
X0179937Y0160280D01*
X0179301Y0160916D01*
X0178363Y0160916D01*
X0178363Y0162738D01*
X0177034Y0164066D01*
X0175156Y0164066D01*
X0173959Y0162870D02*
X0151811Y0162870D01*
X0151530Y0162688D02*
X0151530Y0162688D01*
X0151085Y0166013D02*
X0148163Y0166013D01*
X0148135Y0164402D02*
X0132985Y0171247D01*
X0132213Y0171676D01*
X0132137Y0171716D01*
X0132059Y0171753D01*
X0131979Y0171787D01*
X0131898Y0171817D01*
X0131816Y0171843D01*
X0131733Y0171866D01*
X0131648Y0171885D01*
X0131563Y0171900D01*
X0131478Y0171912D01*
X0131392Y0171919D01*
X0131305Y0171923D01*
X0131219Y0171924D01*
X0131133Y0171920D01*
X0131047Y0171913D01*
X0130961Y0171902D01*
X0130876Y0171887D01*
X0130792Y0171868D01*
X0130708Y0171846D01*
X0130626Y0171820D01*
X0130545Y0171791D01*
X0130465Y0171758D01*
X0130387Y0171721D01*
X0130310Y0171681D01*
X0130235Y0171638D01*
X0128589Y0170638D01*
X0129001Y0169157D02*
X0131868Y0169157D01*
X0131082Y0169943D02*
X0130296Y0169943D01*
X0128834Y0169055D02*
X0128834Y0169055D01*
X0128242Y0168696D02*
X0128242Y0168696D01*
X0125639Y0168506D02*
X0125639Y0168506D01*
X0128589Y0170639D02*
X0128482Y0170576D01*
X0128373Y0170517D01*
X0128262Y0170461D01*
X0128150Y0170408D01*
X0128036Y0170360D01*
X0127920Y0170315D01*
X0127803Y0170273D01*
X0127685Y0170235D01*
X0127566Y0170201D01*
X0127445Y0170171D01*
X0127324Y0170145D01*
X0127202Y0170122D01*
X0127079Y0170103D01*
X0126956Y0170088D01*
X0126832Y0170077D01*
X0126708Y0170070D01*
X0126584Y0170067D01*
X0126460Y0170068D01*
X0126336Y0170073D01*
X0126212Y0170081D01*
X0126089Y0170094D01*
X0125966Y0170110D01*
X0125844Y0170130D01*
X0125722Y0170154D01*
X0125601Y0170182D01*
X0125481Y0170214D01*
X0125362Y0170249D01*
X0125244Y0170288D01*
X0125128Y0170331D01*
X0125013Y0170378D01*
X0124899Y0170428D01*
X0124787Y0170482D01*
X0124677Y0170539D01*
X0124569Y0170599D01*
X0124463Y0170663D01*
X0124358Y0170731D01*
X0124256Y0170801D01*
X0124156Y0170875D01*
X0124059Y0170952D01*
X0123964Y0171032D01*
X0123872Y0171115D01*
X0123782Y0171201D01*
X0123695Y0171289D01*
X0123611Y0171380D01*
X0123529Y0171474D01*
X0129991Y0173221D02*
X0129991Y0173221D01*
X0130261Y0173385D02*
X0130261Y0173385D01*
X0134352Y0173086D02*
X0146971Y0173086D01*
X0146185Y0172300D02*
X0135138Y0172300D01*
X0135988Y0171515D02*
X0146071Y0171515D01*
X0146071Y0170729D02*
X0137727Y0170729D01*
X0139466Y0169943D02*
X0146436Y0169943D01*
X0147222Y0169157D02*
X0141206Y0169157D01*
X0142945Y0168371D02*
X0152214Y0168371D01*
X0152214Y0168597D02*
X0152214Y0168597D01*
X0152216Y0169157D02*
X0149456Y0169157D01*
X0150242Y0169943D02*
X0152218Y0169943D01*
X0152220Y0170729D02*
X0151463Y0170729D01*
X0152162Y0167585D02*
X0144685Y0167585D01*
X0146424Y0166799D02*
X0151819Y0166799D01*
X0161528Y0175381D02*
X0161752Y0175188D01*
X0161972Y0174989D01*
X0162186Y0174786D01*
X0162396Y0174577D01*
X0162601Y0174363D01*
X0162800Y0174145D01*
X0162994Y0173921D01*
X0163183Y0173693D01*
X0163366Y0173460D01*
X0163543Y0173224D01*
X0163715Y0172982D01*
X0163880Y0172737D01*
X0164040Y0172488D01*
X0164193Y0172235D01*
X0164341Y0171978D01*
X0164482Y0171718D01*
X0164617Y0171455D01*
X0164745Y0171188D01*
X0164867Y0170919D01*
X0164982Y0170646D01*
X0165091Y0170371D01*
X0165193Y0170093D01*
X0165288Y0169813D01*
X0165376Y0169530D01*
X0165458Y0169246D01*
X0165533Y0168960D01*
X0165600Y0168671D01*
X0165661Y0168382D01*
X0165715Y0168091D01*
X0165761Y0167799D01*
X0165801Y0167505D01*
X0165833Y0167211D01*
X0165858Y0166916D01*
X0163591Y0166799D02*
X0155171Y0166799D01*
X0155173Y0167585D02*
X0163591Y0167585D01*
X0164106Y0168371D02*
X0155174Y0168371D01*
X0155177Y0169157D02*
X0163853Y0169157D01*
X0163575Y0169943D02*
X0155179Y0169943D01*
X0155181Y0170729D02*
X0163298Y0170729D01*
X0162816Y0171515D02*
X0155183Y0171515D01*
X0155185Y0172300D02*
X0162271Y0172300D01*
X0161726Y0173086D02*
X0155187Y0173086D01*
X0155189Y0173872D02*
X0160967Y0173872D01*
X0159837Y0174658D02*
X0155191Y0174658D01*
X0155194Y0175444D02*
X0158703Y0175444D01*
X0158900Y0175210D02*
X0158900Y0175209D01*
X0158900Y0175209D01*
X0158043Y0176230D02*
X0155196Y0176230D01*
X0155198Y0177016D02*
X0157383Y0177016D01*
X0156723Y0177802D02*
X0155233Y0177802D01*
X0155277Y0178471D02*
X0155277Y0178471D01*
X0155241Y0178588D02*
X0156083Y0178588D01*
X0156099Y0178546D02*
X0156099Y0178546D01*
X0155789Y0179374D02*
X0154998Y0179374D01*
X0154754Y0180160D02*
X0155496Y0180160D01*
X0155202Y0180946D02*
X0154464Y0180946D01*
X0154908Y0181731D02*
X0153845Y0181731D01*
X0153227Y0182517D02*
X0154614Y0182517D01*
X0154562Y0183303D02*
X0152164Y0183303D01*
X0153001Y0182804D02*
X0153001Y0182804D01*
X0153001Y0182804D01*
X0151174Y0182170D02*
X0150111Y0182861D01*
X0150939Y0184089D02*
X0154548Y0184089D01*
X0154535Y0184875D02*
X0149888Y0184875D01*
X0149173Y0185661D02*
X0154521Y0185661D01*
X0154508Y0186447D02*
X0148558Y0186447D01*
X0147944Y0187233D02*
X0154494Y0187233D01*
X0154481Y0188019D02*
X0147556Y0188019D01*
X0147301Y0188805D02*
X0154430Y0188805D01*
X0153488Y0189591D02*
X0147045Y0189591D01*
X0146790Y0190376D02*
X0153262Y0190376D01*
X0153636Y0191162D02*
X0146716Y0191162D01*
X0146675Y0191948D02*
X0154090Y0191948D01*
X0154544Y0192734D02*
X0146723Y0192734D01*
X0146814Y0193520D02*
X0155013Y0193520D01*
X0155451Y0194306D02*
X0147038Y0194306D01*
X0147263Y0195092D02*
X0155905Y0195092D01*
X0156359Y0195878D02*
X0147488Y0195878D01*
X0147952Y0196664D02*
X0165307Y0196664D01*
X0165722Y0195878D02*
X0157968Y0195878D01*
X0159329Y0195092D02*
X0165960Y0195092D01*
X0166197Y0194306D02*
X0160223Y0194306D01*
X0160234Y0193520D02*
X0166422Y0193520D01*
X0166499Y0192734D02*
X0160571Y0192734D01*
X0161357Y0191948D02*
X0166524Y0191948D01*
X0166479Y0191162D02*
X0161630Y0191162D01*
X0161630Y0190376D02*
X0166314Y0190376D01*
X0166110Y0189591D02*
X0161425Y0189591D01*
X0160639Y0188805D02*
X0165906Y0188805D01*
X0165586Y0188019D02*
X0157442Y0188019D01*
X0157455Y0187233D02*
X0165140Y0187233D01*
X0164695Y0186447D02*
X0157469Y0186447D01*
X0157482Y0185661D02*
X0163089Y0185661D01*
X0162410Y0184875D02*
X0157496Y0184875D01*
X0157575Y0184089D02*
X0162410Y0184089D01*
X0162410Y0183303D02*
X0157655Y0183303D01*
X0157925Y0182517D02*
X0162995Y0182517D01*
X0166360Y0182517D02*
X0218811Y0182517D01*
X0218811Y0182819D02*
X0218811Y0181723D01*
X0219231Y0180710D01*
X0220006Y0179934D01*
X0221019Y0179515D01*
X0222115Y0179515D01*
X0223128Y0179934D01*
X0223904Y0180710D01*
X0224323Y0181723D01*
X0224323Y0182819D01*
X0223904Y0183832D01*
X0223128Y0184607D01*
X0222115Y0185027D01*
X0221019Y0185027D01*
X0220006Y0184607D01*
X0219231Y0183832D01*
X0218811Y0182819D01*
X0219012Y0183303D02*
X0166945Y0183303D01*
X0166945Y0184089D02*
X0219488Y0184089D01*
X0220653Y0184875D02*
X0167307Y0184875D01*
X0166945Y0184237D02*
X0166945Y0184237D01*
X0160113Y0178588D02*
X0209587Y0178588D01*
X0209664Y0178588D02*
X0209967Y0178588D01*
X0207560Y0177802D02*
X0160772Y0177802D01*
X0161772Y0177016D02*
X0205532Y0177016D01*
X0213041Y0178588D02*
X0226749Y0178588D01*
X0227694Y0179374D02*
X0159453Y0179374D01*
X0158806Y0180160D02*
X0219781Y0180160D01*
X0219133Y0180946D02*
X0158512Y0180946D01*
X0158219Y0181731D02*
X0218811Y0181731D01*
X0222481Y0184875D02*
X0227633Y0184875D01*
X0227690Y0184089D02*
X0223646Y0184089D01*
X0224123Y0183303D02*
X0227690Y0183303D01*
X0227691Y0182517D02*
X0224323Y0182517D01*
X0224323Y0181731D02*
X0227692Y0181731D01*
X0227693Y0180946D02*
X0224001Y0180946D01*
X0223354Y0180160D02*
X0227694Y0180160D01*
X0225640Y0177802D02*
X0215191Y0177802D01*
X0217058Y0177016D02*
X0224531Y0177016D01*
X0223421Y0176230D02*
X0218924Y0176230D01*
X0225954Y0187233D02*
X0197847Y0187233D01*
X0198633Y0188019D02*
X0224779Y0188019D01*
X0223604Y0188805D02*
X0198638Y0188805D01*
X0198638Y0189591D02*
X0222377Y0189591D01*
X0221566Y0190376D02*
X0198165Y0190376D01*
X0198706Y0191162D02*
X0220951Y0191162D01*
X0220461Y0191948D02*
X0198917Y0191948D01*
X0198533Y0192734D02*
X0220153Y0192734D01*
X0219946Y0193520D02*
X0198079Y0193520D01*
X0197626Y0194306D02*
X0219841Y0194306D01*
X0219849Y0195092D02*
X0195292Y0195092D01*
X0194632Y0195878D02*
X0219939Y0195878D01*
X0216511Y0211596D02*
X0257556Y0211596D01*
X0258737Y0212382D02*
X0217723Y0212382D01*
X0218935Y0213168D02*
X0259736Y0213168D01*
X0260677Y0213954D02*
X0219879Y0213954D01*
X0220871Y0214740D02*
X0261617Y0214740D01*
X0262474Y0215526D02*
X0221606Y0215526D01*
X0222355Y0216312D02*
X0263240Y0216312D01*
X0264006Y0217098D02*
X0223104Y0217098D01*
X0223854Y0217883D02*
X0264772Y0217883D01*
X0265437Y0218669D02*
X0224603Y0218669D01*
X0225352Y0219455D02*
X0265993Y0219455D01*
X0266548Y0220241D02*
X0226102Y0220241D01*
X0226851Y0221027D02*
X0267104Y0221027D01*
X0267632Y0221813D02*
X0227600Y0221813D01*
X0228350Y0222599D02*
X0257166Y0222599D01*
X0257439Y0222326D02*
X0259318Y0222326D01*
X0260646Y0223654D01*
X0260646Y0225533D01*
X0259839Y0226340D01*
X0259838Y0226483D01*
X0260714Y0226989D01*
X0260947Y0227858D01*
X0259316Y0230683D01*
X0258446Y0230916D01*
X0257496Y0230368D01*
X0257496Y0231045D01*
X0256168Y0232373D01*
X0254289Y0232373D01*
X0252961Y0231045D01*
X0252961Y0229166D01*
X0253768Y0228359D01*
X0253769Y0228216D01*
X0252893Y0227710D01*
X0252660Y0226841D01*
X0253006Y0226241D01*
X0253008Y0226232D01*
X0252933Y0226043D01*
X0253104Y0225648D01*
X0253174Y0225223D01*
X0253339Y0225104D01*
X0253420Y0224918D01*
X0253821Y0224759D01*
X0253891Y0224709D01*
X0254291Y0224016D01*
X0255161Y0223783D01*
X0256111Y0224331D01*
X0256111Y0223654D01*
X0257439Y0222326D01*
X0256380Y0223385D02*
X0229099Y0223385D01*
X0229849Y0224171D02*
X0254202Y0224171D01*
X0253403Y0224957D02*
X0230598Y0224957D01*
X0231347Y0225743D02*
X0253063Y0225743D01*
X0252841Y0226528D02*
X0232097Y0226528D01*
X0232846Y0227314D02*
X0252787Y0227314D01*
X0253569Y0228100D02*
X0233595Y0228100D01*
X0234345Y0228886D02*
X0253241Y0228886D01*
X0252961Y0229672D02*
X0235094Y0229672D01*
X0235843Y0230458D02*
X0252961Y0230458D01*
X0253160Y0231244D02*
X0236593Y0231244D01*
X0237342Y0232030D02*
X0253946Y0232030D01*
X0255229Y0230105D02*
X0255269Y0226464D01*
X0254775Y0226173D02*
X0255160Y0225506D01*
X0256145Y0226080D01*
X0255370Y0227422D01*
X0254398Y0226856D01*
X0254705Y0226305D01*
X0254535Y0226069D01*
X0254775Y0226173D01*
X0254580Y0226528D02*
X0255886Y0226528D01*
X0255566Y0225743D02*
X0255023Y0225743D01*
X0255185Y0227314D02*
X0255432Y0227314D01*
X0258338Y0228235D02*
X0258378Y0224594D01*
X0260646Y0224957D02*
X0269219Y0224957D01*
X0269525Y0225743D02*
X0260436Y0225743D01*
X0259917Y0226528D02*
X0269806Y0226528D01*
X0270087Y0227314D02*
X0260801Y0227314D01*
X0260807Y0228100D02*
X0270367Y0228100D01*
X0270580Y0228886D02*
X0260353Y0228886D01*
X0259899Y0229672D02*
X0270742Y0229672D01*
X0270903Y0230458D02*
X0267652Y0230458D01*
X0267813Y0230525D02*
X0268589Y0231300D01*
X0269008Y0232313D01*
X0269008Y0233409D01*
X0268589Y0234422D01*
X0267813Y0235198D01*
X0266801Y0235617D01*
X0265704Y0235617D01*
X0264691Y0235198D01*
X0263916Y0234422D01*
X0263496Y0233409D01*
X0263496Y0232313D01*
X0263916Y0231300D01*
X0264691Y0230525D01*
X0265704Y0230105D01*
X0266801Y0230105D01*
X0267813Y0230525D01*
X0268532Y0231244D02*
X0271064Y0231244D01*
X0271226Y0232030D02*
X0268891Y0232030D01*
X0269008Y0232816D02*
X0271387Y0232816D01*
X0271548Y0233602D02*
X0268929Y0233602D01*
X0268603Y0234388D02*
X0271668Y0234388D01*
X0271718Y0235174D02*
X0267837Y0235174D01*
X0268276Y0237531D02*
X0246984Y0237531D01*
X0245113Y0236745D02*
X0270358Y0236745D01*
X0271768Y0235959D02*
X0243296Y0235959D01*
X0241919Y0235174D02*
X0264667Y0235174D01*
X0263902Y0234388D02*
X0240541Y0234388D01*
X0239413Y0233602D02*
X0263576Y0233602D01*
X0263496Y0232816D02*
X0238341Y0232816D01*
X0249494Y0238317D02*
X0266194Y0238317D01*
X0262954Y0239103D02*
X0252841Y0239103D01*
X0256511Y0232030D02*
X0263614Y0232030D01*
X0263972Y0231244D02*
X0257297Y0231244D01*
X0257496Y0230458D02*
X0257652Y0230458D01*
X0259446Y0230458D02*
X0264853Y0230458D01*
X0268822Y0224171D02*
X0260646Y0224171D01*
X0260377Y0223385D02*
X0268426Y0223385D01*
X0268029Y0222599D02*
X0259591Y0222599D01*
X0256111Y0224171D02*
X0255833Y0224171D01*
X0256375Y0210810D02*
X0213946Y0210810D01*
X0213860Y0210810D02*
X0213755Y0210810D01*
X0213598Y0210810D02*
X0213112Y0210810D01*
X0213043Y0210810D02*
X0190735Y0210810D01*
X0191374Y0211596D02*
X0210352Y0211596D01*
X0209176Y0212382D02*
X0191910Y0212382D01*
X0192324Y0213168D02*
X0208410Y0213168D01*
X0207831Y0213954D02*
X0192624Y0213954D01*
X0192858Y0214740D02*
X0207396Y0214740D01*
X0207087Y0215526D02*
X0193012Y0215526D01*
X0193035Y0216312D02*
X0206867Y0216312D01*
X0206816Y0217098D02*
X0201096Y0217098D01*
X0200659Y0216916D02*
X0201672Y0217336D01*
X0202447Y0218111D01*
X0202866Y0219124D01*
X0202866Y0220220D01*
X0202447Y0221233D01*
X0201672Y0222009D01*
X0200659Y0222428D01*
X0199562Y0222428D01*
X0198549Y0222009D01*
X0197774Y0221233D01*
X0197355Y0220220D01*
X0197355Y0219124D01*
X0197774Y0218111D01*
X0198549Y0217336D01*
X0199562Y0216916D01*
X0200659Y0216916D01*
X0199125Y0217098D02*
X0193134Y0217098D01*
X0193233Y0217883D02*
X0198002Y0217883D01*
X0197543Y0218669D02*
X0193332Y0218669D01*
X0193431Y0219455D02*
X0197355Y0219455D01*
X0197363Y0220241D02*
X0193530Y0220241D01*
X0193628Y0221027D02*
X0197689Y0221027D01*
X0198354Y0221813D02*
X0193751Y0221813D01*
X0194084Y0222599D02*
X0206054Y0222599D01*
X0206412Y0221813D02*
X0201867Y0221813D01*
X0202532Y0221027D02*
X0206582Y0221027D01*
X0206630Y0220241D02*
X0202858Y0220241D01*
X0202866Y0219455D02*
X0206677Y0219455D01*
X0206725Y0218669D02*
X0202678Y0218669D01*
X0202219Y0217883D02*
X0206772Y0217883D01*
X0205423Y0223385D02*
X0194683Y0223385D01*
X0195899Y0224171D02*
X0204268Y0224171D01*
X0202894Y0224957D02*
X0197609Y0224957D01*
X0199319Y0225743D02*
X0201519Y0225743D01*
X0189744Y0210024D02*
X0254948Y0210024D01*
X0253403Y0209238D02*
X0188767Y0209238D01*
X0187790Y0208452D02*
X0251512Y0208452D01*
X0249369Y0207667D02*
X0186813Y0207667D01*
X0185587Y0206881D02*
X0246059Y0206881D01*
X0242749Y0206095D02*
X0183488Y0206095D01*
X0179475Y0206095D02*
X0161126Y0206095D01*
X0160901Y0206881D02*
X0177429Y0206881D01*
X0176040Y0207667D02*
X0160677Y0207667D01*
X0160452Y0208452D02*
X0174652Y0208452D01*
X0173263Y0209238D02*
X0160227Y0209238D01*
X0160003Y0210024D02*
X0171875Y0210024D01*
X0170486Y0210810D02*
X0159778Y0210810D01*
X0159554Y0211596D02*
X0169085Y0211596D01*
X0167748Y0212382D02*
X0159329Y0212382D01*
X0159060Y0213168D02*
X0166412Y0213168D01*
X0165075Y0213954D02*
X0158431Y0213954D01*
X0157803Y0214740D02*
X0163738Y0214740D01*
X0162402Y0215526D02*
X0157174Y0215526D01*
X0156545Y0216312D02*
X0161065Y0216312D01*
X0159729Y0217098D02*
X0155916Y0217098D01*
X0155288Y0217883D02*
X0158392Y0217883D01*
X0157700Y0218669D02*
X0154659Y0218669D01*
X0154030Y0219455D02*
X0157020Y0219455D01*
X0156502Y0220241D02*
X0153415Y0220241D01*
X0152931Y0221027D02*
X0156131Y0221027D01*
X0155770Y0221813D02*
X0152648Y0221813D01*
X0152477Y0222486D02*
X0152477Y0222486D01*
X0152450Y0222599D02*
X0155541Y0222599D01*
X0155390Y0223385D02*
X0152262Y0223385D01*
X0152073Y0224171D02*
X0155254Y0224171D01*
X0155264Y0224957D02*
X0151884Y0224957D01*
X0151696Y0225743D02*
X0155385Y0225743D01*
X0155507Y0226528D02*
X0151507Y0226528D01*
X0151319Y0227314D02*
X0155629Y0227314D01*
X0155751Y0228100D02*
X0151130Y0228100D01*
X0151114Y0228886D02*
X0155873Y0228886D01*
X0155994Y0229672D02*
X0151394Y0229672D01*
X0151394Y0230458D02*
X0156113Y0230458D01*
X0156357Y0231244D02*
X0151195Y0231244D01*
X0150409Y0232030D02*
X0156690Y0232030D01*
X0157121Y0232816D02*
X0117902Y0232816D01*
X0118333Y0232030D02*
X0147844Y0232030D01*
X0147058Y0231244D02*
X0118666Y0231244D01*
X0118910Y0230458D02*
X0146859Y0230458D01*
X0146859Y0229672D02*
X0119029Y0229672D01*
X0119150Y0228886D02*
X0147138Y0228886D01*
X0147924Y0228100D02*
X0139479Y0228100D01*
X0139780Y0227800D02*
X0139780Y0226861D01*
X0141601Y0226861D01*
X0142929Y0225533D01*
X0142929Y0223654D01*
X0141601Y0222326D01*
X0139780Y0222326D01*
X0139780Y0221388D01*
X0139143Y0220751D01*
X0138343Y0220751D01*
X0138264Y0220715D01*
X0137927Y0220448D01*
X0137725Y0220471D01*
X0137539Y0220387D01*
X0137136Y0220539D01*
X0136708Y0220588D01*
X0136582Y0220748D01*
X0136573Y0220751D01*
X0135881Y0220751D01*
X0135244Y0221388D01*
X0135244Y0222523D01*
X0133620Y0222523D01*
X0132292Y0223851D01*
X0132292Y0225730D01*
X0133620Y0227058D01*
X0135244Y0227058D01*
X0135244Y0227800D01*
X0135881Y0228436D01*
X0139143Y0228436D01*
X0139780Y0227800D01*
X0139780Y0227314D02*
X0148274Y0227314D01*
X0148462Y0226528D02*
X0141934Y0226528D01*
X0142720Y0225743D02*
X0148651Y0225743D01*
X0148840Y0224957D02*
X0142929Y0224957D01*
X0142929Y0224171D02*
X0149028Y0224171D01*
X0149217Y0223385D02*
X0142660Y0223385D01*
X0141874Y0222599D02*
X0149406Y0222599D01*
X0149594Y0221813D02*
X0139780Y0221813D01*
X0139419Y0221027D02*
X0149783Y0221027D01*
X0149885Y0220603D02*
X0149885Y0220603D01*
X0149971Y0220241D02*
X0118509Y0220241D01*
X0118887Y0221027D02*
X0135605Y0221027D01*
X0135244Y0221813D02*
X0119247Y0221813D01*
X0119477Y0222599D02*
X0133544Y0222599D01*
X0132758Y0223385D02*
X0119628Y0223385D01*
X0119763Y0224171D02*
X0132292Y0224171D01*
X0132292Y0224957D02*
X0119757Y0224957D01*
X0119635Y0225743D02*
X0132305Y0225743D01*
X0133090Y0226528D02*
X0119514Y0226528D01*
X0119393Y0227314D02*
X0135244Y0227314D01*
X0135545Y0228100D02*
X0119271Y0228100D01*
X0117366Y0233602D02*
X0157658Y0233602D01*
X0158281Y0234388D02*
X0116743Y0234388D01*
X0115706Y0235174D02*
X0159317Y0235174D01*
X0160354Y0235959D02*
X0114670Y0235959D01*
X0113633Y0236745D02*
X0161390Y0236745D01*
X0162427Y0237531D02*
X0112596Y0237531D01*
X0111560Y0238317D02*
X0163463Y0238317D01*
X0164372Y0239103D02*
X0110651Y0239103D01*
X0110165Y0239889D02*
X0164858Y0239889D01*
X0165117Y0240675D02*
X0159847Y0240675D01*
X0159517Y0240538D02*
X0160530Y0240958D01*
X0161305Y0241733D01*
X0161725Y0242746D01*
X0161725Y0243842D01*
X0161305Y0244855D01*
X0160530Y0245631D01*
X0159517Y0246050D01*
X0158421Y0246050D01*
X0157408Y0245631D01*
X0156633Y0244855D01*
X0156213Y0243842D01*
X0156213Y0242746D01*
X0156633Y0241733D01*
X0157408Y0240958D01*
X0158421Y0240538D01*
X0159517Y0240538D01*
X0158091Y0240675D02*
X0138493Y0240675D01*
X0138451Y0240633D02*
X0139780Y0241961D01*
X0139780Y0243840D01*
X0138992Y0244627D01*
X0138992Y0292405D01*
X0139143Y0292405D01*
X0139780Y0293041D01*
X0139780Y0295910D01*
X0139443Y0296247D01*
X0139780Y0296584D01*
X0139780Y0299453D01*
X0139143Y0300090D01*
X0135881Y0300090D01*
X0135684Y0299893D01*
X0133817Y0299893D01*
X0132489Y0298564D01*
X0132489Y0296686D01*
X0133817Y0295357D01*
X0135244Y0295357D01*
X0135244Y0293041D01*
X0135881Y0292405D01*
X0136032Y0292405D01*
X0136032Y0244627D01*
X0135244Y0243840D01*
X0135244Y0241961D01*
X0136573Y0240633D01*
X0138451Y0240633D01*
X0139279Y0241461D02*
X0156905Y0241461D01*
X0156420Y0242247D02*
X0139780Y0242247D01*
X0139780Y0243033D02*
X0156213Y0243033D01*
X0156213Y0243819D02*
X0139780Y0243819D01*
X0139015Y0244604D02*
X0156529Y0244604D01*
X0157168Y0245390D02*
X0138992Y0245390D01*
X0138992Y0246176D02*
X0164749Y0246176D01*
X0164823Y0245390D02*
X0160770Y0245390D01*
X0161409Y0244604D02*
X0164896Y0244604D01*
X0164969Y0243819D02*
X0161725Y0243819D01*
X0161725Y0243033D02*
X0165042Y0243033D01*
X0165115Y0242247D02*
X0161518Y0242247D01*
X0161033Y0241461D02*
X0165188Y0241461D01*
X0164676Y0246962D02*
X0138992Y0246962D01*
X0138992Y0247748D02*
X0147669Y0247748D01*
X0146503Y0248534D02*
X0138992Y0248534D01*
X0138992Y0249320D02*
X0145597Y0249320D01*
X0144963Y0250106D02*
X0138992Y0250106D01*
X0138992Y0250892D02*
X0144556Y0250892D01*
X0144241Y0251678D02*
X0138992Y0251678D01*
X0138992Y0252464D02*
X0144008Y0252464D01*
X0143926Y0253250D02*
X0138992Y0253250D01*
X0138992Y0254035D02*
X0144016Y0254035D01*
X0143954Y0254821D02*
X0138992Y0254821D01*
X0138992Y0255607D02*
X0144024Y0255607D01*
X0144146Y0256393D02*
X0138992Y0256393D01*
X0138992Y0257179D02*
X0144243Y0257179D01*
X0144324Y0257965D02*
X0138992Y0257965D01*
X0138992Y0258751D02*
X0144559Y0258751D01*
X0144794Y0259537D02*
X0138992Y0259537D01*
X0138992Y0260323D02*
X0145029Y0260323D01*
X0145264Y0261109D02*
X0138992Y0261109D01*
X0138992Y0261895D02*
X0145499Y0261895D01*
X0145734Y0262680D02*
X0138992Y0262680D01*
X0138992Y0263466D02*
X0145969Y0263466D01*
X0146204Y0264252D02*
X0138992Y0264252D01*
X0138992Y0265038D02*
X0146439Y0265038D01*
X0146674Y0265824D02*
X0138992Y0265824D01*
X0138992Y0266610D02*
X0146909Y0266610D01*
X0147144Y0267396D02*
X0138992Y0267396D01*
X0138992Y0268182D02*
X0147379Y0268182D01*
X0147614Y0268968D02*
X0138992Y0268968D01*
X0138992Y0269754D02*
X0147849Y0269754D01*
X0148084Y0270540D02*
X0138992Y0270540D01*
X0138992Y0271326D02*
X0148319Y0271326D01*
X0148554Y0272111D02*
X0138992Y0272111D01*
X0138992Y0272897D02*
X0148789Y0272897D01*
X0149024Y0273683D02*
X0138992Y0273683D01*
X0138992Y0274469D02*
X0149258Y0274469D01*
X0149493Y0275255D02*
X0138992Y0275255D01*
X0138992Y0276041D02*
X0149728Y0276041D01*
X0149963Y0276827D02*
X0138992Y0276827D01*
X0138992Y0277613D02*
X0150198Y0277613D01*
X0150433Y0278399D02*
X0138992Y0278399D01*
X0138992Y0279185D02*
X0150668Y0279185D01*
X0150903Y0279971D02*
X0138992Y0279971D01*
X0138992Y0280756D02*
X0151058Y0280756D01*
X0151186Y0281542D02*
X0138992Y0281542D01*
X0138992Y0282328D02*
X0151313Y0282328D01*
X0151441Y0283114D02*
X0138992Y0283114D01*
X0138992Y0283900D02*
X0151543Y0283900D01*
X0151585Y0284686D02*
X0138992Y0284686D01*
X0138992Y0285472D02*
X0151626Y0285472D01*
X0151668Y0286258D02*
X0138992Y0286258D01*
X0138992Y0287044D02*
X0151710Y0287044D01*
X0151673Y0287830D02*
X0138992Y0287830D01*
X0138992Y0288616D02*
X0151623Y0288616D01*
X0151573Y0289402D02*
X0138992Y0289402D01*
X0138992Y0290187D02*
X0151523Y0290187D01*
X0151454Y0290973D02*
X0138992Y0290973D01*
X0138992Y0291759D02*
X0151317Y0291759D01*
X0151180Y0292545D02*
X0139284Y0292545D01*
X0139780Y0293331D02*
X0151043Y0293331D01*
X0150906Y0294117D02*
X0139780Y0294117D01*
X0139780Y0294903D02*
X0150753Y0294903D01*
X0150532Y0295689D02*
X0139780Y0295689D01*
X0139670Y0296475D02*
X0150310Y0296475D01*
X0150089Y0297261D02*
X0139780Y0297261D01*
X0139780Y0298047D02*
X0149867Y0298047D01*
X0149646Y0298832D02*
X0139780Y0298832D01*
X0139615Y0299618D02*
X0149310Y0299618D01*
X0148948Y0300404D02*
X0126035Y0300404D01*
X0125749Y0299618D02*
X0133543Y0299618D01*
X0132757Y0298832D02*
X0125464Y0298832D01*
X0125178Y0298047D02*
X0132489Y0298047D01*
X0132489Y0297261D02*
X0124892Y0297261D01*
X0124662Y0296475D02*
X0132700Y0296475D01*
X0133485Y0295689D02*
X0124486Y0295689D01*
X0124310Y0294903D02*
X0135244Y0294903D01*
X0135244Y0294117D02*
X0124134Y0294117D01*
X0123958Y0293331D02*
X0135244Y0293331D01*
X0135740Y0292545D02*
X0123801Y0292545D01*
X0123707Y0291759D02*
X0136032Y0291759D01*
X0136032Y0290973D02*
X0123612Y0290973D01*
X0123517Y0290187D02*
X0136032Y0290187D01*
X0136032Y0289402D02*
X0123423Y0289402D01*
X0123367Y0288616D02*
X0136032Y0288616D01*
X0136032Y0287830D02*
X0123362Y0287830D01*
X0123358Y0287044D02*
X0136032Y0287044D01*
X0136032Y0286258D02*
X0123354Y0286258D01*
X0123350Y0285472D02*
X0136032Y0285472D01*
X0136032Y0284686D02*
X0123429Y0284686D01*
X0123515Y0283900D02*
X0136032Y0283900D01*
X0136032Y0283114D02*
X0123601Y0283114D01*
X0123687Y0282328D02*
X0136032Y0282328D01*
X0136032Y0281542D02*
X0123854Y0281542D01*
X0124085Y0280756D02*
X0136032Y0280756D01*
X0136032Y0279971D02*
X0124316Y0279971D01*
X0124546Y0279185D02*
X0136032Y0279185D01*
X0136032Y0278399D02*
X0124777Y0278399D01*
X0125008Y0277613D02*
X0136032Y0277613D01*
X0136032Y0276827D02*
X0125239Y0276827D01*
X0125470Y0276041D02*
X0136032Y0276041D01*
X0136032Y0275255D02*
X0125700Y0275255D01*
X0125931Y0274469D02*
X0136032Y0274469D01*
X0136032Y0273683D02*
X0126162Y0273683D01*
X0126393Y0272897D02*
X0136032Y0272897D01*
X0136032Y0272111D02*
X0126624Y0272111D01*
X0126855Y0271326D02*
X0136032Y0271326D01*
X0136032Y0270540D02*
X0127085Y0270540D01*
X0127316Y0269754D02*
X0136032Y0269754D01*
X0136032Y0268968D02*
X0127547Y0268968D01*
X0127778Y0268182D02*
X0136032Y0268182D01*
X0136032Y0267396D02*
X0128009Y0267396D01*
X0128240Y0266610D02*
X0136032Y0266610D01*
X0136032Y0265824D02*
X0128470Y0265824D01*
X0128701Y0265038D02*
X0136032Y0265038D01*
X0136032Y0264252D02*
X0128932Y0264252D01*
X0129163Y0263466D02*
X0136032Y0263466D01*
X0136032Y0262680D02*
X0129394Y0262680D01*
X0129624Y0261895D02*
X0136032Y0261895D01*
X0136032Y0261109D02*
X0129855Y0261109D01*
X0130086Y0260323D02*
X0136032Y0260323D01*
X0136032Y0259537D02*
X0130317Y0259537D01*
X0130548Y0258751D02*
X0136032Y0258751D01*
X0136032Y0257965D02*
X0130660Y0257965D01*
X0130776Y0257179D02*
X0136032Y0257179D01*
X0136032Y0256393D02*
X0130923Y0256393D01*
X0131009Y0255607D02*
X0136032Y0255607D01*
X0136032Y0254821D02*
X0131006Y0254821D01*
X0131082Y0254035D02*
X0136032Y0254035D01*
X0136032Y0253250D02*
X0131089Y0253250D01*
X0130995Y0252464D02*
X0136032Y0252464D01*
X0136032Y0251678D02*
X0130799Y0251678D01*
X0130477Y0250892D02*
X0136032Y0250892D01*
X0136032Y0250106D02*
X0130023Y0250106D01*
X0129399Y0249320D02*
X0136032Y0249320D01*
X0136032Y0248534D02*
X0128471Y0248534D01*
X0127161Y0247748D02*
X0136032Y0247748D01*
X0136032Y0246962D02*
X0110347Y0246962D01*
X0110274Y0246176D02*
X0136032Y0246176D01*
X0136032Y0245390D02*
X0117660Y0245390D01*
X0117420Y0245631D02*
X0116407Y0246050D01*
X0115310Y0246050D01*
X0114298Y0245631D01*
X0113522Y0244855D01*
X0113103Y0243842D01*
X0113103Y0242746D01*
X0113522Y0241733D01*
X0114298Y0240958D01*
X0115310Y0240538D01*
X0116407Y0240538D01*
X0117420Y0240958D01*
X0118195Y0241733D01*
X0118615Y0242746D01*
X0118615Y0243842D01*
X0118195Y0244855D01*
X0117420Y0245631D01*
X0118299Y0244604D02*
X0136009Y0244604D01*
X0135244Y0243819D02*
X0118615Y0243819D01*
X0118615Y0243033D02*
X0135244Y0243033D01*
X0135244Y0242247D02*
X0118408Y0242247D01*
X0117923Y0241461D02*
X0135745Y0241461D01*
X0136531Y0240675D02*
X0116736Y0240675D01*
X0114981Y0240675D02*
X0109906Y0240675D01*
X0109835Y0241461D02*
X0113795Y0241461D01*
X0113310Y0242247D02*
X0109908Y0242247D01*
X0109981Y0243033D02*
X0113103Y0243033D01*
X0113103Y0243819D02*
X0110054Y0243819D01*
X0110127Y0244604D02*
X0113418Y0244604D01*
X0114057Y0245390D02*
X0110201Y0245390D01*
X0111616Y0247748D02*
X0121517Y0247748D01*
X0120091Y0248534D02*
X0112964Y0248534D01*
X0114313Y0249320D02*
X0118517Y0249320D01*
X0137512Y0242901D02*
X0137512Y0294475D01*
X0137517Y0293902D02*
X0138287Y0293902D01*
X0138282Y0295042D01*
X0136732Y0295042D01*
X0136737Y0293917D01*
X0137367Y0293907D01*
X0137487Y0293642D01*
X0137517Y0293902D01*
X0138286Y0294117D02*
X0136736Y0294117D01*
X0136733Y0294903D02*
X0138283Y0294903D01*
X0137512Y0298019D02*
X0134756Y0297625D01*
X0126810Y0301976D02*
X0148224Y0301976D01*
X0148586Y0301190D02*
X0126371Y0301190D01*
X0127248Y0302762D02*
X0147858Y0302762D01*
X0147343Y0303548D02*
X0127686Y0303548D01*
X0128125Y0304334D02*
X0146829Y0304334D01*
X0146314Y0305120D02*
X0128698Y0305120D01*
X0129289Y0305906D02*
X0145799Y0305906D01*
X0145146Y0306692D02*
X0129880Y0306692D01*
X0130487Y0307478D02*
X0144478Y0307478D01*
X0143811Y0308263D02*
X0131231Y0308263D01*
X0131974Y0309049D02*
X0143035Y0309049D01*
X0142150Y0309835D02*
X0132723Y0309835D01*
X0133683Y0310621D02*
X0141265Y0310621D01*
X0140379Y0311407D02*
X0134643Y0311407D01*
X0135602Y0312193D02*
X0139494Y0312193D01*
X0138425Y0312979D02*
X0136562Y0312979D01*
X0156557Y0249320D02*
X0160655Y0249320D01*
X0162019Y0248534D02*
X0154961Y0248534D01*
X0153474Y0247748D02*
X0163383Y0247748D01*
X0149126Y0230105D02*
X0151181Y0221545D01*
X0149598Y0221795D02*
X0149598Y0221795D01*
X0150126Y0219596D02*
X0150126Y0219596D01*
X0150239Y0219455D02*
X0117996Y0219455D01*
X0117320Y0218669D02*
X0150868Y0218669D01*
X0151496Y0217883D02*
X0116632Y0217883D01*
X0115297Y0217098D02*
X0152125Y0217098D01*
X0152754Y0216312D02*
X0113962Y0216312D01*
X0112627Y0215526D02*
X0153383Y0215526D01*
X0154011Y0214740D02*
X0111293Y0214740D01*
X0109958Y0213954D02*
X0154640Y0213954D01*
X0155269Y0213168D02*
X0108623Y0213168D01*
X0107325Y0212382D02*
X0155896Y0212382D01*
X0155508Y0212869D02*
X0155508Y0212869D01*
X0156391Y0211596D02*
X0105912Y0211596D01*
X0104525Y0210810D02*
X0156699Y0210810D01*
X0156924Y0210024D02*
X0103139Y0210024D01*
X0101752Y0209238D02*
X0157148Y0209238D01*
X0157373Y0208452D02*
X0100366Y0208452D01*
X0098979Y0207667D02*
X0157597Y0207667D01*
X0157822Y0206881D02*
X0097593Y0206881D01*
X0095542Y0206095D02*
X0158047Y0206095D01*
X0158271Y0205309D02*
X0036171Y0205309D01*
X0032931Y0206095D02*
X0091546Y0206095D01*
X0089440Y0206881D02*
X0029691Y0206881D01*
X0026450Y0207667D02*
X0088212Y0207667D01*
X0087234Y0208452D02*
X0023442Y0208452D01*
X0021655Y0209238D02*
X0086257Y0209238D01*
X0085279Y0210024D02*
X0020043Y0210024D01*
X0018698Y0210810D02*
X0061079Y0210810D01*
X0061475Y0210810D02*
X0061901Y0210810D01*
X0062080Y0210810D02*
X0062211Y0210810D01*
X0062279Y0210810D02*
X0084288Y0210810D01*
X0083649Y0211596D02*
X0064695Y0211596D01*
X0065893Y0212382D02*
X0083113Y0212382D01*
X0082699Y0213168D02*
X0066645Y0213168D01*
X0067220Y0213954D02*
X0082399Y0213954D01*
X0082164Y0214740D02*
X0067652Y0214740D01*
X0067954Y0215526D02*
X0082011Y0215526D01*
X0081988Y0216312D02*
X0068156Y0216312D01*
X0068208Y0217098D02*
X0073453Y0217098D01*
X0073353Y0217139D02*
X0074366Y0216720D01*
X0075462Y0216720D01*
X0076475Y0217139D01*
X0077250Y0217914D01*
X0077670Y0218927D01*
X0077670Y0220024D01*
X0077250Y0221037D01*
X0076475Y0221812D01*
X0075462Y0222231D01*
X0074366Y0222231D01*
X0073353Y0221812D01*
X0072577Y0221037D01*
X0072158Y0220024D01*
X0072158Y0218927D01*
X0072577Y0217914D01*
X0073353Y0217139D01*
X0072608Y0217883D02*
X0068259Y0217883D01*
X0068311Y0218669D02*
X0072265Y0218669D01*
X0072158Y0219455D02*
X0068363Y0219455D01*
X0068415Y0220241D02*
X0072248Y0220241D01*
X0072574Y0221027D02*
X0068467Y0221027D01*
X0068606Y0221813D02*
X0073356Y0221813D01*
X0076472Y0221813D02*
X0081272Y0221813D01*
X0081395Y0221027D02*
X0077254Y0221027D01*
X0077580Y0220241D02*
X0081494Y0220241D01*
X0081592Y0219455D02*
X0077670Y0219455D01*
X0077563Y0218669D02*
X0081691Y0218669D01*
X0081790Y0217883D02*
X0077219Y0217883D01*
X0076375Y0217098D02*
X0081889Y0217098D01*
X0080939Y0222599D02*
X0068963Y0222599D01*
X0069592Y0223385D02*
X0080340Y0223385D01*
X0079124Y0224171D02*
X0070808Y0224171D01*
X0072166Y0224957D02*
X0077414Y0224957D01*
X0075704Y0225743D02*
X0073524Y0225743D01*
X0058552Y0211596D02*
X0017388Y0211596D01*
X0016340Y0212382D02*
X0057207Y0212382D01*
X0056164Y0213168D02*
X0015293Y0213168D01*
X0014286Y0213954D02*
X0055017Y0213954D01*
X0054275Y0214740D02*
X0013432Y0214740D01*
X0012578Y0215526D02*
X0053533Y0215526D01*
X0052791Y0216312D02*
X0011723Y0216312D01*
X0010977Y0217098D02*
X0052049Y0217098D01*
X0051307Y0217883D02*
X0010317Y0217883D01*
X0009657Y0218669D02*
X0050565Y0218669D01*
X0049823Y0219455D02*
X0008997Y0219455D01*
X0008403Y0220241D02*
X0049081Y0220241D01*
X0048339Y0221027D02*
X0007934Y0221027D01*
X0007465Y0221813D02*
X0047597Y0221813D01*
X0046855Y0222599D02*
X0006995Y0222599D01*
X0006526Y0223385D02*
X0015212Y0223385D01*
X0014657Y0223940D02*
X0015985Y0222612D01*
X0017864Y0222612D01*
X0019192Y0223940D01*
X0019192Y0224367D01*
X0019863Y0223979D01*
X0020733Y0224212D01*
X0021079Y0224812D01*
X0021086Y0224818D01*
X0021288Y0224848D01*
X0021544Y0225193D01*
X0021877Y0225466D01*
X0021897Y0225669D01*
X0022018Y0225832D01*
X0021955Y0226258D01*
X0021964Y0226344D01*
X0022364Y0227038D01*
X0022131Y0227907D01*
X0021040Y0228537D01*
X0021866Y0229363D01*
X0021866Y0231241D01*
X0020538Y0232570D01*
X0018659Y0232570D01*
X0017331Y0231241D01*
X0017331Y0230678D01*
X0016578Y0231113D01*
X0015709Y0230880D01*
X0014078Y0228055D01*
X0014310Y0227185D01*
X0015396Y0226559D01*
X0014657Y0225819D01*
X0014657Y0223940D01*
X0014657Y0224171D02*
X0006188Y0224171D01*
X0005853Y0224957D02*
X0014657Y0224957D01*
X0014657Y0225743D02*
X0005519Y0225743D01*
X0005184Y0226528D02*
X0015366Y0226528D01*
X0014276Y0227314D02*
X0004913Y0227314D01*
X0004679Y0228100D02*
X0014104Y0228100D01*
X0014557Y0228886D02*
X0004445Y0228886D01*
X0004211Y0229672D02*
X0015011Y0229672D01*
X0015465Y0230458D02*
X0010172Y0230458D01*
X0010333Y0230525D02*
X0011108Y0231300D01*
X0011528Y0232313D01*
X0011528Y0233409D01*
X0011108Y0234422D01*
X0010333Y0235198D01*
X0009320Y0235617D01*
X0008224Y0235617D01*
X0007211Y0235198D01*
X0006436Y0234422D01*
X0006016Y0233409D01*
X0006016Y0232313D01*
X0006436Y0231300D01*
X0007211Y0230525D01*
X0008224Y0230105D01*
X0009320Y0230105D01*
X0010333Y0230525D01*
X0011052Y0231244D02*
X0017334Y0231244D01*
X0018119Y0232030D02*
X0011411Y0232030D01*
X0011528Y0232816D02*
X0036702Y0232816D01*
X0037665Y0232030D02*
X0021078Y0232030D01*
X0021864Y0231244D02*
X0038628Y0231244D01*
X0039435Y0230458D02*
X0021866Y0230458D01*
X0021866Y0229672D02*
X0040177Y0229672D01*
X0040919Y0228886D02*
X0021390Y0228886D01*
X0021797Y0228100D02*
X0041661Y0228100D01*
X0042403Y0227314D02*
X0022290Y0227314D01*
X0022070Y0226528D02*
X0043145Y0226528D01*
X0043887Y0225743D02*
X0021952Y0225743D01*
X0021369Y0224957D02*
X0044629Y0224957D01*
X0045371Y0224171D02*
X0020578Y0224171D01*
X0019532Y0224171D02*
X0019192Y0224171D01*
X0018637Y0223385D02*
X0046113Y0223385D01*
X0035629Y0233602D02*
X0011448Y0233602D01*
X0011123Y0234388D02*
X0034421Y0234388D01*
X0033205Y0235174D02*
X0010357Y0235174D01*
X0007187Y0235174D02*
X0003266Y0235174D01*
X0003232Y0235959D02*
X0031619Y0235959D01*
X0030033Y0236745D02*
X0004612Y0236745D01*
X0006774Y0237531D02*
X0027909Y0237531D01*
X0025570Y0238317D02*
X0009136Y0238317D01*
X0012322Y0239103D02*
X0022479Y0239103D01*
X0019599Y0230302D02*
X0016687Y0228432D01*
X0019478Y0227314D02*
X0020168Y0227314D01*
X0020639Y0227045D02*
X0020254Y0226378D01*
X0020464Y0226222D01*
X0020175Y0226251D01*
X0019851Y0225710D01*
X0018874Y0226268D01*
X0019649Y0227611D01*
X0020639Y0227045D01*
X0020341Y0226528D02*
X0019025Y0226528D01*
X0019755Y0226660D02*
X0016924Y0224880D01*
X0019794Y0225743D02*
X0019871Y0225743D01*
X0007372Y0230458D02*
X0004036Y0230458D01*
X0003907Y0231244D02*
X0006492Y0231244D01*
X0006133Y0232030D02*
X0003778Y0232030D01*
X0003649Y0232816D02*
X0006016Y0232816D01*
X0006096Y0233602D02*
X0003520Y0233602D01*
X0003391Y0234388D02*
X0006421Y0234388D01*
X0045892Y0202951D02*
X0121127Y0202951D01*
X0121071Y0202165D02*
X0048397Y0202165D01*
X0050357Y0201379D02*
X0121071Y0201379D01*
X0121494Y0200593D02*
X0051805Y0200593D01*
X0052977Y0199807D02*
X0122280Y0199807D01*
X0124751Y0199022D02*
X0053703Y0199022D01*
X0054222Y0198236D02*
X0125588Y0198236D01*
X0126115Y0197450D02*
X0054611Y0197450D01*
X0054883Y0196664D02*
X0080785Y0196664D01*
X0080864Y0196743D02*
X0079536Y0195415D01*
X0079536Y0194738D01*
X0078586Y0195286D01*
X0077717Y0195053D01*
X0076085Y0192228D01*
X0076318Y0191359D01*
X0077159Y0190873D01*
X0076386Y0190100D01*
X0076386Y0188221D01*
X0077715Y0186893D01*
X0079593Y0186893D01*
X0080922Y0188221D01*
X0080922Y0188701D01*
X0081871Y0188153D01*
X0082741Y0188386D01*
X0083087Y0188985D01*
X0083094Y0188991D01*
X0083296Y0189021D01*
X0083552Y0189367D01*
X0083885Y0189640D01*
X0083905Y0189842D01*
X0084026Y0190006D01*
X0083963Y0190432D01*
X0083972Y0190518D01*
X0084372Y0191211D01*
X0084139Y0192080D01*
X0083263Y0192586D01*
X0083264Y0192729D01*
X0084071Y0193536D01*
X0084071Y0195415D01*
X0082743Y0196743D01*
X0080864Y0196743D01*
X0079999Y0195878D02*
X0055052Y0195878D01*
X0055134Y0195092D02*
X0077860Y0195092D01*
X0077285Y0194306D02*
X0055145Y0194306D01*
X0055047Y0193520D02*
X0076831Y0193520D01*
X0076378Y0192734D02*
X0054840Y0192734D01*
X0054533Y0191948D02*
X0076160Y0191948D01*
X0076658Y0191162D02*
X0054061Y0191162D01*
X0053442Y0190376D02*
X0076663Y0190376D01*
X0076386Y0189591D02*
X0052631Y0189591D01*
X0051402Y0188805D02*
X0076386Y0188805D01*
X0076589Y0188019D02*
X0050213Y0188019D01*
X0049024Y0187233D02*
X0077374Y0187233D01*
X0078654Y0189160D02*
X0078694Y0192605D01*
X0078923Y0195092D02*
X0079536Y0195092D01*
X0081804Y0194475D02*
X0081763Y0190834D01*
X0081298Y0191162D02*
X0082615Y0191162D01*
X0082647Y0191218D02*
X0082262Y0190551D01*
X0082472Y0190395D01*
X0082183Y0190424D01*
X0081859Y0189883D01*
X0080882Y0190442D01*
X0081657Y0191784D01*
X0082647Y0191218D01*
X0082154Y0190376D02*
X0080996Y0190376D01*
X0080719Y0188019D02*
X0117656Y0188019D01*
X0117663Y0188006D02*
X0118533Y0187773D01*
X0119132Y0188119D01*
X0119141Y0188121D01*
X0119331Y0188046D01*
X0119726Y0188217D01*
X0120151Y0188287D01*
X0120269Y0188452D01*
X0120456Y0188533D01*
X0120614Y0188934D01*
X0120665Y0189004D01*
X0121358Y0189404D01*
X0121591Y0190274D01*
X0121043Y0191223D01*
X0121719Y0191223D01*
X0123048Y0192552D01*
X0123048Y0194430D01*
X0121719Y0195759D01*
X0119841Y0195759D01*
X0119034Y0194952D01*
X0118891Y0194951D01*
X0118385Y0195827D01*
X0117515Y0196060D01*
X0114690Y0194428D01*
X0114457Y0193559D01*
X0114664Y0193200D01*
X0114132Y0193200D01*
X0112804Y0191871D01*
X0112804Y0189993D01*
X0114132Y0188664D01*
X0116011Y0188664D01*
X0116568Y0189222D01*
X0116996Y0189161D01*
X0117663Y0188006D01*
X0117202Y0188805D02*
X0116151Y0188805D01*
X0113992Y0188805D02*
X0082983Y0188805D01*
X0083825Y0189591D02*
X0113206Y0189591D01*
X0112804Y0190376D02*
X0083971Y0190376D01*
X0084344Y0191162D02*
X0112804Y0191162D01*
X0112880Y0191948D02*
X0084174Y0191948D01*
X0083269Y0192734D02*
X0113666Y0192734D01*
X0114479Y0193520D02*
X0084055Y0193520D01*
X0084071Y0194306D02*
X0114657Y0194306D01*
X0115839Y0195092D02*
X0084071Y0195092D01*
X0083608Y0195878D02*
X0117201Y0195878D01*
X0118194Y0195878D02*
X0127080Y0195878D01*
X0127318Y0195092D02*
X0122386Y0195092D01*
X0123048Y0194306D02*
X0127555Y0194306D01*
X0127792Y0193520D02*
X0123048Y0193520D01*
X0123048Y0192734D02*
X0127897Y0192734D01*
X0127947Y0191948D02*
X0122444Y0191948D01*
X0121078Y0191162D02*
X0127886Y0191162D01*
X0127740Y0190376D02*
X0121532Y0190376D01*
X0121408Y0189591D02*
X0127519Y0189591D01*
X0127298Y0188805D02*
X0120563Y0188805D01*
X0119305Y0189648D02*
X0119201Y0189888D01*
X0119868Y0190273D01*
X0119293Y0191258D01*
X0117951Y0190483D01*
X0118518Y0189511D01*
X0119068Y0189817D01*
X0119305Y0189648D01*
X0118661Y0189591D02*
X0118471Y0189591D01*
X0118910Y0190382D02*
X0115071Y0190932D01*
X0123339Y0201956D02*
X0123586Y0201820D01*
X0123829Y0201678D01*
X0124069Y0201530D01*
X0124306Y0201376D01*
X0124538Y0201216D01*
X0124767Y0201051D01*
X0124991Y0200880D01*
X0125211Y0200704D01*
X0125427Y0200522D01*
X0125638Y0200335D01*
X0125845Y0200144D01*
X0126047Y0199947D01*
X0126244Y0199745D01*
X0126437Y0199539D01*
X0126624Y0199328D01*
X0126806Y0199112D01*
X0126982Y0198892D01*
X0127153Y0198668D01*
X0127319Y0198440D01*
X0127479Y0198208D01*
X0127634Y0197972D01*
X0127782Y0197732D01*
X0127925Y0197489D01*
X0128062Y0197242D01*
X0128193Y0196992D01*
X0128317Y0196739D01*
X0128436Y0196483D01*
X0128548Y0196225D01*
X0128653Y0195963D01*
X0128753Y0195699D01*
X0128846Y0195433D01*
X0128932Y0195165D01*
X0129012Y0194894D01*
X0129085Y0194622D01*
X0129152Y0194348D01*
X0129212Y0194072D01*
X0129265Y0193795D01*
X0129311Y0193517D01*
X0129351Y0193238D01*
X0129384Y0192958D01*
X0129410Y0192677D01*
X0129429Y0192395D01*
X0129441Y0192114D01*
X0127018Y0188019D02*
X0118958Y0188019D01*
X0119807Y0190376D02*
X0118013Y0190376D01*
X0119128Y0191162D02*
X0119349Y0191162D01*
X0125899Y0183845D02*
X0126097Y0184042D01*
X0126290Y0184245D01*
X0126478Y0184452D01*
X0126661Y0184663D01*
X0126839Y0184879D01*
X0127012Y0185098D01*
X0127180Y0185322D01*
X0127342Y0185550D01*
X0127499Y0185782D01*
X0127650Y0186017D01*
X0127796Y0186256D01*
X0127936Y0186498D01*
X0128070Y0186743D01*
X0128198Y0186992D01*
X0128321Y0187244D01*
X0128437Y0187498D01*
X0128547Y0187755D01*
X0128651Y0188015D01*
X0128749Y0188277D01*
X0128840Y0188541D01*
X0128926Y0188808D01*
X0129005Y0189076D01*
X0129077Y0189346D01*
X0129143Y0189618D01*
X0129203Y0189891D01*
X0129256Y0190166D01*
X0129302Y0190442D01*
X0129342Y0190719D01*
X0129375Y0190996D01*
X0129402Y0191275D01*
X0129422Y0191554D01*
X0129435Y0191833D01*
X0129442Y0192113D01*
X0126551Y0187233D02*
X0079933Y0187233D01*
X0082822Y0196664D02*
X0126602Y0196664D01*
X0120780Y0193491D02*
X0117138Y0193451D01*
X0118809Y0195092D02*
X0119174Y0195092D01*
X0126084Y0186447D02*
X0048143Y0186447D01*
X0047651Y0185661D02*
X0125544Y0185661D01*
X0125898Y0183845D02*
X0125622Y0183604D01*
X0125281Y0181031D02*
X0125329Y0180963D01*
X0125379Y0180898D01*
X0125433Y0180835D01*
X0125490Y0180774D01*
X0125549Y0180716D01*
X0125611Y0180661D01*
X0125675Y0180608D01*
X0125742Y0180559D01*
X0125811Y0180513D01*
X0125882Y0180470D01*
X0125955Y0180431D01*
X0126030Y0180394D01*
X0126106Y0180362D01*
X0126184Y0180333D01*
X0126263Y0180307D01*
X0126343Y0180285D01*
X0126424Y0180267D01*
X0126505Y0180253D01*
X0126588Y0180243D01*
X0126670Y0180236D01*
X0126753Y0180233D01*
X0126836Y0180234D01*
X0126919Y0180239D01*
X0127001Y0180248D01*
X0126939Y0181731D02*
X0126693Y0181731D01*
X0144500Y0180160D02*
X0148549Y0180160D01*
X0149577Y0181269D02*
X0150701Y0180499D01*
X0152079Y0177349D02*
X0152079Y0174987D01*
X0153718Y0177327D02*
X0153693Y0167980D01*
X0154850Y0166013D02*
X0163591Y0166013D01*
X0164341Y0165227D02*
X0154420Y0165227D01*
X0153693Y0167980D02*
X0153691Y0167855D01*
X0153685Y0167731D01*
X0153674Y0167607D01*
X0153660Y0167483D01*
X0153642Y0167360D01*
X0153621Y0167237D01*
X0153595Y0167115D01*
X0153565Y0166994D01*
X0153532Y0166874D01*
X0153495Y0166755D01*
X0153454Y0166638D01*
X0153409Y0166522D01*
X0153361Y0166407D01*
X0153309Y0166294D01*
X0153254Y0166182D01*
X0153195Y0166072D01*
X0153133Y0165964D01*
X0153067Y0165859D01*
X0152998Y0165755D01*
X0152926Y0165654D01*
X0152850Y0165555D01*
X0152772Y0165458D01*
X0152690Y0165364D01*
X0152606Y0165272D01*
X0152518Y0165184D01*
X0152428Y0165098D01*
X0152335Y0165015D01*
X0152240Y0164934D01*
X0152142Y0164857D01*
X0152042Y0164784D01*
X0151939Y0164713D01*
X0151835Y0164645D01*
X0151728Y0164581D01*
X0151619Y0164521D01*
X0151508Y0164464D01*
X0151396Y0164410D01*
X0151282Y0164360D01*
X0151167Y0164313D01*
X0151050Y0164271D01*
X0150931Y0164232D01*
X0150812Y0164196D01*
X0150691Y0164165D01*
X0150570Y0164137D01*
X0150448Y0164113D01*
X0150325Y0164093D01*
X0150201Y0164077D01*
X0150077Y0164065D01*
X0149953Y0164057D01*
X0149829Y0164053D01*
X0149704Y0164052D01*
X0149580Y0164056D01*
X0149455Y0164063D01*
X0149331Y0164075D01*
X0149208Y0164090D01*
X0149085Y0164110D01*
X0148962Y0164133D01*
X0148841Y0164160D01*
X0148720Y0164191D01*
X0148601Y0164225D01*
X0148482Y0164264D01*
X0148365Y0164306D01*
X0148249Y0164352D01*
X0148135Y0164401D01*
X0147931Y0162870D02*
X0139254Y0162870D01*
X0139583Y0162541D02*
X0138255Y0163869D01*
X0136376Y0163869D01*
X0135048Y0162541D01*
X0135048Y0160916D01*
X0134109Y0160916D01*
X0133473Y0160280D01*
X0133473Y0157017D01*
X0134109Y0156381D01*
X0135048Y0156381D01*
X0135048Y0154560D01*
X0136376Y0153231D01*
X0138255Y0153231D01*
X0139583Y0154560D01*
X0139583Y0156381D01*
X0140521Y0156381D01*
X0141158Y0157017D01*
X0141158Y0157710D01*
X0141161Y0157718D01*
X0141321Y0157845D01*
X0141370Y0158273D01*
X0141522Y0158676D01*
X0141438Y0158861D01*
X0141461Y0159063D01*
X0141194Y0159401D01*
X0141158Y0159479D01*
X0141158Y0160280D01*
X0140521Y0160916D01*
X0139583Y0160916D01*
X0139583Y0162541D01*
X0139583Y0162084D02*
X0173827Y0162084D01*
X0173827Y0161298D02*
X0139583Y0161298D01*
X0140926Y0160512D02*
X0172484Y0160512D01*
X0172252Y0159726D02*
X0141158Y0159726D01*
X0141447Y0158940D02*
X0172008Y0158940D01*
X0172013Y0158154D02*
X0141356Y0158154D01*
X0141158Y0157368D02*
X0172252Y0157368D01*
X0172688Y0156582D02*
X0140723Y0156582D01*
X0139583Y0155796D02*
X0173827Y0155796D01*
X0173827Y0155010D02*
X0139583Y0155010D01*
X0139248Y0154224D02*
X0174359Y0154224D01*
X0175145Y0153439D02*
X0138462Y0153439D01*
X0136169Y0153439D02*
X0132937Y0153439D01*
X0133087Y0152653D02*
X0199285Y0152653D01*
X0199278Y0153439D02*
X0177045Y0153439D01*
X0177830Y0154224D02*
X0199272Y0154224D01*
X0199265Y0155010D02*
X0178363Y0155010D01*
X0178363Y0155796D02*
X0199258Y0155796D01*
X0199251Y0156582D02*
X0179502Y0156582D01*
X0179937Y0157368D02*
X0199245Y0157368D01*
X0199151Y0158154D02*
X0179937Y0158154D01*
X0179937Y0158940D02*
X0199245Y0158940D01*
X0199251Y0159726D02*
X0179937Y0159726D01*
X0179705Y0160512D02*
X0199257Y0160512D01*
X0199264Y0161298D02*
X0178363Y0161298D01*
X0178363Y0162084D02*
X0199270Y0162084D01*
X0199276Y0162870D02*
X0178231Y0162870D01*
X0177445Y0163655D02*
X0199282Y0163655D01*
X0199292Y0151867D02*
X0133087Y0151867D01*
X0132758Y0151081D02*
X0199298Y0151081D01*
X0199305Y0150295D02*
X0131972Y0150295D01*
X0130072Y0149509D02*
X0199312Y0149509D01*
X0199318Y0148723D02*
X0129286Y0148723D01*
X0128500Y0147937D02*
X0199230Y0147937D01*
X0199332Y0147151D02*
X0127715Y0147151D01*
X0126929Y0146365D02*
X0199513Y0146365D01*
X0199761Y0145579D02*
X0126143Y0145579D01*
X0125357Y0144794D02*
X0200127Y0144794D01*
X0200535Y0144008D02*
X0124571Y0144008D01*
X0123835Y0143222D02*
X0201054Y0143222D01*
X0201752Y0142436D02*
X0123835Y0142436D01*
X0123327Y0141650D02*
X0202551Y0141650D01*
X0203534Y0140864D02*
X0122541Y0140864D01*
X0121567Y0143097D02*
X0130819Y0152349D01*
X0129487Y0154224D02*
X0100808Y0154224D01*
X0101072Y0155010D02*
X0135048Y0155010D01*
X0135048Y0155796D02*
X0101072Y0155796D01*
X0102337Y0156582D02*
X0133908Y0156582D01*
X0133473Y0157368D02*
X0102575Y0157368D01*
X0102817Y0158154D02*
X0133473Y0158154D01*
X0133473Y0158940D02*
X0102820Y0158940D01*
X0102575Y0159726D02*
X0133473Y0159726D01*
X0133705Y0160512D02*
X0102146Y0160512D01*
X0100929Y0161298D02*
X0135048Y0161298D01*
X0135048Y0162084D02*
X0100929Y0162084D01*
X0100475Y0162870D02*
X0135376Y0162870D01*
X0136162Y0163655D02*
X0099689Y0163655D01*
X0098661Y0161476D02*
X0096961Y0158452D01*
X0099938Y0158154D02*
X0101070Y0158154D01*
X0101073Y0158307D02*
X0101338Y0158427D01*
X0101078Y0158457D01*
X0101078Y0159227D01*
X0099938Y0159222D01*
X0099938Y0157672D01*
X0101063Y0157677D01*
X0101073Y0158307D01*
X0100504Y0158452D02*
X0098804Y0155427D01*
X0100022Y0153439D02*
X0128701Y0153439D01*
X0132151Y0154224D02*
X0135383Y0154224D01*
X0137315Y0155499D02*
X0135544Y0158649D01*
X0138520Y0158940D02*
X0139660Y0158940D01*
X0139660Y0158654D02*
X0139660Y0159424D01*
X0138520Y0159419D01*
X0138520Y0157869D01*
X0139645Y0157874D01*
X0139655Y0158504D01*
X0139920Y0158624D01*
X0139660Y0158654D01*
X0139650Y0158154D02*
X0138520Y0158154D01*
X0139087Y0158649D02*
X0137315Y0161601D01*
X0138468Y0163655D02*
X0146191Y0163655D01*
X0148339Y0171247D02*
X0148459Y0171249D01*
X0148579Y0171255D01*
X0148698Y0171264D01*
X0148817Y0171278D01*
X0148936Y0171295D01*
X0149054Y0171316D01*
X0149171Y0171341D01*
X0149288Y0171369D01*
X0149403Y0171402D01*
X0149518Y0171438D01*
X0149631Y0171477D01*
X0149742Y0171520D01*
X0149853Y0171567D01*
X0149962Y0171617D01*
X0150069Y0171671D01*
X0150174Y0171728D01*
X0150278Y0171789D01*
X0150379Y0171853D01*
X0150479Y0171920D01*
X0150576Y0171990D01*
X0150671Y0172063D01*
X0150763Y0172139D01*
X0150853Y0172218D01*
X0150941Y0172300D01*
X0151026Y0172385D01*
X0151108Y0172473D01*
X0151187Y0172563D01*
X0151263Y0172655D01*
X0151336Y0172750D01*
X0151406Y0172847D01*
X0151473Y0172947D01*
X0151537Y0173048D01*
X0151598Y0173152D01*
X0151655Y0173257D01*
X0151709Y0173364D01*
X0151759Y0173473D01*
X0151806Y0173584D01*
X0151849Y0173695D01*
X0151888Y0173808D01*
X0151924Y0173923D01*
X0151957Y0174038D01*
X0151985Y0174155D01*
X0152010Y0174272D01*
X0152031Y0174390D01*
X0152048Y0174509D01*
X0152062Y0174628D01*
X0152071Y0174747D01*
X0152077Y0174867D01*
X0152079Y0174987D01*
X0153718Y0177326D02*
X0153725Y0177470D01*
X0153729Y0177614D01*
X0153728Y0177758D01*
X0153724Y0177902D01*
X0153716Y0178045D01*
X0153703Y0178189D01*
X0153687Y0178332D01*
X0153667Y0178474D01*
X0153643Y0178616D01*
X0153615Y0178757D01*
X0153583Y0178898D01*
X0153548Y0179037D01*
X0153508Y0179175D01*
X0153465Y0179313D01*
X0153418Y0179449D01*
X0153367Y0179583D01*
X0153313Y0179716D01*
X0153255Y0179848D01*
X0153193Y0179978D01*
X0153128Y0180106D01*
X0153060Y0180233D01*
X0152987Y0180357D01*
X0152912Y0180480D01*
X0152833Y0180600D01*
X0152751Y0180718D01*
X0152666Y0180834D01*
X0152577Y0180948D01*
X0152486Y0181059D01*
X0152391Y0181167D01*
X0152294Y0181273D01*
X0152193Y0181376D01*
X0152090Y0181476D01*
X0151984Y0181574D01*
X0151876Y0181668D01*
X0151764Y0181760D01*
X0151651Y0181848D01*
X0151535Y0181933D01*
X0151417Y0182015D01*
X0151296Y0182094D01*
X0151174Y0182169D01*
X0149577Y0181269D02*
X0149481Y0181334D01*
X0149383Y0181396D01*
X0149282Y0181454D01*
X0149180Y0181509D01*
X0149076Y0181560D01*
X0148971Y0181608D01*
X0148864Y0181652D01*
X0148755Y0181692D01*
X0148645Y0181729D01*
X0148534Y0181762D01*
X0148422Y0181791D01*
X0148308Y0181816D01*
X0148194Y0181837D01*
X0148080Y0181855D01*
X0147965Y0181868D01*
X0147849Y0181878D01*
X0147733Y0181883D01*
X0147618Y0181885D01*
X0147502Y0181883D01*
X0147386Y0181876D01*
X0147270Y0181866D01*
X0150701Y0180499D02*
X0150795Y0180414D01*
X0150886Y0180326D01*
X0150974Y0180235D01*
X0151060Y0180141D01*
X0151142Y0180045D01*
X0151222Y0179946D01*
X0151298Y0179845D01*
X0151371Y0179741D01*
X0151441Y0179636D01*
X0151507Y0179528D01*
X0151571Y0179418D01*
X0151630Y0179306D01*
X0151686Y0179192D01*
X0151739Y0179077D01*
X0151788Y0178960D01*
X0151833Y0178842D01*
X0151875Y0178722D01*
X0151913Y0178601D01*
X0151947Y0178479D01*
X0151977Y0178356D01*
X0152004Y0178232D01*
X0152026Y0178107D01*
X0152045Y0177982D01*
X0152059Y0177856D01*
X0152070Y0177730D01*
X0152077Y0177603D01*
X0152080Y0177476D01*
X0152079Y0177350D01*
X0156016Y0184830D02*
X0155918Y0190579D01*
X0155635Y0190080D02*
X0156302Y0189695D01*
X0156868Y0190685D01*
X0155526Y0191460D01*
X0154967Y0190483D01*
X0155508Y0190159D01*
X0155479Y0189870D01*
X0155635Y0190080D01*
X0155145Y0190376D02*
X0156692Y0190376D01*
X0156040Y0191162D02*
X0155356Y0191162D01*
X0150110Y0182861D02*
X0149896Y0182999D01*
X0149684Y0183142D01*
X0149476Y0183290D01*
X0149272Y0183443D01*
X0149072Y0183602D01*
X0148876Y0183764D01*
X0148683Y0183932D01*
X0148495Y0184104D01*
X0148311Y0184281D01*
X0148131Y0184462D01*
X0147956Y0184648D01*
X0147785Y0184838D01*
X0147619Y0185032D01*
X0147458Y0185229D01*
X0147302Y0185431D01*
X0147150Y0185637D01*
X0147004Y0185846D01*
X0146863Y0186058D01*
X0146727Y0186274D01*
X0146596Y0186493D01*
X0146471Y0186716D01*
X0146351Y0186941D01*
X0146237Y0187169D01*
X0146128Y0187400D01*
X0146025Y0187633D01*
X0145928Y0187869D01*
X0145836Y0188107D01*
X0145750Y0188348D01*
X0145670Y0188590D01*
X0145596Y0188834D01*
X0145528Y0189080D01*
X0145467Y0189328D01*
X0145411Y0189577D01*
X0145361Y0189827D01*
X0145317Y0190079D01*
X0145279Y0190331D01*
X0145248Y0190584D01*
X0145223Y0190838D01*
X0145204Y0191093D01*
X0145191Y0191348D01*
X0145184Y0191603D01*
X0145184Y0191858D01*
X0145189Y0192113D01*
X0148424Y0197450D02*
X0164820Y0197450D01*
X0164332Y0198236D02*
X0148937Y0198236D01*
X0149750Y0199022D02*
X0163543Y0199022D01*
X0162707Y0199807D02*
X0152154Y0199807D01*
X0152939Y0200593D02*
X0161630Y0200593D01*
X0160287Y0203643D02*
X0158114Y0211248D01*
X0157047Y0213315D02*
X0152312Y0219234D01*
X0152311Y0219234D02*
X0152217Y0219354D01*
X0152127Y0219477D01*
X0152039Y0219602D01*
X0151955Y0219729D01*
X0151874Y0219858D01*
X0151797Y0219990D01*
X0151723Y0220123D01*
X0151652Y0220258D01*
X0151585Y0220396D01*
X0151522Y0220534D01*
X0151462Y0220675D01*
X0151405Y0220816D01*
X0151353Y0220960D01*
X0151304Y0221104D01*
X0151259Y0221250D01*
X0151218Y0221397D01*
X0151180Y0221545D01*
X0140662Y0224594D02*
X0137512Y0222822D01*
X0137517Y0222249D02*
X0138287Y0222249D01*
X0138282Y0223389D01*
X0136732Y0223389D01*
X0136737Y0222264D01*
X0137367Y0222254D01*
X0137487Y0221989D01*
X0137517Y0222249D01*
X0138286Y0222599D02*
X0136736Y0222599D01*
X0136732Y0223385D02*
X0138282Y0223385D01*
X0137512Y0226365D02*
X0134559Y0224790D01*
X0157046Y0213315D02*
X0157136Y0213199D01*
X0157223Y0213082D01*
X0157307Y0212962D01*
X0157388Y0212840D01*
X0157467Y0212717D01*
X0157542Y0212591D01*
X0157613Y0212464D01*
X0157682Y0212335D01*
X0157748Y0212204D01*
X0157810Y0212071D01*
X0157869Y0211937D01*
X0157924Y0211802D01*
X0157977Y0211665D01*
X0158025Y0211527D01*
X0158071Y0211388D01*
X0158113Y0211248D01*
X0161350Y0205309D02*
X0239439Y0205309D01*
X0236129Y0204523D02*
X0161575Y0204523D01*
X0160286Y0203643D02*
X0160312Y0203560D01*
X0160341Y0203477D01*
X0160374Y0203397D01*
X0160411Y0203317D01*
X0160451Y0203240D01*
X0160495Y0203164D01*
X0160542Y0203090D01*
X0160592Y0203019D01*
X0160645Y0202949D01*
X0160701Y0202883D01*
X0160761Y0202818D01*
X0160823Y0202757D01*
X0160887Y0202698D01*
X0160954Y0202642D01*
X0161024Y0202589D01*
X0161096Y0202540D01*
X0161170Y0202493D01*
X0161246Y0202450D01*
X0161324Y0202410D01*
X0161403Y0202374D01*
X0157689Y0193648D02*
X0159363Y0190735D01*
X0158086Y0188805D02*
X0157512Y0188805D01*
X0145190Y0192113D02*
X0145198Y0192392D01*
X0145213Y0192672D01*
X0145234Y0192950D01*
X0145263Y0193228D01*
X0145298Y0193506D01*
X0145340Y0193782D01*
X0145389Y0194057D01*
X0145444Y0194331D01*
X0145506Y0194604D01*
X0145575Y0194875D01*
X0145650Y0195144D01*
X0145732Y0195411D01*
X0145820Y0195676D01*
X0145915Y0195939D01*
X0146016Y0196200D01*
X0146123Y0196458D01*
X0146237Y0196713D01*
X0146357Y0196966D01*
X0146483Y0197216D01*
X0146615Y0197462D01*
X0146753Y0197705D01*
X0146896Y0197945D01*
X0147046Y0198181D01*
X0147201Y0198413D01*
X0147362Y0198642D01*
X0147529Y0198866D01*
X0147700Y0199087D01*
X0147878Y0199303D01*
X0148060Y0199515D01*
X0148248Y0199722D01*
X0148440Y0199925D01*
X0148637Y0200123D01*
X0148840Y0200316D01*
X0149046Y0200504D01*
X0149258Y0200687D01*
X0149473Y0200865D01*
X0149693Y0201037D01*
X0149917Y0201204D01*
X0150145Y0201366D01*
X0150377Y0201522D01*
X0150613Y0201672D01*
X0150852Y0201817D01*
X0151095Y0201955D01*
X0168025Y0192310D02*
X0168024Y0192033D01*
X0168016Y0191756D01*
X0168002Y0191479D01*
X0167981Y0191202D01*
X0167953Y0190926D01*
X0167919Y0190651D01*
X0167879Y0190377D01*
X0167832Y0190103D01*
X0167778Y0189831D01*
X0167718Y0189560D01*
X0167652Y0189291D01*
X0167579Y0189023D01*
X0167500Y0188757D01*
X0167415Y0188494D01*
X0167323Y0188232D01*
X0167225Y0187972D01*
X0167121Y0187715D01*
X0167011Y0187461D01*
X0166895Y0187209D01*
X0166772Y0186960D01*
X0166644Y0186714D01*
X0166510Y0186471D01*
X0166371Y0186231D01*
X0166226Y0185995D01*
X0166075Y0185762D01*
X0165918Y0185533D01*
X0165757Y0185308D01*
X0165590Y0185086D01*
X0165417Y0184869D01*
X0165240Y0184656D01*
X0165058Y0184447D01*
X0164870Y0184242D01*
X0164678Y0184042D01*
X0168024Y0192311D02*
X0168012Y0192592D01*
X0167993Y0192874D01*
X0167967Y0193155D01*
X0167934Y0193435D01*
X0167894Y0193714D01*
X0167848Y0193992D01*
X0167795Y0194269D01*
X0167735Y0194545D01*
X0167668Y0194819D01*
X0167595Y0195091D01*
X0167515Y0195362D01*
X0167429Y0195630D01*
X0167336Y0195896D01*
X0167236Y0196160D01*
X0167131Y0196422D01*
X0167019Y0196680D01*
X0166900Y0196936D01*
X0166776Y0197189D01*
X0166645Y0197439D01*
X0166508Y0197686D01*
X0166365Y0197929D01*
X0166217Y0198169D01*
X0166062Y0198405D01*
X0165902Y0198637D01*
X0165736Y0198865D01*
X0165565Y0199089D01*
X0165389Y0199309D01*
X0165207Y0199525D01*
X0165020Y0199736D01*
X0164827Y0199942D01*
X0164630Y0200144D01*
X0164428Y0200341D01*
X0164221Y0200532D01*
X0164010Y0200719D01*
X0163794Y0200901D01*
X0163574Y0201077D01*
X0163350Y0201248D01*
X0163121Y0201413D01*
X0162889Y0201573D01*
X0162652Y0201727D01*
X0162412Y0201875D01*
X0162169Y0202017D01*
X0161922Y0202153D01*
X0192390Y0191029D02*
X0192697Y0190478D01*
X0192527Y0190242D01*
X0192767Y0190346D01*
X0193152Y0189679D01*
X0194137Y0190253D01*
X0193362Y0191596D01*
X0192390Y0191029D01*
X0192619Y0191162D02*
X0193612Y0191162D01*
X0193261Y0190637D02*
X0196370Y0188964D01*
X0194066Y0190376D02*
X0192624Y0190376D01*
X0193024Y0194279D02*
X0196330Y0192408D01*
X0176095Y0161798D02*
X0174323Y0158649D01*
X0173750Y0158644D02*
X0173750Y0157874D01*
X0174890Y0157879D01*
X0174890Y0159429D01*
X0173765Y0159424D01*
X0173755Y0158794D01*
X0173490Y0158674D01*
X0173750Y0158644D01*
X0173757Y0158940D02*
X0174890Y0158940D01*
X0174890Y0158154D02*
X0173750Y0158154D01*
X0176095Y0155696D02*
X0177866Y0158649D01*
X0192968Y0127414D02*
X0192645Y0126873D01*
X0192355Y0126902D01*
X0192565Y0126746D01*
X0192180Y0126079D01*
X0193170Y0125513D01*
X0193945Y0126856D01*
X0192968Y0127414D01*
X0192549Y0126718D02*
X0193865Y0126718D01*
X0193064Y0126464D02*
X0196174Y0128137D01*
X0196133Y0124692D02*
X0193221Y0123019D01*
X0193412Y0125932D02*
X0192438Y0125932D01*
X0183513Y0110999D02*
X0242141Y0110999D01*
X0245380Y0110213D02*
X0185848Y0110213D01*
X0185746Y0110213D02*
X0185606Y0110213D01*
X0186825Y0109427D02*
X0248620Y0109427D01*
X0251607Y0108642D02*
X0187803Y0108642D01*
X0188780Y0107856D02*
X0253394Y0107856D01*
X0255000Y0107070D02*
X0189758Y0107070D01*
X0190744Y0106284D02*
X0212717Y0106284D01*
X0213132Y0106284D02*
X0213455Y0106284D01*
X0213950Y0106284D02*
X0256345Y0106284D01*
X0257650Y0105498D02*
X0216467Y0105498D01*
X0217830Y0104712D02*
X0258698Y0104712D01*
X0259746Y0103926D02*
X0218874Y0103926D01*
X0220015Y0103140D02*
X0260750Y0103140D01*
X0261604Y0102354D02*
X0220757Y0102354D01*
X0221499Y0101568D02*
X0262458Y0101568D01*
X0263312Y0100782D02*
X0222241Y0100782D01*
X0222983Y0099997D02*
X0264056Y0099997D01*
X0264716Y0099211D02*
X0223725Y0099211D01*
X0224467Y0098425D02*
X0265376Y0098425D01*
X0266036Y0097639D02*
X0225209Y0097639D01*
X0225952Y0096853D02*
X0266627Y0096853D01*
X0267096Y0096067D02*
X0226694Y0096067D01*
X0227436Y0095281D02*
X0267566Y0095281D01*
X0268035Y0094495D02*
X0259203Y0094495D01*
X0259121Y0094578D02*
X0257242Y0094578D01*
X0255914Y0093249D01*
X0255914Y0092883D01*
X0255161Y0093318D01*
X0254291Y0093085D01*
X0253945Y0092486D01*
X0253938Y0092479D01*
X0253737Y0092450D01*
X0253480Y0092104D01*
X0253147Y0091831D01*
X0253127Y0091628D01*
X0253006Y0091465D01*
X0253069Y0091039D01*
X0253060Y0090953D01*
X0252660Y0090260D01*
X0252893Y0089390D01*
X0253859Y0088832D01*
X0253158Y0088131D01*
X0253158Y0086253D01*
X0254486Y0084924D01*
X0256365Y0084924D01*
X0257693Y0086253D01*
X0257693Y0086619D01*
X0258446Y0086184D01*
X0259316Y0086417D01*
X0260947Y0089242D01*
X0260714Y0090112D01*
X0259748Y0090670D01*
X0260449Y0091371D01*
X0260449Y0093249D01*
X0259121Y0094578D01*
X0259989Y0093709D02*
X0268504Y0093709D01*
X0268840Y0092923D02*
X0260449Y0092923D01*
X0260449Y0092137D02*
X0269175Y0092137D01*
X0269509Y0091351D02*
X0260430Y0091351D01*
X0259928Y0090566D02*
X0269844Y0090566D01*
X0270114Y0089780D02*
X0260803Y0089780D01*
X0260803Y0088994D02*
X0270348Y0088994D01*
X0270582Y0088208D02*
X0260349Y0088208D01*
X0259896Y0087422D02*
X0270816Y0087422D01*
X0270989Y0086636D02*
X0267192Y0086636D01*
X0266801Y0086798D02*
X0265704Y0086798D01*
X0264691Y0086379D01*
X0263916Y0085603D01*
X0263496Y0084591D01*
X0263496Y0083494D01*
X0263916Y0082481D01*
X0264691Y0081706D01*
X0265704Y0081286D01*
X0266801Y0081286D01*
X0267813Y0081706D01*
X0268589Y0082481D01*
X0269008Y0083494D01*
X0269008Y0084591D01*
X0268589Y0085603D01*
X0267813Y0086379D01*
X0266801Y0086798D01*
X0265312Y0086636D02*
X0259442Y0086636D01*
X0257291Y0085850D02*
X0264163Y0085850D01*
X0263693Y0085064D02*
X0256505Y0085064D01*
X0254346Y0085064D02*
X0237372Y0085064D01*
X0236409Y0085850D02*
X0253560Y0085850D01*
X0253158Y0086636D02*
X0235599Y0086636D01*
X0234857Y0087422D02*
X0253158Y0087422D01*
X0253234Y0088208D02*
X0234115Y0088208D01*
X0233372Y0088994D02*
X0253580Y0088994D01*
X0252789Y0089780D02*
X0232630Y0089780D01*
X0231888Y0090566D02*
X0252837Y0090566D01*
X0253023Y0091351D02*
X0231146Y0091351D01*
X0230404Y0092137D02*
X0253505Y0092137D01*
X0254198Y0092923D02*
X0229662Y0092923D01*
X0228920Y0093709D02*
X0256374Y0093709D01*
X0255914Y0092923D02*
X0255844Y0092923D01*
X0255173Y0091587D02*
X0254849Y0091047D01*
X0254560Y0091075D01*
X0254770Y0090919D01*
X0254385Y0090252D01*
X0255375Y0089687D01*
X0256150Y0091029D01*
X0255173Y0091587D01*
X0255032Y0091351D02*
X0255586Y0091351D01*
X0255269Y0090637D02*
X0258181Y0092310D01*
X0257159Y0094495D02*
X0228178Y0094495D01*
X0238335Y0084278D02*
X0263496Y0084278D01*
X0263497Y0083492D02*
X0239412Y0083492D01*
X0240620Y0082706D02*
X0263823Y0082706D01*
X0264477Y0081921D02*
X0241841Y0081921D01*
X0243427Y0081135D02*
X0271792Y0081135D01*
X0271757Y0081921D02*
X0268028Y0081921D01*
X0268682Y0082706D02*
X0271634Y0082706D01*
X0271505Y0083492D02*
X0269007Y0083492D01*
X0269008Y0084278D02*
X0271376Y0084278D01*
X0271247Y0085064D02*
X0268812Y0085064D01*
X0268342Y0085850D02*
X0271118Y0085850D01*
X0270389Y0080349D02*
X0245014Y0080349D01*
X0247145Y0079563D02*
X0268215Y0079563D01*
X0265853Y0078777D02*
X0249498Y0078777D01*
X0252589Y0077991D02*
X0262639Y0077991D01*
X0255426Y0087192D02*
X0258338Y0088865D01*
X0255882Y0090566D02*
X0254566Y0090566D01*
X0255212Y0089780D02*
X0255429Y0089780D01*
X0238901Y0111785D02*
X0035536Y0111785D01*
X0038846Y0112571D02*
X0235661Y0112571D01*
X0232421Y0113357D02*
X0042156Y0113357D01*
X0045466Y0114143D02*
X0229182Y0114143D01*
X0226655Y0114929D02*
X0048517Y0114929D01*
X0050293Y0115715D02*
X0224673Y0115715D01*
X0223233Y0116501D02*
X0051668Y0116501D01*
X0053043Y0117287D02*
X0222053Y0117287D01*
X0221312Y0118073D02*
X0053750Y0118073D01*
X0054246Y0118858D02*
X0220802Y0118858D01*
X0220412Y0119644D02*
X0054638Y0119644D01*
X0047329Y0137720D02*
X0120857Y0137720D01*
X0124128Y0134577D02*
X0131605Y0134577D01*
X0155221Y0126718D02*
X0157015Y0126718D01*
X0156557Y0127503D02*
X0156352Y0127503D01*
X0157826Y0128289D02*
X0158080Y0128289D01*
X0191385Y0105498D02*
X0210315Y0105498D01*
X0209113Y0104712D02*
X0191918Y0104712D01*
X0192321Y0103926D02*
X0208370Y0103926D01*
X0207796Y0103140D02*
X0192620Y0103140D01*
X0192853Y0102354D02*
X0207365Y0102354D01*
X0207065Y0101568D02*
X0193015Y0101568D01*
X0193037Y0100782D02*
X0206867Y0100782D01*
X0206815Y0099997D02*
X0201587Y0099997D01*
X0201672Y0099961D02*
X0200659Y0100381D01*
X0199562Y0100381D01*
X0198549Y0099961D01*
X0197774Y0099186D01*
X0197355Y0098173D01*
X0197355Y0097077D01*
X0197774Y0096064D01*
X0198549Y0095289D01*
X0199562Y0094869D01*
X0200659Y0094869D01*
X0201672Y0095289D01*
X0202447Y0096064D01*
X0202866Y0097077D01*
X0202866Y0098173D01*
X0202447Y0099186D01*
X0201672Y0099961D01*
X0202422Y0099211D02*
X0206763Y0099211D01*
X0206711Y0098425D02*
X0202762Y0098425D01*
X0202866Y0097639D02*
X0206659Y0097639D01*
X0206607Y0096853D02*
X0202774Y0096853D01*
X0202448Y0096067D02*
X0206555Y0096067D01*
X0206413Y0095281D02*
X0201653Y0095281D01*
X0198568Y0095281D02*
X0193755Y0095281D01*
X0193630Y0096067D02*
X0197773Y0096067D01*
X0197447Y0096853D02*
X0193531Y0096853D01*
X0193432Y0097639D02*
X0197355Y0097639D01*
X0197459Y0098425D02*
X0193334Y0098425D01*
X0193235Y0099211D02*
X0197799Y0099211D01*
X0198634Y0099997D02*
X0193136Y0099997D01*
X0194092Y0094495D02*
X0206054Y0094495D01*
X0205417Y0093709D02*
X0194695Y0093709D01*
X0195924Y0092923D02*
X0204195Y0092923D01*
X0202837Y0092137D02*
X0197634Y0092137D01*
X0199344Y0091351D02*
X0201479Y0091351D01*
X0101078Y0158940D02*
X0099938Y0158940D01*
X0078654Y0128334D02*
X0078694Y0128293D01*
X0078694Y0124692D01*
X0081416Y0125932D02*
X0082394Y0125932D01*
X0062030Y0138506D02*
X0048258Y0138506D01*
X0051602Y0176230D02*
X0056099Y0176230D01*
X0057966Y0177016D02*
X0050492Y0177016D01*
X0049383Y0177802D02*
X0059833Y0177802D01*
X0061983Y0178588D02*
X0048274Y0178588D01*
X0065056Y0178588D02*
X0065360Y0178588D01*
X0019180Y0092923D02*
X0018914Y0092923D01*
X0016687Y0092270D02*
X0016646Y0092310D01*
X0016687Y0092270D02*
X0016687Y0088865D01*
X0019142Y0090566D02*
X0020448Y0090566D01*
X0019829Y0089780D02*
X0019596Y0089780D01*
X0006682Y0085850D02*
X0003957Y0085850D01*
X0003795Y0085064D02*
X0006212Y0085064D01*
X0006016Y0084278D02*
X0003634Y0084278D01*
X0003473Y0083492D02*
X0006017Y0083492D01*
X0006342Y0082706D02*
X0003354Y0082706D01*
X0003305Y0081921D02*
X0006996Y0081921D01*
D12*
X0096961Y0158452D03*
X0100504Y0158452D03*
X0135544Y0158649D03*
X0139087Y0158649D03*
X0174323Y0158649D03*
X0177866Y0158649D03*
D13*
X0176095Y0155696D03*
X0176095Y0161798D03*
X0165859Y0166916D03*
X0160544Y0180302D03*
X0164678Y0184042D03*
X0159363Y0190735D03*
X0151095Y0201956D03*
X0140662Y0224594D03*
X0134559Y0224790D03*
X0127473Y0226562D03*
X0137512Y0242901D03*
X0144008Y0237389D03*
X0149126Y0230105D03*
X0123339Y0201956D03*
X0120780Y0193491D03*
X0115071Y0190932D03*
X0102276Y0192310D03*
X0098929Y0181090D03*
X0086528Y0174790D03*
X0078654Y0189160D03*
X0081804Y0194475D03*
X0082394Y0205696D03*
X0111134Y0174200D03*
X0110150Y0168885D03*
X0115859Y0166523D03*
X0120583Y0174987D03*
X0132985Y0171247D03*
X0142040Y0171247D03*
X0148339Y0171247D03*
X0137315Y0161601D03*
X0137315Y0155499D03*
X0130819Y0152349D03*
X0121567Y0143097D03*
X0122945Y0136601D03*
X0132591Y0136798D03*
X0120977Y0123412D03*
X0115859Y0126759D03*
X0104048Y0121641D03*
X0094008Y0126365D03*
X0102670Y0138964D03*
X0098804Y0155427D03*
X0098661Y0161476D03*
X0078654Y0128334D03*
X0081804Y0122822D03*
X0038890Y0108452D03*
X0019796Y0086995D03*
X0016646Y0092310D03*
X0041843Y0221444D03*
X0019599Y0230302D03*
X0016924Y0224880D03*
X0129638Y0103334D03*
X0134363Y0092704D03*
X0140465Y0092507D03*
X0137512Y0082074D03*
X0152866Y0113964D03*
X0154244Y0123609D03*
X0159756Y0126759D03*
X0181016Y0124397D03*
X0193221Y0123019D03*
X0196174Y0128137D03*
X0192630Y0115145D03*
X0179441Y0144082D03*
X0146567Y0150578D03*
X0180819Y0193885D03*
X0193024Y0194279D03*
X0196370Y0188964D03*
X0239874Y0213176D03*
X0255229Y0230105D03*
X0258378Y0224594D03*
X0145386Y0276562D03*
X0134756Y0297625D03*
X0236134Y0093097D03*
X0255426Y0087192D03*
X0258181Y0092310D03*
X0145386Y0044279D03*
X0140465Y0019475D03*
D14*
X0137512Y0009633D03*
X0137512Y0307271D03*
M02*
