%
M48
M72
T01C0.0098
T02C0.0315
%
T01
X1980Y8700
X1665Y9231
X3889Y10845
X7865Y12833
X8180Y12282
X9401Y12637
X10405Y12164
X11586Y12676
X12098Y12341
X12295Y13660
X12157Y14310
X13082Y15235
X13732Y15550
X13732Y16160
X13298Y17125
X14204Y17125
X14834Y17125
X16054Y18030
X16468Y18404
X15936Y19074
X15109Y20196
X14066Y22459
X13456Y22479
X12747Y22656
X13751Y24290
X14401Y23739
X14913Y23011
X12334Y20196
X12078Y19349
X11507Y19093
X10228Y19231
X9893Y18109
X8653Y17479
X7865Y18916
X8180Y19448
X8239Y20570
X11113Y17420
X11015Y16888
X11586Y16652
X12058Y17499
X9866Y16148
X9880Y15543
X10267Y13896
X13259Y13680
X14657Y15058
X16586Y16692
X17609Y16180
X17609Y15570
X17944Y14408
X18102Y12440
X19322Y12302
X19617Y12814
X19263Y11514
X15976Y12676
X15424Y12361
X15287Y11396
X14046Y9251
X13436Y9270
X12964Y10333
X13751Y8207
X14539Y4428
X14046Y1948
X23613Y9310
X25543Y8719
X25818Y9231
X19637Y18896
X19302Y19428
X18082Y19388
X23987Y21318
X25523Y23011
X25838Y22459
X14539Y27656
X13476Y29763
X4184Y22144
X1960Y23030
X1692Y22488
T02
X877Y8404
X5346Y13483
X7491Y9763
X11586Y7400
X15897Y7400
X20011Y9763
X22157Y13483
X22157Y18227
X20011Y21967
X15897Y24329
X11586Y24329
X7491Y21948
X5346Y18227
X877Y23286
X13751Y30727
X26625Y23286
X26625Y8404
X13751Y963
M30
