G75*
%MOIN*%
%OFA0B0*%
%FSLAX25Y25*%
%IPPOS*%
%LPD*%
%AMOC8*
5,1,8,0,0,1.08239X$1,22.5*
%
%ADD10R,0.02362X0.01969*%
%ADD11R,0.01969X0.02362*%
D10*
G36*
X0016948Y0090379D02*
X0018129Y0088335D01*
X0016426Y0087351D01*
X0015245Y0089395D01*
X0016948Y0090379D01*
G37*
G36*
X0020016Y0092151D02*
X0021197Y0090107D01*
X0019494Y0089123D01*
X0018313Y0091167D01*
X0020016Y0092151D01*
G37*
G36*
X0078955Y0126206D02*
X0080136Y0124162D01*
X0078433Y0123178D01*
X0077252Y0125222D01*
X0078955Y0126206D01*
G37*
G36*
X0082024Y0127978D02*
X0083205Y0125934D01*
X0081502Y0124950D01*
X0080321Y0126994D01*
X0082024Y0127978D01*
G37*
G36*
X0116805Y0125092D02*
X0118849Y0123911D01*
X0117865Y0122208D01*
X0115821Y0123389D01*
X0116805Y0125092D01*
G37*
G36*
X0118577Y0128160D02*
X0120621Y0126979D01*
X0119637Y0125276D01*
X0117593Y0126457D01*
X0118577Y0128160D01*
G37*
X0137512Y0094279D03*
X0137512Y0090735D03*
G36*
X0156372Y0123911D02*
X0158416Y0125092D01*
X0159400Y0123389D01*
X0157356Y0122208D01*
X0156372Y0123911D01*
G37*
G36*
X0154601Y0126979D02*
X0156645Y0128160D01*
X0157629Y0126457D01*
X0155585Y0125276D01*
X0154601Y0126979D01*
G37*
G36*
X0191622Y0125934D02*
X0192803Y0127978D01*
X0194506Y0126994D01*
X0193325Y0124950D01*
X0191622Y0125934D01*
G37*
G36*
X0194691Y0124162D02*
X0195872Y0126206D01*
X0197575Y0125222D01*
X0196394Y0123178D01*
X0194691Y0124162D01*
G37*
G36*
X0193000Y0189123D02*
X0191819Y0191167D01*
X0193522Y0192151D01*
X0194703Y0190107D01*
X0193000Y0189123D01*
G37*
G36*
X0196069Y0190894D02*
X0194888Y0192938D01*
X0196591Y0193922D01*
X0197772Y0191878D01*
X0196069Y0190894D01*
G37*
G36*
X0158219Y0192206D02*
X0156175Y0193387D01*
X0157159Y0195090D01*
X0159203Y0193909D01*
X0158219Y0192206D01*
G37*
G36*
X0156448Y0189137D02*
X0154404Y0190318D01*
X0155388Y0192021D01*
X0157432Y0190840D01*
X0156448Y0189137D01*
G37*
X0137512Y0222822D03*
X0137512Y0226365D03*
G36*
X0118652Y0193190D02*
X0116608Y0192009D01*
X0115624Y0193712D01*
X0117668Y0194893D01*
X0118652Y0193190D01*
G37*
G36*
X0120424Y0190121D02*
X0118380Y0188940D01*
X0117396Y0190643D01*
X0119440Y0191824D01*
X0120424Y0190121D01*
G37*
G36*
X0083205Y0191364D02*
X0082024Y0189320D01*
X0080321Y0190304D01*
X0081502Y0192348D01*
X0083205Y0191364D01*
G37*
G36*
X0080136Y0193135D02*
X0078955Y0191091D01*
X0077252Y0192075D01*
X0078433Y0194119D01*
X0080136Y0193135D01*
G37*
G36*
X0021197Y0227190D02*
X0020016Y0225146D01*
X0018313Y0226130D01*
X0019494Y0228174D01*
X0021197Y0227190D01*
G37*
G36*
X0018129Y0228962D02*
X0016948Y0226918D01*
X0015245Y0227902D01*
X0016426Y0229946D01*
X0018129Y0228962D01*
G37*
X0137512Y0294475D03*
X0137512Y0298019D03*
G36*
X0255008Y0224950D02*
X0253827Y0226994D01*
X0255530Y0227978D01*
X0256711Y0225934D01*
X0255008Y0224950D01*
G37*
G36*
X0258077Y0226721D02*
X0256896Y0228765D01*
X0258599Y0229749D01*
X0259780Y0227705D01*
X0258077Y0226721D01*
G37*
G36*
X0253827Y0090107D02*
X0255008Y0092151D01*
X0256711Y0091167D01*
X0255530Y0089123D01*
X0253827Y0090107D01*
G37*
G36*
X0256896Y0088335D02*
X0258077Y0090379D01*
X0259780Y0089395D01*
X0258599Y0087351D01*
X0256896Y0088335D01*
G37*
X0137512Y0022625D03*
X0137512Y0019082D03*
D11*
X0100504Y0158452D03*
X0096961Y0158452D03*
X0135544Y0158649D03*
X0139087Y0158649D03*
X0174323Y0158649D03*
X0177866Y0158649D03*
M02*
