G75*
%MOIN*%
%OFA0B0*%
%FSLAX25Y25*%
%IPPOS*%
%LPD*%
%AMOC8*
5,1,8,0,0,1.08239X$1,22.5*
%
%ADD10C,0.03150*%
%ADD11R,0.05000X0.02200*%
%ADD12R,0.02200X0.05000*%
%ADD13R,0.02992X0.09449*%
%ADD14R,0.05512X0.03150*%
%ADD15R,0.03150X0.05512*%
%ADD16R,0.03150X0.04724*%
%ADD17R,0.05512X0.15748*%
%ADD18C,0.04724*%
D10*
X0008772Y0084042D03*
X0053457Y0134830D03*
X0074914Y0097625D03*
X0115859Y0074003D03*
X0158969Y0074003D03*
X0200111Y0097625D03*
X0221567Y0134830D03*
X0221567Y0182271D03*
X0200111Y0219672D03*
X0158969Y0243294D03*
X0115859Y0243294D03*
X0074914Y0219475D03*
X0053457Y0182271D03*
X0008772Y0232861D03*
X0266252Y0232861D03*
X0266252Y0084042D03*
D11*
X0154215Y0147704D03*
X0154215Y0150853D03*
X0154215Y0154003D03*
X0154215Y0157153D03*
X0154215Y0160302D03*
X0154215Y0163452D03*
X0154215Y0166601D03*
X0154215Y0169751D03*
X0120415Y0169751D03*
X0120415Y0166601D03*
X0120415Y0163452D03*
X0120415Y0160302D03*
X0120415Y0157153D03*
X0120415Y0154003D03*
X0120415Y0150853D03*
X0120415Y0147704D03*
D12*
X0126292Y0141827D03*
X0129441Y0141827D03*
X0132591Y0141827D03*
X0135741Y0141827D03*
X0138890Y0141827D03*
X0142040Y0141827D03*
X0145189Y0141827D03*
X0148339Y0141827D03*
X0148339Y0175627D03*
X0145189Y0175627D03*
X0142040Y0175627D03*
X0138890Y0175627D03*
X0135741Y0175627D03*
X0132591Y0175627D03*
X0129441Y0175627D03*
X0126292Y0175627D03*
D13*
X0127512Y0201956D03*
X0132512Y0201956D03*
X0137512Y0201956D03*
X0142512Y0201956D03*
X0147512Y0201956D03*
X0147512Y0217310D03*
X0142512Y0217310D03*
X0137512Y0217310D03*
X0132512Y0217310D03*
X0127512Y0217310D03*
D14*
X0134363Y0191129D03*
X0134363Y0183255D03*
X0143024Y0183255D03*
X0143024Y0191129D03*
D15*
X0117827Y0186011D03*
X0109953Y0186011D03*
X0078457Y0205696D03*
X0070583Y0205696D03*
X0157197Y0138767D03*
X0165071Y0138767D03*
X0196567Y0115145D03*
X0204441Y0115145D03*
D16*
X0188496Y0130893D03*
X0181016Y0130893D03*
X0167433Y0115538D03*
X0159953Y0115538D03*
X0141252Y0103334D03*
X0133772Y0103334D03*
X0117630Y0115145D03*
X0110150Y0115145D03*
X0094008Y0134830D03*
X0086528Y0134830D03*
X0110150Y0138767D03*
X0117630Y0138767D03*
X0094008Y0166326D03*
X0086528Y0166326D03*
X0086528Y0186011D03*
X0094008Y0186011D03*
X0102276Y0197822D03*
X0109756Y0197822D03*
X0109953Y0178334D03*
X0117433Y0178334D03*
X0149717Y0182271D03*
X0157197Y0182271D03*
X0165268Y0193885D03*
X0172748Y0193885D03*
X0181016Y0186011D03*
X0188496Y0186011D03*
X0180032Y0150184D03*
X0172552Y0150184D03*
X0236134Y0099397D03*
X0243615Y0099397D03*
X0141252Y0048216D03*
X0133772Y0048216D03*
X0035741Y0097428D03*
X0028260Y0097428D03*
X0027473Y0221444D03*
X0034953Y0221444D03*
X0133772Y0231877D03*
X0141252Y0231877D03*
X0141252Y0268688D03*
X0133772Y0268688D03*
X0239874Y0219672D03*
X0247355Y0219672D03*
D17*
X0145386Y0287389D03*
X0137512Y0287389D03*
X0129638Y0287389D03*
X0129638Y0030696D03*
X0137512Y0030696D03*
X0145386Y0030696D03*
D18*
X0137512Y0009633D03*
X0137512Y0307271D03*
M02*
