G75*
%MOIN*%
%OFA0B0*%
%FSLAX25Y25*%
%IPPOS*%
%LPD*%
%AMOC8*
5,1,8,0,0,1.08239X$1,22.5*
%
%ADD10C,0.00591*%
%ADD11C,0.01181*%
%ADD12C,0.03150*%
%ADD13R,0.02362X0.01969*%
%ADD14R,0.01969X0.02362*%
%ADD15C,0.04724*%
D10*
X0008867Y0079072D02*
X0012869Y0078150D01*
X0017476Y0077767D01*
X0020792Y0077978D01*
X0023993Y0078607D01*
X0028000Y0079860D01*
X0031471Y0081340D01*
X0034552Y0083095D01*
X0037388Y0085171D01*
X0053796Y0102426D01*
X0055982Y0104191D01*
X0058132Y0105605D01*
X0058940Y0106005D01*
X0059787Y0106295D01*
X0060660Y0106472D01*
X0061549Y0106531D01*
X0062241Y0106497D01*
X0062915Y0106397D01*
X0063566Y0106235D01*
X0064192Y0106013D01*
X0064790Y0105734D01*
X0065355Y0105403D01*
X0065886Y0105021D01*
X0066377Y0104591D01*
X0066828Y0104118D01*
X0067233Y0103604D01*
X0067590Y0103053D01*
X0067895Y0102466D01*
X0068146Y0101848D01*
X0068339Y0101202D01*
X0068471Y0100530D01*
X0068727Y0096060D01*
X0068804Y0095624D01*
X0068933Y0095206D01*
X0069112Y0094811D01*
X0069339Y0094442D01*
X0069610Y0094104D01*
X0069924Y0093800D01*
X0070278Y0093534D01*
X0074504Y0091120D01*
X0079501Y0093407D01*
X0079867Y0093670D01*
X0080196Y0093975D01*
X0080481Y0094319D01*
X0080722Y0094697D01*
X0080912Y0095102D01*
X0081050Y0095532D01*
X0081884Y0102215D01*
X0082102Y0103043D01*
X0082396Y0103841D01*
X0082765Y0104604D01*
X0083206Y0105328D01*
X0083715Y0106009D01*
X0084292Y0106641D01*
X0088121Y0109797D01*
X0089566Y0110623D01*
X0091117Y0111184D01*
X0092739Y0111469D01*
X0094192Y0111485D01*
X0095429Y0111321D01*
X0096632Y0110999D01*
X0097785Y0110521D01*
X0116462Y0099629D01*
X0117516Y0098636D01*
X0118400Y0097505D01*
X0119104Y0096260D01*
X0119615Y0094924D01*
X0119924Y0093522D01*
X0120019Y0092077D01*
X0119165Y0086507D01*
X0118905Y0085691D01*
X0118571Y0084909D01*
X0118164Y0084166D01*
X0117687Y0083465D01*
X0117143Y0082811D01*
X0116535Y0082208D01*
X0111165Y0078145D01*
X0110862Y0077811D01*
X0110606Y0077443D01*
X0110399Y0077046D01*
X0110244Y0076627D01*
X0110144Y0076190D01*
X0110100Y0075741D01*
X0110617Y0070270D01*
X0115038Y0067718D01*
X0115474Y0067568D01*
X0115926Y0067477D01*
X0116388Y0067446D01*
X0116802Y0067471D01*
X0117210Y0067545D01*
X0117606Y0067666D01*
X0121965Y0069827D01*
X0122754Y0070071D01*
X0123564Y0070218D01*
X0124393Y0070267D01*
X0125102Y0070231D01*
X0125790Y0070127D01*
X0126455Y0069958D01*
X0127093Y0069727D01*
X0127700Y0069438D01*
X0128273Y0069095D01*
X0128808Y0068700D01*
X0129302Y0068257D01*
X0129751Y0067770D01*
X0130152Y0067243D01*
X0130501Y0066678D01*
X0130795Y0066079D01*
X0131030Y0065450D01*
X0131203Y0064793D01*
X0131310Y0064114D01*
X0131268Y0061496D01*
X0130255Y0055809D01*
X0124355Y0036925D01*
X0123785Y0033402D01*
X0123601Y0029901D01*
X0123834Y0026273D01*
X0124517Y0022371D01*
X0125553Y0018591D01*
X0126877Y0015490D01*
X0128492Y0012734D01*
X0130284Y0010323D01*
X0133948Y0006548D01*
X0137512Y0003812D01*
X0140224Y0005822D01*
X0143811Y0009246D01*
X0145650Y0011484D01*
X0147368Y0014068D01*
X0148851Y0016997D01*
X0149988Y0020270D01*
X0150906Y0024366D01*
X0151360Y0028113D01*
X0151380Y0031658D01*
X0151000Y0035152D01*
X0144257Y0058011D01*
X0143822Y0060795D01*
X0143676Y0063372D01*
X0143712Y0064074D01*
X0143819Y0064756D01*
X0143991Y0065414D01*
X0144227Y0066045D01*
X0144521Y0066645D01*
X0144872Y0067212D01*
X0145274Y0067741D01*
X0145726Y0068229D01*
X0146222Y0068673D01*
X0146760Y0069069D01*
X0147336Y0069413D01*
X0147947Y0069703D01*
X0148588Y0069935D01*
X0149257Y0070104D01*
X0149950Y0070209D01*
X0150873Y0070241D01*
X0151703Y0070167D01*
X0152512Y0069995D01*
X0153300Y0069727D01*
X0157515Y0067632D01*
X0157914Y0067522D01*
X0158325Y0067460D01*
X0158751Y0067448D01*
X0159211Y0067494D01*
X0159660Y0067600D01*
X0160091Y0067764D01*
X0164407Y0070270D01*
X0164923Y0075741D01*
X0164880Y0076190D01*
X0164779Y0076627D01*
X0164624Y0077047D01*
X0164417Y0077443D01*
X0164161Y0077811D01*
X0163858Y0078145D01*
X0158488Y0082209D01*
X0157880Y0082811D01*
X0157336Y0083465D01*
X0156859Y0084166D01*
X0156452Y0084910D01*
X0156118Y0085691D01*
X0155858Y0086507D01*
X0155013Y0092046D01*
X0155108Y0093505D01*
X0155417Y0094917D01*
X0155930Y0096260D01*
X0156634Y0097509D01*
X0157520Y0098643D01*
X0158574Y0099638D01*
X0177239Y0110521D01*
X0178392Y0110998D01*
X0179595Y0111321D01*
X0180832Y0111484D01*
X0182285Y0111469D01*
X0183904Y0111185D01*
X0185447Y0110631D01*
X0186876Y0109819D01*
X0190732Y0106641D01*
X0191308Y0106009D01*
X0191818Y0105328D01*
X0192259Y0104603D01*
X0192627Y0103840D01*
X0192922Y0103042D01*
X0193140Y0102214D01*
X0193973Y0095532D01*
X0194111Y0095103D01*
X0194302Y0094697D01*
X0194542Y0094319D01*
X0194828Y0093976D01*
X0195156Y0093670D01*
X0195523Y0093407D01*
X0200519Y0091120D01*
X0204927Y0093662D01*
X0205261Y0093947D01*
X0205554Y0094269D01*
X0205804Y0094623D01*
X0206007Y0095006D01*
X0206161Y0095413D01*
X0206265Y0095840D01*
X0206555Y0100584D01*
X0206686Y0101252D01*
X0206878Y0101896D01*
X0207127Y0102511D01*
X0207431Y0103095D01*
X0207787Y0103644D01*
X0208190Y0104156D01*
X0208637Y0104627D01*
X0209127Y0105054D01*
X0209654Y0105434D01*
X0210217Y0105764D01*
X0210811Y0106042D01*
X0211434Y0106263D01*
X0212082Y0106424D01*
X0212753Y0106524D01*
X0213661Y0106554D01*
X0214533Y0106467D01*
X0215387Y0106267D01*
X0216212Y0105957D01*
X0217345Y0105334D01*
X0219525Y0103829D01*
X0223979Y0099751D01*
X0233527Y0088994D01*
X0239031Y0084090D01*
X0241972Y0082180D01*
X0245230Y0080569D01*
X0251422Y0078506D01*
X0254640Y0077929D01*
X0258750Y0077794D01*
X0263237Y0078342D01*
X0267052Y0079345D01*
X0271521Y0081178D01*
X0271137Y0084531D01*
X0269966Y0089350D01*
X0268948Y0092062D01*
X0267569Y0094843D01*
X0265773Y0097594D01*
X0263506Y0100216D01*
X0260418Y0103059D01*
X0257400Y0105326D01*
X0254340Y0107116D01*
X0251124Y0108534D01*
X0234435Y0112496D01*
X0227956Y0114124D01*
X0225327Y0115139D01*
X0223023Y0116301D01*
X0222284Y0116794D01*
X0221625Y0117368D01*
X0221051Y0118016D01*
X0220566Y0118730D01*
X0220176Y0119500D01*
X0219886Y0120320D01*
X0219699Y0121181D01*
X0219621Y0122074D01*
X0219657Y0122994D01*
X0219808Y0123887D01*
X0220067Y0124744D01*
X0220432Y0125555D01*
X0220897Y0126313D01*
X0221458Y0127009D01*
X0222110Y0127633D01*
X0226199Y0130367D01*
X0226517Y0130670D01*
X0226793Y0131008D01*
X0227022Y0131375D01*
X0227204Y0131768D01*
X0227337Y0132183D01*
X0227416Y0132615D01*
X0227414Y0137703D01*
X0222854Y0140929D01*
X0222354Y0141135D01*
X0221828Y0141260D01*
X0221283Y0141302D01*
X0220924Y0141284D01*
X0220572Y0141229D01*
X0220227Y0141139D01*
X0214068Y0138531D01*
X0213190Y0138301D01*
X0212293Y0138162D01*
X0211380Y0138116D01*
X0210581Y0138152D01*
X0209792Y0138258D01*
X0209016Y0138436D01*
X0203859Y0140452D01*
X0202643Y0141261D01*
X0201575Y0142232D01*
X0200669Y0143345D01*
X0199939Y0144578D01*
X0199399Y0145910D01*
X0199065Y0147319D01*
X0199065Y0169786D01*
X0199399Y0171195D01*
X0199936Y0172526D01*
X0200663Y0173758D01*
X0201564Y0174869D01*
X0202624Y0175837D01*
X0203828Y0176641D01*
X0209403Y0178767D01*
X0210185Y0178909D01*
X0210980Y0178981D01*
X0211839Y0178978D01*
X0212744Y0178885D01*
X0213632Y0178701D01*
X0214499Y0178425D01*
X0220058Y0176025D01*
X0220399Y0175917D01*
X0220747Y0175844D01*
X0221103Y0175808D01*
X0221557Y0175814D01*
X0222094Y0175898D01*
X0222608Y0176064D01*
X0223092Y0176309D01*
X0227414Y0179402D01*
X0227416Y0184491D01*
X0227336Y0184923D01*
X0227204Y0185338D01*
X0227022Y0185731D01*
X0226792Y0186098D01*
X0226517Y0186435D01*
X0226199Y0186738D01*
X0222067Y0189499D01*
X0221420Y0190119D01*
X0220862Y0190809D01*
X0220400Y0191561D01*
X0220037Y0192367D01*
X0219778Y0193217D01*
X0219628Y0194103D01*
X0219591Y0195016D01*
X0219667Y0195905D01*
X0219852Y0196762D01*
X0220140Y0197579D01*
X0220528Y0198348D01*
X0221009Y0199060D01*
X0221580Y0199707D01*
X0222235Y0200281D01*
X0222970Y0200774D01*
X0225281Y0201947D01*
X0230881Y0203841D01*
X0251124Y0208572D01*
X0254340Y0209989D01*
X0257400Y0211780D01*
X0260418Y0214046D01*
X0263506Y0216890D01*
X0265772Y0219510D01*
X0267567Y0222259D01*
X0268946Y0225039D01*
X0270676Y0230293D01*
X0271399Y0234479D01*
X0271521Y0235924D01*
X0269346Y0236910D01*
X0266156Y0238034D01*
X0262154Y0238956D01*
X0257547Y0239338D01*
X0254231Y0239128D01*
X0251030Y0238499D01*
X0247024Y0237246D01*
X0243552Y0235766D01*
X0240471Y0234011D01*
X0237636Y0231934D01*
X0221210Y0214665D01*
X0219017Y0212896D01*
X0216858Y0211482D01*
X0216058Y0211086D01*
X0215219Y0210800D01*
X0214354Y0210626D01*
X0213474Y0210568D01*
X0212781Y0210602D01*
X0212108Y0210701D01*
X0211456Y0210864D01*
X0210830Y0211086D01*
X0210233Y0211365D01*
X0209668Y0211697D01*
X0209137Y0212080D01*
X0208646Y0212509D01*
X0208196Y0212983D01*
X0207790Y0213497D01*
X0207433Y0214050D01*
X0207128Y0214637D01*
X0206877Y0215255D01*
X0206684Y0215902D01*
X0206552Y0216575D01*
X0206296Y0221046D01*
X0206219Y0221481D01*
X0206090Y0221899D01*
X0205911Y0222294D01*
X0205685Y0222663D01*
X0205413Y0223002D01*
X0205099Y0223306D01*
X0204745Y0223571D01*
X0200519Y0225986D01*
X0195523Y0223698D01*
X0195156Y0223436D01*
X0194828Y0223130D01*
X0194542Y0222786D01*
X0194302Y0222409D01*
X0194111Y0222003D01*
X0193973Y0221574D01*
X0193139Y0214891D01*
X0192922Y0214063D01*
X0192627Y0213265D01*
X0192258Y0212502D01*
X0191818Y0211777D01*
X0191308Y0211097D01*
X0190732Y0210464D01*
X0186903Y0207308D01*
X0185459Y0206481D01*
X0183908Y0205919D01*
X0182286Y0205633D01*
X0180834Y0205618D01*
X0179598Y0205781D01*
X0178397Y0206103D01*
X0177245Y0206580D01*
X0158561Y0217476D01*
X0157507Y0218469D01*
X0156623Y0219601D01*
X0155920Y0220846D01*
X0155408Y0222181D01*
X0155099Y0223583D01*
X0155005Y0225028D01*
X0155858Y0230598D01*
X0156118Y0231414D01*
X0156452Y0232196D01*
X0156859Y0232939D01*
X0157336Y0233640D01*
X0157880Y0234294D01*
X0158487Y0234897D01*
X0163859Y0238960D01*
X0164161Y0239294D01*
X0164417Y0239662D01*
X0164624Y0240059D01*
X0164779Y0240478D01*
X0164880Y0240915D01*
X0164924Y0241364D01*
X0164407Y0246835D01*
X0159985Y0249388D01*
X0159549Y0249537D01*
X0159097Y0249628D01*
X0158635Y0249659D01*
X0158221Y0249634D01*
X0157813Y0249560D01*
X0157417Y0249439D01*
X0153059Y0247278D01*
X0152269Y0247034D01*
X0151459Y0246888D01*
X0150630Y0246839D01*
X0149921Y0246874D01*
X0149233Y0246978D01*
X0148568Y0247147D01*
X0147931Y0247378D01*
X0147324Y0247667D01*
X0146751Y0248010D01*
X0146216Y0248405D01*
X0145722Y0248847D01*
X0145273Y0249333D01*
X0144872Y0249861D01*
X0144522Y0250425D01*
X0144229Y0251024D01*
X0143993Y0251653D01*
X0143821Y0252309D01*
X0143714Y0252988D01*
X0143755Y0255606D01*
X0144768Y0261295D01*
X0150668Y0280180D01*
X0151238Y0283703D01*
X0151422Y0287204D01*
X0151189Y0290832D01*
X0150507Y0294735D01*
X0149468Y0298522D01*
X0148142Y0301632D01*
X0146527Y0304393D01*
X0144735Y0306805D01*
X0141074Y0310573D01*
X0137515Y0313295D01*
X0134802Y0311285D01*
X0131214Y0307861D01*
X0129375Y0305623D01*
X0127656Y0303039D01*
X0126172Y0300109D01*
X0125036Y0296836D01*
X0124117Y0292739D01*
X0123664Y0288993D01*
X0123643Y0285447D01*
X0124024Y0281953D01*
X0130764Y0259108D01*
X0131200Y0256329D01*
X0131347Y0253757D01*
X0131312Y0253049D01*
X0131207Y0252358D01*
X0131034Y0251688D01*
X0130794Y0251043D01*
X0130489Y0250426D01*
X0130120Y0249840D01*
X0129690Y0249291D01*
X0129199Y0248781D01*
X0128692Y0248348D01*
X0128146Y0247966D01*
X0127566Y0247637D01*
X0126959Y0247364D01*
X0126330Y0247147D01*
X0125683Y0246990D01*
X0125024Y0246894D01*
X0123940Y0246874D01*
X0123116Y0246972D01*
X0122312Y0247168D01*
X0121530Y0247461D01*
X0117799Y0249361D01*
X0117410Y0249506D01*
X0117007Y0249603D01*
X0116595Y0249653D01*
X0116156Y0249651D01*
X0115698Y0249590D01*
X0115254Y0249470D01*
X0114828Y0249291D01*
X0110617Y0246835D01*
X0110100Y0241364D01*
X0110144Y0240916D01*
X0110244Y0240479D01*
X0110399Y0240059D01*
X0110606Y0239662D01*
X0110862Y0239294D01*
X0111165Y0238960D01*
X0116536Y0234897D01*
X0117144Y0234294D01*
X0117687Y0233640D01*
X0118164Y0232939D01*
X0118571Y0232196D01*
X0118905Y0231414D01*
X0119165Y0230598D01*
X0120010Y0225059D01*
X0119915Y0223600D01*
X0119605Y0222188D01*
X0119092Y0220845D01*
X0118387Y0219595D01*
X0117502Y0218461D01*
X0116447Y0217467D01*
X0097785Y0206584D01*
X0096632Y0206107D01*
X0095428Y0205784D01*
X0094191Y0205621D01*
X0092738Y0205636D01*
X0091119Y0205920D01*
X0089576Y0206474D01*
X0088147Y0207286D01*
X0084291Y0210464D01*
X0083715Y0211097D01*
X0083205Y0211778D01*
X0082764Y0212502D01*
X0082396Y0213266D01*
X0082101Y0214064D01*
X0081883Y0214891D01*
X0081050Y0221573D01*
X0080912Y0222003D01*
X0080722Y0222409D01*
X0080481Y0222786D01*
X0080196Y0223130D01*
X0079868Y0223435D01*
X0079501Y0223698D01*
X0074504Y0225986D01*
X0070096Y0223444D01*
X0069762Y0223158D01*
X0069469Y0222836D01*
X0069220Y0222482D01*
X0069016Y0222100D01*
X0068862Y0221693D01*
X0068759Y0221265D01*
X0068469Y0216522D01*
X0068338Y0215854D01*
X0068146Y0215211D01*
X0067896Y0214596D01*
X0067592Y0214012D01*
X0067237Y0213463D01*
X0066834Y0212952D01*
X0066386Y0212481D01*
X0065896Y0212054D01*
X0065369Y0211674D01*
X0064806Y0211344D01*
X0064212Y0211066D01*
X0063589Y0210846D01*
X0062940Y0210684D01*
X0062270Y0210585D01*
X0061361Y0210555D01*
X0060485Y0210642D01*
X0059627Y0210843D01*
X0058799Y0211155D01*
X0057665Y0211779D01*
X0055488Y0213284D01*
X0051042Y0217357D01*
X0041495Y0228112D01*
X0035991Y0233016D01*
X0033051Y0234925D01*
X0029793Y0236537D01*
X0023601Y0238600D01*
X0020383Y0239177D01*
X0016273Y0239312D01*
X0011786Y0238764D01*
X0007971Y0237761D01*
X0003502Y0235927D01*
X0003886Y0232575D01*
X0005057Y0227755D01*
X0006075Y0225043D01*
X0007455Y0222262D01*
X0009250Y0219511D01*
X0011517Y0216890D01*
X0014605Y0214046D01*
X0017623Y0211780D01*
X0020683Y0209989D01*
X0023899Y0208572D01*
X0047060Y0202984D01*
X0049687Y0201971D01*
X0051989Y0200811D01*
X0052730Y0200318D01*
X0053390Y0199743D01*
X0053966Y0199094D01*
X0054452Y0198379D01*
X0054843Y0197607D01*
X0055135Y0196786D01*
X0055323Y0195925D01*
X0055401Y0195030D01*
X0055365Y0194110D01*
X0055215Y0193217D01*
X0054955Y0192361D01*
X0054591Y0191550D01*
X0054126Y0190792D01*
X0053565Y0190096D01*
X0052913Y0189472D01*
X0048824Y0186738D01*
X0048506Y0186435D01*
X0048231Y0186098D01*
X0048001Y0185731D01*
X0047819Y0185337D01*
X0047687Y0184923D01*
X0047607Y0184491D01*
X0047609Y0179402D01*
X0052169Y0176176D01*
X0052669Y0175971D01*
X0053195Y0175846D01*
X0053740Y0175803D01*
X0054099Y0175822D01*
X0054451Y0175876D01*
X0054796Y0175967D01*
X0060955Y0178574D01*
X0061833Y0178804D01*
X0062730Y0178943D01*
X0063643Y0178990D01*
X0064442Y0178954D01*
X0065231Y0178847D01*
X0066007Y0178670D01*
X0069815Y0177277D01*
X0069815Y0177276D01*
X0071167Y0176642D01*
X0072384Y0175825D01*
X0073452Y0174847D01*
X0074358Y0173730D01*
X0075087Y0172493D01*
X0075625Y0171158D01*
X0075959Y0169746D01*
X0075957Y0147359D01*
X0075621Y0145939D01*
X0075079Y0144598D01*
X0074347Y0143356D01*
X0073439Y0142237D01*
X0072371Y0141261D01*
X0071158Y0140451D01*
X0065621Y0138338D01*
X0064838Y0138196D01*
X0064043Y0138125D01*
X0063184Y0138127D01*
X0062279Y0138220D01*
X0061391Y0138405D01*
X0060524Y0138681D01*
X0054965Y0141080D01*
X0054624Y0141188D01*
X0054276Y0141261D01*
X0053920Y0141297D01*
X0053466Y0141291D01*
X0052930Y0141207D01*
X0052416Y0141042D01*
X0051931Y0140797D01*
X0047609Y0137703D01*
X0047607Y0132615D01*
X0047687Y0132183D01*
X0047819Y0131768D01*
X0048001Y0131375D01*
X0048231Y0131007D01*
X0048506Y0130670D01*
X0048825Y0130367D01*
X0052956Y0127607D01*
X0053603Y0126987D01*
X0054161Y0126296D01*
X0054623Y0125544D01*
X0054986Y0124739D01*
X0055245Y0123889D01*
X0055395Y0123003D01*
X0055433Y0122090D01*
X0055356Y0121200D01*
X0055172Y0120343D01*
X0054883Y0119526D01*
X0054496Y0118758D01*
X0054014Y0118046D01*
X0053444Y0117399D01*
X0052788Y0116825D01*
X0052053Y0116332D01*
X0049742Y0115159D01*
X0044143Y0113264D01*
X0023900Y0108533D01*
X0020684Y0107116D01*
X0017623Y0105325D01*
X0014606Y0103059D01*
X0011517Y0100216D01*
X0009252Y0097595D01*
X0007457Y0094846D01*
X0006077Y0092066D01*
X0004347Y0086813D01*
X0003624Y0082626D01*
X0003503Y0081181D01*
X0005677Y0080195D01*
X0008867Y0079072D01*
X0027495Y0085605D02*
X0028147Y0088877D01*
X0028557Y0090035D01*
X0029088Y0091135D01*
X0029732Y0092169D01*
X0030485Y0093127D01*
X0031339Y0094001D01*
X0032288Y0094781D01*
X0077036Y0120695D01*
X0079075Y0119822D02*
X0078356Y0118170D01*
X0075202Y0101254D01*
X0085867Y0119624D02*
X0085254Y0120017D01*
X0084682Y0120471D01*
X0084158Y0120984D01*
X0085867Y0119624D02*
X0086518Y0119296D01*
X0087200Y0119036D01*
X0087910Y0118846D01*
X0088641Y0118730D01*
X0111709Y0118792D01*
X0112851Y0119085D01*
X0113921Y0119559D01*
X0114898Y0120202D01*
X0115605Y0119794D02*
X0115538Y0118626D01*
X0115662Y0117462D01*
X0115979Y0116326D01*
X0127460Y0096318D01*
X0127926Y0095743D01*
X0128445Y0095223D01*
X0129011Y0094762D01*
X0129621Y0094363D01*
X0130268Y0094028D01*
X0130947Y0093760D01*
X0131653Y0093563D01*
X0133188Y0088580D02*
X0132116Y0087131D01*
X0119044Y0075941D01*
X0134964Y0087250D02*
X0134896Y0035540D01*
X0134694Y0034328D01*
X0134365Y0033152D01*
X0133911Y0032021D01*
X0133338Y0030946D01*
X0132651Y0029936D01*
X0131853Y0029002D01*
X0129345Y0026802D01*
X0140329Y0034328D02*
X0140128Y0035540D01*
X0140059Y0087250D01*
X0141835Y0088580D02*
X0142907Y0087131D01*
X0155979Y0075941D01*
X0145403Y0094363D02*
X0144756Y0094028D01*
X0144076Y0093760D01*
X0143370Y0093563D01*
X0145403Y0094363D02*
X0146012Y0094762D01*
X0146579Y0095223D01*
X0147097Y0095743D01*
X0147563Y0096318D01*
X0159044Y0116326D01*
X0159361Y0117462D01*
X0159486Y0118626D01*
X0159418Y0119794D01*
X0160125Y0120202D02*
X0161102Y0119559D01*
X0162172Y0119085D01*
X0163314Y0118792D01*
X0186382Y0118730D01*
X0187113Y0118846D01*
X0187823Y0119036D01*
X0188505Y0119296D01*
X0189156Y0119624D01*
X0189770Y0120017D01*
X0190341Y0120471D01*
X0190865Y0120984D01*
X0188852Y0125970D02*
X0178383Y0131887D01*
X0176833Y0132409D01*
X0175241Y0132723D01*
X0173627Y0132828D01*
X0172014Y0132723D01*
X0170422Y0132409D01*
X0168871Y0131887D01*
X0162100Y0128104D01*
X0159866Y0130302D02*
X0173154Y0153319D01*
X0170320Y0158301D02*
X0169522Y0158146D01*
X0168752Y0157902D01*
X0168017Y0157575D01*
X0167326Y0157166D01*
X0166683Y0156682D01*
X0166097Y0156125D01*
X0165573Y0155500D01*
X0154186Y0135777D01*
X0153906Y0135011D01*
X0153717Y0134225D01*
X0153619Y0133426D01*
X0153612Y0132623D01*
X0153695Y0131823D01*
X0153869Y0131035D01*
X0154134Y0130265D01*
X0153698Y0130014D02*
X0153164Y0130628D01*
X0152568Y0131173D01*
X0151917Y0131645D01*
X0151218Y0132040D01*
X0150477Y0132354D01*
X0149702Y0132584D01*
X0148899Y0132724D01*
X0126124Y0132724D01*
X0125321Y0132584D01*
X0124546Y0132354D01*
X0123805Y0132040D01*
X0123106Y0131645D01*
X0122455Y0131173D01*
X0121859Y0130628D01*
X0121325Y0130014D01*
X0120890Y0130265D02*
X0121154Y0131035D01*
X0121328Y0131823D01*
X0121412Y0132623D01*
X0121404Y0133426D01*
X0121306Y0134225D01*
X0121117Y0135011D01*
X0120837Y0135777D01*
X0109450Y0155500D01*
X0108927Y0156125D01*
X0108340Y0156682D01*
X0107698Y0157166D01*
X0107006Y0157575D01*
X0106271Y0157902D01*
X0105501Y0158146D01*
X0104703Y0158301D01*
X0104703Y0158804D02*
X0105501Y0158959D01*
X0106271Y0159203D01*
X0107006Y0159531D01*
X0107698Y0159939D01*
X0108340Y0160423D01*
X0108927Y0160980D01*
X0109450Y0161605D01*
X0120837Y0181329D01*
X0121117Y0182094D01*
X0121306Y0182881D01*
X0121404Y0183679D01*
X0121412Y0184483D01*
X0121328Y0185282D01*
X0121154Y0186071D01*
X0120890Y0186840D01*
X0121325Y0187091D02*
X0121859Y0186478D01*
X0122455Y0185933D01*
X0123106Y0185461D01*
X0123805Y0185065D01*
X0124546Y0184751D01*
X0125321Y0184522D01*
X0126124Y0184381D01*
X0148899Y0184381D01*
X0149702Y0184522D01*
X0150477Y0184751D01*
X0151218Y0185065D01*
X0151917Y0185461D01*
X0152568Y0185933D01*
X0153164Y0186478D01*
X0153698Y0187091D01*
X0154134Y0186840D02*
X0153869Y0186071D01*
X0153695Y0185282D01*
X0153612Y0184483D01*
X0153619Y0183679D01*
X0153717Y0182881D01*
X0153906Y0182094D01*
X0154186Y0181329D01*
X0165573Y0161605D01*
X0166097Y0160980D01*
X0166683Y0160423D01*
X0167326Y0159939D01*
X0168017Y0159531D01*
X0168752Y0159203D01*
X0169522Y0158959D01*
X0170320Y0158804D01*
X0173154Y0163787D02*
X0159866Y0186803D01*
X0162100Y0189002D02*
X0168871Y0185219D01*
X0170422Y0184696D01*
X0172014Y0184382D01*
X0173627Y0184278D01*
X0175241Y0184382D01*
X0176833Y0184696D01*
X0178383Y0185219D01*
X0188852Y0191136D01*
X0190865Y0196121D02*
X0190341Y0196634D01*
X0189770Y0197089D01*
X0189156Y0197481D01*
X0188505Y0197809D01*
X0187823Y0198070D01*
X0187113Y0198259D01*
X0186382Y0198375D01*
X0163314Y0198314D01*
X0162172Y0198020D01*
X0161102Y0197546D01*
X0160125Y0196903D01*
X0159418Y0197312D02*
X0159486Y0198479D01*
X0159361Y0199643D01*
X0159044Y0200779D01*
X0147563Y0220787D01*
X0147097Y0221362D01*
X0146579Y0221882D01*
X0146012Y0222343D01*
X0145403Y0222742D01*
X0144756Y0223077D01*
X0144076Y0223345D01*
X0143370Y0223542D01*
X0141835Y0228525D02*
X0142907Y0229974D01*
X0155979Y0241164D01*
X0140059Y0229855D02*
X0140128Y0281565D01*
X0140329Y0282777D01*
X0140658Y0283953D01*
X0141112Y0285084D01*
X0141685Y0286159D01*
X0142372Y0287169D01*
X0143170Y0288103D01*
X0145678Y0290303D01*
X0134694Y0282777D02*
X0134896Y0281565D01*
X0134964Y0229855D01*
X0133188Y0228525D02*
X0132116Y0229974D01*
X0119044Y0241164D01*
X0129621Y0222742D02*
X0129011Y0222343D01*
X0128445Y0221882D01*
X0127926Y0221362D01*
X0127460Y0220787D01*
X0115979Y0200779D01*
X0115662Y0199643D01*
X0115538Y0198479D01*
X0115605Y0197312D01*
X0114898Y0196903D02*
X0113921Y0197546D01*
X0112851Y0198020D01*
X0111709Y0198314D01*
X0088641Y0198375D01*
X0087910Y0198259D01*
X0087200Y0198070D01*
X0086518Y0197809D01*
X0085867Y0197481D01*
X0085254Y0197089D01*
X0084682Y0196634D01*
X0084158Y0196121D01*
X0086172Y0191136D02*
X0096640Y0185219D01*
X0098190Y0184696D01*
X0099782Y0184382D01*
X0101396Y0184278D01*
X0103009Y0184382D01*
X0104601Y0184696D01*
X0106152Y0185219D01*
X0112923Y0189002D01*
X0115158Y0186803D02*
X0101869Y0163787D01*
X0098848Y0164623D02*
X0098738Y0172378D01*
X0098416Y0173982D01*
X0097891Y0175518D01*
X0097175Y0176967D01*
X0096278Y0178312D01*
X0095210Y0179534D01*
X0093982Y0180616D01*
X0083624Y0186723D01*
X0078300Y0185974D02*
X0078117Y0185264D01*
X0078010Y0184542D01*
X0077976Y0183814D01*
X0078017Y0183086D01*
X0078133Y0182365D01*
X0078324Y0181656D01*
X0078589Y0180965D01*
X0090176Y0161018D01*
X0091001Y0160176D01*
X0091947Y0159486D01*
X0092992Y0158961D01*
X0092992Y0158144D02*
X0091947Y0157620D01*
X0091001Y0156930D01*
X0090176Y0156088D01*
X0078589Y0136141D01*
X0078324Y0135449D01*
X0078133Y0134740D01*
X0078017Y0134019D01*
X0077976Y0133292D01*
X0078010Y0132564D01*
X0078117Y0131842D01*
X0078300Y0131131D01*
X0074752Y0127310D02*
X0072961Y0127514D01*
X0056734Y0133240D01*
X0074488Y0125108D02*
X0029672Y0099312D01*
X0028521Y0098880D01*
X0027338Y0098578D01*
X0026132Y0098405D01*
X0024914Y0098364D01*
X0023696Y0098454D01*
X0022488Y0098678D01*
X0019329Y0099750D01*
X0085000Y0147323D02*
X0081138Y0154212D01*
X0080661Y0155627D01*
X0080375Y0157080D01*
X0080280Y0158553D01*
X0080375Y0160025D01*
X0080661Y0161479D01*
X0081138Y0162894D01*
X0085060Y0169886D01*
X0098848Y0152483D02*
X0098738Y0144727D01*
X0098416Y0143123D01*
X0097891Y0141588D01*
X0097175Y0140138D01*
X0096278Y0138793D01*
X0095210Y0137571D01*
X0093982Y0136490D01*
X0083624Y0130383D01*
X0086172Y0125970D02*
X0096640Y0131887D01*
X0098190Y0132409D01*
X0099782Y0132723D01*
X0101396Y0132828D01*
X0103009Y0132723D01*
X0104601Y0132409D01*
X0106152Y0131887D01*
X0112923Y0128104D01*
X0115158Y0130302D02*
X0101869Y0153319D01*
X0116082Y0158248D02*
X0116055Y0158452D01*
X0116082Y0158656D01*
X0116161Y0158845D01*
X0116286Y0159009D01*
X0116449Y0159134D01*
X0116639Y0159212D01*
X0116843Y0159239D01*
X0117047Y0159212D01*
X0117237Y0159134D01*
X0117400Y0159009D01*
X0117525Y0158845D01*
X0117603Y0158656D01*
X0117630Y0158452D01*
X0117603Y0158248D01*
X0117525Y0158058D01*
X0117400Y0157895D01*
X0117237Y0157770D01*
X0117047Y0157691D01*
X0116843Y0157664D01*
X0116639Y0157691D01*
X0116449Y0157770D01*
X0116286Y0157895D01*
X0116161Y0158058D01*
X0116082Y0158248D01*
X0116082Y0158251D02*
X0117604Y0158251D01*
X0117527Y0158840D02*
X0116159Y0158840D01*
X0119550Y0158457D02*
X0131656Y0158457D01*
X0134666Y0153434D02*
X0128457Y0142704D01*
X0127473Y0140827D02*
X0127636Y0140701D01*
X0127761Y0140538D01*
X0127840Y0140348D01*
X0127866Y0140145D01*
X0127840Y0139941D01*
X0127761Y0139751D01*
X0127636Y0139588D01*
X0127473Y0139463D01*
X0127283Y0139384D01*
X0127079Y0139357D01*
X0126875Y0139384D01*
X0126685Y0139463D01*
X0126522Y0139588D01*
X0126397Y0139751D01*
X0126319Y0139941D01*
X0126292Y0140145D01*
X0126319Y0140348D01*
X0126397Y0140538D01*
X0126522Y0140701D01*
X0126685Y0140827D01*
X0126875Y0140905D01*
X0127079Y0140932D01*
X0127283Y0140905D01*
X0127473Y0140827D01*
X0127730Y0140579D02*
X0126429Y0140579D01*
X0126312Y0139990D02*
X0127846Y0139990D01*
X0127324Y0139401D02*
X0126834Y0139401D01*
X0124223Y0125068D02*
X0150800Y0125068D01*
X0151587Y0122034D02*
X0144925Y0118061D01*
X0143697Y0116980D01*
X0142630Y0115758D01*
X0141732Y0114413D01*
X0141016Y0112963D01*
X0140492Y0111428D01*
X0140169Y0109824D01*
X0140059Y0097799D01*
X0134964Y0097799D02*
X0134854Y0109824D01*
X0134531Y0111428D01*
X0134007Y0112963D01*
X0133291Y0114413D01*
X0132394Y0115758D01*
X0131326Y0116980D01*
X0130098Y0118061D01*
X0123436Y0122034D01*
X0113084Y0107562D02*
X0111620Y0107856D01*
X0110219Y0108335D01*
X0108896Y0108988D01*
X0107668Y0109807D01*
X0106552Y0110782D01*
X0105566Y0111903D01*
X0101471Y0118794D01*
X0113084Y0107562D02*
X0120981Y0107461D01*
X0147388Y0139588D02*
X0147552Y0139463D01*
X0147741Y0139384D01*
X0147945Y0139357D01*
X0148149Y0139384D01*
X0148339Y0139463D01*
X0148502Y0139588D01*
X0148627Y0139751D01*
X0148706Y0139941D01*
X0148733Y0140145D01*
X0148706Y0140348D01*
X0148627Y0140538D01*
X0148502Y0140701D01*
X0148339Y0140827D01*
X0148149Y0140905D01*
X0147945Y0140932D01*
X0147741Y0140905D01*
X0147552Y0140827D01*
X0147388Y0140701D01*
X0147263Y0140538D01*
X0147185Y0140348D01*
X0147158Y0140145D01*
X0147185Y0139941D01*
X0147263Y0139751D01*
X0147388Y0139588D01*
X0147700Y0139401D02*
X0148190Y0139401D01*
X0148712Y0139990D02*
X0147178Y0139990D01*
X0147295Y0140579D02*
X0148596Y0140579D01*
X0146549Y0142750D02*
X0140522Y0153529D01*
X0143564Y0158451D02*
X0155473Y0158451D01*
X0157591Y0158452D02*
X0157618Y0158656D01*
X0157696Y0158845D01*
X0157822Y0159009D01*
X0157985Y0159134D01*
X0158175Y0159212D01*
X0158378Y0159239D01*
X0158582Y0159212D01*
X0158772Y0159134D01*
X0158935Y0159009D01*
X0159060Y0158845D01*
X0159139Y0158656D01*
X0159166Y0158452D01*
X0159139Y0158248D01*
X0159060Y0158058D01*
X0158935Y0157895D01*
X0158772Y0157770D01*
X0158582Y0157691D01*
X0158378Y0157664D01*
X0158175Y0157691D01*
X0157985Y0157770D01*
X0157822Y0157895D01*
X0157696Y0158058D01*
X0157618Y0158248D01*
X0157591Y0158452D01*
X0157617Y0158251D02*
X0159139Y0158251D01*
X0159062Y0158840D02*
X0157694Y0158840D01*
X0140357Y0163672D02*
X0146633Y0174254D01*
X0147552Y0176077D02*
X0147388Y0176202D01*
X0147263Y0176365D01*
X0147185Y0176555D01*
X0147158Y0176759D01*
X0147185Y0176963D01*
X0147263Y0177153D01*
X0147388Y0177316D01*
X0147552Y0177441D01*
X0147741Y0177519D01*
X0147945Y0177546D01*
X0148149Y0177519D01*
X0148339Y0177441D01*
X0148502Y0177316D01*
X0148627Y0177153D01*
X0148706Y0176963D01*
X0148733Y0176759D01*
X0148706Y0176555D01*
X0148627Y0176365D01*
X0148502Y0176202D01*
X0148339Y0176077D01*
X0148149Y0175998D01*
X0147945Y0175971D01*
X0147741Y0175998D01*
X0147552Y0176077D01*
X0147202Y0176512D02*
X0148688Y0176512D01*
X0148648Y0177101D02*
X0147242Y0177101D01*
X0150800Y0192037D02*
X0124223Y0192037D01*
X0123436Y0195071D02*
X0130098Y0199044D01*
X0131326Y0200125D01*
X0132394Y0201348D01*
X0133291Y0202693D01*
X0134007Y0204142D01*
X0134531Y0205678D01*
X0134854Y0207282D01*
X0134964Y0219306D01*
X0140059Y0219306D02*
X0140169Y0207282D01*
X0140492Y0205678D01*
X0141016Y0204142D01*
X0141732Y0202693D01*
X0142630Y0201348D01*
X0143697Y0200125D01*
X0144925Y0199044D01*
X0151587Y0195071D01*
X0161939Y0209544D02*
X0163403Y0209249D01*
X0164805Y0208771D01*
X0166128Y0208117D01*
X0167355Y0207298D01*
X0168471Y0206324D01*
X0169458Y0205203D01*
X0173552Y0198311D01*
X0161939Y0209544D02*
X0154042Y0209644D01*
X0131653Y0223542D02*
X0130947Y0223345D01*
X0130268Y0223077D01*
X0129621Y0222742D01*
X0121100Y0209644D02*
X0113084Y0209544D01*
X0111620Y0209249D01*
X0110219Y0208771D01*
X0108896Y0208117D01*
X0107668Y0207298D01*
X0106553Y0206324D01*
X0105566Y0205203D01*
X0101530Y0198414D01*
X0079075Y0197283D02*
X0078356Y0198936D01*
X0075202Y0215852D01*
X0077036Y0196410D02*
X0032288Y0222324D01*
X0031339Y0223105D01*
X0030485Y0223978D01*
X0029732Y0224936D01*
X0029088Y0225970D01*
X0028557Y0227070D01*
X0028147Y0228228D01*
X0027495Y0231500D01*
X0026132Y0218700D02*
X0027338Y0218528D01*
X0028521Y0218225D01*
X0029672Y0217793D01*
X0074488Y0191997D01*
X0074752Y0189795D02*
X0072961Y0189591D01*
X0056734Y0183865D01*
X0026132Y0218700D02*
X0024914Y0218742D01*
X0023696Y0218651D01*
X0022488Y0218428D01*
X0019329Y0217356D01*
X0126319Y0176963D02*
X0126397Y0177153D01*
X0126522Y0177316D01*
X0126685Y0177441D01*
X0126875Y0177519D01*
X0127079Y0177546D01*
X0127283Y0177519D01*
X0127473Y0177441D01*
X0127636Y0177316D01*
X0127761Y0177153D01*
X0127840Y0176963D01*
X0127866Y0176759D01*
X0127840Y0176555D01*
X0127761Y0176365D01*
X0127636Y0176202D01*
X0127473Y0176077D01*
X0127283Y0175998D01*
X0127079Y0175971D01*
X0126875Y0175998D01*
X0126685Y0176077D01*
X0126522Y0176202D01*
X0126397Y0176365D01*
X0126319Y0176555D01*
X0126292Y0176759D01*
X0126319Y0176963D01*
X0126376Y0177101D02*
X0127782Y0177101D01*
X0127822Y0176512D02*
X0126336Y0176512D01*
X0128474Y0174159D02*
X0134501Y0163576D01*
X0173493Y0118691D02*
X0169457Y0111903D01*
X0168471Y0110782D01*
X0167355Y0109807D01*
X0166128Y0108988D01*
X0164805Y0108335D01*
X0163403Y0107856D01*
X0161939Y0107562D01*
X0153923Y0107461D01*
X0179813Y0137571D02*
X0178745Y0138793D01*
X0177848Y0140138D01*
X0177132Y0141588D01*
X0176607Y0143123D01*
X0176285Y0144727D01*
X0176175Y0152483D01*
X0182031Y0158144D02*
X0183076Y0157620D01*
X0184022Y0156930D01*
X0184847Y0156088D01*
X0196434Y0136141D01*
X0196699Y0135449D01*
X0196890Y0134740D01*
X0197006Y0134019D01*
X0197047Y0133292D01*
X0197014Y0132564D01*
X0196906Y0131842D01*
X0196723Y0131131D01*
X0200271Y0127310D02*
X0202062Y0127514D01*
X0218289Y0133240D01*
X0200535Y0125108D02*
X0245352Y0099312D01*
X0246502Y0098880D01*
X0247685Y0098578D01*
X0248891Y0098405D01*
X0250109Y0098364D01*
X0251327Y0098454D01*
X0252535Y0098678D01*
X0255694Y0099750D01*
X0245291Y0092169D02*
X0245935Y0091135D01*
X0246466Y0090035D01*
X0246877Y0088877D01*
X0247528Y0085605D01*
X0245291Y0092169D02*
X0244538Y0093127D01*
X0243685Y0094001D01*
X0242736Y0094781D01*
X0197987Y0120695D01*
X0195948Y0119822D02*
X0196667Y0118170D01*
X0199821Y0101254D01*
X0191399Y0130383D02*
X0181041Y0136490D01*
X0179813Y0137571D01*
X0189964Y0147220D02*
X0193885Y0154212D01*
X0194362Y0155627D01*
X0194648Y0157080D01*
X0194744Y0158553D01*
X0194648Y0160025D01*
X0194362Y0161479D01*
X0193885Y0162894D01*
X0190023Y0169783D01*
X0184847Y0161018D02*
X0184022Y0160176D01*
X0183076Y0159486D01*
X0182031Y0158961D01*
X0184847Y0161018D02*
X0196434Y0180965D01*
X0196699Y0181656D01*
X0196890Y0182365D01*
X0197006Y0183086D01*
X0197047Y0183814D01*
X0197014Y0184542D01*
X0196906Y0185264D01*
X0196723Y0185974D01*
X0200271Y0189795D02*
X0202062Y0189591D01*
X0218289Y0183865D01*
X0200535Y0191997D02*
X0245352Y0217793D01*
X0246502Y0218225D01*
X0247685Y0218528D01*
X0248891Y0218700D01*
X0250109Y0218742D01*
X0251327Y0218651D01*
X0252535Y0218428D01*
X0255694Y0217356D01*
X0245291Y0224936D02*
X0245935Y0225970D01*
X0246466Y0227070D01*
X0246877Y0228228D01*
X0247528Y0231500D01*
X0245291Y0224936D02*
X0244538Y0223978D01*
X0243685Y0223105D01*
X0242736Y0222324D01*
X0197987Y0196410D01*
X0195948Y0197283D02*
X0196667Y0198936D01*
X0199821Y0215852D01*
X0191399Y0186723D02*
X0181041Y0180616D01*
X0179813Y0179534D01*
X0178745Y0178312D01*
X0177848Y0176967D01*
X0177132Y0175518D01*
X0176607Y0173982D01*
X0176285Y0172378D01*
X0176175Y0164623D01*
X0134694Y0282777D02*
X0134365Y0283953D01*
X0133911Y0285084D01*
X0133338Y0286159D01*
X0132651Y0287169D01*
X0131853Y0288103D01*
X0129345Y0290303D01*
X0140329Y0034328D02*
X0140658Y0033152D01*
X0141112Y0032021D01*
X0141685Y0030946D01*
X0142372Y0029936D01*
X0143170Y0029002D01*
X0145678Y0026802D01*
D11*
X0142369Y0024220D02*
X0142663Y0023736D01*
X0142909Y0023224D01*
X0143106Y0022686D01*
X0143251Y0022125D01*
X0143340Y0021543D01*
X0143370Y0020944D01*
X0143340Y0020345D01*
X0143251Y0019763D01*
X0143106Y0019202D01*
X0142909Y0018664D01*
X0142663Y0018152D01*
X0142369Y0017669D01*
X0142032Y0017218D01*
X0141654Y0016802D01*
X0141238Y0016424D01*
X0140787Y0016086D01*
X0140304Y0015793D01*
X0139792Y0015546D01*
X0139254Y0015349D01*
X0138692Y0015205D01*
X0138111Y0015116D01*
X0137512Y0015086D01*
X0136913Y0015116D01*
X0136331Y0015205D01*
X0135770Y0015349D01*
X0135231Y0015546D01*
X0134719Y0015793D01*
X0134236Y0016086D01*
X0133785Y0016424D01*
X0133369Y0016802D01*
X0132991Y0017218D01*
X0132654Y0017669D01*
X0132360Y0018152D01*
X0132114Y0018664D01*
X0131917Y0019202D01*
X0131772Y0019763D01*
X0131684Y0020345D01*
X0131653Y0020944D01*
X0131684Y0021543D01*
X0131772Y0022125D01*
X0131917Y0022686D01*
X0132114Y0023224D01*
X0132360Y0023736D01*
X0132654Y0024220D01*
X0132991Y0024670D01*
X0133369Y0025086D01*
X0133785Y0025465D01*
X0134236Y0025802D01*
X0134719Y0026095D01*
X0135231Y0026342D01*
X0135770Y0026539D01*
X0136331Y0026683D01*
X0136913Y0026772D01*
X0137512Y0026802D01*
X0138111Y0026772D01*
X0138692Y0026683D01*
X0139254Y0026539D01*
X0139792Y0026342D01*
X0140304Y0026095D01*
X0140787Y0025802D01*
X0141238Y0025465D01*
X0141654Y0025086D01*
X0142032Y0024670D01*
X0142369Y0024220D01*
X0138111Y0086698D02*
X0137512Y0086668D01*
X0136913Y0086698D01*
X0136331Y0086787D01*
X0135770Y0086931D01*
X0135231Y0087128D01*
X0134719Y0087375D01*
X0134236Y0087669D01*
X0133785Y0088006D01*
X0133369Y0088384D01*
X0132991Y0088800D01*
X0132654Y0089251D01*
X0132360Y0089734D01*
X0132114Y0090246D01*
X0131917Y0090784D01*
X0131772Y0091346D01*
X0131684Y0091927D01*
X0131653Y0092526D01*
X0131684Y0093125D01*
X0131772Y0093707D01*
X0131917Y0094268D01*
X0132114Y0094807D01*
X0132360Y0095319D01*
X0132654Y0095802D01*
X0132991Y0096253D01*
X0133369Y0096669D01*
X0133785Y0097047D01*
X0134236Y0097384D01*
X0134719Y0097678D01*
X0135231Y0097924D01*
X0135770Y0098121D01*
X0136331Y0098266D01*
X0136913Y0098354D01*
X0137512Y0098385D01*
X0138111Y0098354D01*
X0138692Y0098266D01*
X0139254Y0098121D01*
X0139792Y0097924D01*
X0140304Y0097678D01*
X0140787Y0097384D01*
X0141238Y0097047D01*
X0141654Y0096669D01*
X0142032Y0096253D01*
X0142369Y0095802D01*
X0142663Y0095319D01*
X0142909Y0094807D01*
X0143106Y0094268D01*
X0143251Y0093707D01*
X0143340Y0093125D01*
X0143370Y0092526D01*
X0143340Y0091927D01*
X0143251Y0091346D01*
X0143106Y0090784D01*
X0142909Y0090246D01*
X0142663Y0089734D01*
X0142369Y0089251D01*
X0142032Y0088800D01*
X0141654Y0088384D01*
X0141238Y0088006D01*
X0140787Y0087669D01*
X0140304Y0087375D01*
X0139792Y0087128D01*
X0139254Y0086931D01*
X0138692Y0086787D01*
X0138111Y0086698D01*
X0154633Y0119829D02*
X0155181Y0119615D01*
X0155740Y0119460D01*
X0156304Y0119361D01*
X0156871Y0119319D01*
X0157436Y0119331D01*
X0157995Y0119398D01*
X0158545Y0119517D01*
X0159080Y0119688D01*
X0159598Y0119910D01*
X0160093Y0120182D01*
X0160563Y0120502D01*
X0161003Y0120870D01*
X0161409Y0121284D01*
X0161776Y0121743D01*
X0162102Y0122247D01*
X0162375Y0122781D01*
X0162589Y0123329D01*
X0162745Y0123887D01*
X0162843Y0124452D01*
X0162886Y0125018D01*
X0162873Y0125584D01*
X0162807Y0126143D01*
X0162687Y0126692D01*
X0162516Y0127227D01*
X0162294Y0127745D01*
X0162022Y0128241D01*
X0161702Y0128710D01*
X0161335Y0129150D01*
X0160921Y0129556D01*
X0160461Y0129923D01*
X0159958Y0130249D01*
X0159424Y0130522D01*
X0158876Y0130736D01*
X0158317Y0130892D01*
X0157753Y0130991D01*
X0157186Y0131033D01*
X0156621Y0131020D01*
X0156062Y0130954D01*
X0155512Y0130834D01*
X0154977Y0130663D01*
X0154459Y0130441D01*
X0153964Y0130170D01*
X0153494Y0129850D01*
X0153054Y0129482D01*
X0152649Y0129068D01*
X0152281Y0128609D01*
X0151955Y0128105D01*
X0151682Y0127571D01*
X0151468Y0127023D01*
X0151312Y0126465D01*
X0151214Y0125900D01*
X0151171Y0125333D01*
X0151184Y0124768D01*
X0151251Y0124209D01*
X0151370Y0123660D01*
X0151541Y0123124D01*
X0151763Y0122607D01*
X0152035Y0122111D01*
X0152355Y0121641D01*
X0152723Y0121202D01*
X0153137Y0120796D01*
X0153596Y0120428D01*
X0154099Y0120102D01*
X0154633Y0119829D01*
X0124193Y0124363D02*
X0124223Y0124962D01*
X0124193Y0125561D01*
X0124104Y0126143D01*
X0123960Y0126704D01*
X0123763Y0127242D01*
X0123516Y0127754D01*
X0123223Y0128237D01*
X0122885Y0128688D01*
X0122507Y0129104D01*
X0122091Y0129483D01*
X0121640Y0129820D01*
X0121157Y0130113D01*
X0120645Y0130360D01*
X0120107Y0130557D01*
X0119546Y0130701D01*
X0118964Y0130790D01*
X0118365Y0130820D01*
X0117766Y0130790D01*
X0117184Y0130701D01*
X0116623Y0130557D01*
X0116085Y0130360D01*
X0115572Y0130113D01*
X0115089Y0129820D01*
X0114639Y0129483D01*
X0114222Y0129104D01*
X0113844Y0128688D01*
X0113507Y0128237D01*
X0113214Y0127754D01*
X0112967Y0127242D01*
X0112770Y0126704D01*
X0112626Y0126143D01*
X0112537Y0125561D01*
X0112507Y0124962D01*
X0112537Y0124363D01*
X0112626Y0123781D01*
X0112770Y0123220D01*
X0112967Y0122682D01*
X0113214Y0122170D01*
X0113507Y0121687D01*
X0113844Y0121236D01*
X0114222Y0120820D01*
X0114639Y0120442D01*
X0115089Y0120104D01*
X0115572Y0119811D01*
X0116085Y0119564D01*
X0116623Y0119367D01*
X0117184Y0119223D01*
X0117766Y0119134D01*
X0118365Y0119104D01*
X0118964Y0119134D01*
X0119546Y0119223D01*
X0120107Y0119367D01*
X0120645Y0119564D01*
X0121157Y0119811D01*
X0121640Y0120104D01*
X0122091Y0120442D01*
X0122507Y0120820D01*
X0122885Y0121236D01*
X0123223Y0121687D01*
X0123516Y0122170D01*
X0123763Y0122682D01*
X0123960Y0123220D01*
X0124104Y0123781D01*
X0124193Y0124363D01*
X0135460Y0153065D02*
X0135995Y0152894D01*
X0136545Y0152775D01*
X0137104Y0152708D01*
X0137669Y0152695D01*
X0138236Y0152738D01*
X0138800Y0152836D01*
X0139359Y0152992D01*
X0139907Y0153206D01*
X0140441Y0153479D01*
X0140944Y0153805D01*
X0141404Y0154173D01*
X0141818Y0154578D01*
X0142185Y0155018D01*
X0142505Y0155488D01*
X0142777Y0155983D01*
X0142999Y0156501D01*
X0143170Y0157036D01*
X0143290Y0157586D01*
X0143356Y0158145D01*
X0143369Y0158710D01*
X0143326Y0159277D01*
X0143228Y0159841D01*
X0143072Y0160400D01*
X0142858Y0160948D01*
X0142585Y0161482D01*
X0142259Y0161985D01*
X0141892Y0162445D01*
X0141486Y0162859D01*
X0141046Y0163226D01*
X0140576Y0163547D01*
X0140081Y0163818D01*
X0139563Y0164040D01*
X0139028Y0164211D01*
X0138478Y0164331D01*
X0137919Y0164397D01*
X0137354Y0164410D01*
X0136787Y0164368D01*
X0136223Y0164269D01*
X0135664Y0164113D01*
X0135116Y0163899D01*
X0134582Y0163626D01*
X0134079Y0163300D01*
X0133620Y0162933D01*
X0133205Y0162527D01*
X0132838Y0162087D01*
X0132518Y0161618D01*
X0132246Y0161122D01*
X0132024Y0160604D01*
X0131853Y0160069D01*
X0131734Y0159520D01*
X0131667Y0158960D01*
X0131654Y0158395D01*
X0131697Y0157829D01*
X0131795Y0157264D01*
X0131951Y0156706D01*
X0132165Y0156157D01*
X0132438Y0155624D01*
X0132764Y0155120D01*
X0133132Y0154661D01*
X0133537Y0154247D01*
X0133977Y0153879D01*
X0134447Y0153559D01*
X0134942Y0153287D01*
X0135460Y0153065D01*
X0120564Y0186664D02*
X0121059Y0186936D01*
X0121529Y0187256D01*
X0121969Y0187623D01*
X0122375Y0188037D01*
X0122742Y0188497D01*
X0123068Y0189000D01*
X0123341Y0189534D01*
X0123555Y0190082D01*
X0123711Y0190641D01*
X0123809Y0191205D01*
X0123852Y0191772D01*
X0123839Y0192337D01*
X0123773Y0192896D01*
X0123653Y0193446D01*
X0123482Y0193981D01*
X0123260Y0194499D01*
X0122988Y0194994D01*
X0122668Y0195464D01*
X0122301Y0195904D01*
X0121887Y0196310D01*
X0121427Y0196677D01*
X0120924Y0197003D01*
X0120390Y0197276D01*
X0119842Y0197490D01*
X0119283Y0197646D01*
X0118719Y0197744D01*
X0118152Y0197787D01*
X0117587Y0197774D01*
X0117028Y0197708D01*
X0116478Y0197588D01*
X0115943Y0197417D01*
X0115425Y0197195D01*
X0114930Y0196923D01*
X0114460Y0196603D01*
X0114020Y0196236D01*
X0113615Y0195822D01*
X0113247Y0195362D01*
X0112921Y0194859D01*
X0112648Y0194325D01*
X0112434Y0193777D01*
X0112278Y0193218D01*
X0112180Y0192654D01*
X0112137Y0192087D01*
X0112150Y0191522D01*
X0112217Y0190963D01*
X0112336Y0190413D01*
X0112507Y0189878D01*
X0112729Y0189360D01*
X0113001Y0188865D01*
X0113321Y0188395D01*
X0113688Y0187955D01*
X0114103Y0187550D01*
X0114562Y0187182D01*
X0115065Y0186856D01*
X0115599Y0186583D01*
X0116147Y0186369D01*
X0116706Y0186213D01*
X0117270Y0186115D01*
X0117837Y0186072D01*
X0118402Y0186085D01*
X0118961Y0186152D01*
X0119511Y0186271D01*
X0120046Y0186442D01*
X0120564Y0186664D01*
X0102382Y0163013D02*
X0101913Y0163333D01*
X0101417Y0163604D01*
X0100900Y0163826D01*
X0100364Y0163998D01*
X0099815Y0164117D01*
X0099256Y0164184D01*
X0098691Y0164196D01*
X0098124Y0164154D01*
X0097559Y0164055D01*
X0097001Y0163900D01*
X0096453Y0163686D01*
X0095919Y0163412D01*
X0095415Y0163087D01*
X0094956Y0162719D01*
X0094542Y0162313D01*
X0094174Y0161873D01*
X0093854Y0161404D01*
X0093582Y0160908D01*
X0093360Y0160391D01*
X0093189Y0159855D01*
X0093070Y0159306D01*
X0093003Y0158747D01*
X0092991Y0158182D01*
X0093033Y0157615D01*
X0093132Y0157050D01*
X0093287Y0156492D01*
X0093501Y0155944D01*
X0093774Y0155410D01*
X0094100Y0154906D01*
X0094468Y0154447D01*
X0094874Y0154033D01*
X0095313Y0153665D01*
X0095783Y0153345D01*
X0096279Y0153073D01*
X0096796Y0152852D01*
X0097332Y0152680D01*
X0097881Y0152561D01*
X0098440Y0152494D01*
X0099005Y0152482D01*
X0099572Y0152524D01*
X0100137Y0152623D01*
X0100695Y0152778D01*
X0101243Y0152992D01*
X0101777Y0153266D01*
X0102281Y0153591D01*
X0102740Y0153959D01*
X0103154Y0154365D01*
X0103522Y0154804D01*
X0103842Y0155274D01*
X0104113Y0155770D01*
X0104335Y0156287D01*
X0104506Y0156823D01*
X0104626Y0157372D01*
X0104692Y0157931D01*
X0104705Y0158496D01*
X0104663Y0159063D01*
X0104564Y0159628D01*
X0104408Y0160186D01*
X0104195Y0160734D01*
X0103921Y0161268D01*
X0103596Y0161772D01*
X0103228Y0162231D01*
X0102822Y0162645D01*
X0102382Y0163013D01*
X0083866Y0186892D02*
X0083396Y0186572D01*
X0082900Y0186300D01*
X0082383Y0186078D01*
X0081847Y0185907D01*
X0081298Y0185788D01*
X0080739Y0185721D01*
X0080174Y0185709D01*
X0079607Y0185751D01*
X0079042Y0185850D01*
X0078484Y0186005D01*
X0077936Y0186219D01*
X0077402Y0186493D01*
X0076898Y0186818D01*
X0076439Y0187186D01*
X0076025Y0187592D01*
X0075657Y0188031D01*
X0075337Y0188501D01*
X0075066Y0188997D01*
X0074844Y0189514D01*
X0074672Y0190050D01*
X0074553Y0190599D01*
X0074487Y0191158D01*
X0074474Y0191723D01*
X0074516Y0192290D01*
X0074615Y0192855D01*
X0074770Y0193413D01*
X0074984Y0193961D01*
X0075258Y0194495D01*
X0075583Y0194999D01*
X0075951Y0195458D01*
X0076357Y0195872D01*
X0076797Y0196240D01*
X0077266Y0196560D01*
X0077762Y0196831D01*
X0078279Y0197053D01*
X0078815Y0197224D01*
X0079364Y0197344D01*
X0079923Y0197410D01*
X0080488Y0197423D01*
X0081055Y0197381D01*
X0081620Y0197282D01*
X0082178Y0197126D01*
X0082726Y0196913D01*
X0083260Y0196639D01*
X0083764Y0196314D01*
X0084223Y0195946D01*
X0084637Y0195540D01*
X0085005Y0195100D01*
X0085325Y0194631D01*
X0085597Y0194135D01*
X0085818Y0193618D01*
X0085990Y0193082D01*
X0086109Y0192533D01*
X0086176Y0191974D01*
X0086188Y0191409D01*
X0086146Y0190842D01*
X0086047Y0190277D01*
X0085892Y0189719D01*
X0085678Y0189171D01*
X0085404Y0188637D01*
X0085079Y0188133D01*
X0084711Y0187674D01*
X0084305Y0187260D01*
X0083866Y0186892D01*
X0080739Y0131384D02*
X0081298Y0131318D01*
X0081847Y0131198D01*
X0082383Y0131027D01*
X0082900Y0130805D01*
X0083396Y0130533D01*
X0083866Y0130213D01*
X0084305Y0129846D01*
X0084711Y0129432D01*
X0085079Y0128972D01*
X0085404Y0128469D01*
X0085678Y0127935D01*
X0085892Y0127387D01*
X0086047Y0126828D01*
X0086146Y0126264D01*
X0086188Y0125697D01*
X0086176Y0125132D01*
X0086109Y0124573D01*
X0085990Y0124023D01*
X0085818Y0123488D01*
X0085597Y0122970D01*
X0085325Y0122475D01*
X0085005Y0122005D01*
X0084637Y0121565D01*
X0084223Y0121160D01*
X0083764Y0120792D01*
X0083260Y0120466D01*
X0082726Y0120193D01*
X0082178Y0119979D01*
X0081620Y0119823D01*
X0081055Y0119725D01*
X0080488Y0119682D01*
X0079923Y0119695D01*
X0079364Y0119761D01*
X0078815Y0119881D01*
X0078279Y0120052D01*
X0077762Y0120274D01*
X0077266Y0120546D01*
X0076797Y0120866D01*
X0076357Y0121233D01*
X0075951Y0121647D01*
X0075583Y0122107D01*
X0075258Y0122610D01*
X0074984Y0123144D01*
X0074770Y0123692D01*
X0074615Y0124251D01*
X0074516Y0124815D01*
X0074474Y0125382D01*
X0074487Y0125947D01*
X0074553Y0126506D01*
X0074672Y0127056D01*
X0074844Y0127591D01*
X0075066Y0128109D01*
X0075337Y0128604D01*
X0075657Y0129074D01*
X0076025Y0129514D01*
X0076439Y0129920D01*
X0076898Y0130287D01*
X0077402Y0130613D01*
X0077936Y0130886D01*
X0078484Y0131100D01*
X0079042Y0131256D01*
X0079607Y0131354D01*
X0080174Y0131397D01*
X0080739Y0131384D01*
X0023087Y0093181D02*
X0023412Y0092678D01*
X0023686Y0092144D01*
X0023900Y0091596D01*
X0024055Y0091037D01*
X0024154Y0090473D01*
X0024196Y0089906D01*
X0024184Y0089341D01*
X0024117Y0088781D01*
X0023998Y0088232D01*
X0023826Y0087697D01*
X0023604Y0087179D01*
X0023333Y0086684D01*
X0023013Y0086214D01*
X0022645Y0085774D01*
X0022231Y0085368D01*
X0021772Y0085001D01*
X0021268Y0084675D01*
X0020734Y0084402D01*
X0020186Y0084188D01*
X0019628Y0084032D01*
X0019063Y0083934D01*
X0018496Y0083891D01*
X0017931Y0083904D01*
X0017372Y0083970D01*
X0016823Y0084090D01*
X0016287Y0084261D01*
X0015770Y0084483D01*
X0015274Y0084755D01*
X0014805Y0085075D01*
X0014365Y0085442D01*
X0013959Y0085856D01*
X0013591Y0086316D01*
X0013266Y0086819D01*
X0012992Y0087353D01*
X0012778Y0087901D01*
X0012623Y0088460D01*
X0012524Y0089024D01*
X0012482Y0089591D01*
X0012494Y0090156D01*
X0012561Y0090715D01*
X0012680Y0091265D01*
X0012852Y0091800D01*
X0013074Y0092318D01*
X0013345Y0092813D01*
X0013665Y0093283D01*
X0014033Y0093723D01*
X0014447Y0094128D01*
X0014906Y0094496D01*
X0015410Y0094822D01*
X0015944Y0095095D01*
X0016492Y0095309D01*
X0017050Y0095465D01*
X0017615Y0095563D01*
X0018182Y0095606D01*
X0018747Y0095593D01*
X0019306Y0095526D01*
X0019855Y0095407D01*
X0020391Y0095236D01*
X0020908Y0095014D01*
X0021404Y0094742D01*
X0021874Y0094422D01*
X0022313Y0094054D01*
X0022719Y0093640D01*
X0023087Y0093181D01*
X0018747Y0221512D02*
X0018182Y0221500D01*
X0017615Y0221542D01*
X0017050Y0221641D01*
X0016492Y0221796D01*
X0015944Y0222010D01*
X0015410Y0222284D01*
X0014906Y0222609D01*
X0014447Y0222977D01*
X0014033Y0223383D01*
X0013665Y0223822D01*
X0013345Y0224292D01*
X0013074Y0224788D01*
X0012852Y0225305D01*
X0012680Y0225841D01*
X0012561Y0226390D01*
X0012494Y0226949D01*
X0012482Y0227514D01*
X0012524Y0228081D01*
X0012623Y0228646D01*
X0012778Y0229204D01*
X0012992Y0229752D01*
X0013266Y0230286D01*
X0013591Y0230790D01*
X0013959Y0231249D01*
X0014365Y0231663D01*
X0014805Y0232031D01*
X0015274Y0232351D01*
X0015770Y0232622D01*
X0016287Y0232844D01*
X0016823Y0233016D01*
X0017372Y0233135D01*
X0017931Y0233202D01*
X0018496Y0233214D01*
X0019063Y0233172D01*
X0019628Y0233073D01*
X0020186Y0232918D01*
X0020734Y0232704D01*
X0021268Y0232430D01*
X0021772Y0232105D01*
X0022231Y0231737D01*
X0022645Y0231331D01*
X0023013Y0230892D01*
X0023333Y0230422D01*
X0023604Y0229926D01*
X0023826Y0229409D01*
X0023998Y0228873D01*
X0024117Y0228324D01*
X0024184Y0227765D01*
X0024196Y0227200D01*
X0024154Y0226633D01*
X0024055Y0226068D01*
X0023900Y0225510D01*
X0023686Y0224962D01*
X0023412Y0224428D01*
X0023087Y0223924D01*
X0022719Y0223465D01*
X0022313Y0223051D01*
X0021874Y0222683D01*
X0021404Y0222363D01*
X0020908Y0222092D01*
X0020391Y0221870D01*
X0019855Y0221698D01*
X0019306Y0221579D01*
X0018747Y0221512D01*
X0131653Y0224579D02*
X0131684Y0225178D01*
X0131772Y0225760D01*
X0131917Y0226321D01*
X0132114Y0226859D01*
X0132360Y0227371D01*
X0132654Y0227854D01*
X0132991Y0228305D01*
X0133369Y0228721D01*
X0133785Y0229100D01*
X0134236Y0229437D01*
X0134719Y0229730D01*
X0135231Y0229977D01*
X0135770Y0230174D01*
X0136331Y0230318D01*
X0136913Y0230407D01*
X0137512Y0230437D01*
X0138111Y0230407D01*
X0138692Y0230318D01*
X0139254Y0230174D01*
X0139792Y0229977D01*
X0140304Y0229730D01*
X0140787Y0229437D01*
X0141238Y0229100D01*
X0141654Y0228721D01*
X0142032Y0228305D01*
X0142369Y0227854D01*
X0142663Y0227371D01*
X0142909Y0226859D01*
X0143106Y0226321D01*
X0143251Y0225760D01*
X0143340Y0225178D01*
X0143370Y0224579D01*
X0143340Y0223980D01*
X0143251Y0223398D01*
X0143106Y0222837D01*
X0142909Y0222299D01*
X0142663Y0221787D01*
X0142369Y0221304D01*
X0142032Y0220853D01*
X0141654Y0220437D01*
X0141238Y0220059D01*
X0140787Y0219721D01*
X0140304Y0219428D01*
X0139792Y0219181D01*
X0139254Y0218984D01*
X0138692Y0218840D01*
X0138111Y0218751D01*
X0137512Y0218721D01*
X0136913Y0218751D01*
X0136331Y0218840D01*
X0135770Y0218984D01*
X0135231Y0219181D01*
X0134719Y0219428D01*
X0134236Y0219721D01*
X0133785Y0220059D01*
X0133369Y0220437D01*
X0132991Y0220853D01*
X0132654Y0221304D01*
X0132360Y0221787D01*
X0132114Y0222299D01*
X0131917Y0222837D01*
X0131772Y0223398D01*
X0131684Y0223980D01*
X0131653Y0224579D01*
X0152932Y0196664D02*
X0152516Y0196286D01*
X0152138Y0195870D01*
X0151801Y0195419D01*
X0151507Y0194936D01*
X0151260Y0194424D01*
X0151063Y0193885D01*
X0150919Y0193324D01*
X0150830Y0192742D01*
X0150800Y0192143D01*
X0150830Y0191544D01*
X0150919Y0190963D01*
X0151063Y0190401D01*
X0151260Y0189863D01*
X0151507Y0189351D01*
X0151801Y0188868D01*
X0152138Y0188417D01*
X0152516Y0188001D01*
X0152932Y0187623D01*
X0153383Y0187286D01*
X0153866Y0186992D01*
X0154378Y0186745D01*
X0154916Y0186548D01*
X0155478Y0186404D01*
X0156059Y0186315D01*
X0156658Y0186285D01*
X0157257Y0186315D01*
X0157839Y0186404D01*
X0158400Y0186548D01*
X0158939Y0186745D01*
X0159451Y0186992D01*
X0159934Y0187286D01*
X0160385Y0187623D01*
X0160801Y0188001D01*
X0161179Y0188417D01*
X0161516Y0188868D01*
X0161809Y0189351D01*
X0162056Y0189863D01*
X0162253Y0190401D01*
X0162398Y0190963D01*
X0162486Y0191544D01*
X0162517Y0192143D01*
X0162486Y0192742D01*
X0162398Y0193324D01*
X0162253Y0193885D01*
X0162056Y0194424D01*
X0161809Y0194936D01*
X0161516Y0195419D01*
X0161179Y0195870D01*
X0160801Y0196286D01*
X0160385Y0196664D01*
X0159934Y0197001D01*
X0159451Y0197295D01*
X0158939Y0197541D01*
X0158400Y0197738D01*
X0157839Y0197883D01*
X0157257Y0197971D01*
X0156658Y0198002D01*
X0156059Y0197971D01*
X0155478Y0197883D01*
X0154916Y0197738D01*
X0154378Y0197541D01*
X0153866Y0197295D01*
X0153383Y0197001D01*
X0152932Y0196664D01*
X0173246Y0163840D02*
X0173780Y0164113D01*
X0174328Y0164327D01*
X0174887Y0164483D01*
X0175451Y0164581D01*
X0176018Y0164624D01*
X0176583Y0164611D01*
X0177142Y0164545D01*
X0177692Y0164425D01*
X0178227Y0164254D01*
X0178745Y0164032D01*
X0179240Y0163760D01*
X0179710Y0163440D01*
X0180150Y0163073D01*
X0180555Y0162659D01*
X0180923Y0162199D01*
X0181249Y0161696D01*
X0181522Y0161162D01*
X0181736Y0160614D01*
X0181892Y0160055D01*
X0181990Y0159491D01*
X0182033Y0158924D01*
X0182020Y0158359D01*
X0181953Y0157800D01*
X0181834Y0157250D01*
X0181663Y0156715D01*
X0181441Y0156197D01*
X0181169Y0155702D01*
X0180849Y0155232D01*
X0180481Y0154792D01*
X0180067Y0154386D01*
X0179608Y0154019D01*
X0179104Y0153693D01*
X0178571Y0153420D01*
X0178022Y0153206D01*
X0177464Y0153050D01*
X0176899Y0152952D01*
X0176333Y0152909D01*
X0175768Y0152922D01*
X0175208Y0152988D01*
X0174659Y0153108D01*
X0174124Y0153279D01*
X0173606Y0153501D01*
X0173110Y0153773D01*
X0172641Y0154093D01*
X0172201Y0154460D01*
X0171795Y0154874D01*
X0171428Y0155334D01*
X0171102Y0155837D01*
X0170829Y0156371D01*
X0170615Y0156919D01*
X0170459Y0157478D01*
X0170360Y0158042D01*
X0170318Y0158609D01*
X0170331Y0159174D01*
X0170397Y0159733D01*
X0170517Y0160283D01*
X0170688Y0160818D01*
X0170910Y0161336D01*
X0171181Y0161831D01*
X0171502Y0162301D01*
X0171869Y0162741D01*
X0172283Y0163146D01*
X0172743Y0163514D01*
X0173246Y0163840D01*
X0191158Y0186892D02*
X0190718Y0187260D01*
X0190312Y0187674D01*
X0189944Y0188133D01*
X0189619Y0188637D01*
X0189345Y0189171D01*
X0189131Y0189719D01*
X0188976Y0190277D01*
X0188877Y0190842D01*
X0188835Y0191409D01*
X0188847Y0191974D01*
X0188914Y0192533D01*
X0189033Y0193082D01*
X0189205Y0193618D01*
X0189427Y0194135D01*
X0189698Y0194631D01*
X0190018Y0195100D01*
X0190386Y0195540D01*
X0190800Y0195946D01*
X0191259Y0196314D01*
X0191763Y0196639D01*
X0192297Y0196913D01*
X0192845Y0197126D01*
X0193403Y0197282D01*
X0193968Y0197381D01*
X0194535Y0197423D01*
X0195100Y0197410D01*
X0195659Y0197344D01*
X0196208Y0197224D01*
X0196744Y0197053D01*
X0197261Y0196831D01*
X0197757Y0196560D01*
X0198227Y0196240D01*
X0198666Y0195872D01*
X0199072Y0195458D01*
X0199440Y0194999D01*
X0199765Y0194495D01*
X0200039Y0193961D01*
X0200253Y0193413D01*
X0200408Y0192855D01*
X0200507Y0192290D01*
X0200549Y0191723D01*
X0200537Y0191158D01*
X0200470Y0190599D01*
X0200351Y0190050D01*
X0200179Y0189514D01*
X0199958Y0188997D01*
X0199686Y0188501D01*
X0199366Y0188031D01*
X0198998Y0187592D01*
X0198584Y0187186D01*
X0198125Y0186818D01*
X0197621Y0186493D01*
X0197087Y0186219D01*
X0196539Y0186005D01*
X0195981Y0185850D01*
X0195416Y0185751D01*
X0194849Y0185709D01*
X0194284Y0185721D01*
X0193725Y0185788D01*
X0193176Y0185907D01*
X0192640Y0186078D01*
X0192123Y0186300D01*
X0191627Y0186572D01*
X0191158Y0186892D01*
X0194284Y0131384D02*
X0194849Y0131397D01*
X0195416Y0131354D01*
X0195981Y0131256D01*
X0196539Y0131100D01*
X0197087Y0130886D01*
X0197621Y0130613D01*
X0198125Y0130287D01*
X0198584Y0129920D01*
X0198998Y0129514D01*
X0199366Y0129074D01*
X0199686Y0128604D01*
X0199958Y0128109D01*
X0200179Y0127591D01*
X0200351Y0127056D01*
X0200470Y0126506D01*
X0200537Y0125947D01*
X0200549Y0125382D01*
X0200507Y0124815D01*
X0200408Y0124251D01*
X0200253Y0123692D01*
X0200039Y0123144D01*
X0199765Y0122610D01*
X0199440Y0122107D01*
X0199072Y0121647D01*
X0198666Y0121233D01*
X0198227Y0120866D01*
X0197757Y0120546D01*
X0197261Y0120274D01*
X0196744Y0120052D01*
X0196208Y0119881D01*
X0195659Y0119761D01*
X0195100Y0119695D01*
X0194535Y0119682D01*
X0193968Y0119725D01*
X0193403Y0119823D01*
X0192845Y0119979D01*
X0192297Y0120193D01*
X0191763Y0120466D01*
X0191259Y0120792D01*
X0190800Y0121160D01*
X0190386Y0121565D01*
X0190018Y0122005D01*
X0189698Y0122475D01*
X0189427Y0122970D01*
X0189205Y0123488D01*
X0189033Y0124023D01*
X0188914Y0124573D01*
X0188847Y0125132D01*
X0188835Y0125697D01*
X0188877Y0126264D01*
X0188976Y0126828D01*
X0189131Y0127387D01*
X0189345Y0127935D01*
X0189619Y0128469D01*
X0189944Y0128972D01*
X0190312Y0129432D01*
X0190718Y0129846D01*
X0191158Y0130213D01*
X0191627Y0130533D01*
X0192123Y0130805D01*
X0192640Y0131027D01*
X0193176Y0131198D01*
X0193725Y0131318D01*
X0194284Y0131384D01*
X0251936Y0093181D02*
X0252304Y0093640D01*
X0252710Y0094055D01*
X0253150Y0094422D01*
X0253619Y0094742D01*
X0254115Y0095014D01*
X0254632Y0095236D01*
X0255168Y0095407D01*
X0255717Y0095526D01*
X0256276Y0095593D01*
X0256841Y0095606D01*
X0257408Y0095563D01*
X0257973Y0095465D01*
X0258531Y0095309D01*
X0259079Y0095095D01*
X0259613Y0094822D01*
X0260117Y0094496D01*
X0260576Y0094128D01*
X0260990Y0093723D01*
X0261358Y0093283D01*
X0261678Y0092813D01*
X0261950Y0092318D01*
X0262171Y0091800D01*
X0262343Y0091265D01*
X0262462Y0090715D01*
X0262529Y0090156D01*
X0262541Y0089591D01*
X0262499Y0089024D01*
X0262400Y0088460D01*
X0262245Y0087901D01*
X0262031Y0087353D01*
X0261757Y0086819D01*
X0261432Y0086316D01*
X0261064Y0085856D01*
X0260658Y0085442D01*
X0260219Y0085075D01*
X0259749Y0084755D01*
X0259253Y0084483D01*
X0258736Y0084261D01*
X0258200Y0084090D01*
X0257651Y0083970D01*
X0257092Y0083904D01*
X0256527Y0083891D01*
X0255960Y0083934D01*
X0255395Y0084032D01*
X0254837Y0084188D01*
X0254289Y0084402D01*
X0253755Y0084675D01*
X0253251Y0085001D01*
X0252792Y0085368D01*
X0252378Y0085774D01*
X0252010Y0086214D01*
X0251690Y0086684D01*
X0251419Y0087179D01*
X0251197Y0087697D01*
X0251026Y0088232D01*
X0250906Y0088782D01*
X0250839Y0089341D01*
X0250827Y0089906D01*
X0250869Y0090473D01*
X0250968Y0091037D01*
X0251124Y0091596D01*
X0251337Y0092144D01*
X0251611Y0092678D01*
X0251936Y0093181D01*
X0256276Y0221512D02*
X0255717Y0221579D01*
X0255168Y0221698D01*
X0254632Y0221870D01*
X0254115Y0222092D01*
X0253619Y0222363D01*
X0253150Y0222683D01*
X0252710Y0223051D01*
X0252304Y0223465D01*
X0251936Y0223924D01*
X0251611Y0224428D01*
X0251337Y0224962D01*
X0251124Y0225510D01*
X0250968Y0226068D01*
X0250869Y0226633D01*
X0250827Y0227200D01*
X0250839Y0227765D01*
X0250906Y0228324D01*
X0251026Y0228873D01*
X0251197Y0229409D01*
X0251419Y0229926D01*
X0251690Y0230422D01*
X0252010Y0230892D01*
X0252378Y0231331D01*
X0252792Y0231737D01*
X0253251Y0232105D01*
X0253755Y0232430D01*
X0254289Y0232704D01*
X0254837Y0232918D01*
X0255395Y0233073D01*
X0255960Y0233172D01*
X0256527Y0233214D01*
X0257092Y0233202D01*
X0257651Y0233135D01*
X0258200Y0233016D01*
X0258736Y0232844D01*
X0259253Y0232622D01*
X0259749Y0232351D01*
X0260219Y0232031D01*
X0260658Y0231663D01*
X0261064Y0231249D01*
X0261432Y0230790D01*
X0261757Y0230286D01*
X0262031Y0229752D01*
X0262245Y0229204D01*
X0262400Y0228646D01*
X0262499Y0228081D01*
X0262541Y0227514D01*
X0262529Y0226949D01*
X0262462Y0226390D01*
X0262343Y0225841D01*
X0262171Y0225305D01*
X0261950Y0224788D01*
X0261678Y0224292D01*
X0261358Y0223822D01*
X0260990Y0223383D01*
X0260576Y0222977D01*
X0260117Y0222609D01*
X0259613Y0222284D01*
X0259079Y0222010D01*
X0258531Y0221796D01*
X0257973Y0221641D01*
X0257408Y0221542D01*
X0256841Y0221500D01*
X0256276Y0221512D01*
X0142909Y0293881D02*
X0143106Y0294419D01*
X0143251Y0294981D01*
X0143340Y0295562D01*
X0143370Y0296161D01*
X0143340Y0296760D01*
X0143251Y0297342D01*
X0143106Y0297903D01*
X0142909Y0298442D01*
X0142663Y0298954D01*
X0142369Y0299437D01*
X0142032Y0299888D01*
X0141654Y0300304D01*
X0141238Y0300682D01*
X0140787Y0301019D01*
X0140304Y0301312D01*
X0139792Y0301559D01*
X0139254Y0301756D01*
X0138692Y0301900D01*
X0138111Y0301989D01*
X0137512Y0302020D01*
X0136913Y0301989D01*
X0136331Y0301900D01*
X0135770Y0301756D01*
X0135231Y0301559D01*
X0134719Y0301312D01*
X0134236Y0301019D01*
X0133785Y0300682D01*
X0133369Y0300304D01*
X0132991Y0299888D01*
X0132654Y0299437D01*
X0132360Y0298954D01*
X0132114Y0298442D01*
X0131917Y0297903D01*
X0131772Y0297342D01*
X0131684Y0296760D01*
X0131653Y0296161D01*
X0131684Y0295562D01*
X0131772Y0294981D01*
X0131917Y0294419D01*
X0132114Y0293881D01*
X0132360Y0293369D01*
X0132654Y0292886D01*
X0132991Y0292435D01*
X0133369Y0292019D01*
X0133785Y0291641D01*
X0134236Y0291304D01*
X0134719Y0291010D01*
X0135231Y0290763D01*
X0135770Y0290566D01*
X0136331Y0290422D01*
X0136913Y0290333D01*
X0137512Y0290303D01*
X0138111Y0290333D01*
X0138692Y0290422D01*
X0139254Y0290566D01*
X0139792Y0290763D01*
X0140304Y0291010D01*
X0140787Y0291304D01*
X0141238Y0291641D01*
X0141654Y0292019D01*
X0142032Y0292435D01*
X0142369Y0292886D01*
X0142663Y0293369D01*
X0142909Y0293881D01*
D12*
X0158969Y0243294D03*
X0115859Y0243294D03*
X0074914Y0219475D03*
X0053457Y0182271D03*
X0053457Y0134830D03*
X0074914Y0097625D03*
X0115859Y0074003D03*
X0158969Y0074003D03*
X0200111Y0097625D03*
X0221567Y0134830D03*
X0221567Y0182271D03*
X0200111Y0219672D03*
X0266252Y0232861D03*
X0266252Y0084042D03*
X0008772Y0084042D03*
X0008772Y0232861D03*
D13*
G36*
X0018129Y0228962D02*
X0016948Y0226918D01*
X0015245Y0227902D01*
X0016426Y0229946D01*
X0018129Y0228962D01*
G37*
G36*
X0021197Y0227190D02*
X0020016Y0225146D01*
X0018313Y0226130D01*
X0019494Y0228174D01*
X0021197Y0227190D01*
G37*
G36*
X0080136Y0193135D02*
X0078955Y0191091D01*
X0077252Y0192075D01*
X0078433Y0194119D01*
X0080136Y0193135D01*
G37*
G36*
X0083205Y0191364D02*
X0082024Y0189320D01*
X0080321Y0190304D01*
X0081502Y0192348D01*
X0083205Y0191364D01*
G37*
G36*
X0118652Y0193190D02*
X0116608Y0192009D01*
X0115624Y0193712D01*
X0117668Y0194893D01*
X0118652Y0193190D01*
G37*
G36*
X0120424Y0190121D02*
X0118380Y0188940D01*
X0117396Y0190643D01*
X0119440Y0191824D01*
X0120424Y0190121D01*
G37*
X0137512Y0222822D03*
X0137512Y0226365D03*
G36*
X0158219Y0192206D02*
X0156175Y0193387D01*
X0157159Y0195090D01*
X0159203Y0193909D01*
X0158219Y0192206D01*
G37*
G36*
X0156448Y0189137D02*
X0154404Y0190318D01*
X0155388Y0192021D01*
X0157432Y0190840D01*
X0156448Y0189137D01*
G37*
G36*
X0193000Y0189123D02*
X0191819Y0191167D01*
X0193522Y0192151D01*
X0194703Y0190107D01*
X0193000Y0189123D01*
G37*
G36*
X0196069Y0190894D02*
X0194888Y0192938D01*
X0196591Y0193922D01*
X0197772Y0191878D01*
X0196069Y0190894D01*
G37*
G36*
X0191622Y0125934D02*
X0192803Y0127978D01*
X0194506Y0126994D01*
X0193325Y0124950D01*
X0191622Y0125934D01*
G37*
G36*
X0194691Y0124162D02*
X0195872Y0126206D01*
X0197575Y0125222D01*
X0196394Y0123178D01*
X0194691Y0124162D01*
G37*
G36*
X0156372Y0123911D02*
X0158416Y0125092D01*
X0159400Y0123389D01*
X0157356Y0122208D01*
X0156372Y0123911D01*
G37*
G36*
X0154601Y0126979D02*
X0156645Y0128160D01*
X0157629Y0126457D01*
X0155585Y0125276D01*
X0154601Y0126979D01*
G37*
X0137512Y0094279D03*
X0137512Y0090735D03*
G36*
X0116805Y0125092D02*
X0118849Y0123911D01*
X0117865Y0122208D01*
X0115821Y0123389D01*
X0116805Y0125092D01*
G37*
G36*
X0118577Y0128160D02*
X0120621Y0126979D01*
X0119637Y0125276D01*
X0117593Y0126457D01*
X0118577Y0128160D01*
G37*
G36*
X0082024Y0127978D02*
X0083205Y0125934D01*
X0081502Y0124950D01*
X0080321Y0126994D01*
X0082024Y0127978D01*
G37*
G36*
X0078955Y0126206D02*
X0080136Y0124162D01*
X0078433Y0123178D01*
X0077252Y0125222D01*
X0078955Y0126206D01*
G37*
G36*
X0020016Y0092151D02*
X0021197Y0090107D01*
X0019494Y0089123D01*
X0018313Y0091167D01*
X0020016Y0092151D01*
G37*
G36*
X0016948Y0090379D02*
X0018129Y0088335D01*
X0016426Y0087351D01*
X0015245Y0089395D01*
X0016948Y0090379D01*
G37*
X0137512Y0022625D03*
X0137512Y0019082D03*
G36*
X0253827Y0090107D02*
X0255008Y0092151D01*
X0256711Y0091167D01*
X0255530Y0089123D01*
X0253827Y0090107D01*
G37*
G36*
X0256896Y0088335D02*
X0258077Y0090379D01*
X0259780Y0089395D01*
X0258599Y0087351D01*
X0256896Y0088335D01*
G37*
G36*
X0255008Y0224950D02*
X0253827Y0226994D01*
X0255530Y0227978D01*
X0256711Y0225934D01*
X0255008Y0224950D01*
G37*
G36*
X0258077Y0226721D02*
X0256896Y0228765D01*
X0258599Y0229749D01*
X0259780Y0227705D01*
X0258077Y0226721D01*
G37*
X0137512Y0294475D03*
X0137512Y0298019D03*
D14*
X0139087Y0158649D03*
X0135544Y0158649D03*
X0100504Y0158452D03*
X0096961Y0158452D03*
X0174323Y0158649D03*
X0177866Y0158649D03*
D15*
X0137512Y0307271D03*
X0137512Y0009633D03*
M02*
