G75*
%MOIN*%
%OFA0B0*%
%FSLAX25Y25*%
%IPPOS*%
%LPD*%
%AMOC8*
5,1,8,0,0,1.08239X$1,22.5*
%
%ADD10C,0.01000*%
%ADD11C,0.00000*%
D10*
X0011863Y0076323D02*
X0015761Y0075849D01*
X0020011Y0075912D01*
X0024501Y0076705D01*
X0028739Y0078032D01*
X0032405Y0079598D01*
X0035651Y0081449D01*
X0038627Y0083631D01*
X0055331Y0101154D01*
X0057315Y0102728D01*
X0059120Y0103902D01*
X0059732Y0104203D01*
X0060357Y0104411D01*
X0060988Y0104530D01*
X0061618Y0104562D01*
X0062239Y0104513D01*
X0062846Y0104386D01*
X0063430Y0104186D01*
X0063986Y0103916D01*
X0064507Y0103581D01*
X0064985Y0103184D01*
X0065413Y0102730D01*
X0065785Y0102223D01*
X0066094Y0101666D01*
X0066332Y0101064D01*
X0066494Y0100421D01*
X0066771Y0095841D01*
X0066891Y0095161D01*
X0067094Y0094508D01*
X0067375Y0093889D01*
X0067731Y0093311D01*
X0068155Y0092780D01*
X0068646Y0092304D01*
X0069198Y0091889D01*
X0074401Y0088913D01*
X0080540Y0091735D01*
X0081114Y0092145D01*
X0081627Y0092621D01*
X0082074Y0093158D01*
X0082448Y0093747D01*
X0082745Y0094381D01*
X0082960Y0095053D01*
X0083809Y0101801D01*
X0083979Y0102444D01*
X0084209Y0103066D01*
X0084497Y0103661D01*
X0084841Y0104227D01*
X0085238Y0104758D01*
X0085686Y0105250D01*
X0089697Y0108476D01*
X0090729Y0108987D01*
X0091814Y0109332D01*
X0092934Y0109510D01*
X0094067Y0109520D01*
X0095195Y0109360D01*
X0096297Y0109027D01*
X0105497Y0103820D01*
X0105495Y0103820D01*
X0115232Y0098094D01*
X0116071Y0097307D01*
X0116773Y0096411D01*
X0117331Y0095425D01*
X0117735Y0094367D01*
X0117979Y0093255D01*
X0118052Y0092107D01*
X0117263Y0087018D01*
X0117061Y0086384D01*
X0116799Y0085775D01*
X0116481Y0085195D01*
X0116110Y0084648D01*
X0115686Y0084138D01*
X0115214Y0083668D01*
X0109795Y0079560D01*
X0109320Y0079038D01*
X0108920Y0078463D01*
X0108597Y0077845D01*
X0108356Y0077190D01*
X0108199Y0076507D01*
X0108132Y0075804D01*
X0108758Y0069078D01*
X0114250Y0065914D01*
X0114898Y0065685D01*
X0115563Y0065540D01*
X0116240Y0065480D01*
X0116918Y0065504D01*
X0117591Y0065612D01*
X0118250Y0065805D01*
X0122722Y0068008D01*
X0123354Y0068188D01*
X0123989Y0068282D01*
X0124620Y0068293D01*
X0125240Y0068225D01*
X0125843Y0068083D01*
X0126420Y0067871D01*
X0126967Y0067591D01*
X0127475Y0067248D01*
X0127937Y0066846D01*
X0128348Y0066389D01*
X0128699Y0065880D01*
X0128985Y0065324D01*
X0129198Y0064725D01*
X0129332Y0064085D01*
X0129320Y0061824D01*
X0129022Y0059397D01*
X0122418Y0037312D01*
X0121819Y0033620D01*
X0121623Y0029937D01*
X0121867Y0026109D01*
X0122586Y0021982D01*
X0123836Y0017544D01*
X0125678Y0013546D01*
X0127921Y0010121D01*
X0130343Y0007269D01*
X0134837Y0003279D01*
X0137512Y0001500D01*
X0139297Y0002638D01*
X0143472Y0006057D01*
X0145900Y0008623D01*
X0148260Y0011762D01*
X0150330Y0015473D01*
X0151889Y0019759D01*
X0152859Y0024092D01*
X0153335Y0028051D01*
X0153355Y0031787D01*
X0152953Y0035455D01*
X0146126Y0058706D01*
X0145756Y0061218D01*
X0145645Y0063372D01*
X0145691Y0064050D01*
X0145825Y0064692D01*
X0146039Y0065295D01*
X0146327Y0065853D01*
X0146681Y0066363D01*
X0147095Y0066822D01*
X0147562Y0067225D01*
X0148074Y0067568D01*
X0148624Y0067848D01*
X0149207Y0068062D01*
X0149814Y0068204D01*
X0150438Y0068271D01*
X0151074Y0068259D01*
X0151713Y0068164D01*
X0152348Y0067983D01*
X0156451Y0065934D01*
X0157100Y0065698D01*
X0157767Y0065547D01*
X0158444Y0065481D01*
X0159122Y0065500D01*
X0159794Y0065602D01*
X0160452Y0065789D01*
X0161087Y0066059D01*
X0166266Y0069078D01*
X0166891Y0075805D01*
X0166824Y0076507D01*
X0166667Y0077190D01*
X0166426Y0077845D01*
X0166103Y0078464D01*
X0165703Y0079038D01*
X0165228Y0079560D01*
X0159809Y0083669D01*
X0159337Y0084138D01*
X0158913Y0084648D01*
X0158542Y0085195D01*
X0158224Y0085775D01*
X0157962Y0086384D01*
X0157760Y0087019D01*
X0156974Y0092107D01*
X0157049Y0093257D01*
X0157294Y0094371D01*
X0157700Y0095430D01*
X0158260Y0096417D01*
X0158964Y0097314D01*
X0159804Y0098103D01*
X0168905Y0103461D01*
X0168903Y0103459D01*
X0178727Y0109027D01*
X0179829Y0109359D01*
X0180956Y0109520D01*
X0182089Y0109510D01*
X0183208Y0109332D01*
X0184294Y0108987D01*
X0185325Y0108477D01*
X0189338Y0105250D01*
X0189786Y0104758D01*
X0190183Y0104227D01*
X0190526Y0103661D01*
X0190814Y0103066D01*
X0191044Y0102444D01*
X0191215Y0101800D01*
X0192063Y0095054D01*
X0192278Y0094381D01*
X0192575Y0093747D01*
X0192950Y0093158D01*
X0193396Y0092622D01*
X0193909Y0092145D01*
X0194484Y0091735D01*
X0200622Y0088914D01*
X0206109Y0092088D01*
X0206630Y0092535D01*
X0207089Y0093039D01*
X0207479Y0093595D01*
X0207798Y0094194D01*
X0208041Y0094831D01*
X0208203Y0095498D01*
X0208531Y0100471D01*
X0208691Y0101108D01*
X0208926Y0101704D01*
X0209232Y0102256D01*
X0209599Y0102759D01*
X0210022Y0103210D01*
X0210494Y0103605D01*
X0211009Y0103938D01*
X0211558Y0104208D01*
X0212137Y0104409D01*
X0212737Y0104537D01*
X0213352Y0104588D01*
X0213975Y0104559D01*
X0214600Y0104445D01*
X0215219Y0104242D01*
X0217172Y0103103D01*
X0219128Y0101630D01*
X0234963Y0084861D01*
X0237860Y0082496D01*
X0240952Y0080485D01*
X0244389Y0078782D01*
X0248322Y0077341D01*
X0252791Y0076205D01*
X0257174Y0075801D01*
X0261262Y0076031D01*
X0264943Y0076702D01*
X0270645Y0078600D01*
X0273523Y0080026D01*
X0273430Y0082142D01*
X0272557Y0087466D01*
X0271549Y0090853D01*
X0270011Y0094466D01*
X0267831Y0098115D01*
X0264899Y0101607D01*
X0261631Y0104614D01*
X0258442Y0107006D01*
X0255216Y0108891D01*
X0251838Y0110377D01*
X0228289Y0116089D01*
X0225928Y0117026D01*
X0224007Y0118006D01*
X0223443Y0118385D01*
X0222954Y0118822D01*
X0222539Y0119308D01*
X0222200Y0119837D01*
X0221935Y0120399D01*
X0221745Y0120987D01*
X0221629Y0121592D01*
X0221588Y0122207D01*
X0221620Y0122825D01*
X0221727Y0123435D01*
X0221907Y0124032D01*
X0222162Y0124607D01*
X0222489Y0125151D01*
X0222891Y0125657D01*
X0223366Y0126117D01*
X0227192Y0128646D01*
X0227721Y0129090D01*
X0228185Y0129592D01*
X0228580Y0130145D01*
X0228904Y0130742D01*
X0229151Y0131375D01*
X0229318Y0132038D01*
X0229401Y0132723D01*
X0229376Y0138717D01*
X0223864Y0142622D01*
X0223221Y0142915D01*
X0222552Y0143121D01*
X0221864Y0143240D01*
X0221167Y0143269D01*
X0220469Y0143210D01*
X0219779Y0143059D01*
X0213512Y0140421D01*
X0212869Y0140246D01*
X0212216Y0140135D01*
X0211556Y0140087D01*
X0210895Y0140101D01*
X0210237Y0140180D01*
X0209586Y0140321D01*
X0204786Y0142182D01*
X0203828Y0142819D01*
X0202987Y0143586D01*
X0202272Y0144465D01*
X0201697Y0145441D01*
X0201272Y0146497D01*
X0201009Y0147617D01*
X0200919Y0158194D01*
X0200920Y0158192D01*
X0201010Y0169488D01*
X0201273Y0170608D01*
X0201697Y0171664D01*
X0202272Y0172640D01*
X0202986Y0173519D01*
X0203828Y0174286D01*
X0204785Y0174923D01*
X0209586Y0176784D01*
X0210237Y0176926D01*
X0210895Y0177004D01*
X0211556Y0177019D01*
X0212216Y0176971D01*
X0212870Y0176859D01*
X0213512Y0176685D01*
X0219779Y0174046D01*
X0220469Y0173896D01*
X0221167Y0173836D01*
X0221864Y0173866D01*
X0222552Y0173984D01*
X0223221Y0174190D01*
X0223864Y0174483D01*
X0229376Y0178389D01*
X0229370Y0184727D01*
X0229244Y0185402D01*
X0229037Y0186051D01*
X0228751Y0186667D01*
X0228391Y0187243D01*
X0227961Y0187772D01*
X0227464Y0188246D01*
X0223321Y0191016D01*
X0222850Y0191473D01*
X0222452Y0191975D01*
X0222126Y0192515D01*
X0221874Y0193085D01*
X0221695Y0193677D01*
X0221590Y0194284D01*
X0221557Y0194896D01*
X0221599Y0195507D01*
X0221714Y0196108D01*
X0221903Y0196691D01*
X0222166Y0197250D01*
X0222503Y0197775D01*
X0222914Y0198259D01*
X0223400Y0198694D01*
X0225363Y0199816D01*
X0227616Y0200774D01*
X0250056Y0206102D01*
X0253553Y0207429D01*
X0256840Y0209101D01*
X0260034Y0211226D01*
X0263248Y0213912D01*
X0266466Y0217213D01*
X0269008Y0220808D01*
X0270853Y0224463D01*
X0272112Y0227986D01*
X0273320Y0233873D01*
X0273523Y0237079D01*
X0271645Y0238057D01*
X0266597Y0239962D01*
X0263160Y0240782D01*
X0259262Y0241257D01*
X0255012Y0241194D01*
X0250522Y0240401D01*
X0246284Y0239074D01*
X0242618Y0237508D01*
X0239372Y0235656D01*
X0236396Y0233474D01*
X0219674Y0215936D01*
X0217683Y0214360D01*
X0215874Y0213186D01*
X0215263Y0212887D01*
X0214640Y0212682D01*
X0214012Y0212567D01*
X0213385Y0212537D01*
X0212766Y0212589D01*
X0212161Y0212718D01*
X0211579Y0212920D01*
X0211026Y0213192D01*
X0210507Y0213529D01*
X0210032Y0213927D01*
X0209605Y0214381D01*
X0209235Y0214889D01*
X0208927Y0215445D01*
X0208690Y0216045D01*
X0208529Y0216687D01*
X0208252Y0221265D01*
X0208132Y0221944D01*
X0207929Y0222597D01*
X0207648Y0223216D01*
X0207293Y0223795D01*
X0206868Y0224326D01*
X0206377Y0224802D01*
X0205825Y0225217D01*
X0200622Y0228192D01*
X0194484Y0225371D01*
X0193909Y0224961D01*
X0193396Y0224484D01*
X0192949Y0223948D01*
X0192575Y0223359D01*
X0192278Y0222724D01*
X0192063Y0222052D01*
X0191214Y0215305D01*
X0191044Y0214661D01*
X0190814Y0214040D01*
X0190526Y0213444D01*
X0190183Y0212879D01*
X0189786Y0212348D01*
X0189338Y0211855D01*
X0185327Y0208629D01*
X0184297Y0208117D01*
X0183213Y0207771D01*
X0182094Y0207592D01*
X0180962Y0207582D01*
X0179835Y0207742D01*
X0178733Y0208074D01*
X0169526Y0213286D01*
X0169528Y0213286D01*
X0159791Y0219011D01*
X0158953Y0219799D01*
X0158250Y0220695D01*
X0157693Y0221681D01*
X0157288Y0222739D01*
X0157045Y0223851D01*
X0156971Y0224999D01*
X0157760Y0230087D01*
X0157962Y0230721D01*
X0158224Y0231330D01*
X0158542Y0231910D01*
X0158913Y0232457D01*
X0159337Y0232968D01*
X0159809Y0233437D01*
X0165228Y0237545D01*
X0165703Y0238068D01*
X0166103Y0238642D01*
X0166426Y0239261D01*
X0166667Y0239915D01*
X0166824Y0240598D01*
X0166891Y0241301D01*
X0166266Y0248028D01*
X0160773Y0251192D01*
X0160126Y0251420D01*
X0159460Y0251565D01*
X0158783Y0251626D01*
X0158105Y0251602D01*
X0157432Y0251493D01*
X0156773Y0251300D01*
X0152301Y0249098D01*
X0151669Y0248918D01*
X0151035Y0248824D01*
X0150404Y0248813D01*
X0149784Y0248880D01*
X0149181Y0249021D01*
X0148604Y0249234D01*
X0148057Y0249513D01*
X0147550Y0249856D01*
X0147087Y0250257D01*
X0146676Y0250714D01*
X0146324Y0251222D01*
X0146039Y0251778D01*
X0145825Y0252378D01*
X0145692Y0253017D01*
X0145703Y0255278D01*
X0146001Y0257706D01*
X0152605Y0279794D01*
X0153204Y0283485D01*
X0153400Y0287168D01*
X0153156Y0290997D01*
X0152437Y0295123D01*
X0151187Y0299561D01*
X0149345Y0303559D01*
X0147102Y0306984D01*
X0144680Y0309837D01*
X0140186Y0313826D01*
X0137512Y0315605D01*
X0135726Y0314467D01*
X0131552Y0311048D01*
X0129123Y0308482D01*
X0126763Y0305344D01*
X0124693Y0301632D01*
X0123135Y0297347D01*
X0122165Y0293013D01*
X0121688Y0289055D01*
X0121668Y0285318D01*
X0122070Y0281650D01*
X0128895Y0258414D01*
X0129265Y0255906D01*
X0129378Y0253755D01*
X0129333Y0253075D01*
X0129200Y0252430D01*
X0128987Y0251826D01*
X0128699Y0251266D01*
X0128346Y0250754D01*
X0127932Y0250293D01*
X0127466Y0249888D01*
X0126954Y0249543D01*
X0126404Y0249261D01*
X0125822Y0249046D01*
X0125214Y0248903D01*
X0124589Y0248835D01*
X0123953Y0248846D01*
X0123313Y0248940D01*
X0122676Y0249122D01*
X0118572Y0251172D01*
X0117923Y0251407D01*
X0117256Y0251558D01*
X0116579Y0251624D01*
X0115901Y0251606D01*
X0115229Y0251503D01*
X0114571Y0251317D01*
X0113936Y0251046D01*
X0108758Y0248028D01*
X0108132Y0241301D01*
X0108199Y0240598D01*
X0108356Y0239916D01*
X0108597Y0239261D01*
X0108920Y0238642D01*
X0109321Y0238068D01*
X0109796Y0237545D01*
X0115214Y0233437D01*
X0115687Y0232967D01*
X0116110Y0232457D01*
X0116482Y0231910D01*
X0116799Y0231330D01*
X0117061Y0230721D01*
X0117264Y0230087D01*
X0118049Y0224998D01*
X0117974Y0223848D01*
X0117729Y0222734D01*
X0117322Y0221675D01*
X0116762Y0220688D01*
X0116058Y0219791D01*
X0115218Y0219002D01*
X0106119Y0213644D01*
X0106120Y0213646D01*
X0096296Y0208078D01*
X0095195Y0207746D01*
X0094067Y0207585D01*
X0092934Y0207595D01*
X0091815Y0207773D01*
X0090730Y0208118D01*
X0089698Y0208629D01*
X0085685Y0211855D01*
X0085237Y0212348D01*
X0084840Y0212879D01*
X0084497Y0213444D01*
X0084209Y0214040D01*
X0083979Y0214662D01*
X0083808Y0215306D01*
X0082960Y0222052D01*
X0082745Y0222724D01*
X0082448Y0223358D01*
X0082074Y0223947D01*
X0081627Y0224484D01*
X0081114Y0224960D01*
X0080540Y0225370D01*
X0074401Y0228192D01*
X0068914Y0225017D01*
X0068393Y0224571D01*
X0067935Y0224066D01*
X0067544Y0223511D01*
X0067225Y0222911D01*
X0066983Y0222275D01*
X0066821Y0221607D01*
X0066492Y0216633D01*
X0066332Y0215996D01*
X0066096Y0215399D01*
X0065790Y0214847D01*
X0065422Y0214344D01*
X0064998Y0213893D01*
X0064525Y0213499D01*
X0064010Y0213166D01*
X0063459Y0212897D01*
X0062880Y0212697D01*
X0062279Y0212570D01*
X0061662Y0212520D01*
X0061038Y0212551D01*
X0060412Y0212666D01*
X0059792Y0212870D01*
X0057840Y0214010D01*
X0055886Y0215482D01*
X0040061Y0232244D01*
X0037163Y0234609D01*
X0034071Y0236620D01*
X0030634Y0238323D01*
X0026701Y0239764D01*
X0022233Y0240900D01*
X0017849Y0241304D01*
X0013761Y0241074D01*
X0010080Y0240403D01*
X0004378Y0238506D01*
X0001500Y0237079D01*
X0001593Y0234963D01*
X0002466Y0229639D01*
X0003475Y0226253D01*
X0005013Y0222640D01*
X0007192Y0218991D01*
X0010124Y0215499D01*
X0013392Y0212492D01*
X0016582Y0210100D01*
X0019808Y0208215D01*
X0023185Y0206729D01*
X0046726Y0201019D01*
X0049085Y0200084D01*
X0051006Y0199106D01*
X0051571Y0198726D01*
X0052061Y0198289D01*
X0052477Y0197802D01*
X0052818Y0197274D01*
X0053084Y0196712D01*
X0053275Y0196123D01*
X0053392Y0195518D01*
X0053434Y0194902D01*
X0053403Y0194284D01*
X0053297Y0193673D01*
X0053117Y0193076D01*
X0052863Y0192501D01*
X0052535Y0191956D01*
X0052134Y0191449D01*
X0051658Y0190989D01*
X0047831Y0188460D01*
X0047303Y0188016D01*
X0046839Y0187514D01*
X0046443Y0186961D01*
X0046120Y0186364D01*
X0045873Y0185730D01*
X0045705Y0185068D01*
X0045622Y0184382D01*
X0045647Y0178389D01*
X0051159Y0174483D01*
X0051802Y0174190D01*
X0052471Y0173984D01*
X0053159Y0173866D01*
X0053856Y0173836D01*
X0054554Y0173896D01*
X0055244Y0174046D01*
X0061511Y0176685D01*
X0062154Y0176859D01*
X0062807Y0176970D01*
X0063467Y0177019D01*
X0064128Y0177004D01*
X0064787Y0176926D01*
X0065437Y0176784D01*
X0070199Y0174938D01*
X0071166Y0174296D01*
X0072016Y0173523D01*
X0072737Y0172636D01*
X0073318Y0171652D01*
X0073747Y0170586D01*
X0074013Y0169456D01*
X0074105Y0158911D01*
X0074103Y0158914D01*
X0074013Y0147657D01*
X0073747Y0146526D01*
X0073318Y0145460D01*
X0072738Y0144475D01*
X0072017Y0143587D01*
X0071167Y0142813D01*
X0070200Y0142169D01*
X0065437Y0140321D01*
X0064787Y0140179D01*
X0064128Y0140101D01*
X0063467Y0140087D01*
X0062807Y0140135D01*
X0062154Y0140246D01*
X0061511Y0140421D01*
X0055244Y0143059D01*
X0054554Y0143209D01*
X0053856Y0143269D01*
X0053159Y0143239D01*
X0052471Y0143121D01*
X0051802Y0142915D01*
X0051160Y0142622D01*
X0045647Y0138717D01*
X0045653Y0132378D01*
X0045779Y0131703D01*
X0045987Y0131054D01*
X0046272Y0130438D01*
X0046632Y0129862D01*
X0047063Y0129334D01*
X0047559Y0128860D01*
X0051702Y0126089D01*
X0052173Y0125632D01*
X0052572Y0125130D01*
X0052897Y0124590D01*
X0053149Y0124020D01*
X0053328Y0123428D01*
X0053434Y0122822D01*
X0053466Y0122210D01*
X0053424Y0121599D01*
X0053309Y0120998D01*
X0053120Y0120414D01*
X0052857Y0119856D01*
X0052520Y0119331D01*
X0052109Y0118847D01*
X0051624Y0118411D01*
X0049661Y0117290D01*
X0047407Y0116332D01*
X0024967Y0111004D01*
X0021470Y0109677D01*
X0018183Y0108005D01*
X0014990Y0105880D01*
X0011775Y0103194D01*
X0008557Y0099892D01*
X0006015Y0096298D01*
X0004171Y0092643D01*
X0002911Y0089119D01*
X0001703Y0083232D01*
X0001500Y0080026D01*
X0003379Y0079049D01*
X0008426Y0077143D01*
X0011863Y0076323D01*
D11*
X0007197Y0084042D02*
X0007199Y0084121D01*
X0007205Y0084200D01*
X0007215Y0084279D01*
X0007229Y0084357D01*
X0007246Y0084434D01*
X0007268Y0084510D01*
X0007293Y0084585D01*
X0007323Y0084658D01*
X0007355Y0084730D01*
X0007392Y0084801D01*
X0007432Y0084869D01*
X0007475Y0084935D01*
X0007521Y0084999D01*
X0007571Y0085061D01*
X0007624Y0085120D01*
X0007679Y0085176D01*
X0007738Y0085230D01*
X0007799Y0085280D01*
X0007862Y0085328D01*
X0007928Y0085372D01*
X0007996Y0085413D01*
X0008066Y0085450D01*
X0008137Y0085484D01*
X0008211Y0085514D01*
X0008285Y0085540D01*
X0008361Y0085562D01*
X0008438Y0085581D01*
X0008516Y0085596D01*
X0008594Y0085607D01*
X0008673Y0085614D01*
X0008752Y0085617D01*
X0008831Y0085616D01*
X0008910Y0085611D01*
X0008989Y0085602D01*
X0009067Y0085589D01*
X0009144Y0085572D01*
X0009221Y0085552D01*
X0009296Y0085527D01*
X0009370Y0085499D01*
X0009443Y0085467D01*
X0009513Y0085432D01*
X0009582Y0085393D01*
X0009649Y0085350D01*
X0009714Y0085304D01*
X0009776Y0085256D01*
X0009836Y0085204D01*
X0009893Y0085149D01*
X0009947Y0085091D01*
X0009998Y0085031D01*
X0010046Y0084968D01*
X0010091Y0084903D01*
X0010133Y0084835D01*
X0010171Y0084766D01*
X0010205Y0084695D01*
X0010236Y0084622D01*
X0010264Y0084547D01*
X0010287Y0084472D01*
X0010307Y0084395D01*
X0010323Y0084318D01*
X0010335Y0084239D01*
X0010343Y0084161D01*
X0010347Y0084082D01*
X0010347Y0084002D01*
X0010343Y0083923D01*
X0010335Y0083845D01*
X0010323Y0083766D01*
X0010307Y0083689D01*
X0010287Y0083612D01*
X0010264Y0083537D01*
X0010236Y0083462D01*
X0010205Y0083389D01*
X0010171Y0083318D01*
X0010133Y0083249D01*
X0010091Y0083181D01*
X0010046Y0083116D01*
X0009998Y0083053D01*
X0009947Y0082993D01*
X0009893Y0082935D01*
X0009836Y0082880D01*
X0009776Y0082828D01*
X0009714Y0082780D01*
X0009649Y0082734D01*
X0009582Y0082691D01*
X0009513Y0082652D01*
X0009443Y0082617D01*
X0009370Y0082585D01*
X0009296Y0082557D01*
X0009221Y0082532D01*
X0009144Y0082512D01*
X0009067Y0082495D01*
X0008989Y0082482D01*
X0008910Y0082473D01*
X0008831Y0082468D01*
X0008752Y0082467D01*
X0008673Y0082470D01*
X0008594Y0082477D01*
X0008516Y0082488D01*
X0008438Y0082503D01*
X0008361Y0082522D01*
X0008285Y0082544D01*
X0008211Y0082570D01*
X0008137Y0082600D01*
X0008066Y0082634D01*
X0007996Y0082671D01*
X0007928Y0082712D01*
X0007862Y0082756D01*
X0007799Y0082804D01*
X0007738Y0082854D01*
X0007679Y0082908D01*
X0007624Y0082964D01*
X0007571Y0083023D01*
X0007521Y0083085D01*
X0007475Y0083149D01*
X0007432Y0083215D01*
X0007392Y0083283D01*
X0007355Y0083354D01*
X0007323Y0083426D01*
X0007293Y0083499D01*
X0007268Y0083574D01*
X0007246Y0083650D01*
X0007229Y0083727D01*
X0007215Y0083805D01*
X0007205Y0083884D01*
X0007199Y0083963D01*
X0007197Y0084042D01*
X0051882Y0134830D02*
X0051884Y0134909D01*
X0051890Y0134988D01*
X0051900Y0135067D01*
X0051914Y0135145D01*
X0051931Y0135222D01*
X0051953Y0135298D01*
X0051978Y0135373D01*
X0052008Y0135446D01*
X0052040Y0135518D01*
X0052077Y0135589D01*
X0052117Y0135657D01*
X0052160Y0135723D01*
X0052206Y0135787D01*
X0052256Y0135849D01*
X0052309Y0135908D01*
X0052364Y0135964D01*
X0052423Y0136018D01*
X0052484Y0136068D01*
X0052547Y0136116D01*
X0052613Y0136160D01*
X0052681Y0136201D01*
X0052751Y0136238D01*
X0052822Y0136272D01*
X0052896Y0136302D01*
X0052970Y0136328D01*
X0053046Y0136350D01*
X0053123Y0136369D01*
X0053201Y0136384D01*
X0053279Y0136395D01*
X0053358Y0136402D01*
X0053437Y0136405D01*
X0053516Y0136404D01*
X0053595Y0136399D01*
X0053674Y0136390D01*
X0053752Y0136377D01*
X0053829Y0136360D01*
X0053906Y0136340D01*
X0053981Y0136315D01*
X0054055Y0136287D01*
X0054128Y0136255D01*
X0054198Y0136220D01*
X0054267Y0136181D01*
X0054334Y0136138D01*
X0054399Y0136092D01*
X0054461Y0136044D01*
X0054521Y0135992D01*
X0054578Y0135937D01*
X0054632Y0135879D01*
X0054683Y0135819D01*
X0054731Y0135756D01*
X0054776Y0135691D01*
X0054818Y0135623D01*
X0054856Y0135554D01*
X0054890Y0135483D01*
X0054921Y0135410D01*
X0054949Y0135335D01*
X0054972Y0135260D01*
X0054992Y0135183D01*
X0055008Y0135106D01*
X0055020Y0135027D01*
X0055028Y0134949D01*
X0055032Y0134870D01*
X0055032Y0134790D01*
X0055028Y0134711D01*
X0055020Y0134633D01*
X0055008Y0134554D01*
X0054992Y0134477D01*
X0054972Y0134400D01*
X0054949Y0134325D01*
X0054921Y0134250D01*
X0054890Y0134177D01*
X0054856Y0134106D01*
X0054818Y0134037D01*
X0054776Y0133969D01*
X0054731Y0133904D01*
X0054683Y0133841D01*
X0054632Y0133781D01*
X0054578Y0133723D01*
X0054521Y0133668D01*
X0054461Y0133616D01*
X0054399Y0133568D01*
X0054334Y0133522D01*
X0054267Y0133479D01*
X0054198Y0133440D01*
X0054128Y0133405D01*
X0054055Y0133373D01*
X0053981Y0133345D01*
X0053906Y0133320D01*
X0053829Y0133300D01*
X0053752Y0133283D01*
X0053674Y0133270D01*
X0053595Y0133261D01*
X0053516Y0133256D01*
X0053437Y0133255D01*
X0053358Y0133258D01*
X0053279Y0133265D01*
X0053201Y0133276D01*
X0053123Y0133291D01*
X0053046Y0133310D01*
X0052970Y0133332D01*
X0052896Y0133358D01*
X0052822Y0133388D01*
X0052751Y0133422D01*
X0052681Y0133459D01*
X0052613Y0133500D01*
X0052547Y0133544D01*
X0052484Y0133592D01*
X0052423Y0133642D01*
X0052364Y0133696D01*
X0052309Y0133752D01*
X0052256Y0133811D01*
X0052206Y0133873D01*
X0052160Y0133937D01*
X0052117Y0134003D01*
X0052077Y0134071D01*
X0052040Y0134142D01*
X0052008Y0134214D01*
X0051978Y0134287D01*
X0051953Y0134362D01*
X0051931Y0134438D01*
X0051914Y0134515D01*
X0051900Y0134593D01*
X0051890Y0134672D01*
X0051884Y0134751D01*
X0051882Y0134830D01*
X0073339Y0097625D02*
X0073341Y0097704D01*
X0073347Y0097783D01*
X0073357Y0097862D01*
X0073371Y0097940D01*
X0073388Y0098017D01*
X0073410Y0098093D01*
X0073435Y0098168D01*
X0073465Y0098241D01*
X0073497Y0098313D01*
X0073534Y0098384D01*
X0073574Y0098452D01*
X0073617Y0098518D01*
X0073663Y0098582D01*
X0073713Y0098644D01*
X0073766Y0098703D01*
X0073821Y0098759D01*
X0073880Y0098813D01*
X0073941Y0098863D01*
X0074004Y0098911D01*
X0074070Y0098955D01*
X0074138Y0098996D01*
X0074208Y0099033D01*
X0074279Y0099067D01*
X0074353Y0099097D01*
X0074427Y0099123D01*
X0074503Y0099145D01*
X0074580Y0099164D01*
X0074658Y0099179D01*
X0074736Y0099190D01*
X0074815Y0099197D01*
X0074894Y0099200D01*
X0074973Y0099199D01*
X0075052Y0099194D01*
X0075131Y0099185D01*
X0075209Y0099172D01*
X0075286Y0099155D01*
X0075363Y0099135D01*
X0075438Y0099110D01*
X0075512Y0099082D01*
X0075585Y0099050D01*
X0075655Y0099015D01*
X0075724Y0098976D01*
X0075791Y0098933D01*
X0075856Y0098887D01*
X0075918Y0098839D01*
X0075978Y0098787D01*
X0076035Y0098732D01*
X0076089Y0098674D01*
X0076140Y0098614D01*
X0076188Y0098551D01*
X0076233Y0098486D01*
X0076275Y0098418D01*
X0076313Y0098349D01*
X0076347Y0098278D01*
X0076378Y0098205D01*
X0076406Y0098130D01*
X0076429Y0098055D01*
X0076449Y0097978D01*
X0076465Y0097901D01*
X0076477Y0097822D01*
X0076485Y0097744D01*
X0076489Y0097665D01*
X0076489Y0097585D01*
X0076485Y0097506D01*
X0076477Y0097428D01*
X0076465Y0097349D01*
X0076449Y0097272D01*
X0076429Y0097195D01*
X0076406Y0097120D01*
X0076378Y0097045D01*
X0076347Y0096972D01*
X0076313Y0096901D01*
X0076275Y0096832D01*
X0076233Y0096764D01*
X0076188Y0096699D01*
X0076140Y0096636D01*
X0076089Y0096576D01*
X0076035Y0096518D01*
X0075978Y0096463D01*
X0075918Y0096411D01*
X0075856Y0096363D01*
X0075791Y0096317D01*
X0075724Y0096274D01*
X0075655Y0096235D01*
X0075585Y0096200D01*
X0075512Y0096168D01*
X0075438Y0096140D01*
X0075363Y0096115D01*
X0075286Y0096095D01*
X0075209Y0096078D01*
X0075131Y0096065D01*
X0075052Y0096056D01*
X0074973Y0096051D01*
X0074894Y0096050D01*
X0074815Y0096053D01*
X0074736Y0096060D01*
X0074658Y0096071D01*
X0074580Y0096086D01*
X0074503Y0096105D01*
X0074427Y0096127D01*
X0074353Y0096153D01*
X0074279Y0096183D01*
X0074208Y0096217D01*
X0074138Y0096254D01*
X0074070Y0096295D01*
X0074004Y0096339D01*
X0073941Y0096387D01*
X0073880Y0096437D01*
X0073821Y0096491D01*
X0073766Y0096547D01*
X0073713Y0096606D01*
X0073663Y0096668D01*
X0073617Y0096732D01*
X0073574Y0096798D01*
X0073534Y0096866D01*
X0073497Y0096937D01*
X0073465Y0097009D01*
X0073435Y0097082D01*
X0073410Y0097157D01*
X0073388Y0097233D01*
X0073371Y0097310D01*
X0073357Y0097388D01*
X0073347Y0097467D01*
X0073341Y0097546D01*
X0073339Y0097625D01*
X0114284Y0074003D02*
X0114286Y0074082D01*
X0114292Y0074161D01*
X0114302Y0074240D01*
X0114316Y0074318D01*
X0114333Y0074395D01*
X0114355Y0074471D01*
X0114380Y0074546D01*
X0114410Y0074619D01*
X0114442Y0074691D01*
X0114479Y0074762D01*
X0114519Y0074830D01*
X0114562Y0074896D01*
X0114608Y0074960D01*
X0114658Y0075022D01*
X0114711Y0075081D01*
X0114766Y0075137D01*
X0114825Y0075191D01*
X0114886Y0075241D01*
X0114949Y0075289D01*
X0115015Y0075333D01*
X0115083Y0075374D01*
X0115153Y0075411D01*
X0115224Y0075445D01*
X0115298Y0075475D01*
X0115372Y0075501D01*
X0115448Y0075523D01*
X0115525Y0075542D01*
X0115603Y0075557D01*
X0115681Y0075568D01*
X0115760Y0075575D01*
X0115839Y0075578D01*
X0115918Y0075577D01*
X0115997Y0075572D01*
X0116076Y0075563D01*
X0116154Y0075550D01*
X0116231Y0075533D01*
X0116308Y0075513D01*
X0116383Y0075488D01*
X0116457Y0075460D01*
X0116530Y0075428D01*
X0116600Y0075393D01*
X0116669Y0075354D01*
X0116736Y0075311D01*
X0116801Y0075265D01*
X0116863Y0075217D01*
X0116923Y0075165D01*
X0116980Y0075110D01*
X0117034Y0075052D01*
X0117085Y0074992D01*
X0117133Y0074929D01*
X0117178Y0074864D01*
X0117220Y0074796D01*
X0117258Y0074727D01*
X0117292Y0074656D01*
X0117323Y0074583D01*
X0117351Y0074508D01*
X0117374Y0074433D01*
X0117394Y0074356D01*
X0117410Y0074279D01*
X0117422Y0074200D01*
X0117430Y0074122D01*
X0117434Y0074043D01*
X0117434Y0073963D01*
X0117430Y0073884D01*
X0117422Y0073806D01*
X0117410Y0073727D01*
X0117394Y0073650D01*
X0117374Y0073573D01*
X0117351Y0073498D01*
X0117323Y0073423D01*
X0117292Y0073350D01*
X0117258Y0073279D01*
X0117220Y0073210D01*
X0117178Y0073142D01*
X0117133Y0073077D01*
X0117085Y0073014D01*
X0117034Y0072954D01*
X0116980Y0072896D01*
X0116923Y0072841D01*
X0116863Y0072789D01*
X0116801Y0072741D01*
X0116736Y0072695D01*
X0116669Y0072652D01*
X0116600Y0072613D01*
X0116530Y0072578D01*
X0116457Y0072546D01*
X0116383Y0072518D01*
X0116308Y0072493D01*
X0116231Y0072473D01*
X0116154Y0072456D01*
X0116076Y0072443D01*
X0115997Y0072434D01*
X0115918Y0072429D01*
X0115839Y0072428D01*
X0115760Y0072431D01*
X0115681Y0072438D01*
X0115603Y0072449D01*
X0115525Y0072464D01*
X0115448Y0072483D01*
X0115372Y0072505D01*
X0115298Y0072531D01*
X0115224Y0072561D01*
X0115153Y0072595D01*
X0115083Y0072632D01*
X0115015Y0072673D01*
X0114949Y0072717D01*
X0114886Y0072765D01*
X0114825Y0072815D01*
X0114766Y0072869D01*
X0114711Y0072925D01*
X0114658Y0072984D01*
X0114608Y0073046D01*
X0114562Y0073110D01*
X0114519Y0073176D01*
X0114479Y0073244D01*
X0114442Y0073315D01*
X0114410Y0073387D01*
X0114380Y0073460D01*
X0114355Y0073535D01*
X0114333Y0073611D01*
X0114316Y0073688D01*
X0114302Y0073766D01*
X0114292Y0073845D01*
X0114286Y0073924D01*
X0114284Y0074003D01*
X0157394Y0074003D02*
X0157396Y0074082D01*
X0157402Y0074161D01*
X0157412Y0074240D01*
X0157426Y0074318D01*
X0157443Y0074395D01*
X0157465Y0074471D01*
X0157490Y0074546D01*
X0157520Y0074619D01*
X0157552Y0074691D01*
X0157589Y0074762D01*
X0157629Y0074830D01*
X0157672Y0074896D01*
X0157718Y0074960D01*
X0157768Y0075022D01*
X0157821Y0075081D01*
X0157876Y0075137D01*
X0157935Y0075191D01*
X0157996Y0075241D01*
X0158059Y0075289D01*
X0158125Y0075333D01*
X0158193Y0075374D01*
X0158263Y0075411D01*
X0158334Y0075445D01*
X0158408Y0075475D01*
X0158482Y0075501D01*
X0158558Y0075523D01*
X0158635Y0075542D01*
X0158713Y0075557D01*
X0158791Y0075568D01*
X0158870Y0075575D01*
X0158949Y0075578D01*
X0159028Y0075577D01*
X0159107Y0075572D01*
X0159186Y0075563D01*
X0159264Y0075550D01*
X0159341Y0075533D01*
X0159418Y0075513D01*
X0159493Y0075488D01*
X0159567Y0075460D01*
X0159640Y0075428D01*
X0159710Y0075393D01*
X0159779Y0075354D01*
X0159846Y0075311D01*
X0159911Y0075265D01*
X0159973Y0075217D01*
X0160033Y0075165D01*
X0160090Y0075110D01*
X0160144Y0075052D01*
X0160195Y0074992D01*
X0160243Y0074929D01*
X0160288Y0074864D01*
X0160330Y0074796D01*
X0160368Y0074727D01*
X0160402Y0074656D01*
X0160433Y0074583D01*
X0160461Y0074508D01*
X0160484Y0074433D01*
X0160504Y0074356D01*
X0160520Y0074279D01*
X0160532Y0074200D01*
X0160540Y0074122D01*
X0160544Y0074043D01*
X0160544Y0073963D01*
X0160540Y0073884D01*
X0160532Y0073806D01*
X0160520Y0073727D01*
X0160504Y0073650D01*
X0160484Y0073573D01*
X0160461Y0073498D01*
X0160433Y0073423D01*
X0160402Y0073350D01*
X0160368Y0073279D01*
X0160330Y0073210D01*
X0160288Y0073142D01*
X0160243Y0073077D01*
X0160195Y0073014D01*
X0160144Y0072954D01*
X0160090Y0072896D01*
X0160033Y0072841D01*
X0159973Y0072789D01*
X0159911Y0072741D01*
X0159846Y0072695D01*
X0159779Y0072652D01*
X0159710Y0072613D01*
X0159640Y0072578D01*
X0159567Y0072546D01*
X0159493Y0072518D01*
X0159418Y0072493D01*
X0159341Y0072473D01*
X0159264Y0072456D01*
X0159186Y0072443D01*
X0159107Y0072434D01*
X0159028Y0072429D01*
X0158949Y0072428D01*
X0158870Y0072431D01*
X0158791Y0072438D01*
X0158713Y0072449D01*
X0158635Y0072464D01*
X0158558Y0072483D01*
X0158482Y0072505D01*
X0158408Y0072531D01*
X0158334Y0072561D01*
X0158263Y0072595D01*
X0158193Y0072632D01*
X0158125Y0072673D01*
X0158059Y0072717D01*
X0157996Y0072765D01*
X0157935Y0072815D01*
X0157876Y0072869D01*
X0157821Y0072925D01*
X0157768Y0072984D01*
X0157718Y0073046D01*
X0157672Y0073110D01*
X0157629Y0073176D01*
X0157589Y0073244D01*
X0157552Y0073315D01*
X0157520Y0073387D01*
X0157490Y0073460D01*
X0157465Y0073535D01*
X0157443Y0073611D01*
X0157426Y0073688D01*
X0157412Y0073766D01*
X0157402Y0073845D01*
X0157396Y0073924D01*
X0157394Y0074003D01*
X0198536Y0097625D02*
X0198538Y0097704D01*
X0198544Y0097783D01*
X0198554Y0097862D01*
X0198568Y0097940D01*
X0198585Y0098017D01*
X0198607Y0098093D01*
X0198632Y0098168D01*
X0198662Y0098241D01*
X0198694Y0098313D01*
X0198731Y0098384D01*
X0198771Y0098452D01*
X0198814Y0098518D01*
X0198860Y0098582D01*
X0198910Y0098644D01*
X0198963Y0098703D01*
X0199018Y0098759D01*
X0199077Y0098813D01*
X0199138Y0098863D01*
X0199201Y0098911D01*
X0199267Y0098955D01*
X0199335Y0098996D01*
X0199405Y0099033D01*
X0199476Y0099067D01*
X0199550Y0099097D01*
X0199624Y0099123D01*
X0199700Y0099145D01*
X0199777Y0099164D01*
X0199855Y0099179D01*
X0199933Y0099190D01*
X0200012Y0099197D01*
X0200091Y0099200D01*
X0200170Y0099199D01*
X0200249Y0099194D01*
X0200328Y0099185D01*
X0200406Y0099172D01*
X0200483Y0099155D01*
X0200560Y0099135D01*
X0200635Y0099110D01*
X0200709Y0099082D01*
X0200782Y0099050D01*
X0200852Y0099015D01*
X0200921Y0098976D01*
X0200988Y0098933D01*
X0201053Y0098887D01*
X0201115Y0098839D01*
X0201175Y0098787D01*
X0201232Y0098732D01*
X0201286Y0098674D01*
X0201337Y0098614D01*
X0201385Y0098551D01*
X0201430Y0098486D01*
X0201472Y0098418D01*
X0201510Y0098349D01*
X0201544Y0098278D01*
X0201575Y0098205D01*
X0201603Y0098130D01*
X0201626Y0098055D01*
X0201646Y0097978D01*
X0201662Y0097901D01*
X0201674Y0097822D01*
X0201682Y0097744D01*
X0201686Y0097665D01*
X0201686Y0097585D01*
X0201682Y0097506D01*
X0201674Y0097428D01*
X0201662Y0097349D01*
X0201646Y0097272D01*
X0201626Y0097195D01*
X0201603Y0097120D01*
X0201575Y0097045D01*
X0201544Y0096972D01*
X0201510Y0096901D01*
X0201472Y0096832D01*
X0201430Y0096764D01*
X0201385Y0096699D01*
X0201337Y0096636D01*
X0201286Y0096576D01*
X0201232Y0096518D01*
X0201175Y0096463D01*
X0201115Y0096411D01*
X0201053Y0096363D01*
X0200988Y0096317D01*
X0200921Y0096274D01*
X0200852Y0096235D01*
X0200782Y0096200D01*
X0200709Y0096168D01*
X0200635Y0096140D01*
X0200560Y0096115D01*
X0200483Y0096095D01*
X0200406Y0096078D01*
X0200328Y0096065D01*
X0200249Y0096056D01*
X0200170Y0096051D01*
X0200091Y0096050D01*
X0200012Y0096053D01*
X0199933Y0096060D01*
X0199855Y0096071D01*
X0199777Y0096086D01*
X0199700Y0096105D01*
X0199624Y0096127D01*
X0199550Y0096153D01*
X0199476Y0096183D01*
X0199405Y0096217D01*
X0199335Y0096254D01*
X0199267Y0096295D01*
X0199201Y0096339D01*
X0199138Y0096387D01*
X0199077Y0096437D01*
X0199018Y0096491D01*
X0198963Y0096547D01*
X0198910Y0096606D01*
X0198860Y0096668D01*
X0198814Y0096732D01*
X0198771Y0096798D01*
X0198731Y0096866D01*
X0198694Y0096937D01*
X0198662Y0097009D01*
X0198632Y0097082D01*
X0198607Y0097157D01*
X0198585Y0097233D01*
X0198568Y0097310D01*
X0198554Y0097388D01*
X0198544Y0097467D01*
X0198538Y0097546D01*
X0198536Y0097625D01*
X0219992Y0134830D02*
X0219994Y0134909D01*
X0220000Y0134988D01*
X0220010Y0135067D01*
X0220024Y0135145D01*
X0220041Y0135222D01*
X0220063Y0135298D01*
X0220088Y0135373D01*
X0220118Y0135446D01*
X0220150Y0135518D01*
X0220187Y0135589D01*
X0220227Y0135657D01*
X0220270Y0135723D01*
X0220316Y0135787D01*
X0220366Y0135849D01*
X0220419Y0135908D01*
X0220474Y0135964D01*
X0220533Y0136018D01*
X0220594Y0136068D01*
X0220657Y0136116D01*
X0220723Y0136160D01*
X0220791Y0136201D01*
X0220861Y0136238D01*
X0220932Y0136272D01*
X0221006Y0136302D01*
X0221080Y0136328D01*
X0221156Y0136350D01*
X0221233Y0136369D01*
X0221311Y0136384D01*
X0221389Y0136395D01*
X0221468Y0136402D01*
X0221547Y0136405D01*
X0221626Y0136404D01*
X0221705Y0136399D01*
X0221784Y0136390D01*
X0221862Y0136377D01*
X0221939Y0136360D01*
X0222016Y0136340D01*
X0222091Y0136315D01*
X0222165Y0136287D01*
X0222238Y0136255D01*
X0222308Y0136220D01*
X0222377Y0136181D01*
X0222444Y0136138D01*
X0222509Y0136092D01*
X0222571Y0136044D01*
X0222631Y0135992D01*
X0222688Y0135937D01*
X0222742Y0135879D01*
X0222793Y0135819D01*
X0222841Y0135756D01*
X0222886Y0135691D01*
X0222928Y0135623D01*
X0222966Y0135554D01*
X0223000Y0135483D01*
X0223031Y0135410D01*
X0223059Y0135335D01*
X0223082Y0135260D01*
X0223102Y0135183D01*
X0223118Y0135106D01*
X0223130Y0135027D01*
X0223138Y0134949D01*
X0223142Y0134870D01*
X0223142Y0134790D01*
X0223138Y0134711D01*
X0223130Y0134633D01*
X0223118Y0134554D01*
X0223102Y0134477D01*
X0223082Y0134400D01*
X0223059Y0134325D01*
X0223031Y0134250D01*
X0223000Y0134177D01*
X0222966Y0134106D01*
X0222928Y0134037D01*
X0222886Y0133969D01*
X0222841Y0133904D01*
X0222793Y0133841D01*
X0222742Y0133781D01*
X0222688Y0133723D01*
X0222631Y0133668D01*
X0222571Y0133616D01*
X0222509Y0133568D01*
X0222444Y0133522D01*
X0222377Y0133479D01*
X0222308Y0133440D01*
X0222238Y0133405D01*
X0222165Y0133373D01*
X0222091Y0133345D01*
X0222016Y0133320D01*
X0221939Y0133300D01*
X0221862Y0133283D01*
X0221784Y0133270D01*
X0221705Y0133261D01*
X0221626Y0133256D01*
X0221547Y0133255D01*
X0221468Y0133258D01*
X0221389Y0133265D01*
X0221311Y0133276D01*
X0221233Y0133291D01*
X0221156Y0133310D01*
X0221080Y0133332D01*
X0221006Y0133358D01*
X0220932Y0133388D01*
X0220861Y0133422D01*
X0220791Y0133459D01*
X0220723Y0133500D01*
X0220657Y0133544D01*
X0220594Y0133592D01*
X0220533Y0133642D01*
X0220474Y0133696D01*
X0220419Y0133752D01*
X0220366Y0133811D01*
X0220316Y0133873D01*
X0220270Y0133937D01*
X0220227Y0134003D01*
X0220187Y0134071D01*
X0220150Y0134142D01*
X0220118Y0134214D01*
X0220088Y0134287D01*
X0220063Y0134362D01*
X0220041Y0134438D01*
X0220024Y0134515D01*
X0220010Y0134593D01*
X0220000Y0134672D01*
X0219994Y0134751D01*
X0219992Y0134830D01*
X0219992Y0182271D02*
X0219994Y0182350D01*
X0220000Y0182429D01*
X0220010Y0182508D01*
X0220024Y0182586D01*
X0220041Y0182663D01*
X0220063Y0182739D01*
X0220088Y0182814D01*
X0220118Y0182887D01*
X0220150Y0182959D01*
X0220187Y0183030D01*
X0220227Y0183098D01*
X0220270Y0183164D01*
X0220316Y0183228D01*
X0220366Y0183290D01*
X0220419Y0183349D01*
X0220474Y0183405D01*
X0220533Y0183459D01*
X0220594Y0183509D01*
X0220657Y0183557D01*
X0220723Y0183601D01*
X0220791Y0183642D01*
X0220861Y0183679D01*
X0220932Y0183713D01*
X0221006Y0183743D01*
X0221080Y0183769D01*
X0221156Y0183791D01*
X0221233Y0183810D01*
X0221311Y0183825D01*
X0221389Y0183836D01*
X0221468Y0183843D01*
X0221547Y0183846D01*
X0221626Y0183845D01*
X0221705Y0183840D01*
X0221784Y0183831D01*
X0221862Y0183818D01*
X0221939Y0183801D01*
X0222016Y0183781D01*
X0222091Y0183756D01*
X0222165Y0183728D01*
X0222238Y0183696D01*
X0222308Y0183661D01*
X0222377Y0183622D01*
X0222444Y0183579D01*
X0222509Y0183533D01*
X0222571Y0183485D01*
X0222631Y0183433D01*
X0222688Y0183378D01*
X0222742Y0183320D01*
X0222793Y0183260D01*
X0222841Y0183197D01*
X0222886Y0183132D01*
X0222928Y0183064D01*
X0222966Y0182995D01*
X0223000Y0182924D01*
X0223031Y0182851D01*
X0223059Y0182776D01*
X0223082Y0182701D01*
X0223102Y0182624D01*
X0223118Y0182547D01*
X0223130Y0182468D01*
X0223138Y0182390D01*
X0223142Y0182311D01*
X0223142Y0182231D01*
X0223138Y0182152D01*
X0223130Y0182074D01*
X0223118Y0181995D01*
X0223102Y0181918D01*
X0223082Y0181841D01*
X0223059Y0181766D01*
X0223031Y0181691D01*
X0223000Y0181618D01*
X0222966Y0181547D01*
X0222928Y0181478D01*
X0222886Y0181410D01*
X0222841Y0181345D01*
X0222793Y0181282D01*
X0222742Y0181222D01*
X0222688Y0181164D01*
X0222631Y0181109D01*
X0222571Y0181057D01*
X0222509Y0181009D01*
X0222444Y0180963D01*
X0222377Y0180920D01*
X0222308Y0180881D01*
X0222238Y0180846D01*
X0222165Y0180814D01*
X0222091Y0180786D01*
X0222016Y0180761D01*
X0221939Y0180741D01*
X0221862Y0180724D01*
X0221784Y0180711D01*
X0221705Y0180702D01*
X0221626Y0180697D01*
X0221547Y0180696D01*
X0221468Y0180699D01*
X0221389Y0180706D01*
X0221311Y0180717D01*
X0221233Y0180732D01*
X0221156Y0180751D01*
X0221080Y0180773D01*
X0221006Y0180799D01*
X0220932Y0180829D01*
X0220861Y0180863D01*
X0220791Y0180900D01*
X0220723Y0180941D01*
X0220657Y0180985D01*
X0220594Y0181033D01*
X0220533Y0181083D01*
X0220474Y0181137D01*
X0220419Y0181193D01*
X0220366Y0181252D01*
X0220316Y0181314D01*
X0220270Y0181378D01*
X0220227Y0181444D01*
X0220187Y0181512D01*
X0220150Y0181583D01*
X0220118Y0181655D01*
X0220088Y0181728D01*
X0220063Y0181803D01*
X0220041Y0181879D01*
X0220024Y0181956D01*
X0220010Y0182034D01*
X0220000Y0182113D01*
X0219994Y0182192D01*
X0219992Y0182271D01*
X0198536Y0219672D02*
X0198538Y0219751D01*
X0198544Y0219830D01*
X0198554Y0219909D01*
X0198568Y0219987D01*
X0198585Y0220064D01*
X0198607Y0220140D01*
X0198632Y0220215D01*
X0198662Y0220288D01*
X0198694Y0220360D01*
X0198731Y0220431D01*
X0198771Y0220499D01*
X0198814Y0220565D01*
X0198860Y0220629D01*
X0198910Y0220691D01*
X0198963Y0220750D01*
X0199018Y0220806D01*
X0199077Y0220860D01*
X0199138Y0220910D01*
X0199201Y0220958D01*
X0199267Y0221002D01*
X0199335Y0221043D01*
X0199405Y0221080D01*
X0199476Y0221114D01*
X0199550Y0221144D01*
X0199624Y0221170D01*
X0199700Y0221192D01*
X0199777Y0221211D01*
X0199855Y0221226D01*
X0199933Y0221237D01*
X0200012Y0221244D01*
X0200091Y0221247D01*
X0200170Y0221246D01*
X0200249Y0221241D01*
X0200328Y0221232D01*
X0200406Y0221219D01*
X0200483Y0221202D01*
X0200560Y0221182D01*
X0200635Y0221157D01*
X0200709Y0221129D01*
X0200782Y0221097D01*
X0200852Y0221062D01*
X0200921Y0221023D01*
X0200988Y0220980D01*
X0201053Y0220934D01*
X0201115Y0220886D01*
X0201175Y0220834D01*
X0201232Y0220779D01*
X0201286Y0220721D01*
X0201337Y0220661D01*
X0201385Y0220598D01*
X0201430Y0220533D01*
X0201472Y0220465D01*
X0201510Y0220396D01*
X0201544Y0220325D01*
X0201575Y0220252D01*
X0201603Y0220177D01*
X0201626Y0220102D01*
X0201646Y0220025D01*
X0201662Y0219948D01*
X0201674Y0219869D01*
X0201682Y0219791D01*
X0201686Y0219712D01*
X0201686Y0219632D01*
X0201682Y0219553D01*
X0201674Y0219475D01*
X0201662Y0219396D01*
X0201646Y0219319D01*
X0201626Y0219242D01*
X0201603Y0219167D01*
X0201575Y0219092D01*
X0201544Y0219019D01*
X0201510Y0218948D01*
X0201472Y0218879D01*
X0201430Y0218811D01*
X0201385Y0218746D01*
X0201337Y0218683D01*
X0201286Y0218623D01*
X0201232Y0218565D01*
X0201175Y0218510D01*
X0201115Y0218458D01*
X0201053Y0218410D01*
X0200988Y0218364D01*
X0200921Y0218321D01*
X0200852Y0218282D01*
X0200782Y0218247D01*
X0200709Y0218215D01*
X0200635Y0218187D01*
X0200560Y0218162D01*
X0200483Y0218142D01*
X0200406Y0218125D01*
X0200328Y0218112D01*
X0200249Y0218103D01*
X0200170Y0218098D01*
X0200091Y0218097D01*
X0200012Y0218100D01*
X0199933Y0218107D01*
X0199855Y0218118D01*
X0199777Y0218133D01*
X0199700Y0218152D01*
X0199624Y0218174D01*
X0199550Y0218200D01*
X0199476Y0218230D01*
X0199405Y0218264D01*
X0199335Y0218301D01*
X0199267Y0218342D01*
X0199201Y0218386D01*
X0199138Y0218434D01*
X0199077Y0218484D01*
X0199018Y0218538D01*
X0198963Y0218594D01*
X0198910Y0218653D01*
X0198860Y0218715D01*
X0198814Y0218779D01*
X0198771Y0218845D01*
X0198731Y0218913D01*
X0198694Y0218984D01*
X0198662Y0219056D01*
X0198632Y0219129D01*
X0198607Y0219204D01*
X0198585Y0219280D01*
X0198568Y0219357D01*
X0198554Y0219435D01*
X0198544Y0219514D01*
X0198538Y0219593D01*
X0198536Y0219672D01*
X0157394Y0243294D02*
X0157396Y0243373D01*
X0157402Y0243452D01*
X0157412Y0243531D01*
X0157426Y0243609D01*
X0157443Y0243686D01*
X0157465Y0243762D01*
X0157490Y0243837D01*
X0157520Y0243910D01*
X0157552Y0243982D01*
X0157589Y0244053D01*
X0157629Y0244121D01*
X0157672Y0244187D01*
X0157718Y0244251D01*
X0157768Y0244313D01*
X0157821Y0244372D01*
X0157876Y0244428D01*
X0157935Y0244482D01*
X0157996Y0244532D01*
X0158059Y0244580D01*
X0158125Y0244624D01*
X0158193Y0244665D01*
X0158263Y0244702D01*
X0158334Y0244736D01*
X0158408Y0244766D01*
X0158482Y0244792D01*
X0158558Y0244814D01*
X0158635Y0244833D01*
X0158713Y0244848D01*
X0158791Y0244859D01*
X0158870Y0244866D01*
X0158949Y0244869D01*
X0159028Y0244868D01*
X0159107Y0244863D01*
X0159186Y0244854D01*
X0159264Y0244841D01*
X0159341Y0244824D01*
X0159418Y0244804D01*
X0159493Y0244779D01*
X0159567Y0244751D01*
X0159640Y0244719D01*
X0159710Y0244684D01*
X0159779Y0244645D01*
X0159846Y0244602D01*
X0159911Y0244556D01*
X0159973Y0244508D01*
X0160033Y0244456D01*
X0160090Y0244401D01*
X0160144Y0244343D01*
X0160195Y0244283D01*
X0160243Y0244220D01*
X0160288Y0244155D01*
X0160330Y0244087D01*
X0160368Y0244018D01*
X0160402Y0243947D01*
X0160433Y0243874D01*
X0160461Y0243799D01*
X0160484Y0243724D01*
X0160504Y0243647D01*
X0160520Y0243570D01*
X0160532Y0243491D01*
X0160540Y0243413D01*
X0160544Y0243334D01*
X0160544Y0243254D01*
X0160540Y0243175D01*
X0160532Y0243097D01*
X0160520Y0243018D01*
X0160504Y0242941D01*
X0160484Y0242864D01*
X0160461Y0242789D01*
X0160433Y0242714D01*
X0160402Y0242641D01*
X0160368Y0242570D01*
X0160330Y0242501D01*
X0160288Y0242433D01*
X0160243Y0242368D01*
X0160195Y0242305D01*
X0160144Y0242245D01*
X0160090Y0242187D01*
X0160033Y0242132D01*
X0159973Y0242080D01*
X0159911Y0242032D01*
X0159846Y0241986D01*
X0159779Y0241943D01*
X0159710Y0241904D01*
X0159640Y0241869D01*
X0159567Y0241837D01*
X0159493Y0241809D01*
X0159418Y0241784D01*
X0159341Y0241764D01*
X0159264Y0241747D01*
X0159186Y0241734D01*
X0159107Y0241725D01*
X0159028Y0241720D01*
X0158949Y0241719D01*
X0158870Y0241722D01*
X0158791Y0241729D01*
X0158713Y0241740D01*
X0158635Y0241755D01*
X0158558Y0241774D01*
X0158482Y0241796D01*
X0158408Y0241822D01*
X0158334Y0241852D01*
X0158263Y0241886D01*
X0158193Y0241923D01*
X0158125Y0241964D01*
X0158059Y0242008D01*
X0157996Y0242056D01*
X0157935Y0242106D01*
X0157876Y0242160D01*
X0157821Y0242216D01*
X0157768Y0242275D01*
X0157718Y0242337D01*
X0157672Y0242401D01*
X0157629Y0242467D01*
X0157589Y0242535D01*
X0157552Y0242606D01*
X0157520Y0242678D01*
X0157490Y0242751D01*
X0157465Y0242826D01*
X0157443Y0242902D01*
X0157426Y0242979D01*
X0157412Y0243057D01*
X0157402Y0243136D01*
X0157396Y0243215D01*
X0157394Y0243294D01*
X0114284Y0243294D02*
X0114286Y0243373D01*
X0114292Y0243452D01*
X0114302Y0243531D01*
X0114316Y0243609D01*
X0114333Y0243686D01*
X0114355Y0243762D01*
X0114380Y0243837D01*
X0114410Y0243910D01*
X0114442Y0243982D01*
X0114479Y0244053D01*
X0114519Y0244121D01*
X0114562Y0244187D01*
X0114608Y0244251D01*
X0114658Y0244313D01*
X0114711Y0244372D01*
X0114766Y0244428D01*
X0114825Y0244482D01*
X0114886Y0244532D01*
X0114949Y0244580D01*
X0115015Y0244624D01*
X0115083Y0244665D01*
X0115153Y0244702D01*
X0115224Y0244736D01*
X0115298Y0244766D01*
X0115372Y0244792D01*
X0115448Y0244814D01*
X0115525Y0244833D01*
X0115603Y0244848D01*
X0115681Y0244859D01*
X0115760Y0244866D01*
X0115839Y0244869D01*
X0115918Y0244868D01*
X0115997Y0244863D01*
X0116076Y0244854D01*
X0116154Y0244841D01*
X0116231Y0244824D01*
X0116308Y0244804D01*
X0116383Y0244779D01*
X0116457Y0244751D01*
X0116530Y0244719D01*
X0116600Y0244684D01*
X0116669Y0244645D01*
X0116736Y0244602D01*
X0116801Y0244556D01*
X0116863Y0244508D01*
X0116923Y0244456D01*
X0116980Y0244401D01*
X0117034Y0244343D01*
X0117085Y0244283D01*
X0117133Y0244220D01*
X0117178Y0244155D01*
X0117220Y0244087D01*
X0117258Y0244018D01*
X0117292Y0243947D01*
X0117323Y0243874D01*
X0117351Y0243799D01*
X0117374Y0243724D01*
X0117394Y0243647D01*
X0117410Y0243570D01*
X0117422Y0243491D01*
X0117430Y0243413D01*
X0117434Y0243334D01*
X0117434Y0243254D01*
X0117430Y0243175D01*
X0117422Y0243097D01*
X0117410Y0243018D01*
X0117394Y0242941D01*
X0117374Y0242864D01*
X0117351Y0242789D01*
X0117323Y0242714D01*
X0117292Y0242641D01*
X0117258Y0242570D01*
X0117220Y0242501D01*
X0117178Y0242433D01*
X0117133Y0242368D01*
X0117085Y0242305D01*
X0117034Y0242245D01*
X0116980Y0242187D01*
X0116923Y0242132D01*
X0116863Y0242080D01*
X0116801Y0242032D01*
X0116736Y0241986D01*
X0116669Y0241943D01*
X0116600Y0241904D01*
X0116530Y0241869D01*
X0116457Y0241837D01*
X0116383Y0241809D01*
X0116308Y0241784D01*
X0116231Y0241764D01*
X0116154Y0241747D01*
X0116076Y0241734D01*
X0115997Y0241725D01*
X0115918Y0241720D01*
X0115839Y0241719D01*
X0115760Y0241722D01*
X0115681Y0241729D01*
X0115603Y0241740D01*
X0115525Y0241755D01*
X0115448Y0241774D01*
X0115372Y0241796D01*
X0115298Y0241822D01*
X0115224Y0241852D01*
X0115153Y0241886D01*
X0115083Y0241923D01*
X0115015Y0241964D01*
X0114949Y0242008D01*
X0114886Y0242056D01*
X0114825Y0242106D01*
X0114766Y0242160D01*
X0114711Y0242216D01*
X0114658Y0242275D01*
X0114608Y0242337D01*
X0114562Y0242401D01*
X0114519Y0242467D01*
X0114479Y0242535D01*
X0114442Y0242606D01*
X0114410Y0242678D01*
X0114380Y0242751D01*
X0114355Y0242826D01*
X0114333Y0242902D01*
X0114316Y0242979D01*
X0114302Y0243057D01*
X0114292Y0243136D01*
X0114286Y0243215D01*
X0114284Y0243294D01*
X0073339Y0219475D02*
X0073341Y0219554D01*
X0073347Y0219633D01*
X0073357Y0219712D01*
X0073371Y0219790D01*
X0073388Y0219867D01*
X0073410Y0219943D01*
X0073435Y0220018D01*
X0073465Y0220091D01*
X0073497Y0220163D01*
X0073534Y0220234D01*
X0073574Y0220302D01*
X0073617Y0220368D01*
X0073663Y0220432D01*
X0073713Y0220494D01*
X0073766Y0220553D01*
X0073821Y0220609D01*
X0073880Y0220663D01*
X0073941Y0220713D01*
X0074004Y0220761D01*
X0074070Y0220805D01*
X0074138Y0220846D01*
X0074208Y0220883D01*
X0074279Y0220917D01*
X0074353Y0220947D01*
X0074427Y0220973D01*
X0074503Y0220995D01*
X0074580Y0221014D01*
X0074658Y0221029D01*
X0074736Y0221040D01*
X0074815Y0221047D01*
X0074894Y0221050D01*
X0074973Y0221049D01*
X0075052Y0221044D01*
X0075131Y0221035D01*
X0075209Y0221022D01*
X0075286Y0221005D01*
X0075363Y0220985D01*
X0075438Y0220960D01*
X0075512Y0220932D01*
X0075585Y0220900D01*
X0075655Y0220865D01*
X0075724Y0220826D01*
X0075791Y0220783D01*
X0075856Y0220737D01*
X0075918Y0220689D01*
X0075978Y0220637D01*
X0076035Y0220582D01*
X0076089Y0220524D01*
X0076140Y0220464D01*
X0076188Y0220401D01*
X0076233Y0220336D01*
X0076275Y0220268D01*
X0076313Y0220199D01*
X0076347Y0220128D01*
X0076378Y0220055D01*
X0076406Y0219980D01*
X0076429Y0219905D01*
X0076449Y0219828D01*
X0076465Y0219751D01*
X0076477Y0219672D01*
X0076485Y0219594D01*
X0076489Y0219515D01*
X0076489Y0219435D01*
X0076485Y0219356D01*
X0076477Y0219278D01*
X0076465Y0219199D01*
X0076449Y0219122D01*
X0076429Y0219045D01*
X0076406Y0218970D01*
X0076378Y0218895D01*
X0076347Y0218822D01*
X0076313Y0218751D01*
X0076275Y0218682D01*
X0076233Y0218614D01*
X0076188Y0218549D01*
X0076140Y0218486D01*
X0076089Y0218426D01*
X0076035Y0218368D01*
X0075978Y0218313D01*
X0075918Y0218261D01*
X0075856Y0218213D01*
X0075791Y0218167D01*
X0075724Y0218124D01*
X0075655Y0218085D01*
X0075585Y0218050D01*
X0075512Y0218018D01*
X0075438Y0217990D01*
X0075363Y0217965D01*
X0075286Y0217945D01*
X0075209Y0217928D01*
X0075131Y0217915D01*
X0075052Y0217906D01*
X0074973Y0217901D01*
X0074894Y0217900D01*
X0074815Y0217903D01*
X0074736Y0217910D01*
X0074658Y0217921D01*
X0074580Y0217936D01*
X0074503Y0217955D01*
X0074427Y0217977D01*
X0074353Y0218003D01*
X0074279Y0218033D01*
X0074208Y0218067D01*
X0074138Y0218104D01*
X0074070Y0218145D01*
X0074004Y0218189D01*
X0073941Y0218237D01*
X0073880Y0218287D01*
X0073821Y0218341D01*
X0073766Y0218397D01*
X0073713Y0218456D01*
X0073663Y0218518D01*
X0073617Y0218582D01*
X0073574Y0218648D01*
X0073534Y0218716D01*
X0073497Y0218787D01*
X0073465Y0218859D01*
X0073435Y0218932D01*
X0073410Y0219007D01*
X0073388Y0219083D01*
X0073371Y0219160D01*
X0073357Y0219238D01*
X0073347Y0219317D01*
X0073341Y0219396D01*
X0073339Y0219475D01*
X0051882Y0182271D02*
X0051884Y0182350D01*
X0051890Y0182429D01*
X0051900Y0182508D01*
X0051914Y0182586D01*
X0051931Y0182663D01*
X0051953Y0182739D01*
X0051978Y0182814D01*
X0052008Y0182887D01*
X0052040Y0182959D01*
X0052077Y0183030D01*
X0052117Y0183098D01*
X0052160Y0183164D01*
X0052206Y0183228D01*
X0052256Y0183290D01*
X0052309Y0183349D01*
X0052364Y0183405D01*
X0052423Y0183459D01*
X0052484Y0183509D01*
X0052547Y0183557D01*
X0052613Y0183601D01*
X0052681Y0183642D01*
X0052751Y0183679D01*
X0052822Y0183713D01*
X0052896Y0183743D01*
X0052970Y0183769D01*
X0053046Y0183791D01*
X0053123Y0183810D01*
X0053201Y0183825D01*
X0053279Y0183836D01*
X0053358Y0183843D01*
X0053437Y0183846D01*
X0053516Y0183845D01*
X0053595Y0183840D01*
X0053674Y0183831D01*
X0053752Y0183818D01*
X0053829Y0183801D01*
X0053906Y0183781D01*
X0053981Y0183756D01*
X0054055Y0183728D01*
X0054128Y0183696D01*
X0054198Y0183661D01*
X0054267Y0183622D01*
X0054334Y0183579D01*
X0054399Y0183533D01*
X0054461Y0183485D01*
X0054521Y0183433D01*
X0054578Y0183378D01*
X0054632Y0183320D01*
X0054683Y0183260D01*
X0054731Y0183197D01*
X0054776Y0183132D01*
X0054818Y0183064D01*
X0054856Y0182995D01*
X0054890Y0182924D01*
X0054921Y0182851D01*
X0054949Y0182776D01*
X0054972Y0182701D01*
X0054992Y0182624D01*
X0055008Y0182547D01*
X0055020Y0182468D01*
X0055028Y0182390D01*
X0055032Y0182311D01*
X0055032Y0182231D01*
X0055028Y0182152D01*
X0055020Y0182074D01*
X0055008Y0181995D01*
X0054992Y0181918D01*
X0054972Y0181841D01*
X0054949Y0181766D01*
X0054921Y0181691D01*
X0054890Y0181618D01*
X0054856Y0181547D01*
X0054818Y0181478D01*
X0054776Y0181410D01*
X0054731Y0181345D01*
X0054683Y0181282D01*
X0054632Y0181222D01*
X0054578Y0181164D01*
X0054521Y0181109D01*
X0054461Y0181057D01*
X0054399Y0181009D01*
X0054334Y0180963D01*
X0054267Y0180920D01*
X0054198Y0180881D01*
X0054128Y0180846D01*
X0054055Y0180814D01*
X0053981Y0180786D01*
X0053906Y0180761D01*
X0053829Y0180741D01*
X0053752Y0180724D01*
X0053674Y0180711D01*
X0053595Y0180702D01*
X0053516Y0180697D01*
X0053437Y0180696D01*
X0053358Y0180699D01*
X0053279Y0180706D01*
X0053201Y0180717D01*
X0053123Y0180732D01*
X0053046Y0180751D01*
X0052970Y0180773D01*
X0052896Y0180799D01*
X0052822Y0180829D01*
X0052751Y0180863D01*
X0052681Y0180900D01*
X0052613Y0180941D01*
X0052547Y0180985D01*
X0052484Y0181033D01*
X0052423Y0181083D01*
X0052364Y0181137D01*
X0052309Y0181193D01*
X0052256Y0181252D01*
X0052206Y0181314D01*
X0052160Y0181378D01*
X0052117Y0181444D01*
X0052077Y0181512D01*
X0052040Y0181583D01*
X0052008Y0181655D01*
X0051978Y0181728D01*
X0051953Y0181803D01*
X0051931Y0181879D01*
X0051914Y0181956D01*
X0051900Y0182034D01*
X0051890Y0182113D01*
X0051884Y0182192D01*
X0051882Y0182271D01*
X0007197Y0232861D02*
X0007199Y0232940D01*
X0007205Y0233019D01*
X0007215Y0233098D01*
X0007229Y0233176D01*
X0007246Y0233253D01*
X0007268Y0233329D01*
X0007293Y0233404D01*
X0007323Y0233477D01*
X0007355Y0233549D01*
X0007392Y0233620D01*
X0007432Y0233688D01*
X0007475Y0233754D01*
X0007521Y0233818D01*
X0007571Y0233880D01*
X0007624Y0233939D01*
X0007679Y0233995D01*
X0007738Y0234049D01*
X0007799Y0234099D01*
X0007862Y0234147D01*
X0007928Y0234191D01*
X0007996Y0234232D01*
X0008066Y0234269D01*
X0008137Y0234303D01*
X0008211Y0234333D01*
X0008285Y0234359D01*
X0008361Y0234381D01*
X0008438Y0234400D01*
X0008516Y0234415D01*
X0008594Y0234426D01*
X0008673Y0234433D01*
X0008752Y0234436D01*
X0008831Y0234435D01*
X0008910Y0234430D01*
X0008989Y0234421D01*
X0009067Y0234408D01*
X0009144Y0234391D01*
X0009221Y0234371D01*
X0009296Y0234346D01*
X0009370Y0234318D01*
X0009443Y0234286D01*
X0009513Y0234251D01*
X0009582Y0234212D01*
X0009649Y0234169D01*
X0009714Y0234123D01*
X0009776Y0234075D01*
X0009836Y0234023D01*
X0009893Y0233968D01*
X0009947Y0233910D01*
X0009998Y0233850D01*
X0010046Y0233787D01*
X0010091Y0233722D01*
X0010133Y0233654D01*
X0010171Y0233585D01*
X0010205Y0233514D01*
X0010236Y0233441D01*
X0010264Y0233366D01*
X0010287Y0233291D01*
X0010307Y0233214D01*
X0010323Y0233137D01*
X0010335Y0233058D01*
X0010343Y0232980D01*
X0010347Y0232901D01*
X0010347Y0232821D01*
X0010343Y0232742D01*
X0010335Y0232664D01*
X0010323Y0232585D01*
X0010307Y0232508D01*
X0010287Y0232431D01*
X0010264Y0232356D01*
X0010236Y0232281D01*
X0010205Y0232208D01*
X0010171Y0232137D01*
X0010133Y0232068D01*
X0010091Y0232000D01*
X0010046Y0231935D01*
X0009998Y0231872D01*
X0009947Y0231812D01*
X0009893Y0231754D01*
X0009836Y0231699D01*
X0009776Y0231647D01*
X0009714Y0231599D01*
X0009649Y0231553D01*
X0009582Y0231510D01*
X0009513Y0231471D01*
X0009443Y0231436D01*
X0009370Y0231404D01*
X0009296Y0231376D01*
X0009221Y0231351D01*
X0009144Y0231331D01*
X0009067Y0231314D01*
X0008989Y0231301D01*
X0008910Y0231292D01*
X0008831Y0231287D01*
X0008752Y0231286D01*
X0008673Y0231289D01*
X0008594Y0231296D01*
X0008516Y0231307D01*
X0008438Y0231322D01*
X0008361Y0231341D01*
X0008285Y0231363D01*
X0008211Y0231389D01*
X0008137Y0231419D01*
X0008066Y0231453D01*
X0007996Y0231490D01*
X0007928Y0231531D01*
X0007862Y0231575D01*
X0007799Y0231623D01*
X0007738Y0231673D01*
X0007679Y0231727D01*
X0007624Y0231783D01*
X0007571Y0231842D01*
X0007521Y0231904D01*
X0007475Y0231968D01*
X0007432Y0232034D01*
X0007392Y0232102D01*
X0007355Y0232173D01*
X0007323Y0232245D01*
X0007293Y0232318D01*
X0007268Y0232393D01*
X0007246Y0232469D01*
X0007229Y0232546D01*
X0007215Y0232624D01*
X0007205Y0232703D01*
X0007199Y0232782D01*
X0007197Y0232861D01*
X0264677Y0232861D02*
X0264679Y0232940D01*
X0264685Y0233019D01*
X0264695Y0233098D01*
X0264709Y0233176D01*
X0264726Y0233253D01*
X0264748Y0233329D01*
X0264773Y0233404D01*
X0264803Y0233477D01*
X0264835Y0233549D01*
X0264872Y0233620D01*
X0264912Y0233688D01*
X0264955Y0233754D01*
X0265001Y0233818D01*
X0265051Y0233880D01*
X0265104Y0233939D01*
X0265159Y0233995D01*
X0265218Y0234049D01*
X0265279Y0234099D01*
X0265342Y0234147D01*
X0265408Y0234191D01*
X0265476Y0234232D01*
X0265546Y0234269D01*
X0265617Y0234303D01*
X0265691Y0234333D01*
X0265765Y0234359D01*
X0265841Y0234381D01*
X0265918Y0234400D01*
X0265996Y0234415D01*
X0266074Y0234426D01*
X0266153Y0234433D01*
X0266232Y0234436D01*
X0266311Y0234435D01*
X0266390Y0234430D01*
X0266469Y0234421D01*
X0266547Y0234408D01*
X0266624Y0234391D01*
X0266701Y0234371D01*
X0266776Y0234346D01*
X0266850Y0234318D01*
X0266923Y0234286D01*
X0266993Y0234251D01*
X0267062Y0234212D01*
X0267129Y0234169D01*
X0267194Y0234123D01*
X0267256Y0234075D01*
X0267316Y0234023D01*
X0267373Y0233968D01*
X0267427Y0233910D01*
X0267478Y0233850D01*
X0267526Y0233787D01*
X0267571Y0233722D01*
X0267613Y0233654D01*
X0267651Y0233585D01*
X0267685Y0233514D01*
X0267716Y0233441D01*
X0267744Y0233366D01*
X0267767Y0233291D01*
X0267787Y0233214D01*
X0267803Y0233137D01*
X0267815Y0233058D01*
X0267823Y0232980D01*
X0267827Y0232901D01*
X0267827Y0232821D01*
X0267823Y0232742D01*
X0267815Y0232664D01*
X0267803Y0232585D01*
X0267787Y0232508D01*
X0267767Y0232431D01*
X0267744Y0232356D01*
X0267716Y0232281D01*
X0267685Y0232208D01*
X0267651Y0232137D01*
X0267613Y0232068D01*
X0267571Y0232000D01*
X0267526Y0231935D01*
X0267478Y0231872D01*
X0267427Y0231812D01*
X0267373Y0231754D01*
X0267316Y0231699D01*
X0267256Y0231647D01*
X0267194Y0231599D01*
X0267129Y0231553D01*
X0267062Y0231510D01*
X0266993Y0231471D01*
X0266923Y0231436D01*
X0266850Y0231404D01*
X0266776Y0231376D01*
X0266701Y0231351D01*
X0266624Y0231331D01*
X0266547Y0231314D01*
X0266469Y0231301D01*
X0266390Y0231292D01*
X0266311Y0231287D01*
X0266232Y0231286D01*
X0266153Y0231289D01*
X0266074Y0231296D01*
X0265996Y0231307D01*
X0265918Y0231322D01*
X0265841Y0231341D01*
X0265765Y0231363D01*
X0265691Y0231389D01*
X0265617Y0231419D01*
X0265546Y0231453D01*
X0265476Y0231490D01*
X0265408Y0231531D01*
X0265342Y0231575D01*
X0265279Y0231623D01*
X0265218Y0231673D01*
X0265159Y0231727D01*
X0265104Y0231783D01*
X0265051Y0231842D01*
X0265001Y0231904D01*
X0264955Y0231968D01*
X0264912Y0232034D01*
X0264872Y0232102D01*
X0264835Y0232173D01*
X0264803Y0232245D01*
X0264773Y0232318D01*
X0264748Y0232393D01*
X0264726Y0232469D01*
X0264709Y0232546D01*
X0264695Y0232624D01*
X0264685Y0232703D01*
X0264679Y0232782D01*
X0264677Y0232861D01*
X0264677Y0084042D02*
X0264679Y0084121D01*
X0264685Y0084200D01*
X0264695Y0084279D01*
X0264709Y0084357D01*
X0264726Y0084434D01*
X0264748Y0084510D01*
X0264773Y0084585D01*
X0264803Y0084658D01*
X0264835Y0084730D01*
X0264872Y0084801D01*
X0264912Y0084869D01*
X0264955Y0084935D01*
X0265001Y0084999D01*
X0265051Y0085061D01*
X0265104Y0085120D01*
X0265159Y0085176D01*
X0265218Y0085230D01*
X0265279Y0085280D01*
X0265342Y0085328D01*
X0265408Y0085372D01*
X0265476Y0085413D01*
X0265546Y0085450D01*
X0265617Y0085484D01*
X0265691Y0085514D01*
X0265765Y0085540D01*
X0265841Y0085562D01*
X0265918Y0085581D01*
X0265996Y0085596D01*
X0266074Y0085607D01*
X0266153Y0085614D01*
X0266232Y0085617D01*
X0266311Y0085616D01*
X0266390Y0085611D01*
X0266469Y0085602D01*
X0266547Y0085589D01*
X0266624Y0085572D01*
X0266701Y0085552D01*
X0266776Y0085527D01*
X0266850Y0085499D01*
X0266923Y0085467D01*
X0266993Y0085432D01*
X0267062Y0085393D01*
X0267129Y0085350D01*
X0267194Y0085304D01*
X0267256Y0085256D01*
X0267316Y0085204D01*
X0267373Y0085149D01*
X0267427Y0085091D01*
X0267478Y0085031D01*
X0267526Y0084968D01*
X0267571Y0084903D01*
X0267613Y0084835D01*
X0267651Y0084766D01*
X0267685Y0084695D01*
X0267716Y0084622D01*
X0267744Y0084547D01*
X0267767Y0084472D01*
X0267787Y0084395D01*
X0267803Y0084318D01*
X0267815Y0084239D01*
X0267823Y0084161D01*
X0267827Y0084082D01*
X0267827Y0084002D01*
X0267823Y0083923D01*
X0267815Y0083845D01*
X0267803Y0083766D01*
X0267787Y0083689D01*
X0267767Y0083612D01*
X0267744Y0083537D01*
X0267716Y0083462D01*
X0267685Y0083389D01*
X0267651Y0083318D01*
X0267613Y0083249D01*
X0267571Y0083181D01*
X0267526Y0083116D01*
X0267478Y0083053D01*
X0267427Y0082993D01*
X0267373Y0082935D01*
X0267316Y0082880D01*
X0267256Y0082828D01*
X0267194Y0082780D01*
X0267129Y0082734D01*
X0267062Y0082691D01*
X0266993Y0082652D01*
X0266923Y0082617D01*
X0266850Y0082585D01*
X0266776Y0082557D01*
X0266701Y0082532D01*
X0266624Y0082512D01*
X0266547Y0082495D01*
X0266469Y0082482D01*
X0266390Y0082473D01*
X0266311Y0082468D01*
X0266232Y0082467D01*
X0266153Y0082470D01*
X0266074Y0082477D01*
X0265996Y0082488D01*
X0265918Y0082503D01*
X0265841Y0082522D01*
X0265765Y0082544D01*
X0265691Y0082570D01*
X0265617Y0082600D01*
X0265546Y0082634D01*
X0265476Y0082671D01*
X0265408Y0082712D01*
X0265342Y0082756D01*
X0265279Y0082804D01*
X0265218Y0082854D01*
X0265159Y0082908D01*
X0265104Y0082964D01*
X0265051Y0083023D01*
X0265001Y0083085D01*
X0264955Y0083149D01*
X0264912Y0083215D01*
X0264872Y0083283D01*
X0264835Y0083354D01*
X0264803Y0083426D01*
X0264773Y0083499D01*
X0264748Y0083574D01*
X0264726Y0083650D01*
X0264709Y0083727D01*
X0264695Y0083805D01*
X0264685Y0083884D01*
X0264679Y0083963D01*
X0264677Y0084042D01*
M02*
